<svg xmlns="http://www.w3.org/2000/svg" xmlns:xlink="http://www.w3.org/1999/xlink" version="1.1" x="0" y="0" height="230" width="800" viewBox="0 0 800 230" preserveAspectRatio="none"  >
<g label="Query sequence" class="clusterblast-cluster"  >
<text x="5" y="20" class="clusterblast-acc"  >
Query sequence</text>
<line x1="10" y1="35" x2="778.0" y2="35" style="stroke-width:1; stroke:grey; "  />
<polygon points="1,35 6,30 99,30 99,40 6,40 1,35 " style="fill:#d81515; stroke-width:1; stroke:black; " description="&lt;b&gt;CCIMNIEH_1214108&lt;/b&gt;&lt;br&gt;unannotated protein&lt;br&gt;Location: 0 - 915" locus_tag="CCIMNIEH_1214108" class="clusterblast-orf" id="dummy-1_q0_0_all"  />
<polygon points="98,35 103,30 197,30 197,40 103,40 98,35 " style="fill:#15d815; stroke-width:1; stroke:black; " description="&lt;b&gt;CCIMNIEH_1214109&lt;/b&gt;&lt;br&gt;unannotated protein&lt;br&gt;Location: 911 - 1832" locus_tag="CCIMNIEH_1214109" class="clusterblast-orf" id="dummy-1_q1_0_all"  />
<polygon points="200,35 205,30 244,30 244,40 205,40 200,35 " style="fill:#1515d8; stroke-width:1; stroke:black; " description="&lt;b&gt;CCIMNIEH_1214110&lt;/b&gt;&lt;br&gt;unannotated protein&lt;br&gt;Location: 1856 - 2270" locus_tag="CCIMNIEH_1214110" class="clusterblast-orf" id="dummy-1_q2_0_all"  />
<polygon points="246,35 251,30 386,30 386,40 251,40 246,35 " style="fill:#d815d8; stroke-width:1; stroke:black; " description="&lt;b&gt;CCIMNIEH_1214111&lt;/b&gt;&lt;br&gt;unannotated protein&lt;br&gt;Location: 2280 - 3588" locus_tag="CCIMNIEH_1214111" class="clusterblast-orf" id="dummy-1_q3_0_all"  />
<polygon points="386,35 391,30 437,30 437,40 391,40 386,35 " style="fill:#d8d815; stroke-width:1; stroke:black; " description="&lt;b&gt;CCIMNIEH_1214112&lt;/b&gt;&lt;br&gt;unannotated protein&lt;br&gt;Location: 3584 - 4061" locus_tag="CCIMNIEH_1214112" class="clusterblast-orf" id="dummy-1_q4_0_all"  />
<polygon points="467,40 518,40 523,35 518,30 467,30 467,40 " style="fill:#15d8d8; stroke-width:1; stroke:black; " description="&lt;b&gt;CCIMNIEH_1214113&lt;/b&gt;&lt;br&gt;unannotated protein&lt;br&gt;Location: 4341 - 4866" locus_tag="CCIMNIEH_1214113" class="clusterblast-orf" id="dummy-1_q5_0_all"  />
<polygon points="523,35 528,30 564,30 564,40 528,40 523,35 " style="fill:white; stroke-width:1; stroke:black; " description="&lt;b&gt;CCIMNIEH_1214114&lt;/b&gt;&lt;br&gt;unannotated protein&lt;br&gt;Location: 4866 - 5244" locus_tag="CCIMNIEH_1214114" class="clusterblast-orf" id="dummy-1_q6_0_all"  />
<polygon points="590,40 647,40 652,35 647,30 590,30 590,40 " style="fill:white; stroke-width:1; stroke:black; " description="&lt;b&gt;CCIMNIEH_1214115&lt;/b&gt;&lt;br&gt;unannotated protein&lt;br&gt;Location: 5483 - 6062" locus_tag="CCIMNIEH_1214115" class="clusterblast-orf" id="dummy-1_q7_0_all"  />
<polygon points="673,40 732,40 737,35 732,30 673,30 673,40 " style="fill:white; stroke-width:1; stroke:black; " description="&lt;b&gt;CCIMNIEH_1214116&lt;/b&gt;&lt;br&gt;unannotated protein&lt;br&gt;Location: 6259 - 6856" locus_tag="CCIMNIEH_1214116" class="clusterblast-orf" id="dummy-1_q8_0_all"  />
<polygon points="737,40 776,40 781,35 776,30 737,30 737,40 " style="fill:white; stroke-width:1; stroke:black; " description="&lt;b&gt;CCIMNIEH_1214117&lt;/b&gt;&lt;br&gt;unannotated protein&lt;br&gt;Location: 6855 - 7260" locus_tag="CCIMNIEH_1214117" class="clusterblast-orf" id="dummy-1_q9_0_all"  />
</g>
<g label="BGC0000854" description="BGC0000854_c1: ectoine (83% of genes show similarity), Other" class="clusterblast-cluster"  >
<text x="5" y="70" class="clusterblast-acc"  >
<a xlink:href="https://mibig.secondarymetabolites.org/go/BGC0000854/1" target="_blank">BGC0000854</a>:                                                                          ectoine (83% of genes show similarity), Other</text>
<line x1="10" y1="85" x2="778.0" y2="85" style="stroke-width:1; stroke:grey; "  />
</g>
<g id="a1_000"  >
<polygon points="65,85 70,80 168,80 168,90 70,90 65,85 " style="fill:#15d815; stroke-width:1; stroke:black; " description="&lt;b&gt;AAY96769.2&lt;/b&gt;&lt;br&gt;putative ectoine hydroxylase&lt;br&gt;Location: 6879 - 5920&lt;br&gt;&lt;br&gt;&lt;b&gt;BlastP hit with CCIMNIEH_1214109&lt;/b&gt;&lt;br&gt;Percentage identity: 54&lt;br&gt;Percentage coverage: 100&lt;br&gt;BLAST bit score: 343&lt;br&gt;E-value: 3e-94" locus_tag="AAY96769.2" class="clusterblast-orf" id="dummy-1_h1_1_0"  />
</g>
<g id="a1_001"  >
<polygon points="207,85 212,80 362,80 362,90 212,90 207,85 " style="fill:#d81515; stroke-width:1; stroke:black; " description="&lt;b&gt;AAY96773.1&lt;/b&gt;&lt;br&gt;aspartokinase&lt;br&gt;Location: 5559 - 4117&lt;br&gt;&lt;br&gt;&lt;b&gt;BlastP hit with CCIMNIEH_1214108&lt;/b&gt;&lt;br&gt;Percentage identity: 59&lt;br&gt;Percentage coverage: 99&lt;br&gt;BLAST bit score: 345&lt;br&gt;E-value: 7.8e-95" locus_tag="AAY96773.1" class="clusterblast-orf" id="dummy-1_h1_1_1"  />
</g>
<g id="a1_002"  >
<polygon points="368,85 373,80 412,80 412,90 373,90 368,85 " style="fill:#1515d8; stroke-width:1; stroke:black; " description="&lt;b&gt;AAY96772.1&lt;/b&gt;&lt;br&gt;ectoine synthase&lt;br&gt;Location: 4056 - 3652&lt;br&gt;&lt;br&gt;&lt;b&gt;BlastP hit with CCIMNIEH_1214110&lt;/b&gt;&lt;br&gt;Percentage identity: 53&lt;br&gt;Percentage coverage: 96&lt;br&gt;BLAST bit score: 147&lt;br&gt;E-value: 1.4e-35" locus_tag="AAY96772.1" class="clusterblast-orf" id="dummy-1_h1_1_2"  />
</g>
<g id="a1_003"  >
<polygon points="417,85 422,80 560,80 560,90 422,90 417,85 " style="fill:#d815d8; stroke-width:1; stroke:black; " description="&lt;b&gt;AAY96771.1&lt;/b&gt;&lt;br&gt;L-2,4-diaminobutyrat transaminase&lt;br&gt;Location: 3601 - 2270&lt;br&gt;&lt;br&gt;&lt;b&gt;BlastP hit with CCIMNIEH_1214111&lt;/b&gt;&lt;br&gt;Percentage identity: 61&lt;br&gt;Percentage coverage: 94&lt;br&gt;BLAST bit score: 518&lt;br&gt;E-value: 9.6e-147" locus_tag="AAY96771.1" class="clusterblast-orf" id="dummy-1_h1_1_3"  />
</g>
<g id="a1_004"  >
<polygon points="565,85 570,80 620,80 620,90 570,90 565,85 " style="fill:#d8d815; stroke-width:1; stroke:black; " description="&lt;b&gt;AAY96770.1&lt;/b&gt;&lt;br&gt;L-2,4-diaminobutyrat acetyltransferase&lt;br&gt;Location: 2227 - 1709&lt;br&gt;&lt;br&gt;&lt;b&gt;BlastP hit with CCIMNIEH_1214112&lt;/b&gt;&lt;br&gt;Percentage identity: 51&lt;br&gt;Percentage coverage: 91&lt;br&gt;BLAST bit score: 160&lt;br&gt;E-value: 3.2e-39" locus_tag="AAY96770.1" class="clusterblast-orf" id="dummy-1_h1_1_4"  />
</g>
<g id="a1_005"  >
<polygon points="656,90 709,90 714,85 709,80 656,80 656,90 " style="fill:white; stroke-width:1; stroke:black; " description="&lt;b&gt;ACP19701.1&lt;/b&gt;&lt;br&gt;transcriptional regulator MarR family&lt;br&gt;Location: 1381 - 839" locus_tag="ACP19701.1" class="clusterblast-orf" id="dummy-1_h1_1_5"  />
</g>
</svg>
