<svg xmlns="http://www.w3.org/2000/svg" xmlns:xlink="http://www.w3.org/1999/xlink" version="1.1" x="0" y="0" height="50" width="800" viewBox="0 0 800 50" preserveAspectRatio="none"  >
<g label="Query sequence" class="clusterblast-cluster"  >
<text x="5" y="20" class="clusterblast-acc"  >
Query sequence</text>
<line x1="10" y1="35" x2="778.0" y2="35" style="stroke-width:1; stroke:grey; "  />
<polygon points="0,35 5,30 9,30 9,40 5,40 0,35 " style="fill:white; stroke-width:1; stroke:black; " description="&lt;b&gt;CCIMNIEH_2865194&lt;/b&gt;&lt;br&gt;unannotated protein&lt;br&gt;Location: 1 - 187" locus_tag="CCIMNIEH_2865194" class="clusterblast-orf" id="knownclusterblast-1_q0_0_all"  />
<polygon points="9,35 14,30 58,30 58,40 14,40 9,35 " style="fill:white; stroke-width:1; stroke:black; " description="&lt;b&gt;CCIMNIEH_2865195&lt;/b&gt;&lt;br&gt;unannotated protein&lt;br&gt;Location: 194 - 1253" locus_tag="CCIMNIEH_2865195" class="clusterblast-orf" id="knownclusterblast-1_q1_0_all"  />
<polygon points="65,40 93,40 98,35 93,30 65,30 65,40 " style="fill:white; stroke-width:1; stroke:black; " description="&lt;b&gt;CCIMNIEH_2865196&lt;/b&gt;&lt;br&gt;unannotated protein&lt;br&gt;Location: 1414 - 2125" locus_tag="CCIMNIEH_2865196" class="clusterblast-orf" id="knownclusterblast-1_q2_0_all"  />
<polygon points="98,35 103,30 195,30 195,40 103,40 98,35 " style="fill:white; stroke-width:1; stroke:black; " description="&lt;b&gt;CCIMNIEH_2865197&lt;/b&gt;&lt;br&gt;unannotated protein&lt;br&gt;Location: 2129 - 4211" locus_tag="CCIMNIEH_2865197" class="clusterblast-orf" id="knownclusterblast-1_q3_0_all"  />
<polygon points="195,35 200,30 240,30 240,40 200,40 195,35 " style="fill:white; stroke-width:1; stroke:black; " description="&lt;b&gt;CCIMNIEH_2865198&lt;/b&gt;&lt;br&gt;unannotated protein&lt;br&gt;Location: 4218 - 5184" locus_tag="CCIMNIEH_2865198" class="clusterblast-orf" id="knownclusterblast-1_q4_0_all"  />
<polygon points="245,40 252,40 257,35 252,30 245,30 245,40 " style="fill:white; stroke-width:1; stroke:black; " description="&lt;b&gt;CCIMNIEH_2865199&lt;/b&gt;&lt;br&gt;unannotated protein&lt;br&gt;Location: 5295 - 5565" locus_tag="CCIMNIEH_2865199" class="clusterblast-orf" id="knownclusterblast-1_q5_0_all"  />
<polygon points="257,35 262,30 302,30 302,40 262,40 257,35 " style="fill:white; stroke-width:1; stroke:black; " description="&lt;b&gt;CCIMNIEH_2865200&lt;/b&gt;&lt;br&gt;unannotated protein&lt;br&gt;Location: 5569 - 6526" locus_tag="CCIMNIEH_2865200" class="clusterblast-orf" id="knownclusterblast-1_q6_0_all"  />
<polygon points="310,40 468,40 473,35 468,30 310,30 310,40 " style="fill:white; stroke-width:1; stroke:black; " description="&lt;b&gt;CCIMNIEH_2865201&lt;/b&gt;&lt;br&gt;unannotated protein&lt;br&gt;Location: 6696 - 10224" locus_tag="CCIMNIEH_2865201" class="clusterblast-orf" id="knownclusterblast-1_q7_0_all"  />
<polygon points="473,35 478,30 506,30 506,40 478,40 473,35 " style="fill:white; stroke-width:1; stroke:black; " description="&lt;b&gt;CCIMNIEH_2865202&lt;/b&gt;&lt;br&gt;unannotated protein&lt;br&gt;Location: 10220 - 10952" locus_tag="CCIMNIEH_2865202" class="clusterblast-orf" id="knownclusterblast-1_q8_0_all"  />
<polygon points="508,35 513,30 538,30 538,40 513,40 508,35 " style="fill:white; stroke-width:1; stroke:black; " description="&lt;b&gt;CCIMNIEH_2865203&lt;/b&gt;&lt;br&gt;unannotated protein&lt;br&gt;Location: 10986 - 11631" locus_tag="CCIMNIEH_2865203" class="clusterblast-orf" id="knownclusterblast-1_q9_0_all"  />
<polygon points="543,40 614,40 619,35 614,30 543,30 543,40 " style="fill:white; stroke-width:1; stroke:black; " description="&lt;b&gt;CCIMNIEH_2865204&lt;/b&gt;&lt;br&gt;unannotated protein&lt;br&gt;Location: 11751 - 13395" locus_tag="CCIMNIEH_2865204" class="clusterblast-orf" id="knownclusterblast-1_q10_0_all"  />
<polygon points="619,40 650,40 655,35 650,30 619,30 619,40 " style="fill:white; stroke-width:1; stroke:black; " description="&lt;b&gt;CCIMNIEH_2865205&lt;/b&gt;&lt;br&gt;unannotated protein&lt;br&gt;Location: 13394 - 14159" locus_tag="CCIMNIEH_2865205" class="clusterblast-orf" id="knownclusterblast-1_q11_0_all"  />
<polygon points="655,35 660,30 697,30 697,40 660,40 655,35 " style="fill:white; stroke-width:1; stroke:black; " description="&lt;b&gt;CCIMNIEH_2865206&lt;/b&gt;&lt;br&gt;unannotated protein&lt;br&gt;Location: 14159 - 15074" locus_tag="CCIMNIEH_2865206" class="clusterblast-orf" id="knownclusterblast-1_q12_0_all"  />
<polygon points="702,40 741,40 746,35 741,30 702,30 702,40 " style="fill:white; stroke-width:1; stroke:black; " description="&lt;b&gt;CCIMNIEH_2865207&lt;/b&gt;&lt;br&gt;unannotated protein&lt;br&gt;Location: 15191 - 16127" locus_tag="CCIMNIEH_2865207" class="clusterblast-orf" id="knownclusterblast-1_q13_0_all"  />
<polygon points="746,35 751,30 780,30 780,40 751,40 746,35 " style="fill:white; stroke-width:1; stroke:black; " description="&lt;b&gt;CCIMNIEH_2865208&lt;/b&gt;&lt;br&gt;unannotated protein&lt;br&gt;Location: 16130 - 16868" locus_tag="CCIMNIEH_2865208" class="clusterblast-orf" id="knownclusterblast-1_q14_0_all"  />
</g>
</svg>
