<svg xmlns="http://www.w3.org/2000/svg" xmlns:xlink="http://www.w3.org/1999/xlink" version="1.1" x="0" y="0" height="230" width="800" viewBox="0 0 800 230" preserveAspectRatio="none"  >
<g label="Query sequence" class="clusterblast-cluster"  >
<text x="5" y="20" class="clusterblast-acc"  >
Query sequence</text>
<line x1="10" y1="35" x2="778.0" y2="35" style="stroke-width:1; stroke:grey; "  />
<polygon points="18,40 61,40 66,35 61,30 18,30 18,40 " style="fill:white; stroke-width:1; stroke:black; " description="&lt;b&gt;CCIMNIEH_2895918&lt;/b&gt;&lt;br&gt;unannotated protein&lt;br&gt;Location: 1 - 1147" locus_tag="CCIMNIEH_2895918" class="clusterblast-orf" id="dummy-1_q0_0_all"  />
<polygon points="71,40 97,40 102,35 97,30 71,30 71,40 " style="fill:#d81515; stroke-width:1; stroke:black; " description="&lt;b&gt;CCIMNIEH_2895919&lt;/b&gt;&lt;br&gt;unannotated protein&lt;br&gt;Location: 1278 - 2013" locus_tag="CCIMNIEH_2895919" class="clusterblast-orf" id="dummy-1_q1_0_all"  />
<polygon points="102,40 137,40 142,35 137,30 102,30 102,40 " style="fill:white; stroke-width:1; stroke:black; " description="&lt;b&gt;CCIMNIEH_2895920&lt;/b&gt;&lt;br&gt;unannotated protein&lt;br&gt;Location: 2009 - 2951" locus_tag="CCIMNIEH_2895920" class="clusterblast-orf" id="dummy-1_q2_0_all"  />
<polygon points="141,40 201,40 206,35 201,30 141,30 141,40 " style="fill:#4dd815; stroke-width:1; stroke:black; " description="&lt;b&gt;CCIMNIEH_2895921&lt;/b&gt;&lt;br&gt;unannotated protein&lt;br&gt;Location: 2931 - 4476" locus_tag="CCIMNIEH_2895921" class="clusterblast-orf" id="dummy-1_q3_0_all"  />
<polygon points="206,40 219,40 224,35 219,30 206,30 206,40 " style="fill:#1585d8; stroke-width:1; stroke:black; " description="&lt;b&gt;CCIMNIEH_2895922&lt;/b&gt;&lt;br&gt;unannotated protein&lt;br&gt;Location: 4468 - 4894" locus_tag="CCIMNIEH_2895922" class="clusterblast-orf" id="dummy-1_q4_0_all"  />
<polygon points="223,40 249,40 254,35 249,30 223,30 223,40 " style="fill:white; stroke-width:1; stroke:black; " description="&lt;b&gt;CCIMNIEH_2895923&lt;/b&gt;&lt;br&gt;unannotated protein&lt;br&gt;Location: 4890 - 5610" locus_tag="CCIMNIEH_2895923" class="clusterblast-orf" id="dummy-1_q5_0_all"  />
<polygon points="253,40 347,40 352,35 347,30 253,30 253,40 " style="fill:white; stroke-width:1; stroke:black; " description="&lt;b&gt;CCIMNIEH_2895924&lt;/b&gt;&lt;br&gt;unannotated protein&lt;br&gt;Location: 5593 - 7933" locus_tag="CCIMNIEH_2895924" class="clusterblast-orf" id="dummy-1_q6_0_all"  />
<polygon points="351,40 395,40 400,35 395,30 351,30 351,40 " style="fill:white; stroke-width:1; stroke:black; " description="&lt;b&gt;CCIMNIEH_2895925&lt;/b&gt;&lt;br&gt;unannotated protein&lt;br&gt;Location: 7929 - 9090" locus_tag="CCIMNIEH_2895925" class="clusterblast-orf" id="dummy-1_q7_0_all"  />
<polygon points="400,40 447,40 452,35 447,30 400,30 400,40 " style="fill:#d815bc; stroke-width:1; stroke:black; " description="&lt;b&gt;CCIMNIEH_2895926&lt;/b&gt;&lt;br&gt;unannotated protein&lt;br&gt;Location: 9076 - 10324" locus_tag="CCIMNIEH_2895926" class="clusterblast-orf" id="dummy-1_q8_0_all"  />
<polygon points="452,40 477,40 482,35 477,30 452,30 452,40 " style="fill:white; stroke-width:1; stroke:black; " description="&lt;b&gt;CCIMNIEH_2895927&lt;/b&gt;&lt;br&gt;unannotated protein&lt;br&gt;Location: 10320 - 11046" locus_tag="CCIMNIEH_2895927" class="clusterblast-orf" id="dummy-1_q9_0_all"  />
<polygon points="482,40 503,40 508,35 503,30 482,30 482,40 " style="fill:white; stroke-width:1; stroke:black; " description="&lt;b&gt;CCIMNIEH_2895928&lt;/b&gt;&lt;br&gt;unannotated protein&lt;br&gt;Location: 11045 - 11663" locus_tag="CCIMNIEH_2895928" class="clusterblast-orf" id="dummy-1_q10_0_all"  />
<polygon points="508,40 554,40 559,35 554,30 508,30 508,40 " style="fill:#d8bc15; stroke-width:1; stroke:black; " description="&lt;b&gt;CCIMNIEH_2895929&lt;/b&gt;&lt;br&gt;unannotated protein&lt;br&gt;Location: 11659 - 12856" locus_tag="CCIMNIEH_2895929" class="clusterblast-orf" id="dummy-1_q11_0_all"  />
<polygon points="558,40 573,40 578,35 573,30 558,30 558,40 " style="fill:white; stroke-width:1; stroke:black; " description="&lt;b&gt;CCIMNIEH_2895930&lt;/b&gt;&lt;br&gt;unannotated protein&lt;br&gt;Location: 12852 - 13326" locus_tag="CCIMNIEH_2895930" class="clusterblast-orf" id="dummy-1_q12_0_all"  />
<polygon points="578,40 604,40 609,35 604,30 578,30 578,40 " style="fill:#15d885; stroke-width:1; stroke:black; " description="&lt;b&gt;CCIMNIEH_2895931&lt;/b&gt;&lt;br&gt;unannotated protein&lt;br&gt;Location: 13322 - 14051" locus_tag="CCIMNIEH_2895931" class="clusterblast-orf" id="dummy-1_q13_0_all"  />
<polygon points="609,40 656,40 661,35 656,30 609,30 609,40 " style="fill:#4d15d8; stroke-width:1; stroke:black; " description="&lt;b&gt;CCIMNIEH_2895932&lt;/b&gt;&lt;br&gt;unannotated protein&lt;br&gt;Location: 14050 - 15277" locus_tag="CCIMNIEH_2895932" class="clusterblast-orf" id="dummy-1_q14_0_all"  />
<polygon points="666,35 671,30 677,30 677,40 671,40 666,35 " style="fill:white; stroke-width:1; stroke:black; " description="&lt;b&gt;CCIMNIEH_2895933&lt;/b&gt;&lt;br&gt;unannotated protein&lt;br&gt;Location: 15410 - 15674" locus_tag="CCIMNIEH_2895933" class="clusterblast-orf" id="dummy-1_q15_0_all"  />
<polygon points="697,35 702,30 716,30 716,40 702,40 697,35 " style="fill:white; stroke-width:1; stroke:black; " description="&lt;b&gt;CCIMNIEH_2895934&lt;/b&gt;&lt;br&gt;unannotated protein&lt;br&gt;Location: 16154 - 16598" locus_tag="CCIMNIEH_2895934" class="clusterblast-orf" id="dummy-1_q16_0_all"  />
<polygon points="724,35 729,30 762,30 762,40 729,40 724,35 " style="fill:white; stroke-width:1; stroke:black; " description="&lt;b&gt;CCIMNIEH_2895935&lt;/b&gt;&lt;br&gt;unannotated protein&lt;br&gt;Location: 16787 - 17690" locus_tag="CCIMNIEH_2895935" class="clusterblast-orf" id="dummy-1_q17_0_all"  />
</g>
<g label="BGC0000837" description="BGC0000837_c1: APE Vf (30% of genes show similarity), Other" class="clusterblast-cluster"  >
<text x="5" y="70" class="clusterblast-acc"  >
<a xlink:href="https://mibig.secondarymetabolites.org/go/BGC0000837/1" target="_blank">BGC0000837</a>:                                                                           APE Vf (30% of genes show similarity), Other</text>
<line x1="10" y1="85" x2="778.0" y2="85" style="stroke-width:1; stroke:grey; "  />
</g>
<g id="a1_000"  >
<polygon points="0,85 5,80 51,80 51,90 5,90 0,85 " style="fill:#d815bc; stroke-width:1; stroke:black; " description="&lt;b&gt;VF_0841&lt;/b&gt;&lt;br&gt;dehydrogenase&lt;br&gt;Location: 1 - 1233&lt;br&gt;&lt;br&gt;&lt;b&gt;BlastP hit with CCIMNIEH_2895926&lt;/b&gt;&lt;br&gt;Percentage identity: 55&lt;br&gt;Percentage coverage: 97&lt;br&gt;BLAST bit score: 453&lt;br&gt;E-value: 4.7e-127" locus_tag="VF_0841" class="clusterblast-orf" id="dummy-1_h1_1_0"  />
</g>
<g id="a1_001"  >
<polygon points="56,85 61,80 100,80 100,90 61,90 56,85 " style="fill:white; stroke-width:1; stroke:black; " description="&lt;b&gt;VF_0842&lt;/b&gt;&lt;br&gt;putative O-methyltransferase&lt;br&gt;Location: 1333 - 2400" locus_tag="VF_0842" class="clusterblast-orf" id="dummy-1_h1_1_1"  />
</g>
<g id="a1_002"  >
<polygon points="105,85 110,80 129,80 129,90 110,90 105,85 " style="fill:white; stroke-width:1; stroke:black; " description="&lt;b&gt;VF_0843&lt;/b&gt;&lt;br&gt;lipoprotein, putative&lt;br&gt;Location: 2504 - 3079" locus_tag="VF_0843" class="clusterblast-orf" id="dummy-1_h1_1_2"  />
</g>
<g id="a1_003"  >
<polygon points="134,90 160,90 165,85 160,80 134,80 134,90 " style="fill:white; stroke-width:1; stroke:black; " description="&lt;b&gt;VF_0844&lt;/b&gt;&lt;br&gt;hypothetical protein&lt;br&gt;Location: 3209 - 3937" locus_tag="VF_0844" class="clusterblast-orf" id="dummy-1_h1_1_3"  />
</g>
<g id="a1_004"  >
<polygon points="165,90 194,90 199,85 194,80 165,80 165,90 " style="fill:white; stroke-width:1; stroke:black; " description="&lt;b&gt;VF_0845&lt;/b&gt;&lt;br&gt;1-acyl-sn-glycerol-3-phosphate acyltransferase&lt;br&gt;Location: 3942 - 4739" locus_tag="VF_0845" class="clusterblast-orf" id="dummy-1_h1_1_4"  />
</g>
<g id="a1_005"  >
<polygon points="198,90 205,90 210,85 205,80 198,80 198,90 " style="fill:white; stroke-width:1; stroke:black; " description="&lt;b&gt;VF_0846&lt;/b&gt;&lt;br&gt;acyl carrier protein&lt;br&gt;Location: 4708 - 5004" locus_tag="VF_0846" class="clusterblast-orf" id="dummy-1_h1_1_5"  />
</g>
<g id="a1_006"  >
<polygon points="211,90 216,90 221,85 216,80 211,80 211,90 " style="fill:white; stroke-width:1; stroke:black; " description="&lt;b&gt;VF_0847&lt;/b&gt;&lt;br&gt;acyl carrier protein&lt;br&gt;Location: 5016 - 5273" locus_tag="VF_0847" class="clusterblast-orf" id="dummy-1_h1_1_6"  />
</g>
<g id="a1_007"  >
<polygon points="221,90 240,90 245,85 240,80 221,80 221,90 " style="fill:white; stroke-width:1; stroke:black; " description="&lt;b&gt;VF_0848&lt;/b&gt;&lt;br&gt;DNA gyrase subunit B&lt;br&gt;Location: 5273 - 5833" locus_tag="VF_0848" class="clusterblast-orf" id="dummy-1_h1_1_7"  />
</g>
<g id="a1_008"  >
<polygon points="243,90 297,90 302,85 297,80 243,80 243,90 " style="fill:white; stroke-width:1; stroke:black; " description="&lt;b&gt;VF_0849&lt;/b&gt;&lt;br&gt;AMP-(fatty)acid ligase&lt;br&gt;Location: 5794 - 7197" locus_tag="VF_0849" class="clusterblast-orf" id="dummy-1_h1_1_8"  />
</g>
<g id="a1_009"  >
<polygon points="303,90 314,90 319,85 314,80 303,80 303,90 " style="fill:white; stroke-width:1; stroke:black; " description="&lt;b&gt;VF_0850&lt;/b&gt;&lt;br&gt;AMP-(fatty)acid ligase&lt;br&gt;Location: 7211 - 7585" locus_tag="VF_0850" class="clusterblast-orf" id="dummy-1_h1_1_9"  />
</g>
<g id="a1_0010"  >
<polygon points="319,90 385,90 390,85 385,80 319,80 319,90 " style="fill:#d81515; stroke-width:1; stroke:black; " description="&lt;b&gt;VF_0851&lt;/b&gt;&lt;br&gt;predicted acyltransferase&lt;br&gt;Location: 7588 - 9279&lt;br&gt;&lt;br&gt;&lt;b&gt;BlastP hit with CCIMNIEH_2895919&lt;/b&gt;&lt;br&gt;Percentage identity: 50&lt;br&gt;Percentage coverage: 98&lt;br&gt;BLAST bit score: 253&lt;br&gt;E-value: 3.2e-67" locus_tag="VF_0851" class="clusterblast-orf" id="dummy-1_h1_1_10"  />
</g>
<g id="a1_0011"  >
<polygon points="389,90 449,90 454,85 449,80 389,80 389,90 " style="fill:#4dd815; stroke-width:1; stroke:black; " description="&lt;b&gt;VF_0852&lt;/b&gt;&lt;br&gt;phenylalanine and histidine ammonia-lyase&lt;br&gt;Location: 9269 - 10804&lt;br&gt;&lt;br&gt;&lt;b&gt;BlastP hit with CCIMNIEH_2895921&lt;/b&gt;&lt;br&gt;Percentage identity: 63&lt;br&gt;Percentage coverage: 99&lt;br&gt;BLAST bit score: 616&lt;br&gt;E-value: 5.2e-176" locus_tag="VF_0852" class="clusterblast-orf" id="dummy-1_h1_1_11"  />
</g>
<g id="a1_0012"  >
<polygon points="455,90 468,90 473,85 468,80 455,80 455,90 " style="fill:white; stroke-width:1; stroke:black; " description="&lt;b&gt;VF_0853&lt;/b&gt;&lt;br&gt;esterase&lt;br&gt;Location: 10816 - 11262" locus_tag="VF_0853" class="clusterblast-orf" id="dummy-1_h1_1_12"  />
</g>
<g id="a1_0013"  >
<polygon points="473,90 494,90 499,85 494,80 473,80 473,90 " style="fill:white; stroke-width:1; stroke:black; " description="&lt;b&gt;VF_0854&lt;/b&gt;&lt;br&gt;hypothetical protein&lt;br&gt;Location: 11255 - 11875" locus_tag="VF_0854" class="clusterblast-orf" id="dummy-1_h1_1_13"  />
</g>
<g id="a1_0014"  >
<polygon points="521,90 596,90 601,85 596,80 521,80 521,90 " style="fill:white; stroke-width:1; stroke:black; " description="&lt;b&gt;VF_0855&lt;/b&gt;&lt;br&gt;transporter&lt;br&gt;Location: 12397 - 14292" locus_tag="VF_0855" class="clusterblast-orf" id="dummy-1_h1_1_14"  />
</g>
<g id="a1_0015"  >
<polygon points="600,90 622,90 627,85 622,80 600,80 600,90 " style="fill:white; stroke-width:1; stroke:black; " description="&lt;b&gt;VF_0856&lt;/b&gt;&lt;br&gt;phospho-N-acetylmuramoyl-pentapeptide- transferase&lt;br&gt;Location: 14282 - 14908" locus_tag="VF_0856" class="clusterblast-orf" id="dummy-1_h1_1_15"  />
</g>
<g id="a1_0016"  >
<polygon points="627,90 672,90 677,85 672,80 627,80 627,90 " style="fill:#d8bc15; stroke-width:1; stroke:black; " description="&lt;b&gt;VF_0857&lt;/b&gt;&lt;br&gt;3-oxoacyl-(acyl carrier protein) synthase&lt;br&gt;Location: 14914 - 16101&lt;br&gt;&lt;br&gt;&lt;b&gt;BlastP hit with CCIMNIEH_2895929&lt;/b&gt;&lt;br&gt;Percentage identity: 52&lt;br&gt;Percentage coverage: 99&lt;br&gt;BLAST bit score: 383&lt;br&gt;E-value: 5.8e-106" locus_tag="VF_0857" class="clusterblast-orf" id="dummy-1_h1_1_16"  />
</g>
<g id="a1_0017"  >
<polygon points="677,90 691,90 696,85 691,80 677,80 677,90 " style="fill:white; stroke-width:1; stroke:black; " description="&lt;b&gt;VF_0858&lt;/b&gt;&lt;br&gt;predicted 3-hydroxylacyl-(acyl carrier protein) dehydratase&lt;br&gt;Location: 16092 - 16562" locus_tag="VF_0858" class="clusterblast-orf" id="dummy-1_h1_1_17"  />
</g>
<g id="a1_0018"  >
<polygon points="697,90 723,90 728,85 723,80 697,80 697,90 " style="fill:#15d885; stroke-width:1; stroke:black; " description="&lt;b&gt;VF_0859&lt;/b&gt;&lt;br&gt;3-oxoacyl-(acyl-carrier-protein) reductase, putative&lt;br&gt;Location: 16582 - 17307&lt;br&gt;&lt;br&gt;&lt;b&gt;BlastP hit with CCIMNIEH_2895931&lt;/b&gt;&lt;br&gt;Percentage identity: 62&lt;br&gt;Percentage coverage: 100&lt;br&gt;BLAST bit score: 305&lt;br&gt;E-value: 9.3e-83" locus_tag="VF_0859" class="clusterblast-orf" id="dummy-1_h1_1_18"  />
</g>
<g id="a1_0019"  >
<polygon points="728,90 775,90 780,85 775,80 728,80 728,90 " style="fill:#4d15d8; stroke-width:1; stroke:black; " description="&lt;b&gt;VF_0860&lt;/b&gt;&lt;br&gt;3-oxoacyl-(acyl carrier protein) synthase&lt;br&gt;Location: 17304 - 18539&lt;br&gt;&lt;br&gt;&lt;b&gt;BlastP hit with CCIMNIEH_2895932&lt;/b&gt;&lt;br&gt;Percentage identity: 61&lt;br&gt;Percentage coverage: 100&lt;br&gt;BLAST bit score: 511&lt;br&gt;E-value: 1.1e-144" locus_tag="VF_0860" class="clusterblast-orf" id="dummy-1_h1_1_19"  />
</g>
</svg>
