<svg xmlns="http://www.w3.org/2000/svg" xmlns:xlink="http://www.w3.org/1999/xlink" version="1.1" x="0" y="0" height="100" width="800" viewBox="0 0 800 100" preserveAspectRatio="none"  >
<g label="Query sequence" class="clusterblast-cluster"  >
<text x="5" y="20" class="clusterblast-acc"  >
Query sequence</text>
<line x1="10" y1="35" x2="778.0" y2="35" style="stroke-width:1; stroke:grey; "  />
<polygon points="248,35 253,30 262,30 262,40 253,40 248,35 " style="fill:white; stroke-width:1; stroke:black; " description="&lt;b&gt;CCIMNIEH_580218&lt;/b&gt;&lt;br&gt;unannotated protein&lt;br&gt;Location: 2 - 575" locus_tag="CCIMNIEH_580218" class="clusterblast-orf" id="knownclusterblast-1_q0_0_all"  />
<polygon points="265,35 270,30 317,30 317,40 270,40 265,35 " style="fill:white; stroke-width:1; stroke:black; " description="&lt;b&gt;CCIMNIEH_580219&lt;/b&gt;&lt;br&gt;unannotated protein&lt;br&gt;Location: 699 - 2757" locus_tag="CCIMNIEH_580219" class="clusterblast-orf" id="knownclusterblast-1_q1_0_all"  />
<polygon points="324,40 357,40 362,35 357,30 324,30 324,40 " style="fill:white; stroke-width:1; stroke:black; " description="&lt;b&gt;CCIMNIEH_580220&lt;/b&gt;&lt;br&gt;unannotated protein&lt;br&gt;Location: 3044 - 4517" locus_tag="CCIMNIEH_580220" class="clusterblast-orf" id="knownclusterblast-1_q2_0_all"  />
<polygon points="362,35 367,30 390,30 390,40 367,40 362,35 " style="fill:#d81515; stroke-width:1; stroke:black; " description="&lt;b&gt;CCIMNIEH_580221&lt;/b&gt;&lt;br&gt;unannotated protein&lt;br&gt;Location: 4523 - 5633" locus_tag="CCIMNIEH_580221" class="clusterblast-orf" id="knownclusterblast-1_q3_0_all"  />
<polygon points="390,35 395,30 397,30 397,40 395,40 390,35 " style="fill:white; stroke-width:1; stroke:black; " description="&lt;b&gt;CCIMNIEH_580222&lt;/b&gt;&lt;br&gt;unannotated protein&lt;br&gt;Location: 5651 - 5915" locus_tag="CCIMNIEH_580222" class="clusterblast-orf" id="knownclusterblast-1_q4_0_all"  />
<polygon points="397,35 402,30 414,30 414,40 402,40 397,35 " style="fill:#15d8d8; stroke-width:1; stroke:black; " description="&lt;b&gt;CCIMNIEH_580223&lt;/b&gt;&lt;br&gt;unannotated protein&lt;br&gt;Location: 5926 - 6616" locus_tag="CCIMNIEH_580223" class="clusterblast-orf" id="knownclusterblast-1_q5_0_all"  />
<polygon points="414,35 419,30 437,30 437,40 419,40 414,35 " style="fill:white; stroke-width:1; stroke:black; " description="&lt;b&gt;CCIMNIEH_580224&lt;/b&gt;&lt;br&gt;unannotated protein&lt;br&gt;Location: 6612 - 7521" locus_tag="CCIMNIEH_580224" class="clusterblast-orf" id="knownclusterblast-1_q6_0_all"  />
<polygon points="438,35 442,30 442,40 438,35 " style="fill:white; stroke-width:1; stroke:black; " description="&lt;b&gt;CCIMNIEH_580225&lt;/b&gt;&lt;br&gt;unannotated protein&lt;br&gt;Location: 7571 - 7718" locus_tag="CCIMNIEH_580225" class="clusterblast-orf" id="knownclusterblast-1_q7_0_all"  />
<polygon points="445,40 452,40 457,35 452,30 445,30 445,40 " style="fill:white; stroke-width:1; stroke:black; " description="&lt;b&gt;CCIMNIEH_580226&lt;/b&gt;&lt;br&gt;unannotated protein&lt;br&gt;Location: 7832 - 8297" locus_tag="CCIMNIEH_580226" class="clusterblast-orf" id="knownclusterblast-1_q8_0_all"  />
<polygon points="458,40 472,40 477,35 472,30 458,30 458,40 " style="fill:white; stroke-width:1; stroke:black; " description="&lt;b&gt;CCIMNIEH_580227&lt;/b&gt;&lt;br&gt;unannotated protein&lt;br&gt;Location: 8361 - 9111" locus_tag="CCIMNIEH_580227" class="clusterblast-orf" id="knownclusterblast-1_q9_0_all"  />
<polygon points="478,35 483,30 491,30 491,40 483,40 478,35 " style="fill:white; stroke-width:1; stroke:black; " description="&lt;b&gt;CCIMNIEH_580228&lt;/b&gt;&lt;br&gt;unannotated protein&lt;br&gt;Location: 9140 - 9641" locus_tag="CCIMNIEH_580228" class="clusterblast-orf" id="knownclusterblast-1_q10_0_all"  />
<polygon points="493,40 527,40 532,35 527,30 493,30 493,40 " style="fill:white; stroke-width:1; stroke:black; " description="&lt;b&gt;CCIMNIEH_580229&lt;/b&gt;&lt;br&gt;unannotated protein&lt;br&gt;Location: 9737 - 11273" locus_tag="CCIMNIEH_580229" class="clusterblast-orf" id="knownclusterblast-1_q11_0_all"  />
</g>
<g label="BGC0001100" description="BGC0001100_c1: lankacidin C (13% of genes show similarity), NRP + Polyketide" class="clusterblast-cluster"  >
<text x="5" y="70" class="clusterblast-acc"  >
<a xlink:href="https://mibig.secondarymetabolites.org/go/BGC0001100/1" target="_blank">BGC0001100</a>:                                                                     lankacidin C (13% of genes show similarity), NRP + Polyketide</text>
<line x1="10" y1="85" x2="778.0" y2="85" style="stroke-width:1; stroke:grey; "  />
</g>
<g id="a1_000"  >
<polygon points="0,85 5,80 22,80 22,90 5,90 0,85 " style="fill:white; stroke-width:1; stroke:black; " description="&lt;b&gt;BAC76462.1&lt;/b&gt;&lt;br&gt;pyrroloquinoline quinone biosynthesis protein B&lt;br&gt;Location: 1 - 891" locus_tag="BAC76462.1" class="clusterblast-orf" id="knownclusterblast-1_all_1_1_0"  />
</g>
<g id="a1_001"  >
<polygon points="22,85 27,80 50,80 50,90 27,90 22,85 " style="fill:#d81515; stroke-width:1; stroke:black; " description="&lt;b&gt;BAC76463.1&lt;/b&gt;&lt;br&gt;pyrroloquinoline quinone biosynthesis protein E&lt;br&gt;Location: 894 - 1988&lt;br&gt;&lt;br&gt;&lt;b&gt;BlastP hit with CCIMNIEH_580221&lt;/b&gt;&lt;br&gt;Percentage identity: 47&lt;br&gt;Percentage coverage: 92&lt;br&gt;BLAST bit score: 345&lt;br&gt;E-value: 1.2e-94" locus_tag="BAC76463.1" class="clusterblast-orf" id="knownclusterblast-1_all_1_1_1"  />
</g>
<g id="a1_002"  >
<polygon points="49,85 54,80 56,80 56,90 54,90 49,85 " style="fill:white; stroke-width:1; stroke:black; " description="&lt;b&gt;BAC76464.1&lt;/b&gt;&lt;br&gt;pyrroloquinoline quinone biosynthesis protein D&lt;br&gt;Location: 1981 - 2253" locus_tag="BAC76464.1" class="clusterblast-orf" id="knownclusterblast-1_all_1_1_2"  />
</g>
<g id="a1_003"  >
<polygon points="56,85 61,80 75,80 75,90 61,90 56,85 " style="fill:#15d8d8; stroke-width:1; stroke:black; " description="&lt;b&gt;BAC76465.1&lt;/b&gt;&lt;br&gt;pyrroloquinoline quinone biosynthesis protein C&lt;br&gt;Location: 2250 - 2978&lt;br&gt;&lt;br&gt;&lt;b&gt;BlastP hit with CCIMNIEH_580223&lt;/b&gt;&lt;br&gt;Percentage identity: 47&lt;br&gt;Percentage coverage: 97&lt;br&gt;BLAST bit score: 211&lt;br&gt;E-value: 1.3e-54" locus_tag="BAC76465.1" class="clusterblast-orf" id="knownclusterblast-1_all_1_1_3"  />
</g>
<g id="a1_004"  >
<polygon points="75,85 78,80 78,90 75,85 " style="fill:white; stroke-width:1; stroke:black; " description="&lt;b&gt;BAC76466.1&lt;/b&gt;&lt;br&gt;pyrroloquinoline quinone biosynthesis protein A&lt;br&gt;Location: 3005 - 3109" locus_tag="BAC76466.1" class="clusterblast-orf" id="knownclusterblast-1_all_1_1_4"  />
</g>
<g id="a1_005"  >
<polygon points="88,90 124,90 129,85 124,80 88,80 88,90 " style="fill:white; stroke-width:1; stroke:black; " description="&lt;b&gt;BAC76467.1&lt;/b&gt;&lt;br&gt;putative ABC transporter protein&lt;br&gt;Location: 3499 - 5136" locus_tag="BAC76467.1" class="clusterblast-orf" id="knownclusterblast-1_all_1_1_5"  />
</g>
<g id="a1_006"  >
<polygon points="129,90 167,90 172,85 167,80 129,80 129,90 " style="fill:white; stroke-width:1; stroke:black; " description="&lt;b&gt;BAC76468.1&lt;/b&gt;&lt;br&gt;putative ABC transporter protein&lt;br&gt;Location: 5129 - 6838" locus_tag="BAC76468.1" class="clusterblast-orf" id="knownclusterblast-1_all_1_1_6"  />
</g>
<g id="a1_007"  >
<polygon points="173,85 178,80 187,80 187,90 178,90 173,85 " style="fill:white; stroke-width:1; stroke:black; " description="&lt;b&gt;BAC76469.1&lt;/b&gt;&lt;br&gt;probable isochorismatase&lt;br&gt;Location: 6894 - 7448" locus_tag="BAC76469.1" class="clusterblast-orf" id="knownclusterblast-1_all_1_1_7"  />
</g>
<g id="a1_008"  >
<polygon points="189,85 194,80 259,80 259,90 194,90 189,85 " style="fill:white; stroke-width:1; stroke:black; " description="&lt;b&gt;BAC76470.1&lt;/b&gt;&lt;br&gt;type I polyketide synthase LkcG&lt;br&gt;Location: 7513 - 10293" locus_tag="BAC76470.1" class="clusterblast-orf" id="knownclusterblast-1_all_1_1_8"  />
</g>
<g id="a1_009"  >
<polygon points="260,85 265,80 437,80 437,90 265,90 260,85 " style="fill:white; stroke-width:1; stroke:black; " description="&lt;b&gt;BAC76471.1&lt;/b&gt;&lt;br&gt;type I polyketide synthase LkcF&lt;br&gt;Location: 10345 - 17385" locus_tag="BAC76471.1" class="clusterblast-orf" id="knownclusterblast-1_all_1_1_9"  />
</g>
<g id="a1_0010"  >
<polygon points="439,85 444,80 472,80 472,90 444,90 439,85 " style="fill:white; stroke-width:1; stroke:black; " description="&lt;b&gt;BAC76472.1&lt;/b&gt;&lt;br&gt;amine oxidase LkcE&lt;br&gt;Location: 17438 - 18754" locus_tag="BAC76472.1" class="clusterblast-orf" id="knownclusterblast-1_all_1_1_10"  />
</g>
<g id="a1_0011"  >
<polygon points="472,85 477,80 494,80 494,90 477,90 472,85 " style="fill:white; stroke-width:1; stroke:black; " description="&lt;b&gt;BAC76473.1&lt;/b&gt;&lt;br&gt;acyltransferase LkcD&lt;br&gt;Location: 18754 - 19635" locus_tag="BAC76473.1" class="clusterblast-orf" id="knownclusterblast-1_all_1_1_11"  />
</g>
<g id="a1_0012"  >
<polygon points="494,85 499,80 635,80 635,90 499,90 494,85 " style="fill:white; stroke-width:1; stroke:black; " description="&lt;b&gt;BAC76474.1&lt;/b&gt;&lt;br&gt;type I polyketide synthase LkcC&lt;br&gt;Location: 19647 - 25235" locus_tag="BAC76474.1" class="clusterblast-orf" id="knownclusterblast-1_all_1_1_12"  />
</g>
<g id="a1_0013"  >
<polygon points="636,85 641,80 657,80 657,90 641,90 636,85 " style="fill:white; stroke-width:1; stroke:black; " description="&lt;b&gt;BAC76475.1&lt;/b&gt;&lt;br&gt;dehydratase LkcB&lt;br&gt;Location: 25265 - 26095" locus_tag="BAC76475.1" class="clusterblast-orf" id="knownclusterblast-1_all_1_1_13"  />
</g>
<g id="a1_0014"  >
<polygon points="657,85 662,80 780,80 780,90 662,90 657,85 " style="fill:white; stroke-width:1; stroke:black; " description="&lt;b&gt;BAC76476.1&lt;/b&gt;&lt;br&gt;multifunctional polyketide-peptide synthase LkcA&lt;br&gt;Location: 26092 - 30960" locus_tag="BAC76476.1" class="clusterblast-orf" id="knownclusterblast-1_all_1_1_14"  />
</g>
</svg>
