<svg xmlns="http://www.w3.org/2000/svg" xmlns:xlink="http://www.w3.org/1999/xlink" version="1.1" x="0" y="0" height="230" width="800" viewBox="0 0 800 230" preserveAspectRatio="none"  >
<g label="Query sequence" class="clusterblast-cluster"  >
<text x="5" y="20" class="clusterblast-acc"  >
Query sequence</text>
<line x1="10" y1="35" x2="778.0" y2="35" style="stroke-width:1; stroke:grey; "  />
<polygon points="348,35 353,30 366,30 366,40 353,40 348,35 " style="fill:#d81515; stroke-width:1; stroke:black; " description="&lt;b&gt;CCIMNIEH_482539&lt;/b&gt;&lt;br&gt;unannotated protein&lt;br&gt;Location: 2 - 2495" locus_tag="CCIMNIEH_482539" class="clusterblast-orf" id="dummy-1_q0_0_all"  />
<polygon points="367,35 372,30 416,30 416,40 372,40 367,35 " style="fill:#d81515; stroke-width:1; stroke:black; " description="&lt;b&gt;CCIMNIEH_482540&lt;/b&gt;&lt;br&gt;unannotated protein&lt;br&gt;Location: 2570 - 9278" locus_tag="CCIMNIEH_482540" class="clusterblast-orf" id="dummy-1_q1_0_all"  />
<polygon points="416,35 421,30 431,30 431,40 421,40 416,35 " style="fill:#d81515; stroke-width:1; stroke:black; " description="&lt;b&gt;CCIMNIEH_482541&lt;/b&gt;&lt;br&gt;unannotated protein&lt;br&gt;Location: 9291 - 11415" locus_tag="CCIMNIEH_482541" class="clusterblast-orf" id="dummy-1_q2_0_all"  />
</g>
<g label="BGC0000103" description="BGC0000103_c1: mycolactone B (33% of genes show similarity), Polyketide" class="clusterblast-cluster"  >
<text x="5" y="70" class="clusterblast-acc"  >
<a xlink:href="https://mibig.secondarymetabolites.org/go/BGC0000103/1" target="_blank">BGC0000103</a>:                                                                    mycolactone B (33% of genes show similarity), Polyketide</text>
<line x1="10" y1="85" x2="778.0" y2="85" style="stroke-width:1; stroke:grey; "  />
</g>
<g id="a1_000"  >
<polygon points="0,85 5,80 308,80 308,90 5,90 0,85 " style="fill:#d81515; stroke-width:1; stroke:black; " description="&lt;b&gt;MUP032c&lt;/b&gt;&lt;br&gt;Type I modular polyketide synthase&lt;br&gt;Location: 1 - 42393&lt;br&gt;&lt;br&gt;&lt;b&gt;BlastP hit with CCIMNIEH_482539&lt;/b&gt;&lt;br&gt;Percentage identity: 59&lt;br&gt;Percentage coverage: 96&lt;br&gt;BLAST bit score: 832&lt;br&gt;E-value: 4.4e-241" locus_tag="MUP032c" class="clusterblast-orf" id="dummy-1_h1_9_0"  />
</g>
<g id="a1_001"  >
<polygon points="309,85 311,80 311,90 309,85 " style="fill:white; stroke-width:1; stroke:black; " description="&lt;b&gt;MUP033c&lt;/b&gt;&lt;br&gt;putative transposase&lt;br&gt;Location: 42483 - 42857" locus_tag="MUP033c" class="clusterblast-orf" id="dummy-1_h1_9_1"  />
</g>
<g id="a1_002"  >
<polygon points="312,85 316,80 316,90 312,85 " style="fill:white; stroke-width:1; stroke:black; " description="&lt;b&gt;MUP034c&lt;/b&gt;&lt;br&gt;putative transposase&lt;br&gt;Location: 42955 - 43494" locus_tag="MUP034c" class="clusterblast-orf" id="dummy-1_h1_9_2"  />
</g>
<g id="a1_003"  >
<polygon points="320,90 320,90 325,85 320,80 320,80 320,90 " style="fill:white; stroke-width:1; stroke:black; " description="&lt;b&gt;MUP035&lt;/b&gt;&lt;br&gt;putative transposase&lt;br&gt;Location: 44085 - 44798" locus_tag="MUP035" class="clusterblast-orf" id="dummy-1_h1_9_3"  />
</g>
<g id="a1_004"  >
<polygon points="326,85 331,80 335,80 335,90 331,90 326,85 " style="fill:white; stroke-width:1; stroke:black; " description="&lt;b&gt;MUP036c&lt;/b&gt;&lt;br&gt;probable transposase for the insertion element IS2606&lt;br&gt;Location: 44852 - 46186" locus_tag="MUP036c" class="clusterblast-orf" id="dummy-1_h1_9_4"  />
</g>
<g id="a1_005"  >
<polygon points="338,90 343,90 348,85 343,80 338,80 338,90 " style="fill:white; stroke-width:1; stroke:black; " description="&lt;b&gt;MUP037&lt;/b&gt;&lt;br&gt;putative transposase&lt;br&gt;Location: 46503 - 47858" locus_tag="MUP037" class="clusterblast-orf" id="dummy-1_h1_9_5"  />
</g>
<g id="a1_006"  >
<polygon points="348,85 353,80 355,80 355,90 353,90 348,85 " style="fill:white; stroke-width:1; stroke:black; " description="&lt;b&gt;MUP038c&lt;/b&gt;&lt;br&gt;possible thioesterase&lt;br&gt;Location: 47966 - 48871" locus_tag="MUP038c" class="clusterblast-orf" id="dummy-1_h1_9_6"  />
</g>
<g id="a1_007"  >
<polygon points="356,85 361,80 409,80 409,90 361,90 356,85 " style="fill:#d81515; stroke-width:1; stroke:black; " description="&lt;b&gt;MUP039c&lt;/b&gt;&lt;br&gt;Type I modular polyketide synthase&lt;br&gt;Location: 49027 - 56259&lt;br&gt;&lt;br&gt;&lt;b&gt;BlastP hit with CCIMNIEH_482539&lt;/b&gt;&lt;br&gt;Percentage identity: 56&lt;br&gt;Percentage coverage: 101&lt;br&gt;BLAST bit score: 813&lt;br&gt;E-value: 2.8e-235" locus_tag="MUP039c" class="clusterblast-orf" id="dummy-1_h1_9_7"  />
</g>
<g id="a1_008"  >
<polygon points="409,85 414,80 780,80 780,90 414,90 409,85 " style="fill:#d81515; stroke-width:1; stroke:black; " description="&lt;b&gt;MUP040c&lt;/b&gt;&lt;br&gt;Type I modular polyketide synthase&lt;br&gt;Location: 56246 - 107218&lt;br&gt;&lt;br&gt;&lt;b&gt;BlastP hit with CCIMNIEH_482539&lt;/b&gt;&lt;br&gt;Percentage identity: 59&lt;br&gt;Percentage coverage: 96&lt;br&gt;BLAST bit score: 835&lt;br&gt;E-value: 6.8e-242&lt;br&gt;&lt;br&gt;&lt;b&gt;BlastP hit with CCIMNIEH_482540&lt;/b&gt;&lt;br&gt;Percentage identity: 46&lt;br&gt;Percentage coverage: 96&lt;br&gt;BLAST bit score: 1514&lt;br&gt;E-value: 0.0" locus_tag="MUP040c" class="clusterblast-orf" id="dummy-1_h1_9_8"  />
</g>
</svg>
