<svg xmlns="http://www.w3.org/2000/svg" xmlns:xlink="http://www.w3.org/1999/xlink" version="1.1" x="0" y="0" height="230" width="800" viewBox="0 0 800 230" preserveAspectRatio="none"  >
<g label="Query sequence" class="clusterblast-cluster"  >
<text x="5" y="20" class="clusterblast-acc"  >
Query sequence</text>
<line x1="10" y1="35" x2="778.0" y2="35" style="stroke-width:1; stroke:grey; "  />
<polygon points="348,35 353,30 366,30 366,40 353,40 348,35 " style="fill:#d81515; stroke-width:1; stroke:black; " description="&lt;b&gt;CCIMNIEH_482539&lt;/b&gt;&lt;br&gt;unannotated protein&lt;br&gt;Location: 2 - 2495" locus_tag="CCIMNIEH_482539" class="clusterblast-orf" id="dummy-1_q0_0_all"  />
<polygon points="367,35 372,30 416,30 416,40 372,40 367,35 " style="fill:#d81515; stroke-width:1; stroke:black; " description="&lt;b&gt;CCIMNIEH_482540&lt;/b&gt;&lt;br&gt;unannotated protein&lt;br&gt;Location: 2570 - 9278" locus_tag="CCIMNIEH_482540" class="clusterblast-orf" id="dummy-1_q1_0_all"  />
<polygon points="416,35 421,30 431,30 431,40 421,40 416,35 " style="fill:#d81515; stroke-width:1; stroke:black; " description="&lt;b&gt;CCIMNIEH_482541&lt;/b&gt;&lt;br&gt;unannotated protein&lt;br&gt;Location: 9291 - 11415" locus_tag="CCIMNIEH_482541" class="clusterblast-orf" id="dummy-1_q2_0_all"  />
</g>
<g label="BGC0000105" description="BGC0000105_c1: nanchangmycin (30% of genes show similarity), Polyketide" class="clusterblast-cluster"  >
<text x="5" y="70" class="clusterblast-acc"  >
<a xlink:href="https://mibig.secondarymetabolites.org/go/BGC0000105/1" target="_blank">BGC0000105</a>:                                                                    nanchangmycin (30% of genes show similarity), Polyketide</text>
<line x1="10" y1="85" x2="778.0" y2="85" style="stroke-width:1; stroke:grey; "  />
</g>
<g id="a1_000"  >
<polygon points="0,90 2,90 7,85 2,80 0,80 0,90 " style="fill:white; stroke-width:1; stroke:black; " description="&lt;b&gt;AAP42880.1&lt;/b&gt;&lt;br&gt;NanG8&lt;br&gt;Location: 107876 - 106815" locus_tag="AAP42880.1" class="clusterblast-orf" id="dummy-1_h1_1_0"  />
</g>
<g id="a1_001"  >
<polygon points="7,85 12,80 21,80 21,90 12,90 7,85 " style="fill:white; stroke-width:1; stroke:black; " description="&lt;b&gt;AAP42879.1&lt;/b&gt;&lt;br&gt;NanG7&lt;br&gt;Location: 106805 - 104970" locus_tag="AAP42879.1" class="clusterblast-orf" id="dummy-1_h1_1_1"  />
</g>
<g id="a1_002"  >
<polygon points="20,90 27,90 32,85 27,80 20,80 20,90 " style="fill:white; stroke-width:1; stroke:black; " description="&lt;b&gt;AAP42878.1&lt;/b&gt;&lt;br&gt;NanG6&lt;br&gt;Location: 105025 - 103451" locus_tag="AAP42878.1" class="clusterblast-orf" id="dummy-1_h1_1_2"  />
</g>
<g id="a1_003"  >
<polygon points="31,85 36,80 38,80 38,90 36,90 31,85 " style="fill:white; stroke-width:1; stroke:black; " description="&lt;b&gt;AAP42877.1&lt;/b&gt;&lt;br&gt;NanR4&lt;br&gt;Location: 103541 - 102600" locus_tag="AAP42877.1" class="clusterblast-orf" id="dummy-1_h1_1_3"  />
</g>
<g id="a1_004"  >
<polygon points="38,85 43,80 45,80 45,90 43,90 38,85 " style="fill:white; stroke-width:1; stroke:black; " description="&lt;b&gt;AAP42876.1&lt;/b&gt;&lt;br&gt;NanR3&lt;br&gt;Location: 102600 - 101593" locus_tag="AAP42876.1" class="clusterblast-orf" id="dummy-1_h1_1_4"  />
</g>
<g id="a1_005"  >
<polygon points="46,90 50,90 55,85 50,80 46,80 46,90 " style="fill:white; stroke-width:1; stroke:black; " description="&lt;b&gt;AAP42875.1&lt;/b&gt;&lt;br&gt;NanP&lt;br&gt;Location: 101467 - 100196" locus_tag="AAP42875.1" class="clusterblast-orf" id="dummy-1_h1_1_5"  />
</g>
<g id="a1_006"  >
<polygon points="56,90 126,90 131,85 126,80 56,80 56,90 " style="fill:#d81515; stroke-width:1; stroke:black; " description="&lt;b&gt;AAP42874.1&lt;/b&gt;&lt;br&gt;NanA8&lt;br&gt;Location: 100138 - 89771&lt;br&gt;&lt;br&gt;&lt;b&gt;BlastP hit with CCIMNIEH_482539&lt;/b&gt;&lt;br&gt;Percentage identity: 56&lt;br&gt;Percentage coverage: 99&lt;br&gt;BLAST bit score: 797&lt;br&gt;E-value: 2.7e-230" locus_tag="AAP42874.1" class="clusterblast-orf" id="dummy-1_h1_1_6"  />
</g>
<g id="a1_007"  >
<polygon points="131,90 174,90 179,85 174,80 131,80 131,90 " style="fill:#d81515; stroke-width:1; stroke:black; " description="&lt;b&gt;AAP42873.1&lt;/b&gt;&lt;br&gt;NanA11&lt;br&gt;Location: 89759 - 83196&lt;br&gt;&lt;br&gt;&lt;b&gt;BlastP hit with CCIMNIEH_482539&lt;/b&gt;&lt;br&gt;Percentage identity: 52&lt;br&gt;Percentage coverage: 100&lt;br&gt;BLAST bit score: 728&lt;br&gt;E-value: 1.5e-209&lt;br&gt;&lt;br&gt;&lt;b&gt;BlastP hit with CCIMNIEH_482540&lt;/b&gt;&lt;br&gt;Percentage identity: 51&lt;br&gt;Percentage coverage: 96&lt;br&gt;BLAST bit score: 1795&lt;br&gt;E-value: 0.0" locus_tag="AAP42873.1" class="clusterblast-orf" id="dummy-1_h1_1_7"  />
</g>
<g id="a1_008"  >
<polygon points="179,90 192,90 197,85 192,80 179,80 179,90 " style="fill:#d81515; stroke-width:1; stroke:black; " description="&lt;b&gt;AAP42872.1&lt;/b&gt;&lt;br&gt;NanA9&lt;br&gt;Location: 83192 - 80784&lt;br&gt;&lt;br&gt;&lt;b&gt;BlastP hit with CCIMNIEH_482539&lt;/b&gt;&lt;br&gt;Percentage identity: 52&lt;br&gt;Percentage coverage: 82&lt;br&gt;BLAST bit score: 614&lt;br&gt;E-value: 1.9e-175" locus_tag="AAP42872.1" class="clusterblast-orf" id="dummy-1_h1_1_8"  />
</g>
<g id="a1_009"  >
<polygon points="197,90 199,90 204,85 199,80 197,80 197,90 " style="fill:white; stroke-width:1; stroke:black; " description="&lt;b&gt;AAP42871.1&lt;/b&gt;&lt;br&gt;NanI&lt;br&gt;Location: 80769 - 79828" locus_tag="AAP42871.1" class="clusterblast-orf" id="dummy-1_h1_1_9"  />
</g>
<g id="a1_0010"  >
<polygon points="204,90 210,90 215,85 210,80 204,80 204,90 " style="fill:white; stroke-width:1; stroke:black; " description="&lt;b&gt;AAP42870.1&lt;/b&gt;&lt;br&gt;NanO&lt;br&gt;Location: 79763 - 78327" locus_tag="AAP42870.1" class="clusterblast-orf" id="dummy-1_h1_1_10"  />
</g>
<g id="a1_0011"  >
<polygon points="215,90 217,85 215,80 215,90 " style="fill:white; stroke-width:1; stroke:black; " description="&lt;b&gt;AAP42869.1&lt;/b&gt;&lt;br&gt;NanA10&lt;br&gt;Location: 78263 - 77949" locus_tag="AAP42869.1" class="clusterblast-orf" id="dummy-1_h1_1_11"  />
</g>
<g id="a1_0012"  >
<polygon points="218,90 219,90 224,85 219,80 218,80 218,90 " style="fill:white; stroke-width:1; stroke:black; " description="&lt;b&gt;AAP42868.1&lt;/b&gt;&lt;br&gt;NanE&lt;br&gt;Location: 77864 - 76992" locus_tag="AAP42868.1" class="clusterblast-orf" id="dummy-1_h1_1_12"  />
</g>
<g id="a1_0013"  >
<polygon points="224,90 255,90 260,85 255,80 224,80 224,90 " style="fill:#d81515; stroke-width:1; stroke:black; " description="&lt;b&gt;AAP42867.1&lt;/b&gt;&lt;br&gt;NanA7&lt;br&gt;Location: 76990 - 72050&lt;br&gt;&lt;br&gt;&lt;b&gt;BlastP hit with CCIMNIEH_482539&lt;/b&gt;&lt;br&gt;Percentage identity: 53&lt;br&gt;Percentage coverage: 100&lt;br&gt;BLAST bit score: 736&lt;br&gt;E-value: 4.3e-212" locus_tag="AAP42867.1" class="clusterblast-orf" id="dummy-1_h1_1_13"  />
</g>
<g id="a1_0014"  >
<polygon points="260,90 262,90 267,85 262,80 260,80 260,90 " style="fill:white; stroke-width:1; stroke:black; " description="&lt;b&gt;AAP42866.1&lt;/b&gt;&lt;br&gt;NanG1&lt;br&gt;Location: 72045 - 71137" locus_tag="AAP42866.1" class="clusterblast-orf" id="dummy-1_h1_1_14"  />
</g>
<g id="a1_0015"  >
<polygon points="267,90 269,90 274,85 269,80 267,80 267,90 " style="fill:white; stroke-width:1; stroke:black; " description="&lt;b&gt;AAP42865.1&lt;/b&gt;&lt;br&gt;NanG2&lt;br&gt;Location: 71140 - 70145" locus_tag="AAP42865.1" class="clusterblast-orf" id="dummy-1_h1_1_15"  />
</g>
<g id="a1_0016"  >
<polygon points="274,85 279,80 283,80 283,90 279,90 274,85 " style="fill:white; stroke-width:1; stroke:black; " description="&lt;b&gt;AAP42864.1&lt;/b&gt;&lt;br&gt;NanG3&lt;br&gt;Location: 70164 - 68860" locus_tag="AAP42864.1" class="clusterblast-orf" id="dummy-1_h1_1_16"  />
</g>
<g id="a1_0017"  >
<polygon points="283,85 288,80 291,80 291,90 288,90 283,85 " style="fill:white; stroke-width:1; stroke:black; " description="&lt;b&gt;AAP42863.1&lt;/b&gt;&lt;br&gt;NanG4&lt;br&gt;Location: 68863 - 67823" locus_tag="AAP42863.1" class="clusterblast-orf" id="dummy-1_h1_1_17"  />
</g>
<g id="a1_0018"  >
<polygon points="291,85 296,80 298,80 298,90 296,90 291,85 " style="fill:white; stroke-width:1; stroke:black; " description="&lt;b&gt;AAP42862.1&lt;/b&gt;&lt;br&gt;NanM&lt;br&gt;Location: 67798 - 66881" locus_tag="AAP42862.1" class="clusterblast-orf" id="dummy-1_h1_1_18"  />
</g>
<g id="a1_0019"  >
<polygon points="299,90 304,90 309,85 304,80 299,80 299,90 " style="fill:white; stroke-width:1; stroke:black; " description="&lt;b&gt;AAP42861.1&lt;/b&gt;&lt;br&gt;NanG5&lt;br&gt;Location: 66747 - 65365" locus_tag="AAP42861.1" class="clusterblast-orf" id="dummy-1_h1_1_19"  />
</g>
<g id="a1_0020"  >
<polygon points="309,85 314,80 346,80 346,90 314,90 309,85 " style="fill:#d81515; stroke-width:1; stroke:black; " description="&lt;b&gt;AAP42860.1&lt;/b&gt;&lt;br&gt;NanA6&lt;br&gt;Location: 65302 - 60305&lt;br&gt;&lt;br&gt;&lt;b&gt;BlastP hit with CCIMNIEH_482539&lt;/b&gt;&lt;br&gt;Percentage identity: 58&lt;br&gt;Percentage coverage: 100&lt;br&gt;BLAST bit score: 873&lt;br&gt;E-value: 3.8e-253&lt;br&gt;&lt;br&gt;&lt;b&gt;BlastP hit with CCIMNIEH_482540&lt;/b&gt;&lt;br&gt;Percentage identity: 52&lt;br&gt;Percentage coverage: 42&lt;br&gt;BLAST bit score: 834&lt;br&gt;E-value: 4.1e-241" locus_tag="AAP42860.1" class="clusterblast-orf" id="dummy-1_h1_1_20"  />
</g>
<g id="a1_0021"  >
<polygon points="346,85 351,80 433,80 433,90 351,90 346,85 " style="fill:#d81515; stroke-width:1; stroke:black; " description="&lt;b&gt;AAP42859.1&lt;/b&gt;&lt;br&gt;NanA5&lt;br&gt;Location: 60284 - 48345&lt;br&gt;&lt;br&gt;&lt;b&gt;BlastP hit with CCIMNIEH_482539&lt;/b&gt;&lt;br&gt;Percentage identity: 57&lt;br&gt;Percentage coverage: 97&lt;br&gt;BLAST bit score: 830&lt;br&gt;E-value: 2.2e-240&lt;br&gt;&lt;br&gt;&lt;b&gt;BlastP hit with CCIMNIEH_482540&lt;/b&gt;&lt;br&gt;Percentage identity: 47&lt;br&gt;Percentage coverage: 97&lt;br&gt;BLAST bit score: 1617&lt;br&gt;E-value: 0.0" locus_tag="AAP42859.1" class="clusterblast-orf" id="dummy-1_h1_1_21"  />
</g>
<g id="a1_0022"  >
<polygon points="433,85 438,80 519,80 519,90 438,90 433,85 " style="fill:#d81515; stroke-width:1; stroke:black; " description="&lt;b&gt;AAP42858.1&lt;/b&gt;&lt;br&gt;NanA4&lt;br&gt;Location: 48299 - 36429&lt;br&gt;&lt;br&gt;&lt;b&gt;BlastP hit with CCIMNIEH_482539&lt;/b&gt;&lt;br&gt;Percentage identity: 59&lt;br&gt;Percentage coverage: 97&lt;br&gt;BLAST bit score: 850&lt;br&gt;E-value: 2e-246&lt;br&gt;&lt;br&gt;&lt;b&gt;BlastP hit with CCIMNIEH_482540&lt;/b&gt;&lt;br&gt;Percentage identity: 51&lt;br&gt;Percentage coverage: 100&lt;br&gt;BLAST bit score: 1853&lt;br&gt;E-value: 0.0" locus_tag="AAP42858.1" class="clusterblast-orf" id="dummy-1_h1_1_22"  />
</g>
<g id="a1_0023"  >
<polygon points="520,85 525,80 608,80 608,90 525,90 520,85 " style="fill:#d81515; stroke-width:1; stroke:black; " description="&lt;b&gt;AAP42857.1&lt;/b&gt;&lt;br&gt;NanA3&lt;br&gt;Location: 36408 - 24310&lt;br&gt;&lt;br&gt;&lt;b&gt;BlastP hit with CCIMNIEH_482539&lt;/b&gt;&lt;br&gt;Percentage identity: 82&lt;br&gt;Percentage coverage: 101&lt;br&gt;BLAST bit score: 1294&lt;br&gt;E-value: 0.0&lt;br&gt;&lt;br&gt;&lt;b&gt;BlastP hit with CCIMNIEH_482540&lt;/b&gt;&lt;br&gt;Percentage identity: 59&lt;br&gt;Percentage coverage: 99&lt;br&gt;BLAST bit score: 2296&lt;br&gt;E-value: 0.0" locus_tag="AAP42857.1" class="clusterblast-orf" id="dummy-1_h1_1_23"  />
</g>
<g id="a1_0024"  >
<polygon points="608,85 613,80 656,80 656,90 613,90 608,85 " style="fill:#d81515; stroke-width:1; stroke:black; " description="&lt;b&gt;AAP42856.1&lt;/b&gt;&lt;br&gt;NanA2&lt;br&gt;Location: 24313 - 17642&lt;br&gt;&lt;br&gt;&lt;b&gt;BlastP hit with CCIMNIEH_482539&lt;/b&gt;&lt;br&gt;Percentage identity: 54&lt;br&gt;Percentage coverage: 101&lt;br&gt;BLAST bit score: 779&lt;br&gt;E-value: 5.8e-225&lt;br&gt;&lt;br&gt;&lt;b&gt;BlastP hit with CCIMNIEH_482540&lt;/b&gt;&lt;br&gt;Percentage identity: 75&lt;br&gt;Percentage coverage: 101&lt;br&gt;BLAST bit score: 3092&lt;br&gt;E-value: 0.0" locus_tag="AAP42856.1" class="clusterblast-orf" id="dummy-1_h1_1_24"  />
</g>
<g id="a1_0025"  >
<polygon points="656,85 661,80 720,80 720,90 661,90 656,85 " style="fill:#d81515; stroke-width:1; stroke:black; " description="&lt;b&gt;AAP42855.1&lt;/b&gt;&lt;br&gt;NanA1&lt;br&gt;Location: 17627 - 8919&lt;br&gt;&lt;br&gt;&lt;b&gt;BlastP hit with CCIMNIEH_482539&lt;/b&gt;&lt;br&gt;Percentage identity: 46&lt;br&gt;Percentage coverage: 97&lt;br&gt;BLAST bit score: 589&lt;br&gt;E-value: 6.5e-168&lt;br&gt;&lt;br&gt;&lt;b&gt;BlastP hit with CCIMNIEH_482541&lt;/b&gt;&lt;br&gt;Percentage identity: 59&lt;br&gt;Percentage coverage: 107&lt;br&gt;BLAST bit score: 661&lt;br&gt;E-value: 2e-189" locus_tag="AAP42855.1" class="clusterblast-orf" id="dummy-1_h1_1_25"  />
</g>
<g id="a1_0026"  >
<polygon points="724,90 724,90 729,85 724,80 724,80 724,90 " style="fill:white; stroke-width:1; stroke:black; " description="&lt;b&gt;AAP42854.1&lt;/b&gt;&lt;br&gt;NanR2&lt;br&gt;Location: 8334 - 7573" locus_tag="AAP42854.1" class="clusterblast-orf" id="dummy-1_h1_1_26"  />
</g>
<g id="a1_0027"  >
<polygon points="730,90 730,90 735,85 730,80 730,80 730,90 " style="fill:white; stroke-width:1; stroke:black; " description="&lt;b&gt;AAP42853.1&lt;/b&gt;&lt;br&gt;NanR1&lt;br&gt;Location: 7493 - 6768" locus_tag="AAP42853.1" class="clusterblast-orf" id="dummy-1_h1_1_27"  />
</g>
<g id="a1_0028"  >
<polygon points="740,90 744,90 749,85 744,80 740,80 740,90 " style="fill:white; stroke-width:1; stroke:black; " description="&lt;b&gt;AAP42852.1&lt;/b&gt;&lt;br&gt;NanT5&lt;br&gt;Location: 6106 - 4916" locus_tag="AAP42852.1" class="clusterblast-orf" id="dummy-1_h1_1_28"  />
</g>
<g id="a1_0029"  >
<polygon points="749,90 752,90 757,85 752,80 749,80 749,90 " style="fill:white; stroke-width:1; stroke:black; " description="&lt;b&gt;AAP42851.1&lt;/b&gt;&lt;br&gt;NanT4&lt;br&gt;Location: 4923 - 3724" locus_tag="AAP42851.1" class="clusterblast-orf" id="dummy-1_h1_1_29"  />
</g>
<g id="a1_0030"  >
<polygon points="757,85 762,80 762,80 762,90 762,90 757,85 " style="fill:white; stroke-width:1; stroke:black; " description="&lt;b&gt;AAP42850.1&lt;/b&gt;&lt;br&gt;NanT3&lt;br&gt;Location: 3818 - 3117" locus_tag="AAP42850.1" class="clusterblast-orf" id="dummy-1_h1_1_30"  />
</g>
<g id="a1_0031"  >
<polygon points="764,85 769,80 769,80 769,90 769,90 764,85 " style="fill:white; stroke-width:1; stroke:black; " description="&lt;b&gt;AAP42849.1&lt;/b&gt;&lt;br&gt;NanT2&lt;br&gt;Location: 2879 - 2064" locus_tag="AAP42849.1" class="clusterblast-orf" id="dummy-1_h1_1_31"  />
</g>
<g id="a1_0032"  >
<polygon points="770,90 775,90 780,85 775,80 770,80 770,90 " style="fill:white; stroke-width:1; stroke:black; " description="&lt;b&gt;AAP42848.1&lt;/b&gt;&lt;br&gt;NanT1&lt;br&gt;Location: 2052 - 682" locus_tag="AAP42848.1" class="clusterblast-orf" id="dummy-1_h1_1_32"  />
</g>
</svg>
