<svg xmlns="http://www.w3.org/2000/svg" xmlns:xlink="http://www.w3.org/1999/xlink" version="1.1" x="0" y="0" height="230" width="800" viewBox="0 0 800 230" preserveAspectRatio="none"  >
<g label="Query sequence" class="clusterblast-cluster"  >
<text x="5" y="20" class="clusterblast-acc"  >
Query sequence</text>
<line x1="10" y1="35" x2="778.0" y2="35" style="stroke-width:1; stroke:grey; "  />
<polygon points="0,40 64,40 69,35 64,30 0,30 0,40 " style="fill:white; stroke-width:1; stroke:black; " description="&lt;b&gt;CCIMNIEH_455975&lt;/b&gt;&lt;br&gt;unannotated protein&lt;br&gt;Location: 39863 - 40886" locus_tag="CCIMNIEH_455975" class="clusterblast-orf" id="dummy-1_q0_0_all"  />
<polygon points="68,40 203,40 208,35 203,30 68,30 68,40 " style="fill:white; stroke-width:1; stroke:black; " description="&lt;b&gt;CCIMNIEH_455976&lt;/b&gt;&lt;br&gt;unannotated protein&lt;br&gt;Location: 40878 - 42963" locus_tag="CCIMNIEH_455976" class="clusterblast-orf" id="dummy-1_q1_0_all"  />
<polygon points="238,40 250,40 255,35 250,30 238,30 238,40 " style="fill:white; stroke-width:1; stroke:black; " description="&lt;b&gt;CCIMNIEH_455977&lt;/b&gt;&lt;br&gt;unannotated protein&lt;br&gt;Location: 43404 - 43659" locus_tag="CCIMNIEH_455977" class="clusterblast-orf" id="dummy-1_q2_0_all"  />
<polygon points="259,40 350,40 355,35 350,30 259,30 259,40 " style="fill:white; stroke-width:1; stroke:black; " description="&lt;b&gt;CCIMNIEH_455978&lt;/b&gt;&lt;br&gt;unannotated protein&lt;br&gt;Location: 43716 - 45159" locus_tag="CCIMNIEH_455978" class="clusterblast-orf" id="dummy-1_q3_0_all"  />
<polygon points="359,40 393,40 398,35 393,30 359,30 359,40 " style="fill:white; stroke-width:1; stroke:black; " description="&lt;b&gt;CCIMNIEH_455979&lt;/b&gt;&lt;br&gt;unannotated protein&lt;br&gt;Location: 45213 - 45789" locus_tag="CCIMNIEH_455979" class="clusterblast-orf" id="dummy-1_q4_0_all"  />
<polygon points="408,40 426,40 431,35 426,30 408,30 408,40 " style="fill:white; stroke-width:1; stroke:black; " description="&lt;b&gt;CCIMNIEH_455980&lt;/b&gt;&lt;br&gt;unannotated protein&lt;br&gt;Location: 45946 - 46285" locus_tag="CCIMNIEH_455980" class="clusterblast-orf" id="dummy-1_q5_0_all"  />
<polygon points="432,40 522,40 527,35 522,30 432,30 432,40 " style="fill:white; stroke-width:1; stroke:black; " description="&lt;b&gt;CCIMNIEH_455981&lt;/b&gt;&lt;br&gt;unannotated protein&lt;br&gt;Location: 46298 - 47723" locus_tag="CCIMNIEH_455981" class="clusterblast-orf" id="dummy-1_q6_0_all"  />
<polygon points="570,35 575,30 633,30 633,40 575,40 570,35 " style="fill:#d81515; stroke-width:1; stroke:black; " description="&lt;b&gt;CCIMNIEH_455982&lt;/b&gt;&lt;br&gt;unannotated protein&lt;br&gt;Location: 48358 - 49306" locus_tag="CCIMNIEH_455982" class="clusterblast-orf" id="dummy-1_q7_0_all"  />
<polygon points="637,35 642,30 676,30 676,40 642,40 637,35 " style="fill:white; stroke-width:1; stroke:black; " description="&lt;b&gt;CCIMNIEH_455983&lt;/b&gt;&lt;br&gt;unannotated protein&lt;br&gt;Location: 49353 - 49935" locus_tag="CCIMNIEH_455983" class="clusterblast-orf" id="dummy-1_q8_0_all"  />
<polygon points="675,35 680,30 780,30 780,40 680,40 675,35 " style="fill:#15d8d8; stroke-width:1; stroke:black; " description="&lt;b&gt;CCIMNIEH_455984&lt;/b&gt;&lt;br&gt;unannotated protein&lt;br&gt;Location: 49931 - 51494" locus_tag="CCIMNIEH_455984" class="clusterblast-orf" id="dummy-1_q9_0_all"  />
</g>
<g label="BGC0000642" description="BGC0000642_c1: carotenoid (28% of genes show similarity), Terpene" class="clusterblast-cluster"  >
<text x="5" y="70" class="clusterblast-acc"  >
<a xlink:href="https://mibig.secondarymetabolites.org/go/BGC0000642/1" target="_blank">BGC0000642</a>:                                                                       carotenoid (28% of genes show similarity), Terpene</text>
<line x1="10" y1="85" x2="778.0" y2="85" style="stroke-width:1; stroke:grey; "  />
</g>
<g id="a1_000"  >
<polygon points="145,90 176,90 181,85 176,80 145,80 145,90 " style="fill:white; stroke-width:1; stroke:black; " description="&lt;b&gt;AAZ73151.1&lt;/b&gt;&lt;br&gt;beta-carotene hydroxylase&lt;br&gt;Location: 9054 - 8521" locus_tag="AAZ73151.1" class="clusterblast-orf" id="dummy-1_h1_6_0"  />
</g>
<g id="a1_001"  >
<polygon points="177,85 182,80 239,80 239,90 182,90 177,85 " style="fill:#d81515; stroke-width:1; stroke:black; " description="&lt;b&gt;AAZ73150.1&lt;/b&gt;&lt;br&gt;phytoene synthase&lt;br&gt;Location: 8582 - 7653&lt;br&gt;&lt;br&gt;&lt;b&gt;BlastP hit with CCIMNIEH_455982&lt;/b&gt;&lt;br&gt;Percentage identity: 49&lt;br&gt;Percentage coverage: 97&lt;br&gt;BLAST bit score: 247&lt;br&gt;E-value: 3e-65" locus_tag="AAZ73150.1" class="clusterblast-orf" id="dummy-1_h1_6_1"  />
</g>
<g id="a1_002"  >
<polygon points="239,85 244,80 338,80 338,90 244,90 239,85 " style="fill:#15d8d8; stroke-width:1; stroke:black; " description="&lt;b&gt;AAZ73149.1&lt;/b&gt;&lt;br&gt;phytoene desaturase&lt;br&gt;Location: 7660 - 6179&lt;br&gt;&lt;br&gt;&lt;b&gt;BlastP hit with CCIMNIEH_455984&lt;/b&gt;&lt;br&gt;Percentage identity: 58&lt;br&gt;Percentage coverage: 93&lt;br&gt;BLAST bit score: 571&lt;br&gt;E-value: 1.1e-162" locus_tag="AAZ73149.1" class="clusterblast-orf" id="dummy-1_h1_6_2"  />
</g>
<g id="a1_003"  >
<polygon points="338,85 343,80 416,80 416,90 343,90 338,85 " style="fill:white; stroke-width:1; stroke:black; " description="&lt;b&gt;AAZ73148.1&lt;/b&gt;&lt;br&gt;lycopene cyclase&lt;br&gt;Location: 6182 - 5019" locus_tag="AAZ73148.1" class="clusterblast-orf" id="dummy-1_h1_6_3"  />
</g>
<g id="a1_004"  >
<polygon points="415,85 420,80 501,80 501,90 420,90 415,85 " style="fill:white; stroke-width:1; stroke:black; " description="&lt;b&gt;AAZ73147.1&lt;/b&gt;&lt;br&gt;zeaxanthin glucosyl transferase&lt;br&gt;Location: 5035 - 3746" locus_tag="AAZ73147.1" class="clusterblast-orf" id="dummy-1_h1_6_4"  />
</g>
<g id="a1_005"  >
<polygon points="501,85 506,80 570,80 570,90 506,90 501,85 " style="fill:white; stroke-width:1; stroke:black; " description="&lt;b&gt;AAZ73146.1&lt;/b&gt;&lt;br&gt;isopentenyl pyrophosphate isomerase&lt;br&gt;Location: 3749 - 2715" locus_tag="AAZ73146.1" class="clusterblast-orf" id="dummy-1_h1_6_5"  />
</g>
<g id="a1_006"  >
<polygon points="573,85 578,80 634,80 634,90 578,90 573,85 " style="fill:white; stroke-width:1; stroke:black; " description="&lt;b&gt;AAZ73145.1&lt;/b&gt;&lt;br&gt;geranylgeranyl pyrophosphate synthase&lt;br&gt;Location: 2680 - 1772" locus_tag="AAZ73145.1" class="clusterblast-orf" id="dummy-1_h1_6_6"  />
</g>
</svg>
