<svg xmlns="http://www.w3.org/2000/svg" xmlns:xlink="http://www.w3.org/1999/xlink" version="1.1" x="0" y="0" height="50" width="800" viewBox="0 0 800 50" preserveAspectRatio="none"  >
<g label="Query sequence" class="clusterblast-cluster"  >
<text x="5" y="20" class="clusterblast-acc"  >
Query sequence</text>
<line x1="10" y1="35" x2="778.0" y2="35" style="stroke-width:1; stroke:grey; "  />
<polygon points="0,35 5,30 45,30 45,40 5,40 0,35 " style="fill:white; stroke-width:1; stroke:black; " description="&lt;b&gt;CCIMNIEH_1441968&lt;/b&gt;&lt;br&gt;unannotated protein&lt;br&gt;Location: 3229 - 5305" locus_tag="CCIMNIEH_1441968" class="clusterblast-orf" id="knownclusterblast-1_q0_0_all"  />
<polygon points="49,40 49,40 54,35 49,30 49,30 49,40 " style="fill:white; stroke-width:1; stroke:black; " description="&lt;b&gt;CCIMNIEH_1441969&lt;/b&gt;&lt;br&gt;unannotated protein&lt;br&gt;Location: 5502 - 5718" locus_tag="CCIMNIEH_1441969" class="clusterblast-orf" id="knownclusterblast-1_q1_0_all"  />
<polygon points="59,35 64,30 80,30 80,40 64,40 59,35 " style="fill:white; stroke-width:1; stroke:black; " description="&lt;b&gt;CCIMNIEH_1441970&lt;/b&gt;&lt;br&gt;unannotated protein&lt;br&gt;Location: 5955 - 6930" locus_tag="CCIMNIEH_1441970" class="clusterblast-orf" id="knownclusterblast-1_q2_0_all"  />
<polygon points="81,35 86,30 105,30 105,40 86,40 81,35 " style="fill:white; stroke-width:1; stroke:black; " description="&lt;b&gt;CCIMNIEH_1441971&lt;/b&gt;&lt;br&gt;unannotated protein&lt;br&gt;Location: 7001 - 8102" locus_tag="CCIMNIEH_1441971" class="clusterblast-orf" id="knownclusterblast-1_q3_0_all"  />
<polygon points="105,35 110,30 119,30 119,40 110,40 105,35 " style="fill:white; stroke-width:1; stroke:black; " description="&lt;b&gt;CCIMNIEH_1441972&lt;/b&gt;&lt;br&gt;unannotated protein&lt;br&gt;Location: 8098 - 8764" locus_tag="CCIMNIEH_1441972" class="clusterblast-orf" id="knownclusterblast-1_q4_0_all"  />
<polygon points="119,35 124,30 126,30 126,40 124,40 119,35 " style="fill:white; stroke-width:1; stroke:black; " description="&lt;b&gt;CCIMNIEH_1441973&lt;/b&gt;&lt;br&gt;unannotated protein&lt;br&gt;Location: 8756 - 9059" locus_tag="CCIMNIEH_1441973" class="clusterblast-orf" id="knownclusterblast-1_q5_0_all"  />
<polygon points="129,35 134,30 142,30 142,40 134,40 129,35 " style="fill:white; stroke-width:1; stroke:black; " description="&lt;b&gt;CCIMNIEH_1441974&lt;/b&gt;&lt;br&gt;unannotated protein&lt;br&gt;Location: 9218 - 9803" locus_tag="CCIMNIEH_1441974" class="clusterblast-orf" id="knownclusterblast-1_q6_0_all"  />
<polygon points="143,35 148,30 155,30 155,40 148,40 143,35 " style="fill:white; stroke-width:1; stroke:black; " description="&lt;b&gt;CCIMNIEH_1441975&lt;/b&gt;&lt;br&gt;unannotated protein&lt;br&gt;Location: 9869 - 10424" locus_tag="CCIMNIEH_1441975" class="clusterblast-orf" id="knownclusterblast-1_q7_0_all"  />
<polygon points="157,35 162,30 181,30 181,40 162,40 157,35 " style="fill:white; stroke-width:1; stroke:black; " description="&lt;b&gt;CCIMNIEH_1441976&lt;/b&gt;&lt;br&gt;unannotated protein&lt;br&gt;Location: 10528 - 11611" locus_tag="CCIMNIEH_1441976" class="clusterblast-orf" id="knownclusterblast-1_q8_0_all"  />
<polygon points="181,35 186,30 213,30 213,40 186,40 181,35 " style="fill:white; stroke-width:1; stroke:black; " description="&lt;b&gt;CCIMNIEH_1441977&lt;/b&gt;&lt;br&gt;unannotated protein&lt;br&gt;Location: 11607 - 13107" locus_tag="CCIMNIEH_1441977" class="clusterblast-orf" id="knownclusterblast-1_q9_0_all"  />
<polygon points="214,35 219,30 226,30 226,40 219,40 214,35 " style="fill:white; stroke-width:1; stroke:black; " description="&lt;b&gt;CCIMNIEH_1441978&lt;/b&gt;&lt;br&gt;unannotated protein&lt;br&gt;Location: 13150 - 13693" locus_tag="CCIMNIEH_1441978" class="clusterblast-orf" id="knownclusterblast-1_q10_0_all"  />
<polygon points="230,40 234,40 239,35 234,30 230,30 230,40 " style="fill:white; stroke-width:1; stroke:black; " description="&lt;b&gt;CCIMNIEH_1441979&lt;/b&gt;&lt;br&gt;unannotated protein&lt;br&gt;Location: 13879 - 14296" locus_tag="CCIMNIEH_1441979" class="clusterblast-orf" id="knownclusterblast-1_q11_0_all"  />
<polygon points="241,35 246,30 255,30 255,40 246,40 241,35 " style="fill:white; stroke-width:1; stroke:black; " description="&lt;b&gt;CCIMNIEH_1441980&lt;/b&gt;&lt;br&gt;unannotated protein&lt;br&gt;Location: 14380 - 15052" locus_tag="CCIMNIEH_1441980" class="clusterblast-orf" id="knownclusterblast-1_q12_0_all"  />
<polygon points="260,40 312,40 317,35 312,30 260,30 260,40 " style="fill:white; stroke-width:1; stroke:black; " description="&lt;b&gt;CCIMNIEH_1441981&lt;/b&gt;&lt;br&gt;unannotated protein&lt;br&gt;Location: 15279 - 17892" locus_tag="CCIMNIEH_1441981" class="clusterblast-orf" id="knownclusterblast-1_q13_0_all"  />
<polygon points="317,40 329,40 334,35 329,30 317,30 317,40 " style="fill:white; stroke-width:1; stroke:black; " description="&lt;b&gt;CCIMNIEH_1441982&lt;/b&gt;&lt;br&gt;unannotated protein&lt;br&gt;Location: 17927 - 18674" locus_tag="CCIMNIEH_1441982" class="clusterblast-orf" id="knownclusterblast-1_q14_0_all"  />
<polygon points="333,35 338,30 342,30 342,40 338,40 333,35 " style="fill:white; stroke-width:1; stroke:black; " description="&lt;b&gt;CCIMNIEH_1441983&lt;/b&gt;&lt;br&gt;unannotated protein&lt;br&gt;Location: 18668 - 19070" locus_tag="CCIMNIEH_1441983" class="clusterblast-orf" id="knownclusterblast-1_q15_0_all"  />
<polygon points="349,40 353,35 349,30 349,40 " style="fill:white; stroke-width:1; stroke:black; " description="&lt;b&gt;CCIMNIEH_1441984&lt;/b&gt;&lt;br&gt;unannotated protein&lt;br&gt;Location: 19371 - 19551" locus_tag="CCIMNIEH_1441984" class="clusterblast-orf" id="knownclusterblast-1_q16_0_all"  />
<polygon points="353,35 358,30 374,30 374,40 358,40 353,35 " style="fill:white; stroke-width:1; stroke:black; " description="&lt;b&gt;CCIMNIEH_1441985&lt;/b&gt;&lt;br&gt;unannotated protein&lt;br&gt;Location: 19565 - 20534" locus_tag="CCIMNIEH_1441985" class="clusterblast-orf" id="knownclusterblast-1_q17_0_all"  />
<polygon points="374,35 379,30 396,30 396,40 379,40 374,35 " style="fill:white; stroke-width:1; stroke:black; " description="&lt;b&gt;CCIMNIEH_1441986&lt;/b&gt;&lt;br&gt;unannotated protein&lt;br&gt;Location: 20541 - 21570" locus_tag="CCIMNIEH_1441986" class="clusterblast-orf" id="knownclusterblast-1_q18_0_all"  />
<polygon points="397,35 402,30 424,30 424,40 402,40 397,35 " style="fill:white; stroke-width:1; stroke:black; " description="&lt;b&gt;CCIMNIEH_1441987&lt;/b&gt;&lt;br&gt;unannotated protein&lt;br&gt;Location: 21607 - 22879" locus_tag="CCIMNIEH_1441987" class="clusterblast-orf" id="knownclusterblast-1_q19_0_all"  />
<polygon points="425,35 430,30 451,30 451,40 430,40 425,35 " style="fill:white; stroke-width:1; stroke:black; " description="&lt;b&gt;CCIMNIEH_1441988&lt;/b&gt;&lt;br&gt;unannotated protein&lt;br&gt;Location: 22898 - 24086" locus_tag="CCIMNIEH_1441988" class="clusterblast-orf" id="knownclusterblast-1_q20_0_all"  />
<polygon points="452,35 457,30 458,30 458,40 457,40 452,35 " style="fill:white; stroke-width:1; stroke:black; " description="&lt;b&gt;CCIMNIEH_1441989&lt;/b&gt;&lt;br&gt;unannotated protein&lt;br&gt;Location: 24152 - 24434" locus_tag="CCIMNIEH_1441989" class="clusterblast-orf" id="knownclusterblast-1_q21_0_all"  />
<polygon points="461,35 466,30 473,30 473,40 466,40 461,35 " style="fill:white; stroke-width:1; stroke:black; " description="&lt;b&gt;CCIMNIEH_1441990&lt;/b&gt;&lt;br&gt;unannotated protein&lt;br&gt;Location: 24590 - 25136" locus_tag="CCIMNIEH_1441990" class="clusterblast-orf" id="knownclusterblast-1_q22_0_all"  />
<polygon points="475,35 480,30 540,30 540,40 480,40 475,35 " style="fill:white; stroke-width:1; stroke:black; " description="&lt;b&gt;CCIMNIEH_1441991&lt;/b&gt;&lt;br&gt;unannotated protein&lt;br&gt;Location: 25219 - 28243" locus_tag="CCIMNIEH_1441991" class="clusterblast-orf" id="knownclusterblast-1_q23_0_all"  />
<polygon points="545,40 560,40 565,35 560,30 545,30 545,40 " style="fill:white; stroke-width:1; stroke:black; " description="&lt;b&gt;CCIMNIEH_1441992&lt;/b&gt;&lt;br&gt;unannotated protein&lt;br&gt;Location: 28439 - 29390" locus_tag="CCIMNIEH_1441992" class="clusterblast-orf" id="knownclusterblast-1_q24_0_all"  />
<polygon points="570,40 596,40 601,35 596,30 570,30 570,40 " style="fill:white; stroke-width:1; stroke:black; " description="&lt;b&gt;CCIMNIEH_1441993&lt;/b&gt;&lt;br&gt;unannotated protein&lt;br&gt;Location: 29597 - 31055" locus_tag="CCIMNIEH_1441993" class="clusterblast-orf" id="knownclusterblast-1_q25_0_all"  />
<polygon points="602,40 620,40 625,35 620,30 602,30 602,40 " style="fill:white; stroke-width:1; stroke:black; " description="&lt;b&gt;CCIMNIEH_1441994&lt;/b&gt;&lt;br&gt;unannotated protein&lt;br&gt;Location: 31112 - 32132" locus_tag="CCIMNIEH_1441994" class="clusterblast-orf" id="knownclusterblast-1_q26_0_all"  />
<polygon points="625,35 630,30 645,30 645,40 630,40 625,35 " style="fill:white; stroke-width:1; stroke:black; " description="&lt;b&gt;CCIMNIEH_1441995&lt;/b&gt;&lt;br&gt;unannotated protein&lt;br&gt;Location: 32133 - 33060" locus_tag="CCIMNIEH_1441995" class="clusterblast-orf" id="knownclusterblast-1_q27_0_all"  />
<polygon points="648,40 652,40 657,35 652,30 648,30 648,40 " style="fill:white; stroke-width:1; stroke:black; " description="&lt;b&gt;CCIMNIEH_1441996&lt;/b&gt;&lt;br&gt;unannotated protein&lt;br&gt;Location: 33216 - 33657" locus_tag="CCIMNIEH_1441996" class="clusterblast-orf" id="knownclusterblast-1_q28_0_all"  />
<polygon points="658,40 678,40 683,35 678,30 658,30 658,40 " style="fill:white; stroke-width:1; stroke:black; " description="&lt;b&gt;CCIMNIEH_1441997&lt;/b&gt;&lt;br&gt;unannotated protein&lt;br&gt;Location: 33664 - 34861" locus_tag="CCIMNIEH_1441997" class="clusterblast-orf" id="knownclusterblast-1_q29_0_all"  />
<polygon points="683,35 688,30 693,30 693,40 688,40 683,35 " style="fill:white; stroke-width:1; stroke:black; " description="&lt;b&gt;CCIMNIEH_1441998&lt;/b&gt;&lt;br&gt;unannotated protein&lt;br&gt;Location: 34861 - 35314" locus_tag="CCIMNIEH_1441998" class="clusterblast-orf" id="knownclusterblast-1_q30_0_all"  />
<polygon points="697,40 770,40 775,35 770,30 697,30 697,40 " style="fill:white; stroke-width:1; stroke:black; " description="&lt;b&gt;CCIMNIEH_1441999&lt;/b&gt;&lt;br&gt;unannotated protein&lt;br&gt;Location: 35482 - 39094" locus_tag="CCIMNIEH_1441999" class="clusterblast-orf" id="knownclusterblast-1_q31_0_all"  />
<polygon points="776,35 780,30 780,40 776,35 " style="fill:white; stroke-width:1; stroke:black; " description="&lt;b&gt;CCIMNIEH_1442000&lt;/b&gt;&lt;br&gt;unannotated protein&lt;br&gt;Location: 39132 - 39312" locus_tag="CCIMNIEH_1442000" class="clusterblast-orf" id="knownclusterblast-1_q32_0_all"  />
</g>
</svg>
