<svg xmlns="http://www.w3.org/2000/svg" xmlns:xlink="http://www.w3.org/1999/xlink" version="1.1" x="0" y="0" height="50" width="800" viewBox="0 0 800 50" preserveAspectRatio="none"  >
<g label="Query sequence" class="clusterblast-cluster"  >
<text x="5" y="20" class="clusterblast-acc"  >
Query sequence</text>
<line x1="10" y1="35" x2="778.0" y2="35" style="stroke-width:1; stroke:grey; "  />
<polygon points="0,35 5,30 8,30 8,40 5,40 0,35 " style="fill:white; stroke-width:1; stroke:black; " description="&lt;b&gt;CCIMNIEH_41071&lt;/b&gt;&lt;br&gt;unannotated protein&lt;br&gt;Location: 18076 - 18238" locus_tag="CCIMNIEH_41071" class="clusterblast-orf" id="knownclusterblast-1_q0_0_all"  />
<polygon points="37,35 42,30 62,30 62,40 42,40 37,35 " style="fill:white; stroke-width:1; stroke:black; " description="&lt;b&gt;CCIMNIEH_41072&lt;/b&gt;&lt;br&gt;unannotated protein&lt;br&gt;Location: 18850 - 19390" locus_tag="CCIMNIEH_41072" class="clusterblast-orf" id="knownclusterblast-1_q1_0_all"  />
<polygon points="62,35 67,30 192,30 192,40 67,40 62,35 " style="fill:white; stroke-width:1; stroke:black; " description="&lt;b&gt;CCIMNIEH_41073&lt;/b&gt;&lt;br&gt;unannotated protein&lt;br&gt;Location: 19386 - 22119" locus_tag="CCIMNIEH_41073" class="clusterblast-orf" id="knownclusterblast-1_q2_0_all"  />
<polygon points="209,35 214,30 233,30 233,40 214,40 209,35 " style="fill:white; stroke-width:1; stroke:black; " description="&lt;b&gt;CCIMNIEH_41074&lt;/b&gt;&lt;br&gt;unannotated protein&lt;br&gt;Location: 22461 - 22971" locus_tag="CCIMNIEH_41074" class="clusterblast-orf" id="knownclusterblast-1_q3_0_all"  />
<polygon points="241,40 372,40 377,35 372,30 241,30 241,40 " style="fill:white; stroke-width:1; stroke:black; " description="&lt;b&gt;CCIMNIEH_41075&lt;/b&gt;&lt;br&gt;unannotated protein&lt;br&gt;Location: 23150 - 26006" locus_tag="CCIMNIEH_41075" class="clusterblast-orf" id="knownclusterblast-1_q4_0_all"  />
<polygon points="377,40 437,40 442,35 437,30 377,30 377,40 " style="fill:white; stroke-width:1; stroke:black; " description="&lt;b&gt;CCIMNIEH_41076&lt;/b&gt;&lt;br&gt;unannotated protein&lt;br&gt;Location: 26002 - 27361" locus_tag="CCIMNIEH_41076" class="clusterblast-orf" id="knownclusterblast-1_q5_0_all"  />
<polygon points="441,35 446,30 482,30 482,40 446,40 441,35 " style="fill:white; stroke-width:1; stroke:black; " description="&lt;b&gt;CCIMNIEH_41077&lt;/b&gt;&lt;br&gt;unannotated protein&lt;br&gt;Location: 27354 - 28218" locus_tag="CCIMNIEH_41077" class="clusterblast-orf" id="knownclusterblast-1_q6_0_all"  />
<polygon points="492,40 516,40 521,35 516,30 492,30 492,40 " style="fill:white; stroke-width:1; stroke:black; " description="&lt;b&gt;CCIMNIEH_41078&lt;/b&gt;&lt;br&gt;unannotated protein&lt;br&gt;Location: 28426 - 29026" locus_tag="CCIMNIEH_41078" class="clusterblast-orf" id="knownclusterblast-1_q7_0_all"  />
<polygon points="523,35 528,30 541,30 541,40 528,40 523,35 " style="fill:white; stroke-width:1; stroke:black; " description="&lt;b&gt;CCIMNIEH_41079&lt;/b&gt;&lt;br&gt;unannotated protein&lt;br&gt;Location: 29078 - 29453" locus_tag="CCIMNIEH_41079" class="clusterblast-orf" id="knownclusterblast-1_q8_0_all"  />
<polygon points="541,35 546,30 587,30 587,40 546,40 541,35 " style="fill:white; stroke-width:1; stroke:black; " description="&lt;b&gt;CCIMNIEH_41080&lt;/b&gt;&lt;br&gt;unannotated protein&lt;br&gt;Location: 29454 - 30414" locus_tag="CCIMNIEH_41080" class="clusterblast-orf" id="knownclusterblast-1_q9_0_all"  />
<polygon points="587,35 592,30 661,30 661,40 592,40 587,35 " style="fill:white; stroke-width:1; stroke:black; " description="&lt;b&gt;CCIMNIEH_41081&lt;/b&gt;&lt;br&gt;unannotated protein&lt;br&gt;Location: 30423 - 31983" locus_tag="CCIMNIEH_41081" class="clusterblast-orf" id="knownclusterblast-1_q10_0_all"  />
<polygon points="663,35 668,30 685,30 685,40 668,40 663,35 " style="fill:white; stroke-width:1; stroke:black; " description="&lt;b&gt;CCIMNIEH_41082&lt;/b&gt;&lt;br&gt;unannotated protein&lt;br&gt;Location: 32018 - 32468" locus_tag="CCIMNIEH_41082" class="clusterblast-orf" id="knownclusterblast-1_q11_0_all"  />
<polygon points="692,40 728,40 733,35 728,30 692,30 692,40 " style="fill:white; stroke-width:1; stroke:black; " description="&lt;b&gt;CCIMNIEH_41083&lt;/b&gt;&lt;br&gt;unannotated protein&lt;br&gt;Location: 32620 - 33481" locus_tag="CCIMNIEH_41083" class="clusterblast-orf" id="knownclusterblast-1_q12_0_all"  />
<polygon points="733,35 738,30 780,30 780,40 738,40 733,35 " style="fill:white; stroke-width:1; stroke:black; " description="&lt;b&gt;CCIMNIEH_41084&lt;/b&gt;&lt;br&gt;unannotated protein&lt;br&gt;Location: 33490 - 34474" locus_tag="CCIMNIEH_41084" class="clusterblast-orf" id="knownclusterblast-1_q13_0_all"  />
</g>
</svg>
