<svg xmlns="http://www.w3.org/2000/svg" xmlns:xlink="http://www.w3.org/1999/xlink" version="1.1" x="0" y="0" height="450" width="800" viewBox="0 0 800 450" preserveAspectRatio="none"  >
<g label="Query sequence" class="clusterblast-cluster"  >
<text x="5" y="20" class="clusterblast-acc"  >
Query sequence</text>
<line x1="10" y1="35" x2="778.0" y2="35" style="stroke-width:1; stroke:grey; "  />
<polygon points="0,40 64,40 69,35 64,30 0,30 0,40 " style="fill:white; stroke-width:1; stroke:black; " description="&lt;b&gt;CCIMNIEH_455975&lt;/b&gt;&lt;br&gt;unannotated protein&lt;br&gt;Location: 39863 - 40886" locus_tag="CCIMNIEH_455975" class="clusterblast-orf" id="knownclusterblast-1_q0_0_all"  />
<polygon points="68,40 203,40 208,35 203,30 68,30 68,40 " style="fill:white; stroke-width:1; stroke:black; " description="&lt;b&gt;CCIMNIEH_455976&lt;/b&gt;&lt;br&gt;unannotated protein&lt;br&gt;Location: 40878 - 42963" locus_tag="CCIMNIEH_455976" class="clusterblast-orf" id="knownclusterblast-1_q1_0_all"  />
<polygon points="238,40 250,40 255,35 250,30 238,30 238,40 " style="fill:white; stroke-width:1; stroke:black; " description="&lt;b&gt;CCIMNIEH_455977&lt;/b&gt;&lt;br&gt;unannotated protein&lt;br&gt;Location: 43404 - 43659" locus_tag="CCIMNIEH_455977" class="clusterblast-orf" id="knownclusterblast-1_q2_0_all"  />
<polygon points="259,40 350,40 355,35 350,30 259,30 259,40 " style="fill:white; stroke-width:1; stroke:black; " description="&lt;b&gt;CCIMNIEH_455978&lt;/b&gt;&lt;br&gt;unannotated protein&lt;br&gt;Location: 43716 - 45159" locus_tag="CCIMNIEH_455978" class="clusterblast-orf" id="knownclusterblast-1_q3_0_all"  />
<polygon points="359,40 393,40 398,35 393,30 359,30 359,40 " style="fill:white; stroke-width:1; stroke:black; " description="&lt;b&gt;CCIMNIEH_455979&lt;/b&gt;&lt;br&gt;unannotated protein&lt;br&gt;Location: 45213 - 45789" locus_tag="CCIMNIEH_455979" class="clusterblast-orf" id="knownclusterblast-1_q4_0_all"  />
<polygon points="408,40 426,40 431,35 426,30 408,30 408,40 " style="fill:white; stroke-width:1; stroke:black; " description="&lt;b&gt;CCIMNIEH_455980&lt;/b&gt;&lt;br&gt;unannotated protein&lt;br&gt;Location: 45946 - 46285" locus_tag="CCIMNIEH_455980" class="clusterblast-orf" id="knownclusterblast-1_q5_0_all"  />
<polygon points="432,40 522,40 527,35 522,30 432,30 432,40 " style="fill:white; stroke-width:1; stroke:black; " description="&lt;b&gt;CCIMNIEH_455981&lt;/b&gt;&lt;br&gt;unannotated protein&lt;br&gt;Location: 46298 - 47723" locus_tag="CCIMNIEH_455981" class="clusterblast-orf" id="knownclusterblast-1_q6_0_all"  />
<polygon points="570,35 575,30 633,30 633,40 575,40 570,35 " style="fill:#d81515; stroke-width:1; stroke:black; " description="&lt;b&gt;CCIMNIEH_455982&lt;/b&gt;&lt;br&gt;unannotated protein&lt;br&gt;Location: 48358 - 49306" locus_tag="CCIMNIEH_455982" class="clusterblast-orf" id="knownclusterblast-1_q7_0_all"  />
<polygon points="637,35 642,30 676,30 676,40 642,40 637,35 " style="fill:white; stroke-width:1; stroke:black; " description="&lt;b&gt;CCIMNIEH_455983&lt;/b&gt;&lt;br&gt;unannotated protein&lt;br&gt;Location: 49353 - 49935" locus_tag="CCIMNIEH_455983" class="clusterblast-orf" id="knownclusterblast-1_q8_0_all"  />
<polygon points="675,35 680,30 780,30 780,40 680,40 675,35 " style="fill:#15d8d8; stroke-width:1; stroke:black; " description="&lt;b&gt;CCIMNIEH_455984&lt;/b&gt;&lt;br&gt;unannotated protein&lt;br&gt;Location: 49931 - 51494" locus_tag="CCIMNIEH_455984" class="clusterblast-orf" id="knownclusterblast-1_q9_0_all"  />
</g>
<g label="BGC0000640" description="BGC0000640_c1: carotenoid (33% of genes show similarity), Terpene" class="clusterblast-cluster"  >
<text x="5" y="70" class="clusterblast-acc"  >
<a xlink:href="https://mibig.secondarymetabolites.org/go/BGC0000640/1" target="_blank">BGC0000640</a>:                                                                       carotenoid (33% of genes show similarity), Terpene</text>
<line x1="10" y1="85" x2="778.0" y2="85" style="stroke-width:1; stroke:grey; "  />
</g>
<g id="a1_000"  >
<polygon points="186,90 218,90 223,85 218,80 186,80 186,90 " style="fill:white; stroke-width:1; stroke:black; " description="&lt;b&gt;AAZ73138.1&lt;/b&gt;&lt;br&gt;beta-carotene hydroxylase&lt;br&gt;Location: 8466 - 7909" locus_tag="AAZ73138.1" class="clusterblast-orf" id="knownclusterblast-1_all_1_1_0"  />
</g>
<g id="a1_001"  >
<polygon points="218,85 223,80 280,80 280,90 223,90 218,85 " style="fill:#d81515; stroke-width:1; stroke:black; " description="&lt;b&gt;AAZ73137.1&lt;/b&gt;&lt;br&gt;phytoene synthase&lt;br&gt;Location: 7994 - 7068&lt;br&gt;&lt;br&gt;&lt;b&gt;BlastP hit with CCIMNIEH_455982&lt;/b&gt;&lt;br&gt;Percentage identity: 49&lt;br&gt;Percentage coverage: 98&lt;br&gt;BLAST bit score: 252&lt;br&gt;E-value: 9.3e-67" locus_tag="AAZ73137.1" class="clusterblast-orf" id="knownclusterblast-1_all_1_1_1"  />
</g>
<g id="a1_002"  >
<polygon points="280,85 285,80 379,80 379,90 285,90 280,85 " style="fill:#15d8d8; stroke-width:1; stroke:black; " description="&lt;b&gt;AAZ73136.1&lt;/b&gt;&lt;br&gt;phytoene desaturase&lt;br&gt;Location: 7068 - 5590&lt;br&gt;&lt;br&gt;&lt;b&gt;BlastP hit with CCIMNIEH_455984&lt;/b&gt;&lt;br&gt;Percentage identity: 60&lt;br&gt;Percentage coverage: 94&lt;br&gt;BLAST bit score: 602&lt;br&gt;E-value: 6.1e-172" locus_tag="AAZ73136.1" class="clusterblast-orf" id="knownclusterblast-1_all_1_1_2"  />
</g>
<g id="a1_003"  >
<polygon points="379,85 384,80 457,80 457,90 384,90 379,85 " style="fill:white; stroke-width:1; stroke:black; " description="&lt;b&gt;AAZ73135.1&lt;/b&gt;&lt;br&gt;lycopene cyclase&lt;br&gt;Location: 5593 - 4424" locus_tag="AAZ73135.1" class="clusterblast-orf" id="knownclusterblast-1_all_1_1_3"  />
</g>
<g id="a1_004"  >
<polygon points="459,85 464,80 530,80 530,90 464,90 459,85 " style="fill:white; stroke-width:1; stroke:black; " description="&lt;b&gt;AAZ73134.1&lt;/b&gt;&lt;br&gt;isopentenyl pyrophosphate isomerase&lt;br&gt;Location: 4392 - 3343" locus_tag="AAZ73134.1" class="clusterblast-orf" id="knownclusterblast-1_all_1_1_4"  />
</g>
<g id="a1_005"  >
<polygon points="532,85 537,80 593,80 593,90 537,90 532,85 " style="fill:white; stroke-width:1; stroke:black; " description="&lt;b&gt;AAZ73133.1&lt;/b&gt;&lt;br&gt;geranylgeranyl pyrophosphate synthase&lt;br&gt;Location: 3305 - 2400" locus_tag="AAZ73133.1" class="clusterblast-orf" id="knownclusterblast-1_all_1_1_5"  />
</g>
<g label="BGC0000639" description="BGC0000639_c1: carotenoid (33% of genes show similarity), Terpene" class="clusterblast-cluster"  >
<text x="5" y="120" class="clusterblast-acc"  >
<a xlink:href="https://mibig.secondarymetabolites.org/go/BGC0000639/1" target="_blank">BGC0000639</a>:                                                                       carotenoid (33% of genes show similarity), Terpene</text>
<line x1="10" y1="135" x2="778.0" y2="135" style="stroke-width:1; stroke:grey; "  />
</g>
<g id="a1_000"  >
<polygon points="180,140 211,140 216,135 211,130 180,130 180,140 " style="fill:white; stroke-width:1; stroke:black; " description="&lt;b&gt;AAZ73132.1&lt;/b&gt;&lt;br&gt;beta-carotene hydroxylase&lt;br&gt;Location: 6564 - 6031" locus_tag="AAZ73132.1" class="clusterblast-orf" id="knownclusterblast-1_all_1_2_0"  />
</g>
<g id="a1_001"  >
<polygon points="212,135 217,130 274,130 274,140 217,140 212,135 " style="fill:#d81515; stroke-width:1; stroke:black; " description="&lt;b&gt;AAZ73131.1&lt;/b&gt;&lt;br&gt;phytoene synthase&lt;br&gt;Location: 6092 - 5163&lt;br&gt;&lt;br&gt;&lt;b&gt;BlastP hit with CCIMNIEH_455982&lt;/b&gt;&lt;br&gt;Percentage identity: 48&lt;br&gt;Percentage coverage: 99&lt;br&gt;BLAST bit score: 257&lt;br&gt;E-value: 2.2e-68" locus_tag="AAZ73131.1" class="clusterblast-orf" id="knownclusterblast-1_all_1_2_1"  />
</g>
<g id="a1_002"  >
<polygon points="274,135 279,130 373,130 373,140 279,140 274,135 " style="fill:#15d8d8; stroke-width:1; stroke:black; " description="&lt;b&gt;AAZ73130.1&lt;/b&gt;&lt;br&gt;phytoene desaturase&lt;br&gt;Location: 5166 - 3685&lt;br&gt;&lt;br&gt;&lt;b&gt;BlastP hit with CCIMNIEH_455984&lt;/b&gt;&lt;br&gt;Percentage identity: 58&lt;br&gt;Percentage coverage: 94&lt;br&gt;BLAST bit score: 580&lt;br&gt;E-value: 2.5e-165" locus_tag="AAZ73130.1" class="clusterblast-orf" id="knownclusterblast-1_all_1_2_2"  />
</g>
<g id="a1_003"  >
<polygon points="373,135 378,130 451,130 451,140 378,140 373,135 " style="fill:white; stroke-width:1; stroke:black; " description="&lt;b&gt;AAZ73129.1&lt;/b&gt;&lt;br&gt;lycopene cyclase&lt;br&gt;Location: 3688 - 2522" locus_tag="AAZ73129.1" class="clusterblast-orf" id="knownclusterblast-1_all_1_2_3"  />
</g>
<g id="a1_004"  >
<polygon points="451,135 456,130 537,130 537,140 456,140 451,135 " style="fill:white; stroke-width:1; stroke:black; " description="&lt;b&gt;AAZ73128.1&lt;/b&gt;&lt;br&gt;zeaxanthin glucosyl transferase&lt;br&gt;Location: 2522 - 1245" locus_tag="AAZ73128.1" class="clusterblast-orf" id="knownclusterblast-1_all_1_2_4"  />
</g>
<g id="a1_005"  >
<polygon points="538,135 543,130 599,130 599,140 543,140 538,135 " style="fill:white; stroke-width:1; stroke:black; " description="&lt;b&gt;AAZ73127.1&lt;/b&gt;&lt;br&gt;geranylgeranyl pyrophosphate synthase&lt;br&gt;Location: 1230 - 325" locus_tag="AAZ73127.1" class="clusterblast-orf" id="knownclusterblast-1_all_1_2_5"  />
</g>
<g label="BGC0000641" description="BGC0000641_c1: carotenoid (33% of genes show similarity), Terpene" class="clusterblast-cluster"  >
<text x="5" y="170" class="clusterblast-acc"  >
<a xlink:href="https://mibig.secondarymetabolites.org/go/BGC0000641/1" target="_blank">BGC0000641</a>:                                                                       carotenoid (33% of genes show similarity), Terpene</text>
<line x1="10" y1="185" x2="778.0" y2="185" style="stroke-width:1; stroke:grey; "  />
</g>
<g id="a1_000"  >
<polygon points="180,190 211,190 216,185 211,180 180,180 180,190 " style="fill:white; stroke-width:1; stroke:black; " description="&lt;b&gt;AAZ73144.1&lt;/b&gt;&lt;br&gt;beta-carotene hydroxylase&lt;br&gt;Location: 7454 - 6918" locus_tag="AAZ73144.1" class="clusterblast-orf" id="knownclusterblast-1_all_1_3_0"  />
</g>
<g id="a1_001"  >
<polygon points="212,185 217,180 274,180 274,190 217,190 212,185 " style="fill:#d81515; stroke-width:1; stroke:black; " description="&lt;b&gt;AAZ73143.1&lt;/b&gt;&lt;br&gt;phytoene synthase&lt;br&gt;Location: 6979 - 6050&lt;br&gt;&lt;br&gt;&lt;b&gt;BlastP hit with CCIMNIEH_455982&lt;/b&gt;&lt;br&gt;Percentage identity: 47&lt;br&gt;Percentage coverage: 99&lt;br&gt;BLAST bit score: 255&lt;br&gt;E-value: 1.4e-67" locus_tag="AAZ73143.1" class="clusterblast-orf" id="knownclusterblast-1_all_1_3_1"  />
</g>
<g id="a1_002"  >
<polygon points="274,185 279,180 373,180 373,190 279,190 274,185 " style="fill:#15d8d8; stroke-width:1; stroke:black; " description="&lt;b&gt;AAZ73142.1&lt;/b&gt;&lt;br&gt;phytoene desaturase&lt;br&gt;Location: 6053 - 4572&lt;br&gt;&lt;br&gt;&lt;b&gt;BlastP hit with CCIMNIEH_455984&lt;/b&gt;&lt;br&gt;Percentage identity: 57&lt;br&gt;Percentage coverage: 94&lt;br&gt;BLAST bit score: 573&lt;br&gt;E-value: 3e-163" locus_tag="AAZ73142.1" class="clusterblast-orf" id="knownclusterblast-1_all_1_3_2"  />
</g>
<g id="a1_003"  >
<polygon points="373,185 378,180 452,180 452,190 378,190 373,185 " style="fill:white; stroke-width:1; stroke:black; " description="&lt;b&gt;AAZ73141.1&lt;/b&gt;&lt;br&gt;lycopene cyclase&lt;br&gt;Location: 4572 - 3406" locus_tag="AAZ73141.1" class="clusterblast-orf" id="knownclusterblast-1_all_1_3_3"  />
</g>
<g id="a1_004"  >
<polygon points="452,185 457,180 537,180 537,190 457,190 452,185 " style="fill:white; stroke-width:1; stroke:black; " description="&lt;b&gt;AAZ73140.1&lt;/b&gt;&lt;br&gt;zeaxanthin glucosyl transferase&lt;br&gt;Location: 3406 - 2129" locus_tag="AAZ73140.1" class="clusterblast-orf" id="knownclusterblast-1_all_1_3_4"  />
</g>
<g id="a1_005"  >
<polygon points="538,185 543,180 599,180 599,190 543,190 538,185 " style="fill:white; stroke-width:1; stroke:black; " description="&lt;b&gt;AAZ73139.1&lt;/b&gt;&lt;br&gt;geranylgeranyl pyrophosphate synthase&lt;br&gt;Location: 2114 - 1209" locus_tag="AAZ73139.1" class="clusterblast-orf" id="knownclusterblast-1_all_1_3_5"  />
</g>
<g label="BGC0000656" description="BGC0000656_c1: zeaxanthin (66% of genes show similarity), Terpene" class="clusterblast-cluster"  >
<text x="5" y="220" class="clusterblast-acc"  >
<a xlink:href="https://mibig.secondarymetabolites.org/go/BGC0000656/1" target="_blank">BGC0000656</a>:                                                                       zeaxanthin (66% of genes show similarity), Terpene</text>
<line x1="10" y1="235" x2="778.0" y2="235" style="stroke-width:1; stroke:grey; "  />
</g>
<g id="a1_000"  >
<polygon points="269,235 274,230 331,230 331,240 274,240 269,235 " style="fill:#d81515; stroke-width:1; stroke:black; " description="&lt;b&gt;AAL02001.1&lt;/b&gt;&lt;br&gt;phytoene synthase&lt;br&gt;Location: 3770 - 2835&lt;br&gt;&lt;br&gt;&lt;b&gt;BlastP hit with CCIMNIEH_455982&lt;/b&gt;&lt;br&gt;Percentage identity: 46&lt;br&gt;Percentage coverage: 96&lt;br&gt;BLAST bit score: 233&lt;br&gt;E-value: 4.5e-61" locus_tag="AAL02001.1" class="clusterblast-orf" id="knownclusterblast-1_all_1_4_0"  />
</g>
<g id="a1_001"  >
<polygon points="331,235 336,230 433,230 433,240 336,240 331,235 " style="fill:#15d8d8; stroke-width:1; stroke:black; " description="&lt;b&gt;AAL02000.1&lt;/b&gt;&lt;br&gt;phytoene dehydrogenase&lt;br&gt;Location: 2838 - 1324&lt;br&gt;&lt;br&gt;&lt;b&gt;BlastP hit with CCIMNIEH_455984&lt;/b&gt;&lt;br&gt;Percentage identity: 59&lt;br&gt;Percentage coverage: 94&lt;br&gt;BLAST bit score: 589&lt;br&gt;E-value: 5.3e-168" locus_tag="AAL02000.1" class="clusterblast-orf" id="knownclusterblast-1_all_1_4_1"  />
</g>
<g id="a1_002"  >
<polygon points="433,235 438,230 510,230 510,240 438,240 433,235 " style="fill:white; stroke-width:1; stroke:black; " description="&lt;b&gt;AAL01999.1&lt;/b&gt;&lt;br&gt;lycopene cyclase&lt;br&gt;Location: 1327 - 170" locus_tag="AAL01999.1" class="clusterblast-orf" id="knownclusterblast-1_all_1_4_2"  />
</g>
<g label="BGC0000638" description="BGC0000638_c1: carotenoid (33% of genes show similarity), Terpene" class="clusterblast-cluster"  >
<text x="5" y="270" class="clusterblast-acc"  >
<a xlink:href="https://mibig.secondarymetabolites.org/go/BGC0000638/1" target="_blank">BGC0000638</a>:                                                                       carotenoid (33% of genes show similarity), Terpene</text>
<line x1="10" y1="285" x2="778.0" y2="285" style="stroke-width:1; stroke:grey; "  />
</g>
<g id="a1_000"  >
<polygon points="181,290 211,290 216,285 211,280 181,280 181,290 " style="fill:white; stroke-width:1; stroke:black; " description="&lt;b&gt;BAA14129.1&lt;/b&gt;&lt;br&gt;&lt;br&gt;Location: 6452 - 5925" locus_tag="BAA14129.1" class="clusterblast-orf" id="knownclusterblast-1_all_1_5_0"  />
</g>
<g id="a1_001"  >
<polygon points="212,285 217,280 274,280 274,290 217,290 212,285 " style="fill:#d81515; stroke-width:1; stroke:black; " description="&lt;b&gt;BAA14128.2&lt;/b&gt;&lt;br&gt;&lt;br&gt;Location: 5986 - 5057&lt;br&gt;&lt;br&gt;&lt;b&gt;BlastP hit with CCIMNIEH_455982&lt;/b&gt;&lt;br&gt;Percentage identity: 46&lt;br&gt;Percentage coverage: 99&lt;br&gt;BLAST bit score: 237&lt;br&gt;E-value: 2.4e-62" locus_tag="BAA14128.2" class="clusterblast-orf" id="knownclusterblast-1_all_1_5_1"  />
</g>
<g id="a1_002"  >
<polygon points="274,285 279,280 373,280 373,290 279,290 274,285 " style="fill:#15d8d8; stroke-width:1; stroke:black; " description="&lt;b&gt;BAA14127.1&lt;/b&gt;&lt;br&gt;&lt;br&gt;Location: 5060 - 3582&lt;br&gt;&lt;br&gt;&lt;b&gt;BlastP hit with CCIMNIEH_455984&lt;/b&gt;&lt;br&gt;Percentage identity: 59&lt;br&gt;Percentage coverage: 94&lt;br&gt;BLAST bit score: 583&lt;br&gt;E-value: 3.8e-166" locus_tag="BAA14127.1" class="clusterblast-orf" id="knownclusterblast-1_all_1_5_2"  />
</g>
<g id="a1_003"  >
<polygon points="374,285 379,280 451,280 451,290 379,290 374,285 " style="fill:white; stroke-width:1; stroke:black; " description="&lt;b&gt;BAA14126.1&lt;/b&gt;&lt;br&gt;&lt;br&gt;Location: 3570 - 2422" locus_tag="BAA14126.1" class="clusterblast-orf" id="knownclusterblast-1_all_1_5_3"  />
</g>
<g id="a1_004"  >
<polygon points="450,285 455,280 537,280 537,290 455,290 450,285 " style="fill:white; stroke-width:1; stroke:black; " description="&lt;b&gt;BAA14125.1&lt;/b&gt;&lt;br&gt;&lt;br&gt;Location: 2438 - 1143" locus_tag="BAA14125.1" class="clusterblast-orf" id="knownclusterblast-1_all_1_5_4"  />
</g>
<g id="a1_005"  >
<polygon points="537,285 542,280 598,280 598,290 542,290 537,285 " style="fill:white; stroke-width:1; stroke:black; " description="&lt;b&gt;BAA14124.1&lt;/b&gt;&lt;br&gt;&lt;br&gt;Location: 1133 - 225" locus_tag="BAA14124.1" class="clusterblast-orf" id="knownclusterblast-1_all_1_5_5"  />
</g>
<g label="BGC0000642" description="BGC0000642_c1: carotenoid (28% of genes show similarity), Terpene" class="clusterblast-cluster"  >
<text x="5" y="320" class="clusterblast-acc"  >
<a xlink:href="https://mibig.secondarymetabolites.org/go/BGC0000642/1" target="_blank">BGC0000642</a>:                                                                       carotenoid (28% of genes show similarity), Terpene</text>
<line x1="10" y1="335" x2="778.0" y2="335" style="stroke-width:1; stroke:grey; "  />
</g>
<g id="a1_000"  >
<polygon points="145,340 176,340 181,335 176,330 145,330 145,340 " style="fill:white; stroke-width:1; stroke:black; " description="&lt;b&gt;AAZ73151.1&lt;/b&gt;&lt;br&gt;beta-carotene hydroxylase&lt;br&gt;Location: 9054 - 8521" locus_tag="AAZ73151.1" class="clusterblast-orf" id="knownclusterblast-1_all_1_6_0"  />
</g>
<g id="a1_001"  >
<polygon points="177,335 182,330 239,330 239,340 182,340 177,335 " style="fill:#d81515; stroke-width:1; stroke:black; " description="&lt;b&gt;AAZ73150.1&lt;/b&gt;&lt;br&gt;phytoene synthase&lt;br&gt;Location: 8582 - 7653&lt;br&gt;&lt;br&gt;&lt;b&gt;BlastP hit with CCIMNIEH_455982&lt;/b&gt;&lt;br&gt;Percentage identity: 49&lt;br&gt;Percentage coverage: 97&lt;br&gt;BLAST bit score: 247&lt;br&gt;E-value: 3e-65" locus_tag="AAZ73150.1" class="clusterblast-orf" id="knownclusterblast-1_all_1_6_1"  />
</g>
<g id="a1_002"  >
<polygon points="239,335 244,330 338,330 338,340 244,340 239,335 " style="fill:#15d8d8; stroke-width:1; stroke:black; " description="&lt;b&gt;AAZ73149.1&lt;/b&gt;&lt;br&gt;phytoene desaturase&lt;br&gt;Location: 7660 - 6179&lt;br&gt;&lt;br&gt;&lt;b&gt;BlastP hit with CCIMNIEH_455984&lt;/b&gt;&lt;br&gt;Percentage identity: 58&lt;br&gt;Percentage coverage: 93&lt;br&gt;BLAST bit score: 571&lt;br&gt;E-value: 1.1e-162" locus_tag="AAZ73149.1" class="clusterblast-orf" id="knownclusterblast-1_all_1_6_2"  />
</g>
<g id="a1_003"  >
<polygon points="338,335 343,330 416,330 416,340 343,340 338,335 " style="fill:white; stroke-width:1; stroke:black; " description="&lt;b&gt;AAZ73148.1&lt;/b&gt;&lt;br&gt;lycopene cyclase&lt;br&gt;Location: 6182 - 5019" locus_tag="AAZ73148.1" class="clusterblast-orf" id="knownclusterblast-1_all_1_6_3"  />
</g>
<g id="a1_004"  >
<polygon points="415,335 420,330 501,330 501,340 420,340 415,335 " style="fill:white; stroke-width:1; stroke:black; " description="&lt;b&gt;AAZ73147.1&lt;/b&gt;&lt;br&gt;zeaxanthin glucosyl transferase&lt;br&gt;Location: 5035 - 3746" locus_tag="AAZ73147.1" class="clusterblast-orf" id="knownclusterblast-1_all_1_6_4"  />
</g>
<g id="a1_005"  >
<polygon points="501,335 506,330 570,330 570,340 506,340 501,335 " style="fill:white; stroke-width:1; stroke:black; " description="&lt;b&gt;AAZ73146.1&lt;/b&gt;&lt;br&gt;isopentenyl pyrophosphate isomerase&lt;br&gt;Location: 3749 - 2715" locus_tag="AAZ73146.1" class="clusterblast-orf" id="knownclusterblast-1_all_1_6_5"  />
</g>
<g id="a1_006"  >
<polygon points="573,335 578,330 634,330 634,340 578,340 573,335 " style="fill:white; stroke-width:1; stroke:black; " description="&lt;b&gt;AAZ73145.1&lt;/b&gt;&lt;br&gt;geranylgeranyl pyrophosphate synthase&lt;br&gt;Location: 2680 - 1772" locus_tag="AAZ73145.1" class="clusterblast-orf" id="knownclusterblast-1_all_1_6_6"  />
</g>
<g label="BGC0000634" description="BGC0000634_c1: carotenoid (16% of genes show similarity), Terpene" class="clusterblast-cluster"  >
<text x="5" y="370" class="clusterblast-acc"  >
<a xlink:href="https://mibig.secondarymetabolites.org/go/BGC0000634/1" target="_blank">BGC0000634</a>:                                                                       carotenoid (16% of genes show similarity), Terpene</text>
<line x1="10" y1="385" x2="778.0" y2="385" style="stroke-width:1; stroke:grey; "  />
</g>
<g id="a1_000"  >
<polygon points="38,390 58,390 63,385 58,380 38,380 38,390 " style="fill:white; stroke-width:1; stroke:black; " description="&lt;b&gt;BAD99416.1&lt;/b&gt;&lt;br&gt;hypothetical protein&lt;br&gt;Location: 11784 - 11416" locus_tag="BAD99416.1" class="clusterblast-orf" id="knownclusterblast-1_all_1_7_0"  />
</g>
<g id="a1_001"  >
<polygon points="56,385 61,380 108,380 108,390 61,390 56,385 " style="fill:white; stroke-width:1; stroke:black; " description="&lt;b&gt;BAD99415.1&lt;/b&gt;&lt;br&gt;carotenoid C2-hydroxylase&lt;br&gt;Location: 11521 - 10748" locus_tag="BAD99415.1" class="clusterblast-orf" id="knownclusterblast-1_all_1_7_1"  />
</g>
<g id="a1_002"  >
<polygon points="113,390 140,390 145,385 140,380 113,380 113,390 " style="fill:white; stroke-width:1; stroke:black; " description="&lt;b&gt;BAD99414.1&lt;/b&gt;&lt;br&gt;beta-carotene C3-hydroxylase&lt;br&gt;Location: 10673 - 10188" locus_tag="BAD99414.1" class="clusterblast-orf" id="knownclusterblast-1_all_1_7_2"  />
</g>
<g id="a1_003"  >
<polygon points="143,385 148,380 214,380 214,390 148,390 143,385 " style="fill:white; stroke-width:1; stroke:black; " description="&lt;b&gt;BAD99413.1&lt;/b&gt;&lt;br&gt;IPP isomerase&lt;br&gt;Location: 10221 - 9169" locus_tag="BAD99413.1" class="clusterblast-orf" id="knownclusterblast-1_all_1_7_3"  />
</g>
<g id="a1_004"  >
<polygon points="223,390 278,390 283,385 278,380 223,380 223,390 " style="fill:white; stroke-width:1; stroke:black; " description="&lt;b&gt;BAD99412.1&lt;/b&gt;&lt;br&gt;GGPP synthase&lt;br&gt;Location: 9029 - 8133" locus_tag="BAD99412.1" class="clusterblast-orf" id="knownclusterblast-1_all_1_7_4"  />
</g>
<g id="a1_005"  >
<polygon points="281,390 339,390 344,385 339,380 281,380 281,390 " style="fill:white; stroke-width:1; stroke:black; " description="&lt;b&gt;BAD99411.1&lt;/b&gt;&lt;br&gt;hypothetical protein&lt;br&gt;Location: 8173 - 7226" locus_tag="BAD99411.1" class="clusterblast-orf" id="knownclusterblast-1_all_1_7_5"  />
</g>
<g id="a1_006"  >
<polygon points="344,390 410,390 415,385 410,380 344,380 344,390 " style="fill:white; stroke-width:1; stroke:black; " description="&lt;b&gt;BAD99410.1&lt;/b&gt;&lt;br&gt;hypothetical protein&lt;br&gt;Location: 7226 - 6162" locus_tag="BAD99410.1" class="clusterblast-orf" id="knownclusterblast-1_all_1_7_6"  />
</g>
<g id="a1_007"  >
<polygon points="416,385 421,380 478,380 478,390 421,390 416,385 " style="fill:#d81515; stroke-width:1; stroke:black; " description="&lt;b&gt;BAD99409.1&lt;/b&gt;&lt;br&gt;phytoene synthase&lt;br&gt;Location: 6155 - 5223&lt;br&gt;&lt;br&gt;&lt;b&gt;BlastP hit with CCIMNIEH_455982&lt;/b&gt;&lt;br&gt;Percentage identity: 48&lt;br&gt;Percentage coverage: 98&lt;br&gt;BLAST bit score: 245&lt;br&gt;E-value: 1.1e-64" locus_tag="BAD99409.1" class="clusterblast-orf" id="knownclusterblast-1_all_1_7_7"  />
</g>
<g id="a1_008"  >
<polygon points="478,385 483,380 578,380 578,390 483,390 478,385 " style="fill:#15d8d8; stroke-width:1; stroke:black; " description="&lt;b&gt;BAD99408.1&lt;/b&gt;&lt;br&gt;phytoene desaturase&lt;br&gt;Location: 5226 - 3745&lt;br&gt;&lt;br&gt;&lt;b&gt;BlastP hit with CCIMNIEH_455984&lt;/b&gt;&lt;br&gt;Percentage identity: 58&lt;br&gt;Percentage coverage: 94&lt;br&gt;BLAST bit score: 571&lt;br&gt;E-value: 2e-162" locus_tag="BAD99408.1" class="clusterblast-orf" id="knownclusterblast-1_all_1_7_8"  />
</g>
<g id="a1_009"  >
<polygon points="578,385 583,380 657,380 657,390 583,390 578,385 " style="fill:white; stroke-width:1; stroke:black; " description="&lt;b&gt;BAD99407.1&lt;/b&gt;&lt;br&gt;lycopene beta-cyclase&lt;br&gt;Location: 3745 - 2567" locus_tag="BAD99407.1" class="clusterblast-orf" id="knownclusterblast-1_all_1_7_9"  />
</g>
<g id="a1_0010"  >
<polygon points="662,390 706,390 711,385 706,380 662,380 662,390 " style="fill:white; stroke-width:1; stroke:black; " description="&lt;b&gt;BAD99406.1&lt;/b&gt;&lt;br&gt;beta-carotene ketolase&lt;br&gt;Location: 2487 - 1753" locus_tag="BAD99406.1" class="clusterblast-orf" id="knownclusterblast-1_all_1_7_10"  />
</g>
<g id="a1_0011"  >
<polygon points="718,390 736,390 741,385 736,380 718,380 718,390 " style="fill:white; stroke-width:1; stroke:black; " description="&lt;b&gt;BAD99405.1&lt;/b&gt;&lt;br&gt;hypothetical protein&lt;br&gt;Location: 1648 - 1313" locus_tag="BAD99405.1" class="clusterblast-orf" id="knownclusterblast-1_all_1_7_11"  />
</g>
<g label="BGC0000643" description="BGC0000643_c1: carotenoid (20% of genes show similarity), Terpene" class="clusterblast-cluster"  >
<text x="5" y="420" class="clusterblast-acc"  >
<a xlink:href="https://mibig.secondarymetabolites.org/go/BGC0000643/1" target="_blank">BGC0000643</a>:                                                                       carotenoid (20% of genes show similarity), Terpene</text>
<line x1="10" y1="435" x2="778.0" y2="435" style="stroke-width:1; stroke:grey; "  />
</g>
<g id="a1_000"  >
<polygon points="65,435 70,430 115,430 115,440 70,440 65,435 " style="fill:white; stroke-width:1; stroke:black; " description="&lt;b&gt;ABC50107.1&lt;/b&gt;&lt;br&gt;2,2'-beta-ionone ring hydroxylase&lt;br&gt;Location: 364 - 1113" locus_tag="ABC50107.1" class="clusterblast-orf" id="knownclusterblast-1_all_1_8_0"  />
</g>
<g id="a1_001"  >
<polygon points="120,440 148,440 153,435 148,430 120,430 120,440 " style="fill:white; stroke-width:1; stroke:black; " description="&lt;b&gt;ABC50108.1&lt;/b&gt;&lt;br&gt;beta-carotene hydroxylase&lt;br&gt;Location: 1188 - 1673" locus_tag="ABC50108.1" class="clusterblast-orf" id="knownclusterblast-1_all_1_8_1"  />
</g>
<g id="a1_002"  >
<polygon points="150,435 155,430 220,430 220,440 155,440 150,435 " style="fill:white; stroke-width:1; stroke:black; " description="&lt;b&gt;ABC50109.1&lt;/b&gt;&lt;br&gt;isopentenyl pyrophosphate isomerase&lt;br&gt;Location: 1640 - 2683" locus_tag="ABC50109.1" class="clusterblast-orf" id="knownclusterblast-1_all_1_8_2"  />
</g>
<g id="a1_003"  >
<polygon points="228,440 283,440 288,435 283,430 228,430 228,440 " style="fill:white; stroke-width:1; stroke:black; " description="&lt;b&gt;ABC50110.1&lt;/b&gt;&lt;br&gt;geranylgeranyl pyrophosphate synthase&lt;br&gt;Location: 2793 - 3689" locus_tag="ABC50110.1" class="clusterblast-orf" id="knownclusterblast-1_all_1_8_3"  />
</g>
<g id="a1_004"  >
<polygon points="292,440 344,440 349,435 344,430 292,430 292,440 " style="fill:white; stroke-width:1; stroke:black; " description="&lt;b&gt;ABC50111.1&lt;/b&gt;&lt;br&gt;unknown&lt;br&gt;Location: 3745 - 4596" locus_tag="ABC50111.1" class="clusterblast-orf" id="knownclusterblast-1_all_1_8_4"  />
</g>
<g id="a1_005"  >
<polygon points="349,440 415,440 420,435 415,430 349,430 349,440 " style="fill:white; stroke-width:1; stroke:black; " description="&lt;b&gt;ABC50112.1&lt;/b&gt;&lt;br&gt;unknown&lt;br&gt;Location: 4596 - 5660" locus_tag="ABC50112.1" class="clusterblast-orf" id="knownclusterblast-1_all_1_8_5"  />
</g>
<g id="a1_006"  >
<polygon points="420,435 425,430 483,430 483,440 425,440 420,435 " style="fill:#d81515; stroke-width:1; stroke:black; " description="&lt;b&gt;ABC50113.1&lt;/b&gt;&lt;br&gt;phytoene synthase&lt;br&gt;Location: 5664 - 6596&lt;br&gt;&lt;br&gt;&lt;b&gt;BlastP hit with CCIMNIEH_455982&lt;/b&gt;&lt;br&gt;Percentage identity: 46&lt;br&gt;Percentage coverage: 98&lt;br&gt;BLAST bit score: 237&lt;br&gt;E-value: 4.1e-62" locus_tag="ABC50113.1" class="clusterblast-orf" id="knownclusterblast-1_all_1_8_6"  />
</g>
<g id="a1_007"  >
<polygon points="483,435 488,430 582,430 582,440 488,440 483,435 " style="fill:#15d8d8; stroke-width:1; stroke:black; " description="&lt;b&gt;ABC50114.1&lt;/b&gt;&lt;br&gt;phytoene desaturase&lt;br&gt;Location: 6593 - 8077&lt;br&gt;&lt;br&gt;&lt;b&gt;BlastP hit with CCIMNIEH_455984&lt;/b&gt;&lt;br&gt;Percentage identity: 59&lt;br&gt;Percentage coverage: 94&lt;br&gt;BLAST bit score: 578&lt;br&gt;E-value: 1.2e-164" locus_tag="ABC50114.1" class="clusterblast-orf" id="knownclusterblast-1_all_1_8_7"  />
</g>
<g id="a1_008"  >
<polygon points="582,435 587,430 660,430 660,440 587,440 582,435 " style="fill:white; stroke-width:1; stroke:black; " description="&lt;b&gt;ABC50115.1&lt;/b&gt;&lt;br&gt;lycopene cyclase&lt;br&gt;Location: 8074 - 9240" locus_tag="ABC50115.1" class="clusterblast-orf" id="knownclusterblast-1_all_1_8_8"  />
</g>
<g id="a1_009"  >
<polygon points="665,440 709,440 714,435 709,430 665,430 665,440 " style="fill:white; stroke-width:1; stroke:black; " description="&lt;b&gt;ABC50116.1&lt;/b&gt;&lt;br&gt;beta-carotene ketolase&lt;br&gt;Location: 9321 - 10046" locus_tag="ABC50116.1" class="clusterblast-orf" id="knownclusterblast-1_all_1_8_9"  />
</g>
</svg>
