<svg xmlns="http://www.w3.org/2000/svg" xmlns:xlink="http://www.w3.org/1999/xlink" version="1.1" x="0" y="0" height="230" width="800" viewBox="0 0 800 230" preserveAspectRatio="none"  >
<g label="Query sequence" class="clusterblast-cluster"  >
<text x="5" y="20" class="clusterblast-acc"  >
Query sequence</text>
<line x1="10" y1="35" x2="778.0" y2="35" style="stroke-width:1; stroke:grey; "  />
<polygon points="322,35 327,30 352,30 352,40 327,40 322,35 " style="fill:#d81515; stroke-width:1; stroke:black; " description="&lt;b&gt;CCIMNIEH_482539&lt;/b&gt;&lt;br&gt;unannotated protein&lt;br&gt;Location: 2 - 2495" locus_tag="CCIMNIEH_482539" class="clusterblast-orf" id="dummy-1_q0_0_all"  />
<polygon points="352,35 357,30 432,30 432,40 357,40 352,35 " style="fill:#d81515; stroke-width:1; stroke:black; " description="&lt;b&gt;CCIMNIEH_482540&lt;/b&gt;&lt;br&gt;unannotated protein&lt;br&gt;Location: 2570 - 9278" locus_tag="CCIMNIEH_482540" class="clusterblast-orf" id="dummy-1_q1_0_all"  />
<polygon points="432,35 437,30 457,30 457,40 437,40 432,35 " style="fill:#d81515; stroke-width:1; stroke:black; " description="&lt;b&gt;CCIMNIEH_482541&lt;/b&gt;&lt;br&gt;unannotated protein&lt;br&gt;Location: 9291 - 11415" locus_tag="CCIMNIEH_482541" class="clusterblast-orf" id="dummy-1_q2_0_all"  />
</g>
<g label="BGC0000090" description="BGC0000090_c1: macbecin / macbecin II (13% of genes show similarity), Polyketide" class="clusterblast-cluster"  >
<text x="5" y="70" class="clusterblast-acc"  >
<a xlink:href="https://mibig.secondarymetabolites.org/go/BGC0000090/1" target="_blank">BGC0000090</a>:                                                           macbecin / macbecin II (13% of genes show similarity), Polyketide</text>
<line x1="10" y1="85" x2="778.0" y2="85" style="stroke-width:1; stroke:grey; "  />
</g>
<g id="a1_000"  >
<polygon points="0,85 5,80 9,80 9,90 5,90 0,85 " style="fill:white; stroke-width:1; stroke:black; " description="&lt;b&gt;ACF35464.1&lt;/b&gt;&lt;br&gt;mbcU&lt;br&gt;Location: 80716 - 79931" locus_tag="ACF35464.1" class="clusterblast-orf" id="dummy-1_h1_7_0"  />
</g>
<g id="a1_001"  >
<polygon points="9,85 14,80 18,80 18,90 14,90 9,85 " style="fill:white; stroke-width:1; stroke:black; " description="&lt;b&gt;ACF35463.1&lt;/b&gt;&lt;br&gt;mbcT&lt;br&gt;Location: 79934 - 79119" locus_tag="ACF35463.1" class="clusterblast-orf" id="dummy-1_h1_7_1"  />
</g>
<g id="a1_002"  >
<polygon points="19,85 24,80 34,80 34,90 24,90 19,85 " style="fill:white; stroke-width:1; stroke:black; " description="&lt;b&gt;ACF35462.1&lt;/b&gt;&lt;br&gt;mbcS&lt;br&gt;Location: 79054 - 77831" locus_tag="ACF35462.1" class="clusterblast-orf" id="dummy-1_h1_7_2"  />
</g>
<g id="a1_003"  >
<polygon points="34,85 39,80 49,80 49,90 39,90 34,85 " style="fill:white; stroke-width:1; stroke:black; " description="&lt;b&gt;ACF35461.1&lt;/b&gt;&lt;br&gt;mbcP&lt;br&gt;Location: 77802 - 76534" locus_tag="ACF35461.1" class="clusterblast-orf" id="dummy-1_h1_7_3"  />
</g>
<g id="a1_004"  >
<polygon points="49,85 54,80 57,80 57,90 54,90 49,85 " style="fill:white; stroke-width:1; stroke:black; " description="&lt;b&gt;ACF35460.1&lt;/b&gt;&lt;br&gt;mbcG&lt;br&gt;Location: 76537 - 75881" locus_tag="ACF35460.1" class="clusterblast-orf" id="dummy-1_h1_7_4"  />
</g>
<g id="a1_005"  >
<polygon points="60,90 65,90 70,85 65,80 60,80 60,90 " style="fill:white; stroke-width:1; stroke:black; " description="&lt;b&gt;ACF35459.1&lt;/b&gt;&lt;br&gt;mbcK&lt;br&gt;Location: 75628 - 74762" locus_tag="ACF35459.1" class="clusterblast-orf" id="dummy-1_h1_7_5"  />
</g>
<g id="a1_006"  >
<polygon points="70,90 73,85 70,80 70,90 " style="fill:white; stroke-width:1; stroke:black; " description="&lt;b&gt;ACF35458.1&lt;/b&gt;&lt;br&gt;mbcJ&lt;br&gt;Location: 74765 - 74490" locus_tag="ACF35458.1" class="clusterblast-orf" id="dummy-1_h1_7_6"  />
</g>
<g id="a1_007"  >
<polygon points="73,90 82,90 87,85 82,80 73,80 73,90 " style="fill:white; stroke-width:1; stroke:black; " description="&lt;b&gt;ACF35457.1&lt;/b&gt;&lt;br&gt;mbcI&lt;br&gt;Location: 74493 - 73336" locus_tag="ACF35457.1" class="clusterblast-orf" id="dummy-1_h1_7_7"  />
</g>
<g id="a1_008"  >
<polygon points="87,90 95,90 100,85 95,80 87,80 87,90 " style="fill:white; stroke-width:1; stroke:black; " description="&lt;b&gt;ACF35456.1&lt;/b&gt;&lt;br&gt;mbcH&lt;br&gt;Location: 73339 - 72248" locus_tag="ACF35456.1" class="clusterblast-orf" id="dummy-1_h1_7_8"  />
</g>
<g id="a1_009"  >
<polygon points="101,90 119,90 124,85 119,80 101,80 101,90 " style="fill:white; stroke-width:1; stroke:black; " description="&lt;b&gt;ACF35455.1&lt;/b&gt;&lt;br&gt;mbcN&lt;br&gt;Location: 72194 - 70185" locus_tag="ACF35455.1" class="clusterblast-orf" id="dummy-1_h1_7_9"  />
</g>
<g id="a1_0010"  >
<polygon points="131,90 137,90 142,85 137,80 131,80 131,90 " style="fill:white; stroke-width:1; stroke:black; " description="&lt;b&gt;ACF35454.1&lt;/b&gt;&lt;br&gt;mbcQ&lt;br&gt;Location: 69661 - 68690" locus_tag="ACF35454.1" class="clusterblast-orf" id="dummy-1_h1_7_10"  />
</g>
<g id="a1_0011"  >
<polygon points="142,85 147,80 147,80 147,90 147,90 142,85 " style="fill:white; stroke-width:1; stroke:black; " description="&lt;b&gt;ACF35453.1&lt;/b&gt;&lt;br&gt;mbcL&lt;br&gt;Location: 68732 - 68301" locus_tag="ACF35453.1" class="clusterblast-orf" id="dummy-1_h1_7_11"  />
</g>
<g id="a1_0012"  >
<polygon points="150,90 158,90 163,85 158,80 150,80 150,90 " style="fill:white; stroke-width:1; stroke:black; " description="&lt;b&gt;ACF35452.1&lt;/b&gt;&lt;br&gt;mbcE&lt;br&gt;Location: 68057 - 66891" locus_tag="ACF35452.1" class="clusterblast-orf" id="dummy-1_h1_7_12"  />
</g>
<g id="a1_0013"  >
<polygon points="164,90 173,90 178,85 173,80 164,80 164,90 " style="fill:white; stroke-width:1; stroke:black; " description="&lt;b&gt;ACF35451.1&lt;/b&gt;&lt;br&gt;mbcD&lt;br&gt;Location: 66853 - 65693" locus_tag="ACF35451.1" class="clusterblast-orf" id="dummy-1_h1_7_13"  />
</g>
<g id="a1_0014"  >
<polygon points="178,90 182,90 187,85 182,80 178,80 178,90 " style="fill:white; stroke-width:1; stroke:black; " description="&lt;b&gt;ACF35450.1&lt;/b&gt;&lt;br&gt;mbcC&lt;br&gt;Location: 65696 - 64899" locus_tag="ACF35450.1" class="clusterblast-orf" id="dummy-1_h1_7_14"  />
</g>
<g id="a1_0015"  >
<polygon points="188,85 193,80 206,80 206,90 193,90 188,85 " style="fill:white; stroke-width:1; stroke:black; " description="&lt;b&gt;ACF35449.1&lt;/b&gt;&lt;br&gt;mbcM&lt;br&gt;Location: 64852 - 63281" locus_tag="ACF35449.1" class="clusterblast-orf" id="dummy-1_h1_7_15"  />
</g>
<g id="a1_0016"  >
<polygon points="206,85 211,80 215,80 215,90 211,90 206,85 " style="fill:white; stroke-width:1; stroke:black; " description="&lt;b&gt;ACF35448.1&lt;/b&gt;&lt;br&gt;mbcF&lt;br&gt;Location: 63276 - 62500" locus_tag="ACF35448.1" class="clusterblast-orf" id="dummy-1_h1_7_16"  />
</g>
<g id="a1_0017"  >
<polygon points="216,85 221,80 353,80 353,90 221,90 216,85 " style="fill:#d81515; stroke-width:1; stroke:black; " description="&lt;b&gt;ACF35447.1&lt;/b&gt;&lt;br&gt;mbcAIII&lt;br&gt;Location: 62491 - 50867&lt;br&gt;&lt;br&gt;&lt;b&gt;BlastP hit with CCIMNIEH_482539&lt;/b&gt;&lt;br&gt;Percentage identity: 56&lt;br&gt;Percentage coverage: 103&lt;br&gt;BLAST bit score: 805&lt;br&gt;E-value: 9.8e-233&lt;br&gt;&lt;br&gt;&lt;b&gt;BlastP hit with CCIMNIEH_482540&lt;/b&gt;&lt;br&gt;Percentage identity: 46&lt;br&gt;Percentage coverage: 99&lt;br&gt;BLAST bit score: 1498&lt;br&gt;E-value: 0.0" locus_tag="ACF35447.1" class="clusterblast-orf" id="dummy-1_h1_7_17"  />
</g>
<g id="a1_0018"  >
<polygon points="353,85 358,80 474,80 474,90 358,90 353,85 " style="fill:#d81515; stroke-width:1; stroke:black; " description="&lt;b&gt;ACF35446.1&lt;/b&gt;&lt;br&gt;mbcAII&lt;br&gt;Location: 50859 - 40654&lt;br&gt;&lt;br&gt;&lt;b&gt;BlastP hit with CCIMNIEH_482539&lt;/b&gt;&lt;br&gt;Percentage identity: 52&lt;br&gt;Percentage coverage: 100&lt;br&gt;BLAST bit score: 713&lt;br&gt;E-value: 3e-205" locus_tag="ACF35446.1" class="clusterblast-orf" id="dummy-1_h1_7_18"  />
</g>
<g id="a1_0019"  >
<polygon points="474,85 479,80 715,80 715,90 479,90 474,85 " style="fill:#d81515; stroke-width:1; stroke:black; " description="&lt;b&gt;ACF35445.1&lt;/b&gt;&lt;br&gt;mbcAI&lt;br&gt;Location: 40657 - 20330&lt;br&gt;&lt;br&gt;&lt;b&gt;BlastP hit with CCIMNIEH_482539&lt;/b&gt;&lt;br&gt;Percentage identity: 54&lt;br&gt;Percentage coverage: 97&lt;br&gt;BLAST bit score: 722&lt;br&gt;E-value: 1.1e-207&lt;br&gt;&lt;br&gt;&lt;b&gt;BlastP hit with CCIMNIEH_482540&lt;/b&gt;&lt;br&gt;Percentage identity: 50&lt;br&gt;Percentage coverage: 96&lt;br&gt;BLAST bit score: 1653&lt;br&gt;E-value: 0.0" locus_tag="ACF35445.1" class="clusterblast-orf" id="dummy-1_h1_7_19"  />
</g>
<g id="a1_0020"  >
<polygon points="719,90 723,90 728,85 723,80 719,80 719,90 " style="fill:white; stroke-width:1; stroke:black; " description="&lt;b&gt;ACF35444.1&lt;/b&gt;&lt;br&gt;mbcB&lt;br&gt;Location: 20066 - 19263" locus_tag="ACF35444.1" class="clusterblast-orf" id="dummy-1_h1_7_20"  />
</g>
<g id="a1_0021"  >
<polygon points="730,90 738,90 743,85 738,80 730,80 730,90 " style="fill:white; stroke-width:1; stroke:black; " description="&lt;b&gt;ACF35443.1&lt;/b&gt;&lt;br&gt;mbcO&lt;br&gt;Location: 19074 - 18025" locus_tag="ACF35443.1" class="clusterblast-orf" id="dummy-1_h1_7_21"  />
</g>
<g id="a1_0022"  >
<polygon points="744,85 749,80 780,80 780,90 749,90 744,85 " style="fill:white; stroke-width:1; stroke:black; " description="&lt;b&gt;ACF35442.1&lt;/b&gt;&lt;br&gt;mbcRII&lt;br&gt;Location: 17909 - 14925" locus_tag="ACF35442.1" class="clusterblast-orf" id="dummy-1_h1_7_22"  />
</g>
</svg>
