<svg xmlns="http://www.w3.org/2000/svg" xmlns:xlink="http://www.w3.org/1999/xlink" version="1.1" x="0" y="0" height="100" width="800" viewBox="0 0 800 100" preserveAspectRatio="none"  >
<g label="Query sequence" class="clusterblast-cluster"  >
<text x="5" y="20" class="clusterblast-acc"  >
Query sequence</text>
<line x1="10" y1="35" x2="778.0" y2="35" style="stroke-width:1; stroke:grey; "  />
<polygon points="183,40 202,40 207,35 202,30 183,30 183,40 " style="fill:white; stroke-width:1; stroke:black; " description="&lt;b&gt;CCIMNIEH_601695&lt;/b&gt;&lt;br&gt;unannotated protein&lt;br&gt;Location: 0 - 960" locus_tag="CCIMNIEH_601695" class="clusterblast-orf" id="knownclusterblast-1_q0_0_all"  />
<polygon points="208,40 223,40 228,35 223,30 208,30 208,40 " style="fill:white; stroke-width:1; stroke:black; " description="&lt;b&gt;CCIMNIEH_601696&lt;/b&gt;&lt;br&gt;unannotated protein&lt;br&gt;Location: 972 - 1767" locus_tag="CCIMNIEH_601696" class="clusterblast-orf" id="knownclusterblast-1_q1_0_all"  />
<polygon points="229,40 285,40 290,35 285,30 229,30 229,40 " style="fill:white; stroke-width:1; stroke:black; " description="&lt;b&gt;CCIMNIEH_601697&lt;/b&gt;&lt;br&gt;unannotated protein&lt;br&gt;Location: 1805 - 4226" locus_tag="CCIMNIEH_601697" class="clusterblast-orf" id="knownclusterblast-1_q2_0_all"  />
<polygon points="298,40 316,40 321,35 316,30 298,30 298,40 " style="fill:white; stroke-width:1; stroke:black; " description="&lt;b&gt;CCIMNIEH_601698&lt;/b&gt;&lt;br&gt;unannotated protein&lt;br&gt;Location: 4542 - 5454" locus_tag="CCIMNIEH_601698" class="clusterblast-orf" id="knownclusterblast-1_q3_0_all"  />
<polygon points="324,40 338,40 343,35 338,30 324,30 324,40 " style="fill:#d81515; stroke-width:1; stroke:black; " description="&lt;b&gt;CCIMNIEH_601699&lt;/b&gt;&lt;br&gt;unannotated protein&lt;br&gt;Location: 5593 - 6346" locus_tag="CCIMNIEH_601699" class="clusterblast-orf" id="knownclusterblast-1_q4_0_all"  />
<polygon points="343,40 345,40 350,35 345,30 343,30 343,40 " style="fill:white; stroke-width:1; stroke:black; " description="&lt;b&gt;CCIMNIEH_601700&lt;/b&gt;&lt;br&gt;unannotated protein&lt;br&gt;Location: 6342 - 6618" locus_tag="CCIMNIEH_601700" class="clusterblast-orf" id="knownclusterblast-1_q5_0_all"  />
<polygon points="349,40 374,40 379,35 374,30 349,30 349,40 " style="fill:#15d8d8; stroke-width:1; stroke:black; " description="&lt;b&gt;CCIMNIEH_601701&lt;/b&gt;&lt;br&gt;unannotated protein&lt;br&gt;Location: 6589 - 7762" locus_tag="CCIMNIEH_601701" class="clusterblast-orf" id="knownclusterblast-1_q6_0_all"  />
<polygon points="378,40 419,40 424,35 419,30 378,30 378,40 " style="fill:white; stroke-width:1; stroke:black; " description="&lt;b&gt;CCIMNIEH_601702&lt;/b&gt;&lt;br&gt;unannotated protein&lt;br&gt;Location: 7727 - 9554" locus_tag="CCIMNIEH_601702" class="clusterblast-orf" id="knownclusterblast-1_q7_0_all"  />
<polygon points="426,35 430,30 430,40 426,35 " style="fill:white; stroke-width:1; stroke:black; " description="&lt;b&gt;CCIMNIEH_601703&lt;/b&gt;&lt;br&gt;unannotated protein&lt;br&gt;Location: 9657 - 9816" locus_tag="CCIMNIEH_601703" class="clusterblast-orf" id="knownclusterblast-1_q8_0_all"  />
<polygon points="436,35 441,30 468,30 468,40 441,40 436,35 " style="fill:white; stroke-width:1; stroke:black; " description="&lt;b&gt;CCIMNIEH_601704&lt;/b&gt;&lt;br&gt;unannotated protein&lt;br&gt;Location: 10025 - 11309" locus_tag="CCIMNIEH_601704" class="clusterblast-orf" id="knownclusterblast-1_q9_0_all"  />
<polygon points="472,40 491,40 496,35 491,30 472,30 472,40 " style="fill:white; stroke-width:1; stroke:black; " description="&lt;b&gt;CCIMNIEH_601705&lt;/b&gt;&lt;br&gt;unannotated protein&lt;br&gt;Location: 11478 - 12408" locus_tag="CCIMNIEH_601705" class="clusterblast-orf" id="knownclusterblast-1_q10_0_all"  />
<polygon points="502,35 507,30 546,30 546,40 507,40 502,35 " style="fill:white; stroke-width:1; stroke:black; " description="&lt;b&gt;CCIMNIEH_601706&lt;/b&gt;&lt;br&gt;unannotated protein&lt;br&gt;Location: 12635 - 14414" locus_tag="CCIMNIEH_601706" class="clusterblast-orf" id="knownclusterblast-1_q11_0_all"  />
<polygon points="551,35 556,30 596,30 596,40 556,40 551,35 " style="fill:white; stroke-width:1; stroke:black; " description="&lt;b&gt;CCIMNIEH_601707&lt;/b&gt;&lt;br&gt;unannotated protein&lt;br&gt;Location: 14602 - 16399" locus_tag="CCIMNIEH_601707" class="clusterblast-orf" id="knownclusterblast-1_q12_0_all"  />
</g>
<g label="BGC0001100" description="BGC0001100_c1: lankacidin C (13% of genes show similarity), NRP + Polyketide" class="clusterblast-cluster"  >
<text x="5" y="70" class="clusterblast-acc"  >
<a xlink:href="https://mibig.secondarymetabolites.org/go/BGC0001100/1" target="_blank">BGC0001100</a>:                                                                     lankacidin C (13% of genes show similarity), NRP + Polyketide</text>
<line x1="10" y1="85" x2="778.0" y2="85" style="stroke-width:1; stroke:grey; "  />
</g>
<g id="a1_000"  >
<polygon points="0,90 117,90 122,85 117,80 0,80 0,90 " style="fill:white; stroke-width:1; stroke:black; " description="&lt;b&gt;BAC76476.1&lt;/b&gt;&lt;br&gt;multifunctional polyketide-peptide synthase LkcA&lt;br&gt;Location: 30960 - 26092" locus_tag="BAC76476.1" class="clusterblast-orf" id="knownclusterblast-1_all_1_1_0"  />
</g>
<g id="a1_001"  >
<polygon points="122,90 138,90 143,85 138,80 122,80 122,90 " style="fill:white; stroke-width:1; stroke:black; " description="&lt;b&gt;BAC76475.1&lt;/b&gt;&lt;br&gt;dehydratase LkcB&lt;br&gt;Location: 26095 - 25265" locus_tag="BAC76475.1" class="clusterblast-orf" id="knownclusterblast-1_all_1_1_1"  />
</g>
<g id="a1_002"  >
<polygon points="144,90 280,90 285,85 280,80 144,80 144,90 " style="fill:white; stroke-width:1; stroke:black; " description="&lt;b&gt;BAC76474.1&lt;/b&gt;&lt;br&gt;type I polyketide synthase LkcC&lt;br&gt;Location: 25235 - 19647" locus_tag="BAC76474.1" class="clusterblast-orf" id="knownclusterblast-1_all_1_1_2"  />
</g>
<g id="a1_003"  >
<polygon points="285,90 302,90 307,85 302,80 285,80 285,90 " style="fill:white; stroke-width:1; stroke:black; " description="&lt;b&gt;BAC76473.1&lt;/b&gt;&lt;br&gt;acyltransferase LkcD&lt;br&gt;Location: 19635 - 18754" locus_tag="BAC76473.1" class="clusterblast-orf" id="knownclusterblast-1_all_1_1_3"  />
</g>
<g id="a1_004"  >
<polygon points="307,90 335,90 340,85 335,80 307,80 307,90 " style="fill:white; stroke-width:1; stroke:black; " description="&lt;b&gt;BAC76472.1&lt;/b&gt;&lt;br&gt;amine oxidase LkcE&lt;br&gt;Location: 18754 - 17438" locus_tag="BAC76472.1" class="clusterblast-orf" id="knownclusterblast-1_all_1_1_4"  />
</g>
<g id="a1_005"  >
<polygon points="342,90 514,90 519,85 514,80 342,80 342,90 " style="fill:white; stroke-width:1; stroke:black; " description="&lt;b&gt;BAC76471.1&lt;/b&gt;&lt;br&gt;type I polyketide synthase LkcF&lt;br&gt;Location: 17385 - 10345" locus_tag="BAC76471.1" class="clusterblast-orf" id="knownclusterblast-1_all_1_1_5"  />
</g>
<g id="a1_006"  >
<polygon points="520,90 585,90 590,85 585,80 520,80 520,90 " style="fill:white; stroke-width:1; stroke:black; " description="&lt;b&gt;BAC76470.1&lt;/b&gt;&lt;br&gt;type I polyketide synthase LkcG&lt;br&gt;Location: 10293 - 7513" locus_tag="BAC76470.1" class="clusterblast-orf" id="knownclusterblast-1_all_1_1_6"  />
</g>
<g id="a1_007"  >
<polygon points="592,90 601,90 606,85 601,80 592,80 592,90 " style="fill:white; stroke-width:1; stroke:black; " description="&lt;b&gt;BAC76469.1&lt;/b&gt;&lt;br&gt;probable isochorismatase&lt;br&gt;Location: 7448 - 6894" locus_tag="BAC76469.1" class="clusterblast-orf" id="knownclusterblast-1_all_1_1_7"  />
</g>
<g id="a1_008"  >
<polygon points="607,85 612,80 650,80 650,90 612,90 607,85 " style="fill:white; stroke-width:1; stroke:black; " description="&lt;b&gt;BAC76468.1&lt;/b&gt;&lt;br&gt;putative ABC transporter protein&lt;br&gt;Location: 6838 - 5129" locus_tag="BAC76468.1" class="clusterblast-orf" id="knownclusterblast-1_all_1_1_8"  />
</g>
<g id="a1_009"  >
<polygon points="650,85 655,80 691,80 691,90 655,90 650,85 " style="fill:white; stroke-width:1; stroke:black; " description="&lt;b&gt;BAC76467.1&lt;/b&gt;&lt;br&gt;putative ABC transporter protein&lt;br&gt;Location: 5136 - 3499" locus_tag="BAC76467.1" class="clusterblast-orf" id="knownclusterblast-1_all_1_1_9"  />
</g>
<g id="a1_0010"  >
<polygon points="701,90 704,85 701,80 701,90 " style="fill:white; stroke-width:1; stroke:black; " description="&lt;b&gt;BAC76466.1&lt;/b&gt;&lt;br&gt;pyrroloquinoline quinone biosynthesis protein A&lt;br&gt;Location: 3109 - 3005" locus_tag="BAC76466.1" class="clusterblast-orf" id="knownclusterblast-1_all_1_1_10"  />
</g>
<g id="a1_0011"  >
<polygon points="704,90 718,90 723,85 718,80 704,80 704,90 " style="fill:#d81515; stroke-width:1; stroke:black; " description="&lt;b&gt;BAC76465.1&lt;/b&gt;&lt;br&gt;pyrroloquinoline quinone biosynthesis protein C&lt;br&gt;Location: 2978 - 2250&lt;br&gt;&lt;br&gt;&lt;b&gt;BlastP hit with CCIMNIEH_601699&lt;/b&gt;&lt;br&gt;Percentage identity: 47&lt;br&gt;Percentage coverage: 88&lt;br&gt;BLAST bit score: 203&lt;br&gt;E-value: 5.1e-52" locus_tag="BAC76465.1" class="clusterblast-orf" id="knownclusterblast-1_all_1_1_11"  />
</g>
<g id="a1_0012"  >
<polygon points="723,90 725,90 730,85 725,80 723,80 723,90 " style="fill:white; stroke-width:1; stroke:black; " description="&lt;b&gt;BAC76464.1&lt;/b&gt;&lt;br&gt;pyrroloquinoline quinone biosynthesis protein D&lt;br&gt;Location: 2253 - 1981" locus_tag="BAC76464.1" class="clusterblast-orf" id="knownclusterblast-1_all_1_1_12"  />
</g>
<g id="a1_0013"  >
<polygon points="729,90 752,90 757,85 752,80 729,80 729,90 " style="fill:#15d8d8; stroke-width:1; stroke:black; " description="&lt;b&gt;BAC76463.1&lt;/b&gt;&lt;br&gt;pyrroloquinoline quinone biosynthesis protein E&lt;br&gt;Location: 1988 - 894&lt;br&gt;&lt;br&gt;&lt;b&gt;BlastP hit with CCIMNIEH_601701&lt;/b&gt;&lt;br&gt;Percentage identity: 48&lt;br&gt;Percentage coverage: 90&lt;br&gt;BLAST bit score: 348&lt;br&gt;E-value: 1.5e-95" locus_tag="BAC76463.1" class="clusterblast-orf" id="knownclusterblast-1_all_1_1_13"  />
</g>
<g id="a1_0014"  >
<polygon points="757,90 775,90 780,85 775,80 757,80 757,90 " style="fill:white; stroke-width:1; stroke:black; " description="&lt;b&gt;BAC76462.1&lt;/b&gt;&lt;br&gt;pyrroloquinoline quinone biosynthesis protein B&lt;br&gt;Location: 891 - 1" locus_tag="BAC76462.1" class="clusterblast-orf" id="knownclusterblast-1_all_1_1_14"  />
</g>
</svg>
