<svg xmlns="http://www.w3.org/2000/svg" xmlns:xlink="http://www.w3.org/1999/xlink" version="1.1" x="0" y="0" height="50" width="800" viewBox="0 0 800 50" preserveAspectRatio="none"  >
<g label="Query sequence" class="clusterblast-cluster"  >
<text x="5" y="20" class="clusterblast-acc"  >
Query sequence</text>
<line x1="10" y1="35" x2="778.0" y2="35" style="stroke-width:1; stroke:grey; "  />
<polygon points="0,40 11,40 16,35 11,30 0,30 0,40 " style="fill:white; stroke-width:1; stroke:black; " description="&lt;b&gt;CCIMNIEH_661086&lt;/b&gt;&lt;br&gt;unannotated protein&lt;br&gt;Location: 598 - 1375" locus_tag="CCIMNIEH_661086" class="clusterblast-orf" id="knownclusterblast-1_q0_0_all"  />
<polygon points="24,40 53,40 58,35 53,30 24,30 24,40 " style="fill:white; stroke-width:1; stroke:black; " description="&lt;b&gt;CCIMNIEH_661087&lt;/b&gt;&lt;br&gt;unannotated protein&lt;br&gt;Location: 1759 - 3367" locus_tag="CCIMNIEH_661087" class="clusterblast-orf" id="knownclusterblast-1_q1_0_all"  />
<polygon points="60,35 65,30 77,30 77,40 65,40 60,35 " style="fill:white; stroke-width:1; stroke:black; " description="&lt;b&gt;CCIMNIEH_661088&lt;/b&gt;&lt;br&gt;unannotated protein&lt;br&gt;Location: 3477 - 4284" locus_tag="CCIMNIEH_661088" class="clusterblast-orf" id="knownclusterblast-1_q2_0_all"  />
<polygon points="77,35 82,30 116,30 116,40 82,40 77,35 " style="fill:white; stroke-width:1; stroke:black; " description="&lt;b&gt;CCIMNIEH_661089&lt;/b&gt;&lt;br&gt;unannotated protein&lt;br&gt;Location: 4285 - 6109" locus_tag="CCIMNIEH_661089" class="clusterblast-orf" id="knownclusterblast-1_q3_0_all"  />
<polygon points="117,40 127,40 132,35 127,30 117,30 117,40 " style="fill:white; stroke-width:1; stroke:black; " description="&lt;b&gt;CCIMNIEH_661090&lt;/b&gt;&lt;br&gt;unannotated protein&lt;br&gt;Location: 6189 - 6876" locus_tag="CCIMNIEH_661090" class="clusterblast-orf" id="knownclusterblast-1_q4_0_all"  />
<polygon points="132,35 137,30 160,30 160,40 137,40 132,35 " style="fill:white; stroke-width:1; stroke:black; " description="&lt;b&gt;CCIMNIEH_661091&lt;/b&gt;&lt;br&gt;unannotated protein&lt;br&gt;Location: 6878 - 8195" locus_tag="CCIMNIEH_661091" class="clusterblast-orf" id="knownclusterblast-1_q5_0_all"  />
<polygon points="160,35 165,30 186,30 186,40 165,40 160,35 " style="fill:white; stroke-width:1; stroke:black; " description="&lt;b&gt;CCIMNIEH_661092&lt;/b&gt;&lt;br&gt;unannotated protein&lt;br&gt;Location: 8197 - 9445" locus_tag="CCIMNIEH_661092" class="clusterblast-orf" id="knownclusterblast-1_q6_0_all"  />
<polygon points="187,40 195,40 200,35 195,30 187,30 187,40 " style="fill:white; stroke-width:1; stroke:black; " description="&lt;b&gt;CCIMNIEH_661093&lt;/b&gt;&lt;br&gt;unannotated protein&lt;br&gt;Location: 9512 - 10097" locus_tag="CCIMNIEH_661093" class="clusterblast-orf" id="knownclusterblast-1_q7_0_all"  />
<polygon points="201,35 206,30 250,30 250,40 206,40 201,35 " style="fill:white; stroke-width:1; stroke:black; " description="&lt;b&gt;CCIMNIEH_661094&lt;/b&gt;&lt;br&gt;unannotated protein&lt;br&gt;Location: 10147 - 12484" locus_tag="CCIMNIEH_661094" class="clusterblast-orf" id="knownclusterblast-1_q8_0_all"  />
<polygon points="253,40 256,40 261,35 256,30 253,30 253,40 " style="fill:white; stroke-width:1; stroke:black; " description="&lt;b&gt;CCIMNIEH_661095&lt;/b&gt;&lt;br&gt;unannotated protein&lt;br&gt;Location: 12638 - 13016" locus_tag="CCIMNIEH_661095" class="clusterblast-orf" id="knownclusterblast-1_q9_0_all"  />
<polygon points="261,40 290,40 295,35 290,30 261,30 261,40 " style="fill:white; stroke-width:1; stroke:black; " description="&lt;b&gt;CCIMNIEH_661096&lt;/b&gt;&lt;br&gt;unannotated protein&lt;br&gt;Location: 13029 - 14628" locus_tag="CCIMNIEH_661096" class="clusterblast-orf" id="knownclusterblast-1_q10_0_all"  />
<polygon points="297,40 302,40 307,35 302,30 297,30 297,40 " style="fill:white; stroke-width:1; stroke:black; " description="&lt;b&gt;CCIMNIEH_661097&lt;/b&gt;&lt;br&gt;unannotated protein&lt;br&gt;Location: 14698 - 15211" locus_tag="CCIMNIEH_661097" class="clusterblast-orf" id="knownclusterblast-1_q11_0_all"  />
<polygon points="308,35 313,30 316,30 316,40 313,40 308,35 " style="fill:white; stroke-width:1; stroke:black; " description="&lt;b&gt;CCIMNIEH_661098&lt;/b&gt;&lt;br&gt;unannotated protein&lt;br&gt;Location: 15238 - 15619" locus_tag="CCIMNIEH_661098" class="clusterblast-orf" id="knownclusterblast-1_q12_0_all"  />
<polygon points="318,40 332,40 337,35 332,30 318,30 318,40 " style="fill:white; stroke-width:1; stroke:black; " description="&lt;b&gt;CCIMNIEH_661099&lt;/b&gt;&lt;br&gt;unannotated protein&lt;br&gt;Location: 15721 - 16630" locus_tag="CCIMNIEH_661099" class="clusterblast-orf" id="knownclusterblast-1_q13_0_all"  />
<polygon points="337,40 349,40 354,35 349,30 337,30 337,40 " style="fill:white; stroke-width:1; stroke:black; " description="&lt;b&gt;CCIMNIEH_661100&lt;/b&gt;&lt;br&gt;unannotated protein&lt;br&gt;Location: 16626 - 17412" locus_tag="CCIMNIEH_661100" class="clusterblast-orf" id="knownclusterblast-1_q14_0_all"  />
<polygon points="354,40 367,40 372,35 367,30 354,30 354,40 " style="fill:white; stroke-width:1; stroke:black; " description="&lt;b&gt;CCIMNIEH_661101&lt;/b&gt;&lt;br&gt;unannotated protein&lt;br&gt;Location: 17442 - 18255" locus_tag="CCIMNIEH_661101" class="clusterblast-orf" id="knownclusterblast-1_q15_0_all"  />
<polygon points="371,40 376,40 381,35 376,30 371,30 371,40 " style="fill:white; stroke-width:1; stroke:black; " description="&lt;b&gt;CCIMNIEH_661102&lt;/b&gt;&lt;br&gt;unannotated protein&lt;br&gt;Location: 18251 - 18686" locus_tag="CCIMNIEH_661102" class="clusterblast-orf" id="knownclusterblast-1_q16_0_all"  />
<polygon points="383,40 401,40 406,35 401,30 383,30 383,40 " style="fill:white; stroke-width:1; stroke:black; " description="&lt;b&gt;CCIMNIEH_661103&lt;/b&gt;&lt;br&gt;unannotated protein&lt;br&gt;Location: 18805 - 19876" locus_tag="CCIMNIEH_661103" class="clusterblast-orf" id="knownclusterblast-1_q17_0_all"  />
<polygon points="406,40 424,40 429,35 424,30 406,30 406,40 " style="fill:white; stroke-width:1; stroke:black; " description="&lt;b&gt;CCIMNIEH_661104&lt;/b&gt;&lt;br&gt;unannotated protein&lt;br&gt;Location: 19875 - 20970" locus_tag="CCIMNIEH_661104" class="clusterblast-orf" id="knownclusterblast-1_q18_0_all"  />
<polygon points="428,35 433,30 444,30 444,40 433,40 428,35 " style="fill:white; stroke-width:1; stroke:black; " description="&lt;b&gt;CCIMNIEH_661105&lt;/b&gt;&lt;br&gt;unannotated protein&lt;br&gt;Location: 20956 - 21673" locus_tag="CCIMNIEH_661105" class="clusterblast-orf" id="knownclusterblast-1_q19_0_all"  />
<polygon points="446,40 449,40 454,35 449,30 446,30 446,40 " style="fill:white; stroke-width:1; stroke:black; " description="&lt;b&gt;CCIMNIEH_661106&lt;/b&gt;&lt;br&gt;unannotated protein&lt;br&gt;Location: 21774 - 22179" locus_tag="CCIMNIEH_661106" class="clusterblast-orf" id="knownclusterblast-1_q20_0_all"  />
<polygon points="457,35 462,30 475,30 475,40 462,40 457,35 " style="fill:white; stroke-width:1; stroke:black; " description="&lt;b&gt;CCIMNIEH_661107&lt;/b&gt;&lt;br&gt;unannotated protein&lt;br&gt;Location: 22320 - 23157" locus_tag="CCIMNIEH_661107" class="clusterblast-orf" id="knownclusterblast-1_q21_0_all"  />
<polygon points="475,35 479,30 479,40 475,35 " style="fill:white; stroke-width:1; stroke:black; " description="&lt;b&gt;CCIMNIEH_661108&lt;/b&gt;&lt;br&gt;unannotated protein&lt;br&gt;Location: 23162 - 23363" locus_tag="CCIMNIEH_661108" class="clusterblast-orf" id="knownclusterblast-1_q22_0_all"  />
<polygon points="490,40 527,40 532,35 527,30 490,30 490,40 " style="fill:white; stroke-width:1; stroke:black; " description="&lt;b&gt;CCIMNIEH_661109&lt;/b&gt;&lt;br&gt;unannotated protein&lt;br&gt;Location: 23869 - 25894" locus_tag="CCIMNIEH_661109" class="clusterblast-orf" id="knownclusterblast-1_q23_0_all"  />
<polygon points="532,35 537,30 542,30 542,40 537,40 532,35 " style="fill:white; stroke-width:1; stroke:black; " description="&lt;b&gt;CCIMNIEH_661110&lt;/b&gt;&lt;br&gt;unannotated protein&lt;br&gt;Location: 25894 - 26332" locus_tag="CCIMNIEH_661110" class="clusterblast-orf" id="knownclusterblast-1_q24_0_all"  />
<polygon points="542,35 547,30 586,30 586,40 547,40 542,35 " style="fill:white; stroke-width:1; stroke:black; " description="&lt;b&gt;CCIMNIEH_661111&lt;/b&gt;&lt;br&gt;unannotated protein&lt;br&gt;Location: 26350 - 28444" locus_tag="CCIMNIEH_661111" class="clusterblast-orf" id="knownclusterblast-1_q25_0_all"  />
<polygon points="590,35 595,30 598,30 598,40 595,40 590,35 " style="fill:white; stroke-width:1; stroke:black; " description="&lt;b&gt;CCIMNIEH_661112&lt;/b&gt;&lt;br&gt;unannotated protein&lt;br&gt;Location: 28628 - 29021" locus_tag="CCIMNIEH_661112" class="clusterblast-orf" id="knownclusterblast-1_q26_0_all"  />
<polygon points="600,35 605,30 650,30 650,40 605,40 600,35 " style="fill:white; stroke-width:1; stroke:black; " description="&lt;b&gt;CCIMNIEH_661113&lt;/b&gt;&lt;br&gt;unannotated protein&lt;br&gt;Location: 29110 - 31486" locus_tag="CCIMNIEH_661113" class="clusterblast-orf" id="knownclusterblast-1_q27_0_all"  />
<polygon points="655,40 682,40 687,35 682,30 655,30 655,40 " style="fill:white; stroke-width:1; stroke:black; " description="&lt;b&gt;CCIMNIEH_661114&lt;/b&gt;&lt;br&gt;unannotated protein&lt;br&gt;Location: 31719 - 33240" locus_tag="CCIMNIEH_661114" class="clusterblast-orf" id="knownclusterblast-1_q28_0_all"  />
<polygon points="688,40 702,40 707,35 702,30 688,30 688,40 " style="fill:white; stroke-width:1; stroke:black; " description="&lt;b&gt;CCIMNIEH_661115&lt;/b&gt;&lt;br&gt;unannotated protein&lt;br&gt;Location: 33267 - 34176" locus_tag="CCIMNIEH_661115" class="clusterblast-orf" id="knownclusterblast-1_q29_0_all"  />
<polygon points="707,35 712,30 759,30 759,40 712,40 707,35 " style="fill:white; stroke-width:1; stroke:black; " description="&lt;b&gt;CCIMNIEH_661116&lt;/b&gt;&lt;br&gt;unannotated protein&lt;br&gt;Location: 34190 - 36635" locus_tag="CCIMNIEH_661116" class="clusterblast-orf" id="knownclusterblast-1_q30_0_all"  />
<polygon points="758,35 763,30 780,30 780,40 763,40 758,35 " style="fill:white; stroke-width:1; stroke:black; " description="&lt;b&gt;CCIMNIEH_661117&lt;/b&gt;&lt;br&gt;unannotated protein&lt;br&gt;Location: 36631 - 37639" locus_tag="CCIMNIEH_661117" class="clusterblast-orf" id="knownclusterblast-1_q31_0_all"  />
</g>
</svg>
