<svg xmlns="http://www.w3.org/2000/svg" xmlns:xlink="http://www.w3.org/1999/xlink" version="1.1" x="0" y="0" height="230" width="800" viewBox="0 0 800 230" preserveAspectRatio="none"  >
<g label="Query sequence" class="clusterblast-cluster"  >
<text x="5" y="20" class="clusterblast-acc"  >
Query sequence</text>
<line x1="10" y1="35" x2="778.0" y2="35" style="stroke-width:1; stroke:grey; "  />
<polygon points="232,35 237,30 262,30 262,40 237,40 232,35 " style="fill:white; stroke-width:1; stroke:black; " description="&lt;b&gt;CCIMNIEH_459415&lt;/b&gt;&lt;br&gt;unannotated protein&lt;br&gt;Location: 9254 - 10403" locus_tag="CCIMNIEH_459415" class="clusterblast-orf" id="dummy-1_q0_0_all"  />
<polygon points="265,40 283,40 288,35 283,30 265,30 265,40 " style="fill:white; stroke-width:1; stroke:black; " description="&lt;b&gt;CCIMNIEH_459416&lt;/b&gt;&lt;br&gt;unannotated protein&lt;br&gt;Location: 10513 - 11404" locus_tag="CCIMNIEH_459416" class="clusterblast-orf" id="dummy-1_q1_0_all"  />
<polygon points="288,35 293,30 304,30 304,40 293,40 288,35 " style="fill:white; stroke-width:1; stroke:black; " description="&lt;b&gt;CCIMNIEH_459417&lt;/b&gt;&lt;br&gt;unannotated protein&lt;br&gt;Location: 11393 - 12020" locus_tag="CCIMNIEH_459417" class="clusterblast-orf" id="dummy-1_q2_0_all"  />
<polygon points="304,35 309,30 355,30 355,40 309,40 304,35 " style="fill:white; stroke-width:1; stroke:black; " description="&lt;b&gt;CCIMNIEH_459418&lt;/b&gt;&lt;br&gt;unannotated protein&lt;br&gt;Location: 12016 - 13975" locus_tag="CCIMNIEH_459418" class="clusterblast-orf" id="dummy-1_q3_0_all"  />
<polygon points="363,40 382,40 387,35 382,30 363,30 363,40 " style="fill:#d81515; stroke-width:1; stroke:black; " description="&lt;b&gt;CCIMNIEH_459419&lt;/b&gt;&lt;br&gt;unannotated protein&lt;br&gt;Location: 14257 - 15193" locus_tag="CCIMNIEH_459419" class="clusterblast-orf" id="dummy-1_q4_0_all"  />
<polygon points="388,40 413,40 418,35 413,30 388,30 388,40 " style="fill:#15d8d8; stroke-width:1; stroke:black; " description="&lt;b&gt;CCIMNIEH_459420&lt;/b&gt;&lt;br&gt;unannotated protein&lt;br&gt;Location: 15244 - 16378" locus_tag="CCIMNIEH_459420" class="clusterblast-orf" id="dummy-1_q5_0_all"  />
<polygon points="425,40 456,40 461,35 456,30 425,30 425,40 " style="fill:white; stroke-width:1; stroke:black; " description="&lt;b&gt;CCIMNIEH_459421&lt;/b&gt;&lt;br&gt;unannotated protein&lt;br&gt;Location: 16632 - 18015" locus_tag="CCIMNIEH_459421" class="clusterblast-orf" id="dummy-1_q6_0_all"  />
<polygon points="462,40 465,35 462,30 462,40 " style="fill:white; stroke-width:1; stroke:black; " description="&lt;b&gt;CCIMNIEH_459422&lt;/b&gt;&lt;br&gt;unannotated protein&lt;br&gt;Location: 18036 - 18156" locus_tag="CCIMNIEH_459422" class="clusterblast-orf" id="dummy-1_q7_0_all"  />
<polygon points="467,35 472,30 484,30 484,40 472,40 467,35 " style="fill:white; stroke-width:1; stroke:black; " description="&lt;b&gt;CCIMNIEH_459423&lt;/b&gt;&lt;br&gt;unannotated protein&lt;br&gt;Location: 18250 - 18910" locus_tag="CCIMNIEH_459423" class="clusterblast-orf" id="dummy-1_q8_0_all"  />
<polygon points="484,35 489,30 536,30 536,40 489,40 484,35 " style="fill:white; stroke-width:1; stroke:black; " description="&lt;b&gt;CCIMNIEH_459424&lt;/b&gt;&lt;br&gt;unannotated protein&lt;br&gt;Location: 18909 - 20868" locus_tag="CCIMNIEH_459424" class="clusterblast-orf" id="dummy-1_q9_0_all"  />
<polygon points="536,35 541,30 548,30 548,40 541,40 536,35 " style="fill:white; stroke-width:1; stroke:black; " description="&lt;b&gt;CCIMNIEH_459425&lt;/b&gt;&lt;br&gt;unannotated protein&lt;br&gt;Location: 20882 - 21332" locus_tag="CCIMNIEH_459425" class="clusterblast-orf" id="dummy-1_q10_0_all"  />
</g>
<g label="BGC0000386" description="BGC0000386_c1: malleobactin A / malleobactin B / malleobactin C / malleobactin D (7% of genes show similarity), NRP:NRP siderophore" class="clusterblast-cluster"  >
<text x="5" y="70" class="clusterblast-acc"  >
<a xlink:href="https://mibig.secondarymetabolites.org/go/BGC0000386/1" target="_blank">BGC0000386</a>:                malleobactin A / malleobactin B / malleobactin C / malleobactin D (7% of genes show similarity), NRP:NRP siderophore</text>
<line x1="10" y1="85" x2="778.0" y2="85" style="stroke-width:1; stroke:grey; "  />
</g>
<g id="a1_000"  >
<polygon points="0,85 5,80 28,80 28,90 5,90 0,85 " style="fill:white; stroke-width:1; stroke:black; " description="&lt;b&gt;BTH_II2238&lt;/b&gt;&lt;br&gt;OpgC protein, putative&lt;br&gt;Location: 250 - 1350" locus_tag="BTH_II2238" class="clusterblast-orf" id="dummy-1_h1_1_0"  />
</g>
<g id="a1_001"  >
<polygon points="41,85 46,80 64,80 64,90 46,90 41,85 " style="fill:white; stroke-width:1; stroke:black; " description="&lt;b&gt;BTH_II2239&lt;/b&gt;&lt;br&gt;rarD protein&lt;br&gt;Location: 1818 - 2711" locus_tag="BTH_II2239" class="clusterblast-orf" id="dummy-1_h1_1_1"  />
</g>
<g id="a1_002"  >
<polygon points="64,85 69,80 76,80 76,90 69,90 64,85 " style="fill:white; stroke-width:1; stroke:black; " description="&lt;b&gt;BTH_II2240&lt;/b&gt;&lt;br&gt;acylphosphatase&lt;br&gt;Location: 2708 - 3175" locus_tag="BTH_II2240" class="clusterblast-orf" id="dummy-1_h1_1_2"  />
</g>
<g id="a1_003"  >
<polygon points="76,90 97,90 102,85 97,80 76,80 76,90 " style="fill:white; stroke-width:1; stroke:black; " description="&lt;b&gt;BTH_II2241&lt;/b&gt;&lt;br&gt;dihydroflavonol-4-reductase family protein&lt;br&gt;Location: 3156 - 4172" locus_tag="BTH_II2241" class="clusterblast-orf" id="dummy-1_h1_1_3"  />
</g>
<g id="a1_004"  >
<polygon points="147,85 152,80 178,80 178,90 152,90 147,85 " style="fill:white; stroke-width:1; stroke:black; " description="&lt;b&gt;BTH_II2242&lt;/b&gt;&lt;br&gt;glycosyl transferase, group 2 family protein&lt;br&gt;Location: 5887 - 7080" locus_tag="BTH_II2242" class="clusterblast-orf" id="dummy-1_h1_1_4"  />
</g>
<g id="a1_005"  >
<polygon points="188,90 208,90 213,85 208,80 188,80 188,90 " style="fill:#d81515; stroke-width:1; stroke:black; " description="&lt;b&gt;BTH_II2243&lt;/b&gt;&lt;br&gt;4-hydroxy-3-methylbut-2-enyl diphosphate reductase&lt;br&gt;Location: 7465 - 8406&lt;br&gt;&lt;br&gt;&lt;b&gt;BlastP hit with CCIMNIEH_459419&lt;/b&gt;&lt;br&gt;Percentage identity: 62&lt;br&gt;Percentage coverage: 100&lt;br&gt;BLAST bit score: 391&lt;br&gt;E-value: 9.7e-109" locus_tag="BTH_II2243" class="clusterblast-orf" id="dummy-1_h1_1_5"  />
</g>
<g id="a1_006"  >
<polygon points="214,90 239,90 244,85 239,80 214,80 214,90 " style="fill:#15d8d8; stroke-width:1; stroke:black; " description="&lt;b&gt;BTH_II2244&lt;/b&gt;&lt;br&gt;radical SAM domain protein&lt;br&gt;Location: 8464 - 9579&lt;br&gt;&lt;br&gt;&lt;b&gt;BlastP hit with CCIMNIEH_459420&lt;/b&gt;&lt;br&gt;Percentage identity: 73&lt;br&gt;Percentage coverage: 94&lt;br&gt;BLAST bit score: 565&lt;br&gt;E-value: 6e-161" locus_tag="BTH_II2244" class="clusterblast-orf" id="dummy-1_h1_1_6"  />
</g>
<g id="a1_007"  >
<polygon points="258,90 262,90 267,85 262,80 258,80 258,90 " style="fill:white; stroke-width:1; stroke:black; " description="&lt;b&gt;BTH_II2245&lt;/b&gt;&lt;br&gt;conserved hypothetical protein&lt;br&gt;Location: 10128 - 10481" locus_tag="BTH_II2245" class="clusterblast-orf" id="dummy-1_h1_1_7"  />
</g>
<g id="a1_008"  >
<polygon points="273,90 284,90 289,85 284,80 273,80 273,90 " style="fill:white; stroke-width:1; stroke:black; " description="&lt;b&gt;BTH_II2246&lt;/b&gt;&lt;br&gt;ISBm1, transposase orfB, degenerate&lt;br&gt;Location: 10691 - 11302" locus_tag="BTH_II2246" class="clusterblast-orf" id="dummy-1_h1_1_8"  />
</g>
<g id="a1_009"  >
<polygon points="302,90 321,90 326,85 321,80 302,80 302,90 " style="fill:white; stroke-width:1; stroke:black; " description="&lt;b&gt;BTH_II2247&lt;/b&gt;&lt;br&gt;transcriptional regulator, LysR family&lt;br&gt;Location: 11817 - 12740" locus_tag="BTH_II2247" class="clusterblast-orf" id="dummy-1_h1_1_9"  />
</g>
<g id="a1_0010"  >
<polygon points="334,90 348,90 353,85 348,80 334,80 334,90 " style="fill:white; stroke-width:1; stroke:black; " description="&lt;b&gt;BTH_II2248&lt;/b&gt;&lt;br&gt;conserved hypothetical protein&lt;br&gt;Location: 13036 - 13755" locus_tag="BTH_II2248" class="clusterblast-orf" id="dummy-1_h1_1_10"  />
</g>
<g id="a1_0011"  >
<polygon points="352,90 391,90 396,85 391,80 352,80 352,90 " style="fill:white; stroke-width:1; stroke:black; " description="&lt;b&gt;BTH_II2249&lt;/b&gt;&lt;br&gt;glutamate-1-semialdehyde aminotransferase&lt;br&gt;Location: 13715 - 15388" locus_tag="BTH_II2249" class="clusterblast-orf" id="dummy-1_h1_1_11"  />
</g>
<g id="a1_0012"  >
<polygon points="404,90 410,90 415,85 410,80 404,80 404,90 " style="fill:white; stroke-width:1; stroke:black; " description="&lt;b&gt;BTH_II2250&lt;/b&gt;&lt;br&gt;conserved hypothetical protein&lt;br&gt;Location: 15698 - 16144" locus_tag="BTH_II2250" class="clusterblast-orf" id="dummy-1_h1_1_12"  />
</g>
<g id="a1_0013"  >
<polygon points="420,85 425,80 425,80 425,90 425,90 420,85 " style="fill:white; stroke-width:1; stroke:black; " description="&lt;b&gt;BTH_II2251&lt;/b&gt;&lt;br&gt;Uncharacterized small protein&lt;br&gt;Location: 16314 - 16520" locus_tag="BTH_II2251" class="clusterblast-orf" id="dummy-1_h1_1_13"  />
</g>
<g id="a1_0014"  >
<polygon points="426,85 431,80 480,80 480,90 431,90 426,85 " style="fill:white; stroke-width:1; stroke:black; " description="&lt;b&gt;BTH_II2252&lt;/b&gt;&lt;br&gt;carbon starvation protein A&lt;br&gt;Location: 16533 - 18611" locus_tag="BTH_II2252" class="clusterblast-orf" id="dummy-1_h1_1_14"  />
</g>
<g id="a1_0015"  >
<polygon points="487,85 492,80 500,80 500,90 492,90 487,85 " style="fill:white; stroke-width:1; stroke:black; " description="&lt;b&gt;BTH_II2253&lt;/b&gt;&lt;br&gt;cytochrome p460&lt;br&gt;Location: 18870 - 19382" locus_tag="BTH_II2253" class="clusterblast-orf" id="dummy-1_h1_1_15"  />
</g>
<g id="a1_0016"  >
<polygon points="501,85 506,80 528,80 528,90 506,90 501,85 " style="fill:white; stroke-width:1; stroke:black; " description="&lt;b&gt;BTH_II2254&lt;/b&gt;&lt;br&gt;epoxide hydrolase&lt;br&gt;Location: 19400 - 20443" locus_tag="BTH_II2254" class="clusterblast-orf" id="dummy-1_h1_1_16"  />
</g>
<g id="a1_0017"  >
<polygon points="533,85 538,80 574,80 574,90 538,90 533,85 " style="fill:white; stroke-width:1; stroke:black; " description="&lt;b&gt;BTH_II2255&lt;/b&gt;&lt;br&gt;MlrC C-terminus family&lt;br&gt;Location: 20622 - 22199" locus_tag="BTH_II2255" class="clusterblast-orf" id="dummy-1_h1_1_17"  />
</g>
<g id="a1_0018"  >
<polygon points="576,90 597,90 602,85 597,80 576,80 576,90 " style="fill:white; stroke-width:1; stroke:black; " description="&lt;b&gt;BTH_II2256&lt;/b&gt;&lt;br&gt;transcriptional regulator, LysR family, putative&lt;br&gt;Location: 22290 - 23291" locus_tag="BTH_II2256" class="clusterblast-orf" id="dummy-1_h1_1_18"  />
</g>
<g id="a1_0019"  >
<polygon points="602,85 607,80 607,80 607,90 607,90 602,85 " style="fill:white; stroke-width:1; stroke:black; " description="&lt;b&gt;BTH_II2257&lt;/b&gt;&lt;br&gt;glyoxalase family protein superfamily&lt;br&gt;Location: 23267 - 23461" locus_tag="BTH_II2257" class="clusterblast-orf" id="dummy-1_h1_1_19"  />
</g>
<g id="a1_0020"  >
<polygon points="610,85 615,80 620,80 620,90 615,90 610,85 " style="fill:white; stroke-width:1; stroke:black; " description="&lt;b&gt;BTH_II2258&lt;/b&gt;&lt;br&gt;GtrA-like protein family&lt;br&gt;Location: 23593 - 23979" locus_tag="BTH_II2258" class="clusterblast-orf" id="dummy-1_h1_1_20"  />
</g>
<g id="a1_0021"  >
<polygon points="620,85 625,80 640,80 640,90 625,90 620,85 " style="fill:white; stroke-width:1; stroke:black; " description="&lt;b&gt;BTH_II2259&lt;/b&gt;&lt;br&gt;Generic methyltransferase&lt;br&gt;Location: 23976 - 24722" locus_tag="BTH_II2259" class="clusterblast-orf" id="dummy-1_h1_1_21"  />
</g>
<g id="a1_0022"  >
<polygon points="641,85 646,80 668,80 668,90 646,90 641,85 " style="fill:white; stroke-width:1; stroke:black; " description="&lt;b&gt;BTH_II2260&lt;/b&gt;&lt;br&gt;Bactoprenol glucosyl transferase&lt;br&gt;Location: 24750 - 25811" locus_tag="BTH_II2260" class="clusterblast-orf" id="dummy-1_h1_1_22"  />
</g>
<g id="a1_0023"  >
<polygon points="668,85 673,80 705,80 705,90 673,90 668,85 " style="fill:white; stroke-width:1; stroke:black; " description="&lt;b&gt;BTH_II2261&lt;/b&gt;&lt;br&gt;membrane protein, putative&lt;br&gt;Location: 25796 - 27220" locus_tag="BTH_II2261" class="clusterblast-orf" id="dummy-1_h1_1_23"  />
</g>
<g id="a1_0024"  >
<polygon points="705,85 710,80 738,80 738,90 710,90 705,85 " style="fill:white; stroke-width:1; stroke:black; " description="&lt;b&gt;BTH_II2262&lt;/b&gt;&lt;br&gt;membrane protein, putative&lt;br&gt;Location: 27217 - 28461" locus_tag="BTH_II2262" class="clusterblast-orf" id="dummy-1_h1_1_24"  />
</g>
<g id="a1_0025"  >
<polygon points="767,90 771,85 767,80 767,90 " style="fill:white; stroke-width:1; stroke:black; " description="&lt;b&gt;BTH_II2263&lt;/b&gt;&lt;br&gt;PilA-related protein&lt;br&gt;Location: 29565 - 29735" locus_tag="BTH_II2263" class="clusterblast-orf" id="dummy-1_h1_1_25"  />
</g>
<g id="a1_0026"  >
<polygon points="774,90 775,90 780,85 775,80 774,80 774,90 " style="fill:white; stroke-width:1; stroke:black; " description="&lt;b&gt;BTH_II2264&lt;/b&gt;&lt;br&gt;Flp/Fap pilin component superfamily&lt;br&gt;Location: 29843 - 30061" locus_tag="BTH_II2264" class="clusterblast-orf" id="dummy-1_h1_1_26"  />
</g>
</svg>
