<svg xmlns="http://www.w3.org/2000/svg" xmlns:xlink="http://www.w3.org/1999/xlink" version="1.1" x="0" y="0" height="50" width="800" viewBox="0 0 800 50" preserveAspectRatio="none"  >
<g label="Query sequence" class="clusterblast-cluster"  >
<text x="5" y="20" class="clusterblast-acc"  >
Query sequence</text>
<line x1="10" y1="35" x2="778.0" y2="35" style="stroke-width:1; stroke:grey; "  />
<polygon points="0,35 5,30 11,30 11,40 5,40 0,35 " style="fill:white; stroke-width:1; stroke:black; " description="&lt;b&gt;CCIMNIEH_1179851&lt;/b&gt;&lt;br&gt;unannotated protein&lt;br&gt;Location: 1 - 175" locus_tag="CCIMNIEH_1179851" class="clusterblast-orf" id="knownclusterblast-1_q0_0_all"  />
<polygon points="18,35 23,30 221,30 221,40 23,40 18,35 " style="fill:white; stroke-width:1; stroke:black; " description="&lt;b&gt;CCIMNIEH_1179852&lt;/b&gt;&lt;br&gt;unannotated protein&lt;br&gt;Location: 282 - 3543" locus_tag="CCIMNIEH_1179852" class="clusterblast-orf" id="knownclusterblast-1_q1_0_all"  />
<polygon points="233,35 238,30 265,30 265,40 238,40 233,35 " style="fill:white; stroke-width:1; stroke:black; " description="&lt;b&gt;CCIMNIEH_1179853&lt;/b&gt;&lt;br&gt;unannotated protein&lt;br&gt;Location: 3740 - 4247" locus_tag="CCIMNIEH_1179853" class="clusterblast-orf" id="knownclusterblast-1_q2_0_all"  />
<polygon points="268,35 273,30 286,30 286,40 273,40 268,35 " style="fill:white; stroke-width:1; stroke:black; " description="&lt;b&gt;CCIMNIEH_1179854&lt;/b&gt;&lt;br&gt;unannotated protein&lt;br&gt;Location: 4302 - 4581" locus_tag="CCIMNIEH_1179854" class="clusterblast-orf" id="knownclusterblast-1_q3_0_all"  />
<polygon points="306,40 355,40 360,35 355,30 306,30 306,40 " style="fill:white; stroke-width:1; stroke:black; " description="&lt;b&gt;CCIMNIEH_1179855&lt;/b&gt;&lt;br&gt;unannotated protein&lt;br&gt;Location: 4911 - 5778" locus_tag="CCIMNIEH_1179855" class="clusterblast-orf" id="knownclusterblast-1_q4_0_all"  />
<polygon points="361,40 369,40 374,35 369,30 361,30 361,40 " style="fill:white; stroke-width:1; stroke:black; " description="&lt;b&gt;CCIMNIEH_1179856&lt;/b&gt;&lt;br&gt;unannotated protein&lt;br&gt;Location: 5788 - 6004" locus_tag="CCIMNIEH_1179856" class="clusterblast-orf" id="knownclusterblast-1_q5_0_all"  />
<polygon points="403,35 408,30 415,30 415,40 408,40 403,35 " style="fill:white; stroke-width:1; stroke:black; " description="&lt;b&gt;CCIMNIEH_1179857&lt;/b&gt;&lt;br&gt;unannotated protein&lt;br&gt;Location: 6468 - 6657" locus_tag="CCIMNIEH_1179857" class="clusterblast-orf" id="knownclusterblast-1_q6_0_all"  />
<polygon points="416,35 421,30 466,30 466,40 421,40 416,35 " style="fill:white; stroke-width:1; stroke:black; " description="&lt;b&gt;CCIMNIEH_1179858&lt;/b&gt;&lt;br&gt;unannotated protein&lt;br&gt;Location: 6672 - 7470" locus_tag="CCIMNIEH_1179858" class="clusterblast-orf" id="knownclusterblast-1_q7_0_all"  />
<polygon points="465,35 470,30 537,30 537,40 470,40 465,35 " style="fill:white; stroke-width:1; stroke:black; " description="&lt;b&gt;CCIMNIEH_1179859&lt;/b&gt;&lt;br&gt;unannotated protein&lt;br&gt;Location: 7466 - 8606" locus_tag="CCIMNIEH_1179859" class="clusterblast-orf" id="knownclusterblast-1_q8_0_all"  />
<polygon points="552,40 559,40 564,35 559,30 552,30 552,40 " style="fill:white; stroke-width:1; stroke:black; " description="&lt;b&gt;CCIMNIEH_1179860&lt;/b&gt;&lt;br&gt;unannotated protein&lt;br&gt;Location: 8847 - 9051" locus_tag="CCIMNIEH_1179860" class="clusterblast-orf" id="knownclusterblast-1_q9_0_all"  />
<polygon points="563,40 578,40 583,35 578,30 563,30 563,40 " style="fill:white; stroke-width:1; stroke:black; " description="&lt;b&gt;CCIMNIEH_1179861&lt;/b&gt;&lt;br&gt;unannotated protein&lt;br&gt;Location: 9029 - 9353" locus_tag="CCIMNIEH_1179861" class="clusterblast-orf" id="knownclusterblast-1_q10_0_all"  />
<polygon points="583,40 629,40 634,35 629,30 583,30 583,40 " style="fill:white; stroke-width:1; stroke:black; " description="&lt;b&gt;CCIMNIEH_1179862&lt;/b&gt;&lt;br&gt;unannotated protein&lt;br&gt;Location: 9354 - 10167" locus_tag="CCIMNIEH_1179862" class="clusterblast-orf" id="knownclusterblast-1_q11_0_all"  />
<polygon points="632,40 724,40 729,35 724,30 632,30 632,40 " style="fill:white; stroke-width:1; stroke:black; " description="&lt;b&gt;CCIMNIEH_1179863&lt;/b&gt;&lt;br&gt;unannotated protein&lt;br&gt;Location: 10144 - 11698" locus_tag="CCIMNIEH_1179863" class="clusterblast-orf" id="knownclusterblast-1_q12_0_all"  />
<polygon points="731,40 775,40 780,35 775,30 731,30 731,40 " style="fill:white; stroke-width:1; stroke:black; " description="&lt;b&gt;CCIMNIEH_1179864&lt;/b&gt;&lt;br&gt;unannotated protein&lt;br&gt;Location: 11725 - 12514" locus_tag="CCIMNIEH_1179864" class="clusterblast-orf" id="knownclusterblast-1_q13_0_all"  />
</g>
</svg>
