<svg xmlns="http://www.w3.org/2000/svg" xmlns:xlink="http://www.w3.org/1999/xlink" version="1.1" x="0" y="0" height="230" width="800" viewBox="0 0 800 230" preserveAspectRatio="none"  >
<g label="Query sequence" class="clusterblast-cluster"  >
<text x="5" y="20" class="clusterblast-acc"  >
Query sequence</text>
<line x1="10" y1="35" x2="778.0" y2="35" style="stroke-width:1; stroke:grey; "  />
<polygon points="362,35 367,30 374,30 374,40 367,40 362,35 " style="fill:#d81515; stroke-width:1; stroke:black; " description="&lt;b&gt;CCIMNIEH_482539&lt;/b&gt;&lt;br&gt;unannotated protein&lt;br&gt;Location: 2 - 2495" locus_tag="CCIMNIEH_482539" class="clusterblast-orf" id="dummy-1_q0_0_all"  />
<polygon points="374,35 379,30 407,30 407,40 379,40 374,35 " style="fill:#d81515; stroke-width:1; stroke:black; " description="&lt;b&gt;CCIMNIEH_482540&lt;/b&gt;&lt;br&gt;unannotated protein&lt;br&gt;Location: 2570 - 9278" locus_tag="CCIMNIEH_482540" class="clusterblast-orf" id="dummy-1_q1_0_all"  />
<polygon points="407,35 412,30 417,30 417,40 412,40 407,35 " style="fill:#d81515; stroke-width:1; stroke:black; " description="&lt;b&gt;CCIMNIEH_482541&lt;/b&gt;&lt;br&gt;unannotated protein&lt;br&gt;Location: 9291 - 11415" locus_tag="CCIMNIEH_482541" class="clusterblast-orf" id="dummy-1_q2_0_all"  />
</g>
<g label="BGC0000052" description="BGC0000052_c1: ECO-02301 (32% of genes show similarity), Polyketide" class="clusterblast-cluster"  >
<text x="5" y="70" class="clusterblast-acc"  >
<a xlink:href="https://mibig.secondarymetabolites.org/go/BGC0000052/1" target="_blank">BGC0000052</a>:                                                                        ECO-02301 (32% of genes show similarity), Polyketide</text>
<line x1="10" y1="85" x2="778.0" y2="85" style="stroke-width:1; stroke:grey; "  />
</g>
<g id="a1_000"  >
<polygon points="0,85 5,80 7,80 7,90 5,90 0,85 " style="fill:white; stroke-width:1; stroke:black; " description="&lt;b&gt;AAX98210.1&lt;/b&gt;&lt;br&gt;acyl CoA ligase&lt;br&gt;Location: 161719 - 160199" locus_tag="AAX98210.1" class="clusterblast-orf" id="dummy-1_h1_5_0"  />
</g>
<g id="a1_001"  >
<polygon points="7,85 12,80 13,80 13,90 12,90 7,85 " style="fill:white; stroke-width:1; stroke:black; " description="&lt;b&gt;AAX98209.1&lt;/b&gt;&lt;br&gt;5-aminolevulinate synthase&lt;br&gt;Location: 160202 - 158970" locus_tag="AAX98209.1" class="clusterblast-orf" id="dummy-1_h1_5_1"  />
</g>
<g id="a1_002"  >
<polygon points="13,85 18,80 21,80 21,90 18,90 13,85 " style="fill:white; stroke-width:1; stroke:black; " description="&lt;b&gt;AAX98208.1&lt;/b&gt;&lt;br&gt;amide synthetase&lt;br&gt;Location: 158873 - 157308" locus_tag="AAX98208.1" class="clusterblast-orf" id="dummy-1_h1_5_2"  />
</g>
<g id="a1_003"  >
<polygon points="22,85 27,80 27,80 27,90 27,90 22,85 " style="fill:white; stroke-width:1; stroke:black; " description="&lt;b&gt;AAX98207.1&lt;/b&gt;&lt;br&gt;amidinohydrolase&lt;br&gt;Location: 157064 - 156075" locus_tag="AAX98207.1" class="clusterblast-orf" id="dummy-1_h1_5_3"  />
</g>
<g id="a1_004"  >
<polygon points="27,85 32,80 34,80 34,90 32,90 27,85 " style="fill:white; stroke-width:1; stroke:black; " description="&lt;b&gt;AAX98206.1&lt;/b&gt;&lt;br&gt;carboxylase/carboxyltransferase&lt;br&gt;Location: 156041 - 154485" locus_tag="AAX98206.1" class="clusterblast-orf" id="dummy-1_h1_5_4"  />
</g>
<g id="a1_005"  >
<polygon points="38,90 47,90 52,85 47,80 38,80 38,90 " style="fill:white; stroke-width:1; stroke:black; " description="&lt;b&gt;AAX98205.1&lt;/b&gt;&lt;br&gt;transcriptional regulator&lt;br&gt;Location: 153765 - 150769" locus_tag="AAX98205.1" class="clusterblast-orf" id="dummy-1_h1_5_5"  />
</g>
<g id="a1_006"  >
<polygon points="52,90 52,90 57,85 52,80 52,80 52,90 " style="fill:white; stroke-width:1; stroke:black; " description="&lt;b&gt;AAX98204.1&lt;/b&gt;&lt;br&gt;unknown&lt;br&gt;Location: 150788 - 149868" locus_tag="AAX98204.1" class="clusterblast-orf" id="dummy-1_h1_5_6"  />
</g>
<g id="a1_007"  >
<polygon points="57,90 60,85 57,80 57,90 " style="fill:white; stroke-width:1; stroke:black; " description="&lt;b&gt;AAX98203.1&lt;/b&gt;&lt;br&gt;phosphopantetheinyl transferase&lt;br&gt;Location: 149871 - 149176" locus_tag="AAX98203.1" class="clusterblast-orf" id="dummy-1_h1_5_7"  />
</g>
<g id="a1_008"  >
<polygon points="61,90 64,90 69,85 64,80 61,80 61,90 " style="fill:white; stroke-width:1; stroke:black; " description="&lt;b&gt;AAX98202.1&lt;/b&gt;&lt;br&gt;amine oxidase&lt;br&gt;Location: 148967 - 147306" locus_tag="AAX98202.1" class="clusterblast-orf" id="dummy-1_h1_5_8"  />
</g>
<g id="a1_009"  >
<polygon points="69,85 74,80 76,80 76,90 74,90 69,85 " style="fill:white; stroke-width:1; stroke:black; " description="&lt;b&gt;AAX98201.1&lt;/b&gt;&lt;br&gt;acyl CoA ligase&lt;br&gt;Location: 147230 - 145818" locus_tag="AAX98201.1" class="clusterblast-orf" id="dummy-1_h1_5_9"  />
</g>
<g id="a1_0010"  >
<polygon points="77,85 80,80 80,90 77,85 " style="fill:white; stroke-width:1; stroke:black; " description="&lt;b&gt;AAX98200.1&lt;/b&gt;&lt;br&gt;thioesterase&lt;br&gt;Location: 145743 - 145099" locus_tag="AAX98200.1" class="clusterblast-orf" id="dummy-1_h1_5_10"  />
</g>
<g id="a1_0011"  >
<polygon points="80,85 84,80 84,90 80,85 " style="fill:white; stroke-width:1; stroke:black; " description="&lt;b&gt;AAX98199.1&lt;/b&gt;&lt;br&gt;sugar dehydratase/epimerase&lt;br&gt;Location: 145102 - 144116" locus_tag="AAX98199.1" class="clusterblast-orf" id="dummy-1_h1_5_11"  />
</g>
<g id="a1_0012"  >
<polygon points="84,85 89,80 89,80 89,90 89,90 84,85 " style="fill:white; stroke-width:1; stroke:black; " description="&lt;b&gt;AAX98198.1&lt;/b&gt;&lt;br&gt;sugar nucleotidyltransferase&lt;br&gt;Location: 144119 - 143133" locus_tag="AAX98198.1" class="clusterblast-orf" id="dummy-1_h1_5_12"  />
</g>
<g id="a1_0013"  >
<polygon points="90,85 92,80 92,90 90,85 " style="fill:white; stroke-width:1; stroke:black; " description="&lt;b&gt;AAX98197.1&lt;/b&gt;&lt;br&gt;sugar epimerase&lt;br&gt;Location: 143054 - 142440" locus_tag="AAX98197.1" class="clusterblast-orf" id="dummy-1_h1_5_13"  />
</g>
<g id="a1_0014"  >
<polygon points="93,85 97,80 97,90 93,85 " style="fill:white; stroke-width:1; stroke:black; " description="&lt;b&gt;AAX98196.1&lt;/b&gt;&lt;br&gt;sugar dehydratase/epimerase&lt;br&gt;Location: 142436 - 141483" locus_tag="AAX98196.1" class="clusterblast-orf" id="dummy-1_h1_5_14"  />
</g>
<g id="a1_0015"  >
<polygon points="99,90 99,90 104,85 99,80 99,80 99,90 " style="fill:white; stroke-width:1; stroke:black; " description="&lt;b&gt;AAX98195.1&lt;/b&gt;&lt;br&gt;ABC transporter&lt;br&gt;Location: 141103 - 140114" locus_tag="AAX98195.1" class="clusterblast-orf" id="dummy-1_h1_5_15"  />
</g>
<g id="a1_0016"  >
<polygon points="104,90 108,85 104,80 104,90 " style="fill:white; stroke-width:1; stroke:black; " description="&lt;b&gt;AAX98194.1&lt;/b&gt;&lt;br&gt;membrane protein&lt;br&gt;Location: 140117 - 139266" locus_tag="AAX98194.1" class="clusterblast-orf" id="dummy-1_h1_5_16"  />
</g>
<g id="a1_0017"  >
<polygon points="109,90 109,90 114,85 109,80 109,80 109,90 " style="fill:white; stroke-width:1; stroke:black; " description="&lt;b&gt;AAX98193.1&lt;/b&gt;&lt;br&gt;acyl transferase&lt;br&gt;Location: 139079 - 138063" locus_tag="AAX98193.1" class="clusterblast-orf" id="dummy-1_h1_5_17"  />
</g>
<g id="a1_0018"  >
<polygon points="114,85 119,80 170,80 170,90 119,90 114,85 " style="fill:#d81515; stroke-width:1; stroke:black; " description="&lt;b&gt;AAX98192.1&lt;/b&gt;&lt;br&gt;polyketide synthase type I&lt;br&gt;Location: 138007 - 126389&lt;br&gt;&lt;br&gt;&lt;b&gt;BlastP hit with CCIMNIEH_482539&lt;/b&gt;&lt;br&gt;Percentage identity: 59&lt;br&gt;Percentage coverage: 101&lt;br&gt;BLAST bit score: 881&lt;br&gt;E-value: 1.4e-255" locus_tag="AAX98192.1" class="clusterblast-orf" id="dummy-1_h1_5_18"  />
</g>
<g id="a1_0019"  >
<polygon points="170,85 175,80 279,80 279,90 175,90 170,85 " style="fill:#d81515; stroke-width:1; stroke:black; " description="&lt;b&gt;AAX98191.1&lt;/b&gt;&lt;br&gt;polyketide synthase type I&lt;br&gt;Location: 126321 - 103789&lt;br&gt;&lt;br&gt;&lt;b&gt;BlastP hit with CCIMNIEH_482539&lt;/b&gt;&lt;br&gt;Percentage identity: 61&lt;br&gt;Percentage coverage: 101&lt;br&gt;BLAST bit score: 888&lt;br&gt;E-value: 1.2e-257&lt;br&gt;&lt;br&gt;&lt;b&gt;BlastP hit with CCIMNIEH_482540&lt;/b&gt;&lt;br&gt;Percentage identity: 48&lt;br&gt;Percentage coverage: 96&lt;br&gt;BLAST bit score: 1651&lt;br&gt;E-value: 0.0" locus_tag="AAX98191.1" class="clusterblast-orf" id="dummy-1_h1_5_19"  />
</g>
<g id="a1_0020"  >
<polygon points="279,85 284,80 326,80 326,90 284,90 279,85 " style="fill:#d81515; stroke-width:1; stroke:black; " description="&lt;b&gt;AAX98190.1&lt;/b&gt;&lt;br&gt;polyketide synthase type I&lt;br&gt;Location: 103740 - 94057&lt;br&gt;&lt;br&gt;&lt;b&gt;BlastP hit with CCIMNIEH_482539&lt;/b&gt;&lt;br&gt;Percentage identity: 52&lt;br&gt;Percentage coverage: 100&lt;br&gt;BLAST bit score: 739&lt;br&gt;E-value: 5.1e-213" locus_tag="AAX98190.1" class="clusterblast-orf" id="dummy-1_h1_5_20"  />
</g>
<g id="a1_0021"  >
<polygon points="327,85 332,80 405,80 405,90 332,90 327,85 " style="fill:#d81515; stroke-width:1; stroke:black; " description="&lt;b&gt;AAX98189.1&lt;/b&gt;&lt;br&gt;polyketide synthase type I&lt;br&gt;Location: 93904 - 77606&lt;br&gt;&lt;br&gt;&lt;b&gt;BlastP hit with CCIMNIEH_482539&lt;/b&gt;&lt;br&gt;Percentage identity: 63&lt;br&gt;Percentage coverage: 97&lt;br&gt;BLAST bit score: 878&lt;br&gt;E-value: 7e-255" locus_tag="AAX98189.1" class="clusterblast-orf" id="dummy-1_h1_5_21"  />
</g>
<g id="a1_0022"  >
<polygon points="406,85 411,80 481,80 481,90 411,90 406,85 " style="fill:#d81515; stroke-width:1; stroke:black; " description="&lt;b&gt;AAX98188.1&lt;/b&gt;&lt;br&gt;polyketide synthase type I&lt;br&gt;Location: 77475 - 61852&lt;br&gt;&lt;br&gt;&lt;b&gt;BlastP hit with CCIMNIEH_482539&lt;/b&gt;&lt;br&gt;Percentage identity: 60&lt;br&gt;Percentage coverage: 100&lt;br&gt;BLAST bit score: 887&lt;br&gt;E-value: 1.5e-257" locus_tag="AAX98188.1" class="clusterblast-orf" id="dummy-1_h1_5_22"  />
</g>
<g id="a1_0023"  >
<polygon points="483,85 488,80 507,80 507,90 488,90 483,85 " style="fill:#d81515; stroke-width:1; stroke:black; " description="&lt;b&gt;AAX98187.1&lt;/b&gt;&lt;br&gt;polyketide synthase type I&lt;br&gt;Location: 61573 - 56600&lt;br&gt;&lt;br&gt;&lt;b&gt;BlastP hit with CCIMNIEH_482539&lt;/b&gt;&lt;br&gt;Percentage identity: 53&lt;br&gt;Percentage coverage: 100&lt;br&gt;BLAST bit score: 745&lt;br&gt;E-value: 1.2e-214" locus_tag="AAX98187.1" class="clusterblast-orf" id="dummy-1_h1_5_23"  />
</g>
<g id="a1_0024"  >
<polygon points="507,85 512,80 605,80 605,90 512,90 507,85 " style="fill:#d81515; stroke-width:1; stroke:black; " description="&lt;b&gt;AAX98186.1&lt;/b&gt;&lt;br&gt;polyketide synthase type I&lt;br&gt;Location: 56468 - 36213&lt;br&gt;&lt;br&gt;&lt;b&gt;BlastP hit with CCIMNIEH_482539&lt;/b&gt;&lt;br&gt;Percentage identity: 59&lt;br&gt;Percentage coverage: 100&lt;br&gt;BLAST bit score: 868&lt;br&gt;E-value: 9.5e-252" locus_tag="AAX98186.1" class="clusterblast-orf" id="dummy-1_h1_5_24"  />
</g>
<g id="a1_0025"  >
<polygon points="605,85 610,80 655,80 655,90 610,90 605,85 " style="fill:#d81515; stroke-width:1; stroke:black; " description="&lt;b&gt;AAX98185.1&lt;/b&gt;&lt;br&gt;polyketide synthase type I&lt;br&gt;Location: 36188 - 25902&lt;br&gt;&lt;br&gt;&lt;b&gt;BlastP hit with CCIMNIEH_482539&lt;/b&gt;&lt;br&gt;Percentage identity: 58&lt;br&gt;Percentage coverage: 100&lt;br&gt;BLAST bit score: 839&lt;br&gt;E-value: 3.6e-243" locus_tag="AAX98185.1" class="clusterblast-orf" id="dummy-1_h1_5_25"  />
</g>
<g id="a1_0026"  >
<polygon points="655,85 660,80 773,80 773,90 660,90 655,85 " style="fill:#d81515; stroke-width:1; stroke:black; " description="&lt;b&gt;AAX98184.1&lt;/b&gt;&lt;br&gt;polyketide synthase type I&lt;br&gt;Location: 25818 - 1375&lt;br&gt;&lt;br&gt;&lt;b&gt;BlastP hit with CCIMNIEH_482539&lt;/b&gt;&lt;br&gt;Percentage identity: 60&lt;br&gt;Percentage coverage: 96&lt;br&gt;BLAST bit score: 862&lt;br&gt;E-value: 6.8e-250" locus_tag="AAX98184.1" class="clusterblast-orf" id="dummy-1_h1_5_26"  />
</g>
<g id="a1_0027"  >
<polygon points="774,90 775,90 780,85 775,80 774,80 774,90 " style="fill:white; stroke-width:1; stroke:black; " description="&lt;b&gt;AAX98183.1&lt;/b&gt;&lt;br&gt;glycosyltransferase&lt;br&gt;Location: 1109 - 6" locus_tag="AAX98183.1" class="clusterblast-orf" id="dummy-1_h1_5_27"  />
</g>
</svg>
