<svg xmlns="http://www.w3.org/2000/svg" xmlns:xlink="http://www.w3.org/1999/xlink" version="1.1" x="0" y="0" height="230" width="800" viewBox="0 0 800 230" preserveAspectRatio="none"  >
<g label="Query sequence" class="clusterblast-cluster"  >
<text x="5" y="20" class="clusterblast-acc"  >
Query sequence</text>
<line x1="10" y1="35" x2="778.0" y2="35" style="stroke-width:1; stroke:grey; "  />
<polygon points="269,35 274,30 322,30 322,40 274,40 269,35 " style="fill:#d81515; stroke-width:1; stroke:black; " description="&lt;b&gt;CCIMNIEH_482539&lt;/b&gt;&lt;br&gt;unannotated protein&lt;br&gt;Location: 2 - 2495" locus_tag="CCIMNIEH_482539" class="clusterblast-orf" id="dummy-1_q0_0_all"  />
<polygon points="324,35 329,30 465,30 465,40 329,40 324,35 " style="fill:#d81515; stroke-width:1; stroke:black; " description="&lt;b&gt;CCIMNIEH_482540&lt;/b&gt;&lt;br&gt;unannotated protein&lt;br&gt;Location: 2570 - 9278" locus_tag="CCIMNIEH_482540" class="clusterblast-orf" id="dummy-1_q1_0_all"  />
<polygon points="465,35 470,30 510,30 510,40 470,40 465,35 " style="fill:#d81515; stroke-width:1; stroke:black; " description="&lt;b&gt;CCIMNIEH_482541&lt;/b&gt;&lt;br&gt;unannotated protein&lt;br&gt;Location: 9291 - 11415" locus_tag="CCIMNIEH_482541" class="clusterblast-orf" id="dummy-1_q2_0_all"  />
</g>
<g label="BGC0000051" description="BGC0000051_c1: ebelactone A / ebelactone B (60% of genes show similarity), Polyketide" class="clusterblast-cluster"  >
<text x="5" y="70" class="clusterblast-acc"  >
<a xlink:href="https://mibig.secondarymetabolites.org/go/BGC0000051/1" target="_blank">BGC0000051</a>:                                                      ebelactone A / ebelactone B (60% of genes show similarity), Polyketide</text>
<line x1="10" y1="85" x2="778.0" y2="85" style="stroke-width:1; stroke:grey; "  />
</g>
<g id="a1_000"  >
<polygon points="0,90 12,90 17,85 12,80 0,80 0,90 " style="fill:white; stroke-width:1; stroke:black; " description="&lt;b&gt;AGY62762.1&lt;/b&gt;&lt;br&gt;hypothetical protein&lt;br&gt;Location: 36980 - 36174" locus_tag="AGY62762.1" class="clusterblast-orf" id="dummy-1_h1_3_0"  />
</g>
<g id="a1_001"  >
<polygon points="17,85 22,80 35,80 35,90 22,90 17,85 " style="fill:white; stroke-width:1; stroke:black; " description="&lt;b&gt;AGY62761.1&lt;/b&gt;&lt;br&gt;reductase&lt;br&gt;Location: 36150 - 35275" locus_tag="AGY62761.1" class="clusterblast-orf" id="dummy-1_h1_3_1"  />
</g>
<g id="a1_002"  >
<polygon points="46,90 77,90 82,85 77,80 46,80 46,90 " style="fill:white; stroke-width:1; stroke:black; " description="&lt;b&gt;AGY62760.1&lt;/b&gt;&lt;br&gt;Orf1&lt;br&gt;Location: 34773 - 33076" locus_tag="AGY62760.1" class="clusterblast-orf" id="dummy-1_h1_3_2"  />
</g>
<g id="a1_003"  >
<polygon points="83,85 88,80 221,80 221,90 88,90 83,85 " style="fill:#d81515; stroke-width:1; stroke:black; " description="&lt;b&gt;AGY62759.1&lt;/b&gt;&lt;br&gt;EbeG&lt;br&gt;Location: 33008 - 26472&lt;br&gt;&lt;br&gt;&lt;b&gt;BlastP hit with CCIMNIEH_482539&lt;/b&gt;&lt;br&gt;Percentage identity: 52&lt;br&gt;Percentage coverage: 100&lt;br&gt;BLAST bit score: 725&lt;br&gt;E-value: 7.6e-209&lt;br&gt;&lt;br&gt;&lt;b&gt;BlastP hit with CCIMNIEH_482540&lt;/b&gt;&lt;br&gt;Percentage identity: 55&lt;br&gt;Percentage coverage: 41&lt;br&gt;BLAST bit score: 926&lt;br&gt;E-value: 7.9e-269" locus_tag="AGY62759.1" class="clusterblast-orf" id="dummy-1_h1_3_3"  />
</g>
<g id="a1_004"  >
<polygon points="223,85 228,80 379,80 379,90 228,90 223,85 " style="fill:#d81515; stroke-width:1; stroke:black; " description="&lt;b&gt;AGY62758.1&lt;/b&gt;&lt;br&gt;EbeF&lt;br&gt;Location: 26381 - 18972&lt;br&gt;&lt;br&gt;&lt;b&gt;BlastP hit with CCIMNIEH_482539&lt;/b&gt;&lt;br&gt;Percentage identity: 51&lt;br&gt;Percentage coverage: 97&lt;br&gt;BLAST bit score: 690&lt;br&gt;E-value: 3.5e-198&lt;br&gt;&lt;br&gt;&lt;b&gt;BlastP hit with CCIMNIEH_482540&lt;/b&gt;&lt;br&gt;Percentage identity: 50&lt;br&gt;Percentage coverage: 97&lt;br&gt;BLAST bit score: 1732&lt;br&gt;E-value: 0.0" locus_tag="AGY62758.1" class="clusterblast-orf" id="dummy-1_h1_3_4"  />
</g>
<g id="a1_005"  >
<polygon points="380,85 385,80 425,80 425,90 385,90 380,85 " style="fill:white; stroke-width:1; stroke:black; " description="&lt;b&gt;AGY62757.1&lt;/b&gt;&lt;br&gt;EbeE&lt;br&gt;Location: 18937 - 16808" locus_tag="AGY62757.1" class="clusterblast-orf" id="dummy-1_h1_3_5"  />
</g>
<g id="a1_006"  >
<polygon points="426,85 431,80 471,80 471,90 431,90 426,85 " style="fill:#d81515; stroke-width:1; stroke:black; " description="&lt;b&gt;AGY62756.1&lt;/b&gt;&lt;br&gt;EbeD&lt;br&gt;Location: 16761 - 14608&lt;br&gt;&lt;br&gt;&lt;b&gt;BlastP hit with CCIMNIEH_482539&lt;/b&gt;&lt;br&gt;Percentage identity: 58&lt;br&gt;Percentage coverage: 79&lt;br&gt;BLAST bit score: 667&lt;br&gt;E-value: 3.2e-191" locus_tag="AGY62756.1" class="clusterblast-orf" id="dummy-1_h1_3_6"  />
</g>
<g id="a1_007"  >
<polygon points="471,85 476,80 572,80 572,90 476,90 471,85 " style="fill:#d81515; stroke-width:1; stroke:black; " description="&lt;b&gt;AGY62755.1&lt;/b&gt;&lt;br&gt;EbeC&lt;br&gt;Location: 14615 - 9855&lt;br&gt;&lt;br&gt;&lt;b&gt;BlastP hit with CCIMNIEH_482539&lt;/b&gt;&lt;br&gt;Percentage identity: 55&lt;br&gt;Percentage coverage: 100&lt;br&gt;BLAST bit score: 772&lt;br&gt;E-value: 5.4e-223&lt;br&gt;&lt;br&gt;&lt;b&gt;BlastP hit with CCIMNIEH_482540&lt;/b&gt;&lt;br&gt;Percentage identity: 59&lt;br&gt;Percentage coverage: 41&lt;br&gt;BLAST bit score: 975&lt;br&gt;E-value: 1.1e-283" locus_tag="AGY62755.1" class="clusterblast-orf" id="dummy-1_h1_3_7"  />
</g>
<g id="a1_008"  >
<polygon points="575,85 580,80 714,80 714,90 580,90 575,85 " style="fill:#d81515; stroke-width:1; stroke:black; " description="&lt;b&gt;AGY62754.1&lt;/b&gt;&lt;br&gt;EbeB&lt;br&gt;Location: 9698 - 3084&lt;br&gt;&lt;br&gt;&lt;b&gt;BlastP hit with CCIMNIEH_482539&lt;/b&gt;&lt;br&gt;Percentage identity: 55&lt;br&gt;Percentage coverage: 100&lt;br&gt;BLAST bit score: 780&lt;br&gt;E-value: 3.4e-225&lt;br&gt;&lt;br&gt;&lt;b&gt;BlastP hit with CCIMNIEH_482540&lt;/b&gt;&lt;br&gt;Percentage identity: 53&lt;br&gt;Percentage coverage: 101&lt;br&gt;BLAST bit score: 1932&lt;br&gt;E-value: 0.0" locus_tag="AGY62754.1" class="clusterblast-orf" id="dummy-1_h1_3_8"  />
</g>
<g id="a1_009"  >
<polygon points="716,85 721,80 780,80 780,90 721,90 716,85 " style="fill:#d81515; stroke-width:1; stroke:black; " description="&lt;b&gt;AGY62753.1&lt;/b&gt;&lt;br&gt;EbeA&lt;br&gt;Location: 3021 - 1&lt;br&gt;&lt;br&gt;&lt;b&gt;BlastP hit with CCIMNIEH_482539&lt;/b&gt;&lt;br&gt;Percentage identity: 48&lt;br&gt;Percentage coverage: 86&lt;br&gt;BLAST bit score: 553&lt;br&gt;E-value: 5.2e-157" locus_tag="AGY62753.1" class="clusterblast-orf" id="dummy-1_h1_3_9"  />
</g>
</svg>
