<svg xmlns="http://www.w3.org/2000/svg" xmlns:xlink="http://www.w3.org/1999/xlink" version="1.1" x="0" y="0" height="50" width="800" viewBox="0 0 800 50" preserveAspectRatio="none"  >
<g label="Query sequence" class="clusterblast-cluster"  >
<text x="5" y="20" class="clusterblast-acc"  >
Query sequence</text>
<line x1="10" y1="35" x2="778.0" y2="35" style="stroke-width:1; stroke:grey; "  />
<polygon points="0,40 26,40 31,35 26,30 0,30 0,40 " style="fill:white; stroke-width:1; stroke:black; " description="&lt;b&gt;CCIMNIEH_319431&lt;/b&gt;&lt;br&gt;unannotated protein&lt;br&gt;Location: 1836 - 2712" locus_tag="CCIMNIEH_319431" class="clusterblast-orf" id="knownclusterblast-1_q0_0_all"  />
<polygon points="31,40 87,40 92,35 87,30 31,30 31,40 " style="fill:white; stroke-width:1; stroke:black; " description="&lt;b&gt;CCIMNIEH_319432&lt;/b&gt;&lt;br&gt;unannotated protein&lt;br&gt;Location: 2708 - 4442" locus_tag="CCIMNIEH_319432" class="clusterblast-orf" id="knownclusterblast-1_q1_0_all"  />
<polygon points="99,40 123,40 128,35 123,30 99,30 99,40 " style="fill:white; stroke-width:1; stroke:black; " description="&lt;b&gt;CCIMNIEH_319433&lt;/b&gt;&lt;br&gt;unannotated protein&lt;br&gt;Location: 4635 - 5445" locus_tag="CCIMNIEH_319433" class="clusterblast-orf" id="knownclusterblast-1_q2_0_all"  />
<polygon points="128,40 164,40 169,35 164,30 128,30 128,40 " style="fill:white; stroke-width:1; stroke:black; " description="&lt;b&gt;CCIMNIEH_319434&lt;/b&gt;&lt;br&gt;unannotated protein&lt;br&gt;Location: 5431 - 6601" locus_tag="CCIMNIEH_319434" class="clusterblast-orf" id="knownclusterblast-1_q3_0_all"  />
<polygon points="177,35 182,30 210,30 210,40 182,40 177,35 " style="fill:white; stroke-width:1; stroke:black; " description="&lt;b&gt;CCIMNIEH_319435&lt;/b&gt;&lt;br&gt;unannotated protein&lt;br&gt;Location: 6820 - 7741" locus_tag="CCIMNIEH_319435" class="clusterblast-orf" id="knownclusterblast-1_q4_0_all"  />
<polygon points="210,35 215,30 239,30 239,40 215,40 210,35 " style="fill:white; stroke-width:1; stroke:black; " description="&lt;b&gt;CCIMNIEH_319436&lt;/b&gt;&lt;br&gt;unannotated protein&lt;br&gt;Location: 7754 - 8558" locus_tag="CCIMNIEH_319436" class="clusterblast-orf" id="knownclusterblast-1_q5_0_all"  />
<polygon points="246,40 300,40 305,35 300,30 246,30 246,40 " style="fill:white; stroke-width:1; stroke:black; " description="&lt;b&gt;CCIMNIEH_319437&lt;/b&gt;&lt;br&gt;unannotated protein&lt;br&gt;Location: 8765 - 10442" locus_tag="CCIMNIEH_319437" class="clusterblast-orf" id="knownclusterblast-1_q6_0_all"  />
<polygon points="308,40 310,40 315,35 310,30 308,30 308,40 " style="fill:white; stroke-width:1; stroke:black; " description="&lt;b&gt;CCIMNIEH_319438&lt;/b&gt;&lt;br&gt;unannotated protein&lt;br&gt;Location: 10506 - 10698" locus_tag="CCIMNIEH_319438" class="clusterblast-orf" id="knownclusterblast-1_q7_0_all"  />
<polygon points="318,40 416,40 421,35 416,30 318,30 318,40 " style="fill:white; stroke-width:1; stroke:black; " description="&lt;b&gt;CCIMNIEH_319439&lt;/b&gt;&lt;br&gt;unannotated protein&lt;br&gt;Location: 10785 - 13692" locus_tag="CCIMNIEH_319439" class="clusterblast-orf" id="knownclusterblast-1_q8_0_all"  />
<polygon points="421,40 460,40 465,35 460,30 421,30 421,40 " style="fill:white; stroke-width:1; stroke:black; " description="&lt;b&gt;CCIMNIEH_319440&lt;/b&gt;&lt;br&gt;unannotated protein&lt;br&gt;Location: 13688 - 14930" locus_tag="CCIMNIEH_319440" class="clusterblast-orf" id="knownclusterblast-1_q9_0_all"  />
<polygon points="465,40 490,40 495,35 490,30 465,30 465,40 " style="fill:white; stroke-width:1; stroke:black; " description="&lt;b&gt;CCIMNIEH_319441&lt;/b&gt;&lt;br&gt;unannotated protein&lt;br&gt;Location: 14949 - 15777" locus_tag="CCIMNIEH_319441" class="clusterblast-orf" id="knownclusterblast-1_q10_0_all"  />
<polygon points="494,40 531,40 536,35 531,30 494,30 494,40 " style="fill:white; stroke-width:1; stroke:black; " description="&lt;b&gt;CCIMNIEH_319442&lt;/b&gt;&lt;br&gt;unannotated protein&lt;br&gt;Location: 15760 - 16924" locus_tag="CCIMNIEH_319442" class="clusterblast-orf" id="knownclusterblast-1_q11_0_all"  />
<polygon points="538,35 543,30 656,30 656,40 543,40 538,35 " style="fill:white; stroke-width:1; stroke:black; " description="&lt;b&gt;CCIMNIEH_319443&lt;/b&gt;&lt;br&gt;unannotated protein&lt;br&gt;Location: 16983 - 20307" locus_tag="CCIMNIEH_319443" class="clusterblast-orf" id="knownclusterblast-1_q12_0_all"  />
<polygon points="666,35 671,30 710,30 710,40 671,40 666,35 " style="fill:white; stroke-width:1; stroke:black; " description="&lt;b&gt;CCIMNIEH_319444&lt;/b&gt;&lt;br&gt;unannotated protein&lt;br&gt;Location: 20608 - 21832" locus_tag="CCIMNIEH_319444" class="clusterblast-orf" id="knownclusterblast-1_q13_0_all"  />
<polygon points="724,40 775,40 780,35 775,30 724,30 724,40 " style="fill:white; stroke-width:1; stroke:black; " description="&lt;b&gt;CCIMNIEH_319445&lt;/b&gt;&lt;br&gt;unannotated protein&lt;br&gt;Location: 22233 - 23802" locus_tag="CCIMNIEH_319445" class="clusterblast-orf" id="knownclusterblast-1_q14_0_all"  />
</g>
</svg>
