<svg xmlns="http://www.w3.org/2000/svg" xmlns:xlink="http://www.w3.org/1999/xlink" version="1.1" x="0" y="0" height="100" width="800" viewBox="0 0 800 100" preserveAspectRatio="none"  >
<g label="Query sequence" class="clusterblast-cluster"  >
<text x="5" y="20" class="clusterblast-acc"  >
Query sequence</text>
<line x1="10" y1="35" x2="778.0" y2="35" style="stroke-width:1; stroke:grey; "  />
<polygon points="92,40 106,40 111,35 106,30 92,30 92,40 " style="fill:white; stroke-width:1; stroke:black; " description="&lt;b&gt;CCIMNIEH_523265&lt;/b&gt;&lt;br&gt;unannotated protein&lt;br&gt;Location: 2 - 368" locus_tag="CCIMNIEH_523265" class="clusterblast-orf" id="knownclusterblast-1_q0_0_all"  />
<polygon points="122,40 162,40 167,35 162,30 122,30 122,40 " style="fill:white; stroke-width:1; stroke:black; " description="&lt;b&gt;CCIMNIEH_523266&lt;/b&gt;&lt;br&gt;unannotated protein&lt;br&gt;Location: 580 - 1438" locus_tag="CCIMNIEH_523266" class="clusterblast-orf" id="knownclusterblast-1_q1_0_all"  />
<polygon points="176,40 299,40 304,35 299,30 176,30 176,40 " style="fill:#d81515; stroke-width:1; stroke:black; " description="&lt;b&gt;CCIMNIEH_523267&lt;/b&gt;&lt;br&gt;unannotated protein&lt;br&gt;Location: 1626 - 4086" locus_tag="CCIMNIEH_523267" class="clusterblast-orf" id="knownclusterblast-1_q2_0_all"  />
<polygon points="305,35 310,30 458,30 458,40 310,40 305,35 " style="fill:white; stroke-width:1; stroke:black; " description="&lt;b&gt;CCIMNIEH_523268&lt;/b&gt;&lt;br&gt;unannotated protein&lt;br&gt;Location: 4110 - 7053" locus_tag="CCIMNIEH_523268" class="clusterblast-orf" id="knownclusterblast-1_q3_0_all"  />
<polygon points="472,40 513,40 518,35 513,30 472,30 472,40 " style="fill:white; stroke-width:1; stroke:black; " description="&lt;b&gt;CCIMNIEH_523269&lt;/b&gt;&lt;br&gt;unannotated protein&lt;br&gt;Location: 7334 - 8210" locus_tag="CCIMNIEH_523269" class="clusterblast-orf" id="knownclusterblast-1_q4_0_all"  />
<polygon points="518,40 579,40 584,35 579,30 518,30 518,40 " style="fill:white; stroke-width:1; stroke:black; " description="&lt;b&gt;CCIMNIEH_523270&lt;/b&gt;&lt;br&gt;unannotated protein&lt;br&gt;Location: 8211 - 9483" locus_tag="CCIMNIEH_523270" class="clusterblast-orf" id="knownclusterblast-1_q5_0_all"  />
<polygon points="583,40 683,40 688,35 683,30 583,30 583,40 " style="fill:white; stroke-width:1; stroke:black; " description="&lt;b&gt;CCIMNIEH_523271&lt;/b&gt;&lt;br&gt;unannotated protein&lt;br&gt;Location: 9479 - 11489" locus_tag="CCIMNIEH_523271" class="clusterblast-orf" id="knownclusterblast-1_q6_0_all"  />
</g>
<g label="BGC0001833" description="BGC0001833_c1: icosalide A / icosalide B (100% of genes show similarity), NRP:Lipopeptide" class="clusterblast-cluster"  >
<text x="5" y="70" class="clusterblast-acc"  >
<a xlink:href="https://mibig.secondarymetabolites.org/go/BGC0001833/1" target="_blank">BGC0001833</a>:                                                        icosalide A / icosalide B (100% of genes show similarity), NRP:Lipopeptide</text>
<line x1="10" y1="85" x2="778.0" y2="85" style="stroke-width:1; stroke:grey; "  />
</g>
<g id="a1_000"  >
<polygon points="0,90 775,90 780,85 775,80 0,80 0,90 " style="fill:#d81515; stroke-width:1; stroke:black; " description="&lt;b&gt;AYA44686.1&lt;/b&gt;&lt;br&gt;icosalide NRPS&lt;br&gt;Location: 14965 - 30015&lt;br&gt;&lt;br&gt;&lt;b&gt;BlastP hit with CCIMNIEH_523267&lt;/b&gt;&lt;br&gt;Percentage identity: 50&lt;br&gt;Percentage coverage: 66&lt;br&gt;BLAST bit score: 467&lt;br&gt;E-value: 6.3e-131" locus_tag="AYA44686.1" class="clusterblast-orf" id="knownclusterblast-1_all_1_1_0"  />
</g>
</svg>
