<svg xmlns="http://www.w3.org/2000/svg" xmlns:xlink="http://www.w3.org/1999/xlink" version="1.1" x="0" y="0" height="100" width="800" viewBox="0 0 800 100" preserveAspectRatio="none"  >
<g label="Query sequence" class="clusterblast-cluster"  >
<text x="5" y="20" class="clusterblast-acc"  >
Query sequence</text>
<line x1="10" y1="35" x2="778.0" y2="35" style="stroke-width:1; stroke:grey; "  />
<polygon points="337,35 337,30 337,40 337,35 " style="fill:white; stroke-width:1; stroke:black; " description="&lt;b&gt;CCIMNIEH_1239690&lt;/b&gt;&lt;br&gt;unannotated protein&lt;br&gt;Location: 1 - 61" locus_tag="CCIMNIEH_1239690" class="clusterblast-orf" id="knownclusterblast-1_q0_0_all"  />
<polygon points="338,35 343,30 343,30 343,40 343,40 338,35 " style="fill:white; stroke-width:1; stroke:black; " description="&lt;b&gt;CCIMNIEH_1239691&lt;/b&gt;&lt;br&gt;unannotated protein&lt;br&gt;Location: 194 - 1355" locus_tag="CCIMNIEH_1239691" class="clusterblast-orf" id="knownclusterblast-1_q1_0_all"  />
<polygon points="343,35 348,30 348,30 348,40 348,40 343,35 " style="fill:white; stroke-width:1; stroke:black; " description="&lt;b&gt;CCIMNIEH_1239692&lt;/b&gt;&lt;br&gt;unannotated protein&lt;br&gt;Location: 1500 - 2559" locus_tag="CCIMNIEH_1239692" class="clusterblast-orf" id="knownclusterblast-1_q2_0_all"  />
<polygon points="348,35 353,30 363,30 363,40 353,40 348,35 " style="fill:white; stroke-width:1; stroke:black; " description="&lt;b&gt;CCIMNIEH_1239693&lt;/b&gt;&lt;br&gt;unannotated protein&lt;br&gt;Location: 2576 - 6119" locus_tag="CCIMNIEH_1239693" class="clusterblast-orf" id="knownclusterblast-1_q3_0_all"  />
<polygon points="364,35 367,30 367,40 364,35 " style="fill:white; stroke-width:1; stroke:black; " description="&lt;b&gt;CCIMNIEH_1239694&lt;/b&gt;&lt;br&gt;unannotated protein&lt;br&gt;Location: 6447 - 7137" locus_tag="CCIMNIEH_1239694" class="clusterblast-orf" id="knownclusterblast-1_q4_0_all"  />
<polygon points="369,40 374,40 379,35 374,30 369,30 369,40 " style="fill:white; stroke-width:1; stroke:black; " description="&lt;b&gt;CCIMNIEH_1239695&lt;/b&gt;&lt;br&gt;unannotated protein&lt;br&gt;Location: 7626 - 10092" locus_tag="CCIMNIEH_1239695" class="clusterblast-orf" id="knownclusterblast-1_q5_0_all"  />
<polygon points="380,35 385,30 386,30 386,40 385,40 380,35 " style="fill:white; stroke-width:1; stroke:black; " description="&lt;b&gt;CCIMNIEH_1239696&lt;/b&gt;&lt;br&gt;unannotated protein&lt;br&gt;Location: 10220 - 11585" locus_tag="CCIMNIEH_1239696" class="clusterblast-orf" id="knownclusterblast-1_q6_0_all"  />
<polygon points="386,35 390,30 390,40 386,35 " style="fill:white; stroke-width:1; stroke:black; " description="&lt;b&gt;CCIMNIEH_1239697&lt;/b&gt;&lt;br&gt;unannotated protein&lt;br&gt;Location: 11685 - 12579" locus_tag="CCIMNIEH_1239697" class="clusterblast-orf" id="knownclusterblast-1_q7_0_all"  />
<polygon points="391,40 391,40 396,35 391,30 391,30 391,40 " style="fill:white; stroke-width:1; stroke:black; " description="&lt;b&gt;CCIMNIEH_1239698&lt;/b&gt;&lt;br&gt;unannotated protein&lt;br&gt;Location: 12914 - 14081" locus_tag="CCIMNIEH_1239698" class="clusterblast-orf" id="knownclusterblast-1_q8_0_all"  />
<polygon points="396,40 396,40 401,35 396,30 396,30 396,40 " style="fill:#d81515; stroke-width:1; stroke:black; " description="&lt;b&gt;CCIMNIEH_1239699&lt;/b&gt;&lt;br&gt;unannotated protein&lt;br&gt;Location: 14080 - 15202" locus_tag="CCIMNIEH_1239699" class="clusterblast-orf" id="knownclusterblast-1_q9_0_all"  />
<polygon points="401,40 404,35 401,30 401,40 " style="fill:white; stroke-width:1; stroke:black; " description="&lt;b&gt;CCIMNIEH_1239700&lt;/b&gt;&lt;br&gt;unannotated protein&lt;br&gt;Location: 15198 - 15987" locus_tag="CCIMNIEH_1239700" class="clusterblast-orf" id="knownclusterblast-1_q10_0_all"  />
<polygon points="404,35 405,30 405,40 404,35 " style="fill:white; stroke-width:1; stroke:black; " description="&lt;b&gt;CCIMNIEH_1239701&lt;/b&gt;&lt;br&gt;unannotated protein&lt;br&gt;Location: 15994 - 16204" locus_tag="CCIMNIEH_1239701" class="clusterblast-orf" id="knownclusterblast-1_q11_0_all"  />
<polygon points="406,35 411,30 412,30 412,40 411,40 406,35 " style="fill:white; stroke-width:1; stroke:black; " description="&lt;b&gt;CCIMNIEH_1239702&lt;/b&gt;&lt;br&gt;unannotated protein&lt;br&gt;Location: 16342 - 17833" locus_tag="CCIMNIEH_1239702" class="clusterblast-orf" id="knownclusterblast-1_q12_0_all"  />
<polygon points="412,35 415,30 415,40 412,35 " style="fill:#15d815; stroke-width:1; stroke:black; " description="&lt;b&gt;CCIMNIEH_1239703&lt;/b&gt;&lt;br&gt;unannotated protein&lt;br&gt;Location: 17868 - 18459" locus_tag="CCIMNIEH_1239703" class="clusterblast-orf" id="knownclusterblast-1_q13_0_all"  />
<polygon points="415,35 417,30 417,40 415,35 " style="fill:#1515d8; stroke-width:1; stroke:black; " description="&lt;b&gt;CCIMNIEH_1239704&lt;/b&gt;&lt;br&gt;unannotated protein&lt;br&gt;Location: 18446 - 18998" locus_tag="CCIMNIEH_1239704" class="clusterblast-orf" id="knownclusterblast-1_q14_0_all"  />
<polygon points="417,40 421,35 417,30 417,40 " style="fill:white; stroke-width:1; stroke:black; " description="&lt;b&gt;CCIMNIEH_1239705&lt;/b&gt;&lt;br&gt;unannotated protein&lt;br&gt;Location: 19109 - 20036" locus_tag="CCIMNIEH_1239705" class="clusterblast-orf" id="knownclusterblast-1_q15_0_all"  />
<polygon points="422,40 422,40 427,35 422,30 422,30 422,40 " style="fill:white; stroke-width:1; stroke:black; " description="&lt;b&gt;CCIMNIEH_1239706&lt;/b&gt;&lt;br&gt;unannotated protein&lt;br&gt;Location: 20167 - 21370" locus_tag="CCIMNIEH_1239706" class="clusterblast-orf" id="knownclusterblast-1_q16_0_all"  />
<polygon points="427,40 431,35 427,30 427,40 " style="fill:white; stroke-width:1; stroke:black; " description="&lt;b&gt;CCIMNIEH_1239707&lt;/b&gt;&lt;br&gt;unannotated protein&lt;br&gt;Location: 21366 - 22260" locus_tag="CCIMNIEH_1239707" class="clusterblast-orf" id="knownclusterblast-1_q17_0_all"  />
<polygon points="431,35 436,30 439,30 439,40 436,40 431,35 " style="fill:white; stroke-width:1; stroke:black; " description="&lt;b&gt;CCIMNIEH_1239708&lt;/b&gt;&lt;br&gt;unannotated protein&lt;br&gt;Location: 22347 - 24135" locus_tag="CCIMNIEH_1239708" class="clusterblast-orf" id="knownclusterblast-1_q18_0_all"  />
<polygon points="440,40 442,35 440,30 440,40 " style="fill:white; stroke-width:1; stroke:black; " description="&lt;b&gt;CCIMNIEH_1239709&lt;/b&gt;&lt;br&gt;unannotated protein&lt;br&gt;Location: 24384 - 24981" locus_tag="CCIMNIEH_1239709" class="clusterblast-orf" id="knownclusterblast-1_q19_0_all"  />
</g>
<g label="BGC0000093" description="BGC0000093_c1: meilingmycin (3% of genes show similarity), Polyketide" class="clusterblast-cluster"  >
<text x="5" y="70" class="clusterblast-acc"  >
<a xlink:href="https://mibig.secondarymetabolites.org/go/BGC0000093/1" target="_blank">BGC0000093</a>:                                                                     meilingmycin (3% of genes show similarity), Polyketide</text>
<line x1="10" y1="85" x2="778.0" y2="85" style="stroke-width:1; stroke:grey; "  />
</g>
<g id="a1_000"  >
<polygon points="0,85 5,80 5,80 5,90 5,90 0,85 " style="fill:white; stroke-width:1; stroke:black; " description="&lt;b&gt;ADC45511.1&lt;/b&gt;&lt;br&gt;Na+/H+ antiporter&lt;br&gt;Location: 1 - 1337" locus_tag="ADC45511.1" class="clusterblast-orf" id="knownclusterblast-1_all_1_1_0"  />
</g>
<g id="a1_001"  >
<polygon points="6,85 9,80 9,90 6,85 " style="fill:white; stroke-width:1; stroke:black; " description="&lt;b&gt;ADC45512.1&lt;/b&gt;&lt;br&gt;intracellular protease/amidase&lt;br&gt;Location: 1603 - 2280" locus_tag="ADC45512.1" class="clusterblast-orf" id="knownclusterblast-1_all_1_1_1"  />
</g>
<g id="a1_002"  >
<polygon points="10,90 14,85 10,80 10,90 " style="fill:white; stroke-width:1; stroke:black; " description="&lt;b&gt;ADC45513.1&lt;/b&gt;&lt;br&gt;LysR-family transcriptional regulator&lt;br&gt;Location: 2432 - 3331" locus_tag="ADC45513.1" class="clusterblast-orf" id="knownclusterblast-1_all_1_1_2"  />
</g>
<g id="a1_003"  >
<polygon points="14,90 14,90 19,85 14,80 14,80 14,90 " style="fill:white; stroke-width:1; stroke:black; " description="&lt;b&gt;ADC45514.1&lt;/b&gt;&lt;br&gt;cytochrome P450&lt;br&gt;Location: 3487 - 4683" locus_tag="ADC45514.1" class="clusterblast-orf" id="knownclusterblast-1_all_1_1_3"  />
</g>
<g id="a1_004"  >
<polygon points="19,85 24,80 44,80 44,90 24,90 19,85 " style="fill:white; stroke-width:1; stroke:black; " description="&lt;b&gt;ADC45515.1&lt;/b&gt;&lt;br&gt;modular polyketide synthase&lt;br&gt;Location: 4699 - 10563" locus_tag="ADC45515.1" class="clusterblast-orf" id="knownclusterblast-1_all_1_1_4"  />
</g>
<g id="a1_005"  >
<polygon points="44,85 49,80 73,80 73,90 49,90 44,85 " style="fill:white; stroke-width:1; stroke:black; " description="&lt;b&gt;ADC45516.1&lt;/b&gt;&lt;br&gt;modular polyketide synthase&lt;br&gt;Location: 10556 - 17425" locus_tag="ADC45516.1" class="clusterblast-orf" id="knownclusterblast-1_all_1_1_5"  />
</g>
<g id="a1_006"  >
<polygon points="74,90 76,90 81,85 76,80 74,80 74,90 " style="fill:white; stroke-width:1; stroke:black; " description="&lt;b&gt;ADC45517.1&lt;/b&gt;&lt;br&gt;AMP-dependent synthetase and ligase&lt;br&gt;Location: 17671 - 19389" locus_tag="ADC45517.1" class="clusterblast-orf" id="knownclusterblast-1_all_1_1_6"  />
</g>
<g id="a1_007"  >
<polygon points="81,90 85,85 81,80 81,90 " style="fill:white; stroke-width:1; stroke:black; " description="&lt;b&gt;ADC45518.1&lt;/b&gt;&lt;br&gt;hypothetical protein&lt;br&gt;Location: 19386 - 20252" locus_tag="ADC45518.1" class="clusterblast-orf" id="knownclusterblast-1_all_1_1_7"  />
</g>
<g id="a1_008"  >
<polygon points="85,90 87,85 85,80 85,90 " style="fill:white; stroke-width:1; stroke:black; " description="&lt;b&gt;ADC45519.1&lt;/b&gt;&lt;br&gt;thioesterase&lt;br&gt;Location: 20249 - 20779" locus_tag="ADC45519.1" class="clusterblast-orf" id="knownclusterblast-1_all_1_1_8"  />
</g>
<g id="a1_009"  >
<polygon points="87,90 88,85 87,80 87,90 " style="fill:white; stroke-width:1; stroke:black; " description="&lt;b&gt;ADC45520.1&lt;/b&gt;&lt;br&gt;acyl carrier protein&lt;br&gt;Location: 20776 - 21066" locus_tag="ADC45520.1" class="clusterblast-orf" id="knownclusterblast-1_all_1_1_9"  />
</g>
<g id="a1_0010"  >
<polygon points="88,90 92,85 88,80 88,90 " style="fill:white; stroke-width:1; stroke:black; " description="&lt;b&gt;ADC45521.1&lt;/b&gt;&lt;br&gt;cyclopropane-fatty-acyl-phospholipid synthase&lt;br&gt;Location: 21063 - 21932" locus_tag="ADC45521.1" class="clusterblast-orf" id="knownclusterblast-1_all_1_1_10"  />
</g>
<g id="a1_0011"  >
<polygon points="92,90 96,85 92,80 92,90 " style="fill:white; stroke-width:1; stroke:black; " description="&lt;b&gt;ADC45522.1&lt;/b&gt;&lt;br&gt;acyl-[acyl-carrier protein] desaturase&lt;br&gt;Location: 21929 - 22801" locus_tag="ADC45522.1" class="clusterblast-orf" id="knownclusterblast-1_all_1_1_11"  />
</g>
<g id="a1_0012"  >
<polygon points="96,85 101,80 103,80 103,90 101,90 96,85 " style="fill:white; stroke-width:1; stroke:black; " description="&lt;b&gt;ADC45523.1&lt;/b&gt;&lt;br&gt;secreted amidase&lt;br&gt;Location: 22816 - 24429" locus_tag="ADC45523.1" class="clusterblast-orf" id="knownclusterblast-1_all_1_1_12"  />
</g>
<g id="a1_0013"  >
<polygon points="103,85 105,80 105,90 103,85 " style="fill:white; stroke-width:1; stroke:black; " description="&lt;b&gt;ADC45524.1&lt;/b&gt;&lt;br&gt;hypothetical protein&lt;br&gt;Location: 24504 - 25007" locus_tag="ADC45524.1" class="clusterblast-orf" id="knownclusterblast-1_all_1_1_13"  />
</g>
<g id="a1_0014"  >
<polygon points="106,90 109,90 114,85 109,80 106,80 106,90 " style="fill:white; stroke-width:1; stroke:black; " description="&lt;b&gt;ADC45525.1&lt;/b&gt;&lt;br&gt;alpha-glucuronidase&lt;br&gt;Location: 25161 - 27209" locus_tag="ADC45525.1" class="clusterblast-orf" id="knownclusterblast-1_all_1_1_14"  />
</g>
<g id="a1_0015"  >
<polygon points="114,85 119,80 131,80 131,90 119,90 114,85 " style="fill:white; stroke-width:1; stroke:black; " description="&lt;b&gt;ADC45526.1&lt;/b&gt;&lt;br&gt;hypothetical protein&lt;br&gt;Location: 27238 - 31071" locus_tag="ADC45526.1" class="clusterblast-orf" id="knownclusterblast-1_all_1_1_15"  />
</g>
<g id="a1_0016"  >
<polygon points="131,85 136,80 137,80 137,90 136,90 131,85 " style="fill:white; stroke-width:1; stroke:black; " description="&lt;b&gt;ADC45527.1&lt;/b&gt;&lt;br&gt;gluconate transporter&lt;br&gt;Location: 31153 - 32580" locus_tag="ADC45527.1" class="clusterblast-orf" id="knownclusterblast-1_all_1_1_16"  />
</g>
<g id="a1_0017"  >
<polygon points="137,85 142,80 142,80 142,90 142,90 137,85 " style="fill:white; stroke-width:1; stroke:black; " description="&lt;b&gt;ADC45528.1&lt;/b&gt;&lt;br&gt;hypothetical protein&lt;br&gt;Location: 32668 - 33654" locus_tag="ADC45528.1" class="clusterblast-orf" id="knownclusterblast-1_all_1_1_17"  />
</g>
<g id="a1_0018"  >
<polygon points="142,90 144,90 149,85 144,80 142,80 142,90 " style="fill:white; stroke-width:1; stroke:black; " description="&lt;b&gt;ADC45529.1&lt;/b&gt;&lt;br&gt;two-component system histidine kinase&lt;br&gt;Location: 33753 - 35426" locus_tag="ADC45529.1" class="clusterblast-orf" id="knownclusterblast-1_all_1_1_18"  />
</g>
<g id="a1_0019"  >
<polygon points="149,90 152,85 149,80 149,90 " style="fill:white; stroke-width:1; stroke:black; " description="&lt;b&gt;ADC45530.1&lt;/b&gt;&lt;br&gt;two-component system response regulator&lt;br&gt;Location: 35423 - 36115" locus_tag="ADC45530.1" class="clusterblast-orf" id="knownclusterblast-1_all_1_1_19"  />
</g>
<g id="a1_0020"  >
<polygon points="152,85 157,80 157,80 157,90 157,90 152,85 " style="fill:white; stroke-width:1; stroke:black; " description="&lt;b&gt;ADC45531.1&lt;/b&gt;&lt;br&gt;hypothetical protein&lt;br&gt;Location: 36139 - 37263" locus_tag="ADC45531.1" class="clusterblast-orf" id="knownclusterblast-1_all_1_1_20"  />
</g>
<g id="a1_0021"  >
<polygon points="157,85 159,80 159,90 157,85 " style="fill:white; stroke-width:1; stroke:black; " description="&lt;b&gt;ADC45532.1&lt;/b&gt;&lt;br&gt;heavy metal translocating P-type ATPase&lt;br&gt;Location: 37274 - 37849" locus_tag="ADC45532.1" class="clusterblast-orf" id="knownclusterblast-1_all_1_1_21"  />
</g>
<g id="a1_0022"  >
<polygon points="160,90 160,90 165,85 160,80 160,80 160,90 " style="fill:white; stroke-width:1; stroke:black; " description="&lt;b&gt;ADC45533.1&lt;/b&gt;&lt;br&gt;hypothetical protein&lt;br&gt;Location: 38044 - 39195" locus_tag="ADC45533.1" class="clusterblast-orf" id="knownclusterblast-1_all_1_1_22"  />
</g>
<g id="a1_0023"  >
<polygon points="166,90 237,90 242,85 237,80 166,80 166,90 " style="fill:white; stroke-width:1; stroke:black; " description="&lt;b&gt;ADC45534.1&lt;/b&gt;&lt;br&gt;modular polyketide synthase&lt;br&gt;Location: 39452 - 57415" locus_tag="ADC45534.1" class="clusterblast-orf" id="knownclusterblast-1_all_1_1_23"  />
</g>
<g id="a1_0024"  >
<polygon points="242,90 246,85 242,80 242,90 " style="fill:white; stroke-width:1; stroke:black; " description="&lt;b&gt;AAM97313.1&lt;/b&gt;&lt;br&gt;post-polyketide modification protein&lt;br&gt;Location: 57429 - 58421" locus_tag="AAM97313.1" class="clusterblast-orf" id="knownclusterblast-1_all_1_1_24"  />
</g>
<g id="a1_0025"  >
<polygon points="246,85 251,80 252,80 252,90 251,90 246,85 " style="fill:white; stroke-width:1; stroke:black; " description="&lt;b&gt;AAM97314.1&lt;/b&gt;&lt;br&gt;cytochrome P450 hydroxylase&lt;br&gt;Location: 58480 - 59859" locus_tag="AAM97314.1" class="clusterblast-orf" id="knownclusterblast-1_all_1_1_25"  />
</g>
<g id="a1_0026"  >
<polygon points="252,85 257,80 319,80 319,90 257,90 252,85 " style="fill:white; stroke-width:1; stroke:black; " description="&lt;b&gt;ADC45535.1&lt;/b&gt;&lt;br&gt;modular polyketide synthase&lt;br&gt;Location: 59936 - 75769" locus_tag="ADC45535.1" class="clusterblast-orf" id="knownclusterblast-1_all_1_1_26"  />
</g>
<g id="a1_0027"  >
<polygon points="320,90 324,85 320,80 320,90 " style="fill:white; stroke-width:1; stroke:black; " description="&lt;b&gt;ADC45536.1&lt;/b&gt;&lt;br&gt;reductase&lt;br&gt;Location: 76029 - 76829" locus_tag="ADC45536.1" class="clusterblast-orf" id="knownclusterblast-1_all_1_1_27"  />
</g>
<g id="a1_0028"  >
<polygon points="324,85 327,80 327,90 324,85 " style="fill:white; stroke-width:1; stroke:black; " description="&lt;b&gt;AAP13848.2&lt;/b&gt;&lt;br&gt;C5-ketoreductase&lt;br&gt;Location: 76867 - 77679" locus_tag="AAP13848.2" class="clusterblast-orf" id="knownclusterblast-1_all_1_1_28"  />
</g>
<g id="a1_0029"  >
<polygon points="328,85 331,80 331,90 328,85 " style="fill:white; stroke-width:1; stroke:black; " description="&lt;b&gt;ADC45537.1&lt;/b&gt;&lt;br&gt;hypothetical protein&lt;br&gt;Location: 77846 - 78601" locus_tag="ADC45537.1" class="clusterblast-orf" id="knownclusterblast-1_all_1_1_29"  />
</g>
<g id="a1_0030"  >
<polygon points="331,85 336,80 405,80 405,90 336,90 331,85 " style="fill:white; stroke-width:1; stroke:black; " description="&lt;b&gt;ADC45538.1&lt;/b&gt;&lt;br&gt;modular polyketide synthase&lt;br&gt;Location: 78606 - 96074" locus_tag="ADC45538.1" class="clusterblast-orf" id="knownclusterblast-1_all_1_1_30"  />
</g>
<g id="a1_0031"  >
<polygon points="405,85 410,80 417,80 417,90 410,90 405,85 " style="fill:white; stroke-width:1; stroke:black; " description="&lt;b&gt;ADC45539.1&lt;/b&gt;&lt;br&gt;LuxR-family transcriptional regulator&lt;br&gt;Location: 96121 - 99015" locus_tag="ADC45539.1" class="clusterblast-orf" id="knownclusterblast-1_all_1_1_31"  />
</g>
<g id="a1_0032"  >
<polygon points="419,90 419,90 424,85 419,80 419,80 419,90 " style="fill:white; stroke-width:1; stroke:black; " description="&lt;b&gt;ADC45540.1&lt;/b&gt;&lt;br&gt;hypothetical protein&lt;br&gt;Location: 99318 - 100469" locus_tag="ADC45540.1" class="clusterblast-orf" id="knownclusterblast-1_all_1_1_32"  />
</g>
<g id="a1_0033"  >
<polygon points="424,90 425,90 430,85 425,80 424,80 424,90 " style="fill:white; stroke-width:1; stroke:black; " description="&lt;b&gt;ADC45541.1&lt;/b&gt;&lt;br&gt;beta-lactamase-like protein&lt;br&gt;Location: 100671 - 102113" locus_tag="ADC45541.1" class="clusterblast-orf" id="knownclusterblast-1_all_1_1_33"  />
</g>
<g id="a1_0034"  >
<polygon points="431,85 436,80 437,80 437,90 436,90 431,85 " style="fill:white; stroke-width:1; stroke:black; " description="&lt;b&gt;ADC45542.1&lt;/b&gt;&lt;br&gt;Na+/solute symporter&lt;br&gt;Location: 102173 - 103669" locus_tag="ADC45542.1" class="clusterblast-orf" id="knownclusterblast-1_all_1_1_34"  />
</g>
<g id="a1_0035"  >
<polygon points="437,85 438,80 438,90 437,85 " style="fill:white; stroke-width:1; stroke:black; " description="&lt;b&gt;ADC45543.1&lt;/b&gt;&lt;br&gt;hypothetical protein&lt;br&gt;Location: 103666 - 103896" locus_tag="ADC45543.1" class="clusterblast-orf" id="knownclusterblast-1_all_1_1_35"  />
</g>
<g id="a1_0036"  >
<polygon points="440,90 441,85 440,80 440,90 " style="fill:white; stroke-width:1; stroke:black; " description="&lt;b&gt;ADC45544.1&lt;/b&gt;&lt;br&gt;hypothetical protein&lt;br&gt;Location: 104276 - 104656" locus_tag="ADC45544.1" class="clusterblast-orf" id="knownclusterblast-1_all_1_1_36"  />
</g>
<g id="a1_0037"  >
<polygon points="441,90 445,85 441,80 441,90 " style="fill:white; stroke-width:1; stroke:black; " description="&lt;b&gt;ADC45545.1&lt;/b&gt;&lt;br&gt;hydroxypyruvate isomerase&lt;br&gt;Location: 104656 - 105486" locus_tag="ADC45545.1" class="clusterblast-orf" id="knownclusterblast-1_all_1_1_37"  />
</g>
<g id="a1_0038"  >
<polygon points="445,90 449,85 445,80 445,90 " style="fill:white; stroke-width:1; stroke:black; " description="&lt;b&gt;ADC45546.1&lt;/b&gt;&lt;br&gt;2-hydroxy-3-oxopropionate reductase&lt;br&gt;Location: 105556 - 106452" locus_tag="ADC45546.1" class="clusterblast-orf" id="knownclusterblast-1_all_1_1_38"  />
</g>
<g id="a1_0039"  >
<polygon points="449,90 451,90 456,85 451,80 449,80 449,90 " style="fill:white; stroke-width:1; stroke:black; " description="&lt;b&gt;ADC45547.1&lt;/b&gt;&lt;br&gt;glyoxylate carboligase&lt;br&gt;Location: 106518 - 108287" locus_tag="ADC45547.1" class="clusterblast-orf" id="knownclusterblast-1_all_1_1_39"  />
</g>
<g id="a1_0040"  >
<polygon points="457,85 462,80 462,80 462,90 462,90 457,85 " style="fill:white; stroke-width:1; stroke:black; " description="&lt;b&gt;ADC45548.1&lt;/b&gt;&lt;br&gt;mandelate racemase&lt;br&gt;Location: 108318 - 109508" locus_tag="ADC45548.1" class="clusterblast-orf" id="knownclusterblast-1_all_1_1_40"  />
</g>
<g id="a1_0041"  >
<polygon points="462,85 465,80 465,90 462,85 " style="fill:white; stroke-width:1; stroke:black; " description="&lt;b&gt;ADC45549.1&lt;/b&gt;&lt;br&gt;5-carboxymethyl-2-hydroxymuconate delta-isomerase&lt;br&gt;Location: 109505 - 110284" locus_tag="ADC45549.1" class="clusterblast-orf" id="knownclusterblast-1_all_1_1_41"  />
</g>
<g id="a1_0042"  >
<polygon points="466,85 471,80 471,80 471,90 471,90 466,85 " style="fill:white; stroke-width:1; stroke:black; " description="&lt;b&gt;ADC45550.1&lt;/b&gt;&lt;br&gt;anion/cation symporter&lt;br&gt;Location: 110464 - 111825" locus_tag="ADC45550.1" class="clusterblast-orf" id="knownclusterblast-1_all_1_1_42"  />
</g>
<g id="a1_0043"  >
<polygon points="473,90 476,85 473,80 473,90 " style="fill:white; stroke-width:1; stroke:black; " description="&lt;b&gt;ADC45551.1&lt;/b&gt;&lt;br&gt;dimethylmenaquinone methyltransferase&lt;br&gt;Location: 112100 - 112885" locus_tag="ADC45551.1" class="clusterblast-orf" id="knownclusterblast-1_all_1_1_43"  />
</g>
<g id="a1_0044"  >
<polygon points="476,90 478,85 476,80 476,90 " style="fill:white; stroke-width:1; stroke:black; " description="&lt;b&gt;ADC45552.1&lt;/b&gt;&lt;br&gt;hypothetical protein&lt;br&gt;Location: 112882 - 113391" locus_tag="ADC45552.1" class="clusterblast-orf" id="knownclusterblast-1_all_1_1_44"  />
</g>
<g id="a1_0045"  >
<polygon points="478,90 480,90 485,85 480,80 478,80 478,90 " style="fill:white; stroke-width:1; stroke:black; " description="&lt;b&gt;ADC45553.1&lt;/b&gt;&lt;br&gt;aldehyde dehydrogenase&lt;br&gt;Location: 113420 - 114931" locus_tag="ADC45553.1" class="clusterblast-orf" id="knownclusterblast-1_all_1_1_45"  />
</g>
<g id="a1_0046"  >
<polygon points="484,85 488,80 488,90 484,85 " style="fill:white; stroke-width:1; stroke:black; " description="&lt;b&gt;ADC45554.1&lt;/b&gt;&lt;br&gt;aldose 1-epimerase&lt;br&gt;Location: 114915 - 115772" locus_tag="ADC45554.1" class="clusterblast-orf" id="knownclusterblast-1_all_1_1_46"  />
</g>
<g id="a1_0047"  >
<polygon points="489,90 490,90 495,85 490,80 489,80 489,90 " style="fill:white; stroke-width:1; stroke:black; " description="&lt;b&gt;ADC45555.1&lt;/b&gt;&lt;br&gt;sugar transporter&lt;br&gt;Location: 115938 - 117386" locus_tag="ADC45555.1" class="clusterblast-orf" id="knownclusterblast-1_all_1_1_47"  />
</g>
<g id="a1_0048"  >
<polygon points="495,90 499,85 495,80 495,90 " style="fill:white; stroke-width:1; stroke:black; " description="&lt;b&gt;ADC45556.1&lt;/b&gt;&lt;br&gt;2-hydroxycyclohexanecarboxyl-CoA dehyrogenase&lt;br&gt;Location: 117383 - 118279" locus_tag="ADC45556.1" class="clusterblast-orf" id="knownclusterblast-1_all_1_1_48"  />
</g>
<g id="a1_0049"  >
<polygon points="499,90 499,90 504,85 499,80 499,80 499,90 " style="fill:white; stroke-width:1; stroke:black; " description="&lt;b&gt;ADC45557.1&lt;/b&gt;&lt;br&gt;isomerase&lt;br&gt;Location: 118276 - 119445" locus_tag="ADC45557.1" class="clusterblast-orf" id="knownclusterblast-1_all_1_1_49"  />
</g>
<g id="a1_0050"  >
<polygon points="504,85 507,80 507,90 504,85 " style="fill:white; stroke-width:1; stroke:black; " description="&lt;b&gt;ADC45558.1&lt;/b&gt;&lt;br&gt;transcriptional regulator&lt;br&gt;Location: 119490 - 120278" locus_tag="ADC45558.1" class="clusterblast-orf" id="knownclusterblast-1_all_1_1_50"  />
</g>
<g id="a1_0051"  >
<polygon points="509,85 512,80 512,90 509,85 " style="fill:white; stroke-width:1; stroke:black; " description="&lt;b&gt;ADC45559.1&lt;/b&gt;&lt;br&gt;acetyl-xylan esterase&lt;br&gt;Location: 120722 - 121447" locus_tag="ADC45559.1" class="clusterblast-orf" id="knownclusterblast-1_all_1_1_51"  />
</g>
<g id="a1_0052"  >
<polygon points="513,85 516,80 516,90 513,85 " style="fill:white; stroke-width:1; stroke:black; " description="&lt;b&gt;ADC45560.1&lt;/b&gt;&lt;br&gt;citrate lyase beta subunit&lt;br&gt;Location: 121600 - 122463" locus_tag="ADC45560.1" class="clusterblast-orf" id="knownclusterblast-1_all_1_1_52"  />
</g>
<g id="a1_0053"  >
<polygon points="517,85 520,80 520,90 517,85 " style="fill:white; stroke-width:1; stroke:black; " description="&lt;b&gt;ADC45561.1&lt;/b&gt;&lt;br&gt;hypothetical protein&lt;br&gt;Location: 122516 - 123400" locus_tag="ADC45561.1" class="clusterblast-orf" id="knownclusterblast-1_all_1_1_53"  />
</g>
<g id="a1_0054"  >
<polygon points="521,85 523,80 523,90 521,85 " style="fill:#15d815; stroke-width:1; stroke:black; " description="&lt;b&gt;ADC45562.1&lt;/b&gt;&lt;br&gt;sulfopyruvate decarboxylase beta subunit&lt;br&gt;Location: 123478 - 124077&lt;br&gt;&lt;br&gt;&lt;b&gt;BlastP hit with CCIMNIEH_1239703&lt;/b&gt;&lt;br&gt;Percentage identity: 55&lt;br&gt;Percentage coverage: 98&lt;br&gt;BLAST bit score: 180&lt;br&gt;E-value: 2.8e-45" locus_tag="ADC45562.1" class="clusterblast-orf" id="knownclusterblast-1_all_1_1_54"  />
</g>
<g id="a1_0055"  >
<polygon points="523,85 525,80 525,90 523,85 " style="fill:#1515d8; stroke-width:1; stroke:black; " description="&lt;b&gt;ADC45563.1&lt;/b&gt;&lt;br&gt;sulfopyruvate decarboxylase alpha subunit&lt;br&gt;Location: 124077 - 124613&lt;br&gt;&lt;br&gt;&lt;b&gt;BlastP hit with CCIMNIEH_1239704&lt;/b&gt;&lt;br&gt;Percentage identity: 52&lt;br&gt;Percentage coverage: 95&lt;br&gt;BLAST bit score: 193&lt;br&gt;E-value: 2.3e-49" locus_tag="ADC45563.1" class="clusterblast-orf" id="knownclusterblast-1_all_1_1_55"  />
</g>
<g id="a1_0056"  >
<polygon points="526,85 529,80 529,90 526,85 " style="fill:white; stroke-width:1; stroke:black; " description="&lt;b&gt;ADC45564.1&lt;/b&gt;&lt;br&gt;hydrolase&lt;br&gt;Location: 124725 - 125549" locus_tag="ADC45564.1" class="clusterblast-orf" id="knownclusterblast-1_all_1_1_56"  />
</g>
<g id="a1_0057"  >
<polygon points="530,85 534,80 534,90 530,85 " style="fill:white; stroke-width:1; stroke:black; " description="&lt;b&gt;ADC45565.1&lt;/b&gt;&lt;br&gt;LysR-family transcriptional regulator&lt;br&gt;Location: 125629 - 126582" locus_tag="ADC45565.1" class="clusterblast-orf" id="knownclusterblast-1_all_1_1_57"  />
</g>
<g id="a1_0058"  >
<polygon points="534,90 534,90 539,85 534,80 534,80 534,90 " style="fill:#d81515; stroke-width:1; stroke:black; " description="&lt;b&gt;ADC45566.1&lt;/b&gt;&lt;br&gt;L-carnitine dehydratase&lt;br&gt;Location: 126703 - 127887&lt;br&gt;&lt;br&gt;&lt;b&gt;BlastP hit with CCIMNIEH_1239699&lt;/b&gt;&lt;br&gt;Percentage identity: 48&lt;br&gt;Percentage coverage: 100&lt;br&gt;BLAST bit score: 318&lt;br&gt;E-value: 1.6e-86" locus_tag="ADC45566.1" class="clusterblast-orf" id="knownclusterblast-1_all_1_1_58"  />
</g>
<g id="a1_0059"  >
<polygon points="539,90 539,90 544,85 539,80 539,80 539,90 " style="fill:white; stroke-width:1; stroke:black; " description="&lt;b&gt;ADC45567.1&lt;/b&gt;&lt;br&gt;acyl-CoA dehydrogenase&lt;br&gt;Location: 127932 - 129095" locus_tag="ADC45567.1" class="clusterblast-orf" id="knownclusterblast-1_all_1_1_59"  />
</g>
<g id="a1_0060"  >
<polygon points="545,85 550,80 558,80 558,90 550,90 545,85 " style="fill:white; stroke-width:1; stroke:black; " description="&lt;b&gt;ADC45568.1&lt;/b&gt;&lt;br&gt;rhamnosidase&lt;br&gt;Location: 129165 - 132380" locus_tag="ADC45568.1" class="clusterblast-orf" id="knownclusterblast-1_all_1_1_60"  />
</g>
<g id="a1_0061"  >
<polygon points="559,85 561,80 561,90 559,85 " style="fill:white; stroke-width:1; stroke:black; " description="&lt;b&gt;ADC45569.1&lt;/b&gt;&lt;br&gt;hypothetical protein&lt;br&gt;Location: 132620 - 132940" locus_tag="ADC45569.1" class="clusterblast-orf" id="knownclusterblast-1_all_1_1_61"  />
</g>
<g id="a1_0062"  >
<polygon points="561,85 564,80 564,90 561,85 " style="fill:white; stroke-width:1; stroke:black; " description="&lt;b&gt;ADC45570.1&lt;/b&gt;&lt;br&gt;transcriptional regulator&lt;br&gt;Location: 133101 - 133751" locus_tag="ADC45570.1" class="clusterblast-orf" id="knownclusterblast-1_all_1_1_62"  />
</g>
<g id="a1_0063"  >
<polygon points="565,90 568,85 565,80 565,90 " style="fill:white; stroke-width:1; stroke:black; " description="&lt;b&gt;ADC45571.1&lt;/b&gt;&lt;br&gt;hypothetical protein&lt;br&gt;Location: 133941 - 134603" locus_tag="ADC45571.1" class="clusterblast-orf" id="knownclusterblast-1_all_1_1_63"  />
</g>
<g id="a1_0064"  >
<polygon points="568,85 570,80 570,90 568,85 " style="fill:white; stroke-width:1; stroke:black; " description="&lt;b&gt;ADC45572.1&lt;/b&gt;&lt;br&gt;TetR-family transcriptional regulator&lt;br&gt;Location: 134605 - 135198" locus_tag="ADC45572.1" class="clusterblast-orf" id="knownclusterblast-1_all_1_1_64"  />
</g>
<g id="a1_0065"  >
<polygon points="571,90 575,85 571,80 571,90 " style="fill:white; stroke-width:1; stroke:black; " description="&lt;b&gt;ADC45573.1&lt;/b&gt;&lt;br&gt;aldoketoreductase&lt;br&gt;Location: 135388 - 136407" locus_tag="ADC45573.1" class="clusterblast-orf" id="knownclusterblast-1_all_1_1_65"  />
</g>
<g id="a1_0066"  >
<polygon points="575,90 579,85 575,80 575,90 " style="fill:white; stroke-width:1; stroke:black; " description="&lt;b&gt;ADC45574.1&lt;/b&gt;&lt;br&gt;flavin-dependent oxidoreductase&lt;br&gt;Location: 136478 - 137323" locus_tag="ADC45574.1" class="clusterblast-orf" id="knownclusterblast-1_all_1_1_66"  />
</g>
<g id="a1_0067"  >
<polygon points="579,85 584,80 586,80 586,90 584,90 579,85 " style="fill:white; stroke-width:1; stroke:black; " description="&lt;b&gt;ADC45575.1&lt;/b&gt;&lt;br&gt;hydrolase&lt;br&gt;Location: 137355 - 138866" locus_tag="ADC45575.1" class="clusterblast-orf" id="knownclusterblast-1_all_1_1_67"  />
</g>
<g id="a1_0068"  >
<polygon points="587,90 591,85 587,80 587,90 " style="fill:white; stroke-width:1; stroke:black; " description="&lt;b&gt;ADC45576.1&lt;/b&gt;&lt;br&gt;hypothetical protein&lt;br&gt;Location: 139224 - 140276" locus_tag="ADC45576.1" class="clusterblast-orf" id="knownclusterblast-1_all_1_1_68"  />
</g>
<g id="a1_0069"  >
<polygon points="591,90 592,90 597,85 592,80 591,80 591,90 " style="fill:white; stroke-width:1; stroke:black; " description="&lt;b&gt;ADC45577.1&lt;/b&gt;&lt;br&gt;hypothetical protein&lt;br&gt;Location: 140258 - 141583" locus_tag="ADC45577.1" class="clusterblast-orf" id="knownclusterblast-1_all_1_1_69"  />
</g>
<g id="a1_0070"  >
<polygon points="597,90 597,90 602,85 597,80 597,80 597,90 " style="fill:white; stroke-width:1; stroke:black; " description="&lt;b&gt;ADC45578.1&lt;/b&gt;&lt;br&gt;lysine/ornithine decarboxylase&lt;br&gt;Location: 141628 - 142818" locus_tag="ADC45578.1" class="clusterblast-orf" id="knownclusterblast-1_all_1_1_70"  />
</g>
<g id="a1_0071"  >
<polygon points="602,90 604,85 602,80 602,90 " style="fill:white; stroke-width:1; stroke:black; " description="&lt;b&gt;ADC45579.1&lt;/b&gt;&lt;br&gt;hypothetical protein&lt;br&gt;Location: 142827 - 143357" locus_tag="ADC45579.1" class="clusterblast-orf" id="knownclusterblast-1_all_1_1_71"  />
</g>
<g id="a1_0072"  >
<polygon points="604,90 605,90 610,85 605,80 604,80 604,90 " style="fill:white; stroke-width:1; stroke:black; " description="&lt;b&gt;ADC45580.1&lt;/b&gt;&lt;br&gt;transmembrane transport protein&lt;br&gt;Location: 143354 - 144553" locus_tag="ADC45580.1" class="clusterblast-orf" id="knownclusterblast-1_all_1_1_72"  />
</g>
<g id="a1_0073"  >
<polygon points="609,85 614,80 615,80 615,90 614,90 609,85 " style="fill:white; stroke-width:1; stroke:black; " description="&lt;b&gt;ADC45581.1&lt;/b&gt;&lt;br&gt;glycoside hydrolase&lt;br&gt;Location: 144519 - 145820" locus_tag="ADC45581.1" class="clusterblast-orf" id="knownclusterblast-1_all_1_1_73"  />
</g>
<g id="a1_0074"  >
<polygon points="615,85 620,80 628,80 628,90 620,90 615,85 " style="fill:white; stroke-width:1; stroke:black; " description="&lt;b&gt;ADC45582.1&lt;/b&gt;&lt;br&gt;hypothetical protein&lt;br&gt;Location: 145963 - 148932" locus_tag="ADC45582.1" class="clusterblast-orf" id="knownclusterblast-1_all_1_1_74"  />
</g>
<g id="a1_0075"  >
<polygon points="629,90 633,85 629,80 629,90 " style="fill:white; stroke-width:1; stroke:black; " description="&lt;b&gt;ADC45583.1&lt;/b&gt;&lt;br&gt;sugar-binding transcriptional regulator&lt;br&gt;Location: 149148 - 150152" locus_tag="ADC45583.1" class="clusterblast-orf" id="knownclusterblast-1_all_1_1_75"  />
</g>
<g id="a1_0076"  >
<polygon points="634,90 637,90 642,85 637,80 634,80 634,90 " style="fill:white; stroke-width:1; stroke:black; " description="&lt;b&gt;ADC45584.1&lt;/b&gt;&lt;br&gt;monooxygenase&lt;br&gt;Location: 150307 - 152142" locus_tag="ADC45584.1" class="clusterblast-orf" id="knownclusterblast-1_all_1_1_76"  />
</g>
<g id="a1_0077"  >
<polygon points="642,90 644,90 649,85 644,80 642,80 642,90 " style="fill:white; stroke-width:1; stroke:black; " description="&lt;b&gt;ADC45585.1&lt;/b&gt;&lt;br&gt;hypothetical protein&lt;br&gt;Location: 152139 - 153836" locus_tag="ADC45585.1" class="clusterblast-orf" id="knownclusterblast-1_all_1_1_77"  />
</g>
<g id="a1_0078"  >
<polygon points="650,90 699,90 704,85 699,80 650,80 650,90 " style="fill:white; stroke-width:1; stroke:black; " description="&lt;b&gt;ADC45586.1&lt;/b&gt;&lt;br&gt;modular polyketide synthase&lt;br&gt;Location: 154052 - 167044" locus_tag="ADC45586.1" class="clusterblast-orf" id="knownclusterblast-1_all_1_1_78"  />
</g>
<g id="a1_0079"  >
<polygon points="705,90 708,85 705,80 705,90 " style="fill:white; stroke-width:1; stroke:black; " description="&lt;b&gt;ADC45587.1&lt;/b&gt;&lt;br&gt;C5-O-methyltransferase&lt;br&gt;Location: 167087 - 167947" locus_tag="ADC45587.1" class="clusterblast-orf" id="knownclusterblast-1_all_1_1_79"  />
</g>
<g id="a1_0080"  >
<polygon points="708,85 713,80 724,80 724,90 713,90 708,85 " style="fill:white; stroke-width:1; stroke:black; " description="&lt;b&gt;ADC45588.1&lt;/b&gt;&lt;br&gt;hydrolase&lt;br&gt;Location: 167960 - 171655" locus_tag="ADC45588.1" class="clusterblast-orf" id="knownclusterblast-1_all_1_1_80"  />
</g>
<g id="a1_0081"  >
<polygon points="724,85 727,80 727,90 724,85 " style="fill:white; stroke-width:1; stroke:black; " description="&lt;b&gt;ADC45589.1&lt;/b&gt;&lt;br&gt;short-chain dehydrogenase/reductase SDR&lt;br&gt;Location: 171713 - 172498" locus_tag="ADC45589.1" class="clusterblast-orf" id="knownclusterblast-1_all_1_1_81"  />
</g>
<g id="a1_0082"  >
<polygon points="728,85 733,80 735,80 735,90 733,90 728,85 " style="fill:white; stroke-width:1; stroke:black; " description="&lt;b&gt;ADC45590.1&lt;/b&gt;&lt;br&gt;beta-glucuronidase precursor&lt;br&gt;Location: 172569 - 174362" locus_tag="ADC45590.1" class="clusterblast-orf" id="knownclusterblast-1_all_1_1_82"  />
</g>
<g id="a1_0083"  >
<polygon points="736,85 741,80 741,80 741,90 741,90 736,85 " style="fill:white; stroke-width:1; stroke:black; " description="&lt;b&gt;ADC45591.1&lt;/b&gt;&lt;br&gt;beta-glucosidase&lt;br&gt;Location: 174404 - 175621" locus_tag="ADC45591.1" class="clusterblast-orf" id="knownclusterblast-1_all_1_1_83"  />
</g>
<g id="a1_0084"  >
<polygon points="741,85 744,80 744,90 741,85 " style="fill:white; stroke-width:1; stroke:black; " description="&lt;b&gt;ADC45592.1&lt;/b&gt;&lt;br&gt;ABC transporter&lt;br&gt;Location: 175618 - 176493" locus_tag="ADC45592.1" class="clusterblast-orf" id="knownclusterblast-1_all_1_1_84"  />
</g>
<g id="a1_0085"  >
<polygon points="744,85 749,80 752,80 752,90 749,90 744,85 " style="fill:white; stroke-width:1; stroke:black; " description="&lt;b&gt;ADC45593.1&lt;/b&gt;&lt;br&gt;ABC transporter&lt;br&gt;Location: 176490 - 178325" locus_tag="ADC45593.1" class="clusterblast-orf" id="knownclusterblast-1_all_1_1_85"  />
</g>
<g id="a1_0086"  >
<polygon points="752,85 756,80 756,90 752,85 " style="fill:white; stroke-width:1; stroke:black; " description="&lt;b&gt;ADC45594.1&lt;/b&gt;&lt;br&gt;transporter&lt;br&gt;Location: 178322 - 179278" locus_tag="ADC45594.1" class="clusterblast-orf" id="knownclusterblast-1_all_1_1_86"  />
</g>
<g id="a1_0087"  >
<polygon points="756,85 761,80 763,80 763,90 761,90 756,85 " style="fill:white; stroke-width:1; stroke:black; " description="&lt;b&gt;ADC45595.1&lt;/b&gt;&lt;br&gt;extracellular solute-binding protein&lt;br&gt;Location: 179275 - 180837" locus_tag="ADC45595.1" class="clusterblast-orf" id="knownclusterblast-1_all_1_1_87"  />
</g>
<g id="a1_0088"  >
<polygon points="764,90 766,85 764,80 764,90 " style="fill:white; stroke-width:1; stroke:black; " description="&lt;b&gt;ADC45596.1&lt;/b&gt;&lt;br&gt;TetR-family transcriptional regulator&lt;br&gt;Location: 181085 - 181693" locus_tag="ADC45596.1" class="clusterblast-orf" id="knownclusterblast-1_all_1_1_88"  />
</g>
<g id="a1_0089"  >
<polygon points="766,85 771,80 771,80 771,90 771,90 766,85 " style="fill:white; stroke-width:1; stroke:black; " description="&lt;b&gt;ADC45597.1&lt;/b&gt;&lt;br&gt;LacI-family transcriptional regulator&lt;br&gt;Location: 181698 - 182726" locus_tag="ADC45597.1" class="clusterblast-orf" id="knownclusterblast-1_all_1_1_89"  />
</g>
<g id="a1_0090"  >
<polygon points="772,90 776,85 772,80 772,90 " style="fill:white; stroke-width:1; stroke:black; " description="&lt;b&gt;ADC45598.1&lt;/b&gt;&lt;br&gt;carbohydrate kinase&lt;br&gt;Location: 182934 - 183905" locus_tag="ADC45598.1" class="clusterblast-orf" id="knownclusterblast-1_all_1_1_90"  />
</g>
<g id="a1_0091"  >
<polygon points="776,90 780,85 776,80 776,90 " style="fill:white; stroke-width:1; stroke:black; " description="&lt;b&gt;ADC45599.1&lt;/b&gt;&lt;br&gt;hypothetical protein&lt;br&gt;Location: 183922 - 184824" locus_tag="ADC45599.1" class="clusterblast-orf" id="knownclusterblast-1_all_1_1_91"  />
</g>
</svg>
