<svg xmlns="http://www.w3.org/2000/svg" xmlns:xlink="http://www.w3.org/1999/xlink" version="1.1" x="0" y="0" height="50" width="800" viewBox="0 0 800 50" preserveAspectRatio="none"  >
<g label="Query sequence" class="clusterblast-cluster"  >
<text x="5" y="20" class="clusterblast-acc"  >
Query sequence</text>
<line x1="10" y1="35" x2="778.0" y2="35" style="stroke-width:1; stroke:grey; "  />
<polygon points="0,35 5,30 122,30 122,40 5,40 0,35 " style="fill:white; stroke-width:1; stroke:black; " description="&lt;b&gt;CCIMNIEH_2634769&lt;/b&gt;&lt;br&gt;unannotated protein&lt;br&gt;Location: 214 - 2230" locus_tag="CCIMNIEH_2634769" class="clusterblast-orf" id="knownclusterblast-1_q0_0_all"  />
<polygon points="122,35 127,30 157,30 157,40 127,40 122,35 " style="fill:white; stroke-width:1; stroke:black; " description="&lt;b&gt;CCIMNIEH_2634770&lt;/b&gt;&lt;br&gt;unannotated protein&lt;br&gt;Location: 2235 - 2802" locus_tag="CCIMNIEH_2634770" class="clusterblast-orf" id="knownclusterblast-1_q1_0_all"  />
<polygon points="159,35 164,30 218,30 218,40 164,40 159,35 " style="fill:white; stroke-width:1; stroke:black; " description="&lt;b&gt;CCIMNIEH_2634771&lt;/b&gt;&lt;br&gt;unannotated protein&lt;br&gt;Location: 2849 - 3821" locus_tag="CCIMNIEH_2634771" class="clusterblast-orf" id="knownclusterblast-1_q2_0_all"  />
<polygon points="251,35 256,30 318,30 318,40 256,40 251,35 " style="fill:white; stroke-width:1; stroke:black; " description="&lt;b&gt;CCIMNIEH_2634772&lt;/b&gt;&lt;br&gt;unannotated protein&lt;br&gt;Location: 4366 - 5476" locus_tag="CCIMNIEH_2634772" class="clusterblast-orf" id="knownclusterblast-1_q3_0_all"  />
<polygon points="317,35 322,30 367,30 367,40 322,40 317,35 " style="fill:white; stroke-width:1; stroke:black; " description="&lt;b&gt;CCIMNIEH_2634773&lt;/b&gt;&lt;br&gt;unannotated protein&lt;br&gt;Location: 5459 - 6290" locus_tag="CCIMNIEH_2634773" class="clusterblast-orf" id="knownclusterblast-1_q4_0_all"  />
<polygon points="369,35 374,30 444,30 444,40 374,40 369,35 " style="fill:white; stroke-width:1; stroke:black; " description="&lt;b&gt;CCIMNIEH_2634774&lt;/b&gt;&lt;br&gt;unannotated protein&lt;br&gt;Location: 6310 - 7552" locus_tag="CCIMNIEH_2634774" class="clusterblast-orf" id="knownclusterblast-1_q5_0_all"  />
<polygon points="444,35 449,30 619,30 619,40 449,40 444,35 " style="fill:white; stroke-width:1; stroke:black; " description="&lt;b&gt;CCIMNIEH_2634775&lt;/b&gt;&lt;br&gt;unannotated protein&lt;br&gt;Location: 7548 - 10452" locus_tag="CCIMNIEH_2634775" class="clusterblast-orf" id="knownclusterblast-1_q6_0_all"  />
<polygon points="624,35 629,30 636,30 636,40 629,40 624,35 " style="fill:white; stroke-width:1; stroke:black; " description="&lt;b&gt;CCIMNIEH_2634776&lt;/b&gt;&lt;br&gt;unannotated protein&lt;br&gt;Location: 10539 - 10731" locus_tag="CCIMNIEH_2634776" class="clusterblast-orf" id="knownclusterblast-1_q7_0_all"  />
<polygon points="640,35 645,30 713,30 713,40 645,40 640,35 " style="fill:white; stroke-width:1; stroke:black; " description="&lt;b&gt;CCIMNIEH_2634777&lt;/b&gt;&lt;br&gt;unannotated protein&lt;br&gt;Location: 10794 - 12000" locus_tag="CCIMNIEH_2634777" class="clusterblast-orf" id="knownclusterblast-1_q8_0_all"  />
<polygon points="720,35 725,30 726,30 726,40 725,40 720,35 " style="fill:white; stroke-width:1; stroke:black; " description="&lt;b&gt;CCIMNIEH_2634778&lt;/b&gt;&lt;br&gt;unannotated protein&lt;br&gt;Location: 12117 - 12219" locus_tag="CCIMNIEH_2634778" class="clusterblast-orf" id="knownclusterblast-1_q9_0_all"  />
<polygon points="729,35 734,30 765,30 765,40 734,40 729,35 " style="fill:white; stroke-width:1; stroke:black; " description="&lt;b&gt;CCIMNIEH_2634779&lt;/b&gt;&lt;br&gt;unannotated protein&lt;br&gt;Location: 12262 - 12862" locus_tag="CCIMNIEH_2634779" class="clusterblast-orf" id="knownclusterblast-1_q10_0_all"  />
<polygon points="767,35 772,30 780,30 780,40 772,40 767,35 " style="fill:white; stroke-width:1; stroke:black; " description="&lt;b&gt;CCIMNIEH_2634780&lt;/b&gt;&lt;br&gt;unannotated protein&lt;br&gt;Location: 12889 - 13114" locus_tag="CCIMNIEH_2634780" class="clusterblast-orf" id="knownclusterblast-1_q11_0_all"  />
</g>
</svg>
