<svg xmlns="http://www.w3.org/2000/svg" xmlns:xlink="http://www.w3.org/1999/xlink" version="1.1" x="0" y="0" height="230" width="800" viewBox="0 0 800 230" preserveAspectRatio="none"  >
<g label="Query sequence" class="clusterblast-cluster"  >
<text x="5" y="20" class="clusterblast-acc"  >
Query sequence</text>
<line x1="10" y1="35" x2="778.0" y2="35" style="stroke-width:1; stroke:grey; "  />
<polygon points="0,40 64,40 69,35 64,30 0,30 0,40 " style="fill:white; stroke-width:1; stroke:black; " description="&lt;b&gt;CCIMNIEH_455975&lt;/b&gt;&lt;br&gt;unannotated protein&lt;br&gt;Location: 39863 - 40886" locus_tag="CCIMNIEH_455975" class="clusterblast-orf" id="dummy-1_q0_0_all"  />
<polygon points="68,40 203,40 208,35 203,30 68,30 68,40 " style="fill:white; stroke-width:1; stroke:black; " description="&lt;b&gt;CCIMNIEH_455976&lt;/b&gt;&lt;br&gt;unannotated protein&lt;br&gt;Location: 40878 - 42963" locus_tag="CCIMNIEH_455976" class="clusterblast-orf" id="dummy-1_q1_0_all"  />
<polygon points="238,40 250,40 255,35 250,30 238,30 238,40 " style="fill:white; stroke-width:1; stroke:black; " description="&lt;b&gt;CCIMNIEH_455977&lt;/b&gt;&lt;br&gt;unannotated protein&lt;br&gt;Location: 43404 - 43659" locus_tag="CCIMNIEH_455977" class="clusterblast-orf" id="dummy-1_q2_0_all"  />
<polygon points="259,40 350,40 355,35 350,30 259,30 259,40 " style="fill:white; stroke-width:1; stroke:black; " description="&lt;b&gt;CCIMNIEH_455978&lt;/b&gt;&lt;br&gt;unannotated protein&lt;br&gt;Location: 43716 - 45159" locus_tag="CCIMNIEH_455978" class="clusterblast-orf" id="dummy-1_q3_0_all"  />
<polygon points="359,40 393,40 398,35 393,30 359,30 359,40 " style="fill:white; stroke-width:1; stroke:black; " description="&lt;b&gt;CCIMNIEH_455979&lt;/b&gt;&lt;br&gt;unannotated protein&lt;br&gt;Location: 45213 - 45789" locus_tag="CCIMNIEH_455979" class="clusterblast-orf" id="dummy-1_q4_0_all"  />
<polygon points="408,40 426,40 431,35 426,30 408,30 408,40 " style="fill:white; stroke-width:1; stroke:black; " description="&lt;b&gt;CCIMNIEH_455980&lt;/b&gt;&lt;br&gt;unannotated protein&lt;br&gt;Location: 45946 - 46285" locus_tag="CCIMNIEH_455980" class="clusterblast-orf" id="dummy-1_q5_0_all"  />
<polygon points="432,40 522,40 527,35 522,30 432,30 432,40 " style="fill:white; stroke-width:1; stroke:black; " description="&lt;b&gt;CCIMNIEH_455981&lt;/b&gt;&lt;br&gt;unannotated protein&lt;br&gt;Location: 46298 - 47723" locus_tag="CCIMNIEH_455981" class="clusterblast-orf" id="dummy-1_q6_0_all"  />
<polygon points="570,35 575,30 633,30 633,40 575,40 570,35 " style="fill:#d81515; stroke-width:1; stroke:black; " description="&lt;b&gt;CCIMNIEH_455982&lt;/b&gt;&lt;br&gt;unannotated protein&lt;br&gt;Location: 48358 - 49306" locus_tag="CCIMNIEH_455982" class="clusterblast-orf" id="dummy-1_q7_0_all"  />
<polygon points="637,35 642,30 676,30 676,40 642,40 637,35 " style="fill:white; stroke-width:1; stroke:black; " description="&lt;b&gt;CCIMNIEH_455983&lt;/b&gt;&lt;br&gt;unannotated protein&lt;br&gt;Location: 49353 - 49935" locus_tag="CCIMNIEH_455983" class="clusterblast-orf" id="dummy-1_q8_0_all"  />
<polygon points="675,35 680,30 780,30 780,40 680,40 675,35 " style="fill:#15d8d8; stroke-width:1; stroke:black; " description="&lt;b&gt;CCIMNIEH_455984&lt;/b&gt;&lt;br&gt;unannotated protein&lt;br&gt;Location: 49931 - 51494" locus_tag="CCIMNIEH_455984" class="clusterblast-orf" id="dummy-1_q9_0_all"  />
</g>
<g label="BGC0000643" description="BGC0000643_c1: carotenoid (20% of genes show similarity), Terpene" class="clusterblast-cluster"  >
<text x="5" y="70" class="clusterblast-acc"  >
<a xlink:href="https://mibig.secondarymetabolites.org/go/BGC0000643/1" target="_blank">BGC0000643</a>:                                                                       carotenoid (20% of genes show similarity), Terpene</text>
<line x1="10" y1="85" x2="778.0" y2="85" style="stroke-width:1; stroke:grey; "  />
</g>
<g id="a1_000"  >
<polygon points="65,85 70,80 115,80 115,90 70,90 65,85 " style="fill:white; stroke-width:1; stroke:black; " description="&lt;b&gt;ABC50107.1&lt;/b&gt;&lt;br&gt;2,2'-beta-ionone ring hydroxylase&lt;br&gt;Location: 364 - 1113" locus_tag="ABC50107.1" class="clusterblast-orf" id="dummy-1_h1_8_0"  />
</g>
<g id="a1_001"  >
<polygon points="120,90 148,90 153,85 148,80 120,80 120,90 " style="fill:white; stroke-width:1; stroke:black; " description="&lt;b&gt;ABC50108.1&lt;/b&gt;&lt;br&gt;beta-carotene hydroxylase&lt;br&gt;Location: 1188 - 1673" locus_tag="ABC50108.1" class="clusterblast-orf" id="dummy-1_h1_8_1"  />
</g>
<g id="a1_002"  >
<polygon points="150,85 155,80 220,80 220,90 155,90 150,85 " style="fill:white; stroke-width:1; stroke:black; " description="&lt;b&gt;ABC50109.1&lt;/b&gt;&lt;br&gt;isopentenyl pyrophosphate isomerase&lt;br&gt;Location: 1640 - 2683" locus_tag="ABC50109.1" class="clusterblast-orf" id="dummy-1_h1_8_2"  />
</g>
<g id="a1_003"  >
<polygon points="228,90 283,90 288,85 283,80 228,80 228,90 " style="fill:white; stroke-width:1; stroke:black; " description="&lt;b&gt;ABC50110.1&lt;/b&gt;&lt;br&gt;geranylgeranyl pyrophosphate synthase&lt;br&gt;Location: 2793 - 3689" locus_tag="ABC50110.1" class="clusterblast-orf" id="dummy-1_h1_8_3"  />
</g>
<g id="a1_004"  >
<polygon points="292,90 344,90 349,85 344,80 292,80 292,90 " style="fill:white; stroke-width:1; stroke:black; " description="&lt;b&gt;ABC50111.1&lt;/b&gt;&lt;br&gt;unknown&lt;br&gt;Location: 3745 - 4596" locus_tag="ABC50111.1" class="clusterblast-orf" id="dummy-1_h1_8_4"  />
</g>
<g id="a1_005"  >
<polygon points="349,90 415,90 420,85 415,80 349,80 349,90 " style="fill:white; stroke-width:1; stroke:black; " description="&lt;b&gt;ABC50112.1&lt;/b&gt;&lt;br&gt;unknown&lt;br&gt;Location: 4596 - 5660" locus_tag="ABC50112.1" class="clusterblast-orf" id="dummy-1_h1_8_5"  />
</g>
<g id="a1_006"  >
<polygon points="420,85 425,80 483,80 483,90 425,90 420,85 " style="fill:#d81515; stroke-width:1; stroke:black; " description="&lt;b&gt;ABC50113.1&lt;/b&gt;&lt;br&gt;phytoene synthase&lt;br&gt;Location: 5664 - 6596&lt;br&gt;&lt;br&gt;&lt;b&gt;BlastP hit with CCIMNIEH_455982&lt;/b&gt;&lt;br&gt;Percentage identity: 46&lt;br&gt;Percentage coverage: 98&lt;br&gt;BLAST bit score: 237&lt;br&gt;E-value: 4.1e-62" locus_tag="ABC50113.1" class="clusterblast-orf" id="dummy-1_h1_8_6"  />
</g>
<g id="a1_007"  >
<polygon points="483,85 488,80 582,80 582,90 488,90 483,85 " style="fill:#15d8d8; stroke-width:1; stroke:black; " description="&lt;b&gt;ABC50114.1&lt;/b&gt;&lt;br&gt;phytoene desaturase&lt;br&gt;Location: 6593 - 8077&lt;br&gt;&lt;br&gt;&lt;b&gt;BlastP hit with CCIMNIEH_455984&lt;/b&gt;&lt;br&gt;Percentage identity: 59&lt;br&gt;Percentage coverage: 94&lt;br&gt;BLAST bit score: 578&lt;br&gt;E-value: 1.2e-164" locus_tag="ABC50114.1" class="clusterblast-orf" id="dummy-1_h1_8_7"  />
</g>
<g id="a1_008"  >
<polygon points="582,85 587,80 660,80 660,90 587,90 582,85 " style="fill:white; stroke-width:1; stroke:black; " description="&lt;b&gt;ABC50115.1&lt;/b&gt;&lt;br&gt;lycopene cyclase&lt;br&gt;Location: 8074 - 9240" locus_tag="ABC50115.1" class="clusterblast-orf" id="dummy-1_h1_8_8"  />
</g>
<g id="a1_009"  >
<polygon points="665,90 709,90 714,85 709,80 665,80 665,90 " style="fill:white; stroke-width:1; stroke:black; " description="&lt;b&gt;ABC50116.1&lt;/b&gt;&lt;br&gt;beta-carotene ketolase&lt;br&gt;Location: 9321 - 10046" locus_tag="ABC50116.1" class="clusterblast-orf" id="dummy-1_h1_8_9"  />
</g>
</svg>
