<svg xmlns="http://www.w3.org/2000/svg" xmlns:xlink="http://www.w3.org/1999/xlink" version="1.1" x="0" y="0" height="230" width="800" viewBox="0 0 800 230" preserveAspectRatio="none"  >
<g label="Query sequence" class="clusterblast-cluster"  >
<text x="5" y="20" class="clusterblast-acc"  >
Query sequence</text>
<line x1="10" y1="35" x2="778.0" y2="35" style="stroke-width:1; stroke:grey; "  />
<polygon points="321,35 326,30 351,30 351,40 326,40 321,35 " style="fill:#d81515; stroke-width:1; stroke:black; " description="&lt;b&gt;CCIMNIEH_482539&lt;/b&gt;&lt;br&gt;unannotated protein&lt;br&gt;Location: 2 - 2495" locus_tag="CCIMNIEH_482539" class="clusterblast-orf" id="dummy-1_q0_0_all"  />
<polygon points="352,35 357,30 432,30 432,40 357,40 352,35 " style="fill:#d81515; stroke-width:1; stroke:black; " description="&lt;b&gt;CCIMNIEH_482540&lt;/b&gt;&lt;br&gt;unannotated protein&lt;br&gt;Location: 2570 - 9278" locus_tag="CCIMNIEH_482540" class="clusterblast-orf" id="dummy-1_q1_0_all"  />
<polygon points="432,35 437,30 458,30 458,40 437,40 432,35 " style="fill:#d81515; stroke-width:1; stroke:black; " description="&lt;b&gt;CCIMNIEH_482541&lt;/b&gt;&lt;br&gt;unannotated protein&lt;br&gt;Location: 9291 - 11415" locus_tag="CCIMNIEH_482541" class="clusterblast-orf" id="dummy-1_q2_0_all"  />
</g>
<g label="BGC0000133" description="BGC0000133_c1: quartromicin A1 (8% of genes show similarity), Polyketide" class="clusterblast-cluster"  >
<text x="5" y="70" class="clusterblast-acc"  >
<a xlink:href="https://mibig.secondarymetabolites.org/go/BGC0000133/1" target="_blank">BGC0000133</a>:                                                                  quartromicin A1 (8% of genes show similarity), Polyketide</text>
<line x1="10" y1="85" x2="778.0" y2="85" style="stroke-width:1; stroke:grey; "  />
</g>
<g id="a1_000"  >
<polygon points="0,90 0,90 5,85 0,80 0,80 0,90 " style="fill:white; stroke-width:1; stroke:black; " description="&lt;b&gt;AFI57033.1&lt;/b&gt;&lt;br&gt;regulator&lt;br&gt;Location: 82241 - 81777" locus_tag="AFI57033.1" class="clusterblast-orf" id="dummy-1_h1_10_0"  />
</g>
<g id="a1_001"  >
<polygon points="5,85 10,80 21,80 21,90 10,90 5,85 " style="fill:white; stroke-width:1; stroke:black; " description="&lt;b&gt;AFI57032.1&lt;/b&gt;&lt;br&gt;dehydrogenase&lt;br&gt;Location: 81780 - 80473" locus_tag="AFI57032.1" class="clusterblast-orf" id="dummy-1_h1_10_1"  />
</g>
<g id="a1_002"  >
<polygon points="21,85 26,80 30,80 30,90 26,90 21,85 " style="fill:white; stroke-width:1; stroke:black; " description="&lt;b&gt;AFI57031.1&lt;/b&gt;&lt;br&gt;precorrin 6a synthase&lt;br&gt;Location: 80409 - 79687" locus_tag="AFI57031.1" class="clusterblast-orf" id="dummy-1_h1_10_2"  />
</g>
<g id="a1_003"  >
<polygon points="31,90 52,90 57,85 52,80 31,80 31,90 " style="fill:white; stroke-width:1; stroke:black; " description="&lt;b&gt;AFI57030.1&lt;/b&gt;&lt;br&gt;exodeoxyribonuclease&lt;br&gt;Location: 79640 - 77436" locus_tag="AFI57030.1" class="clusterblast-orf" id="dummy-1_h1_10_3"  />
</g>
<g id="a1_004"  >
<polygon points="57,85 62,80 87,80 87,90 62,90 57,85 " style="fill:white; stroke-width:1; stroke:black; " description="&lt;b&gt;AFI57029.1&lt;/b&gt;&lt;br&gt;regulator&lt;br&gt;Location: 77426 - 74961" locus_tag="AFI57029.1" class="clusterblast-orf" id="dummy-1_h1_10_4"  />
</g>
<g id="a1_005"  >
<polygon points="92,90 121,90 126,85 121,80 92,80 92,90 " style="fill:white; stroke-width:1; stroke:black; " description="&lt;b&gt;AFI57028.1&lt;/b&gt;&lt;br&gt;QmnRg4&lt;br&gt;Location: 74474 - 71667" locus_tag="AFI57028.1" class="clusterblast-orf" id="dummy-1_h1_10_5"  />
</g>
<g id="a1_006"  >
<polygon points="129,85 134,80 143,80 143,90 134,90 129,85 " style="fill:white; stroke-width:1; stroke:black; " description="&lt;b&gt;AFI57027.1&lt;/b&gt;&lt;br&gt;cytochrome p450&lt;br&gt;Location: 71438 - 70227" locus_tag="AFI57027.1" class="clusterblast-orf" id="dummy-1_h1_10_6"  />
</g>
<g id="a1_007"  >
<polygon points="143,85 148,80 153,80 153,90 148,90 143,85 " style="fill:white; stroke-width:1; stroke:black; " description="&lt;b&gt;AFI57026.1&lt;/b&gt;&lt;br&gt;2-oxoacid dehydrogenase, acyltransferase&lt;br&gt;Location: 70230 - 69385" locus_tag="AFI57026.1" class="clusterblast-orf" id="dummy-1_h1_10_7"  />
</g>
<g id="a1_008"  >
<polygon points="153,85 156,80 156,90 153,85 " style="fill:white; stroke-width:1; stroke:black; " description="&lt;b&gt;AFI57025.1&lt;/b&gt;&lt;br&gt;ACP&lt;br&gt;Location: 69388 - 69173" locus_tag="AFI57025.1" class="clusterblast-orf" id="dummy-1_h1_10_8"  />
</g>
<g id="a1_009"  >
<polygon points="156,85 161,80 178,80 178,90 161,90 156,85 " style="fill:white; stroke-width:1; stroke:black; " description="&lt;b&gt;AFI57024.1&lt;/b&gt;&lt;br&gt;glyceryltransferase/phosphatase&lt;br&gt;Location: 69167 - 67326" locus_tag="AFI57024.1" class="clusterblast-orf" id="dummy-1_h1_10_9"  />
</g>
<g id="a1_0010"  >
<polygon points="178,85 183,80 190,80 190,90 183,90 178,85 " style="fill:white; stroke-width:1; stroke:black; " description="&lt;b&gt;AFI57023.1&lt;/b&gt;&lt;br&gt;3-oxoacyl-ACP synthase III (KS)&lt;br&gt;Location: 67326 - 66295" locus_tag="AFI57023.1" class="clusterblast-orf" id="dummy-1_h1_10_10"  />
</g>
<g id="a1_0011"  >
<polygon points="192,90 195,90 200,85 195,80 192,80 192,90 " style="fill:white; stroke-width:1; stroke:black; " description="&lt;b&gt;AFI57015.1&lt;/b&gt;&lt;br&gt;QmnRg3&lt;br&gt;Location: 66143 - 65475" locus_tag="AFI57015.1" class="clusterblast-orf" id="dummy-1_h1_10_11"  />
</g>
<g id="a1_0012"  >
<polygon points="200,90 211,90 216,85 211,80 200,80 200,90 " style="fill:white; stroke-width:1; stroke:black; " description="&lt;b&gt;AFI57016.1&lt;/b&gt;&lt;br&gt;QmnRg2&lt;br&gt;Location: 65482 - 64133" locus_tag="AFI57016.1" class="clusterblast-orf" id="dummy-1_h1_10_12"  />
</g>
<g id="a1_0013"  >
<polygon points="216,85 221,80 221,80 221,90 221,90 216,85 " style="fill:white; stroke-width:1; stroke:black; " description="&lt;b&gt;AFI57017.1&lt;/b&gt;&lt;br&gt;QmnN&lt;br&gt;Location: 64123 - 63731" locus_tag="AFI57017.1" class="clusterblast-orf" id="dummy-1_h1_10_13"  />
</g>
<g id="a1_0014"  >
<polygon points="221,85 226,80 229,80 229,90 226,90 221,85 " style="fill:white; stroke-width:1; stroke:black; " description="&lt;b&gt;AFI57018.1&lt;/b&gt;&lt;br&gt;QmnM&lt;br&gt;Location: 63734 - 63075" locus_tag="AFI57018.1" class="clusterblast-orf" id="dummy-1_h1_10_14"  />
</g>
<g id="a1_0015"  >
<polygon points="230,90 231,90 236,85 231,80 230,80 230,90 " style="fill:white; stroke-width:1; stroke:black; " description="&lt;b&gt;AFI57019.1&lt;/b&gt;&lt;br&gt;QmnL&lt;br&gt;Location: 62932 - 62474" locus_tag="AFI57019.1" class="clusterblast-orf" id="dummy-1_h1_10_15"  />
</g>
<g id="a1_0016"  >
<polygon points="236,90 244,90 249,85 244,80 236,80 236,90 " style="fill:white; stroke-width:1; stroke:black; " description="&lt;b&gt;AFI57020.1&lt;/b&gt;&lt;br&gt;QmnK&lt;br&gt;Location: 62461 - 61403" locus_tag="AFI57020.1" class="clusterblast-orf" id="dummy-1_h1_10_16"  />
</g>
<g id="a1_0017"  >
<polygon points="249,90 252,90 257,85 252,80 249,80 249,90 " style="fill:white; stroke-width:1; stroke:black; " description="&lt;b&gt;AFI57021.1&lt;/b&gt;&lt;br&gt;QmnRs2&lt;br&gt;Location: 61406 - 60723" locus_tag="AFI57021.1" class="clusterblast-orf" id="dummy-1_h1_10_17"  />
</g>
<g id="a1_0018"  >
<polygon points="257,90 266,90 271,85 266,80 257,80 257,90 " style="fill:white; stroke-width:1; stroke:black; " description="&lt;b&gt;AFI57022.1&lt;/b&gt;&lt;br&gt;QmnRs1&lt;br&gt;Location: 60684 - 59506" locus_tag="AFI57022.1" class="clusterblast-orf" id="dummy-1_h1_10_18"  />
</g>
<g id="a1_0019"  >
<polygon points="272,90 273,90 278,85 273,80 272,80 272,90 " style="fill:white; stroke-width:1; stroke:black; " description="&lt;b&gt;AFI57014.1&lt;/b&gt;&lt;br&gt;QmnJ&lt;br&gt;Location: 59408 - 58923" locus_tag="AFI57014.1" class="clusterblast-orf" id="dummy-1_h1_10_19"  />
</g>
<g id="a1_0020"  >
<polygon points="278,90 286,90 291,85 286,80 278,80 278,90 " style="fill:white; stroke-width:1; stroke:black; " description="&lt;b&gt;AFI57013.1&lt;/b&gt;&lt;br&gt;QmnI&lt;br&gt;Location: 58918 - 57872" locus_tag="AFI57013.1" class="clusterblast-orf" id="dummy-1_h1_10_20"  />
</g>
<g id="a1_0021"  >
<polygon points="291,85 296,80 305,80 305,90 296,90 291,85 " style="fill:white; stroke-width:1; stroke:black; " description="&lt;b&gt;AFI57012.1&lt;/b&gt;&lt;br&gt;QmnH&lt;br&gt;Location: 57837 - 56707" locus_tag="AFI57012.1" class="clusterblast-orf" id="dummy-1_h1_10_21"  />
</g>
<g id="a1_0022"  >
<polygon points="307,90 321,90 326,85 321,80 307,80 307,90 " style="fill:white; stroke-width:1; stroke:black; " description="&lt;b&gt;AFI57011.1&lt;/b&gt;&lt;br&gt;PQQ-dependent dehydrogenase&lt;br&gt;Location: 56534 - 54933" locus_tag="AFI57011.1" class="clusterblast-orf" id="dummy-1_h1_10_22"  />
</g>
<g id="a1_0023"  >
<polygon points="336,90 340,90 345,85 340,80 336,80 336,90 " style="fill:white; stroke-width:1; stroke:black; " description="&lt;b&gt;AFI57010.1&lt;/b&gt;&lt;br&gt;regulator&lt;br&gt;Location: 54095 - 53328" locus_tag="AFI57010.1" class="clusterblast-orf" id="dummy-1_h1_10_23"  />
</g>
<g id="a1_0024"  >
<polygon points="345,85 350,80 359,80 359,90 350,90 345,85 " style="fill:white; stroke-width:1; stroke:black; " description="&lt;b&gt;AFI57009.1&lt;/b&gt;&lt;br&gt;QmnF&lt;br&gt;Location: 53324 - 52134" locus_tag="AFI57009.1" class="clusterblast-orf" id="dummy-1_h1_10_24"  />
</g>
<g id="a1_0025"  >
<polygon points="359,85 364,80 374,80 374,90 364,90 359,85 " style="fill:white; stroke-width:1; stroke:black; " description="&lt;b&gt;AFI57008.1&lt;/b&gt;&lt;br&gt;QmnE&lt;br&gt;Location: 52137 - 50899" locus_tag="AFI57008.1" class="clusterblast-orf" id="dummy-1_h1_10_25"  />
</g>
<g id="a1_0026"  >
<polygon points="374,85 379,80 421,80 421,90 379,90 374,85 " style="fill:#d81515; stroke-width:1; stroke:black; " description="&lt;b&gt;AFI57007.1&lt;/b&gt;&lt;br&gt;QmnA3&lt;br&gt;Location: 50896 - 47018&lt;br&gt;&lt;br&gt;&lt;b&gt;BlastP hit with CCIMNIEH_482539&lt;/b&gt;&lt;br&gt;Percentage identity: 58&lt;br&gt;Percentage coverage: 100&lt;br&gt;BLAST bit score: 856&lt;br&gt;E-value: 2.8e-248&lt;br&gt;&lt;br&gt;&lt;b&gt;BlastP hit with CCIMNIEH_482540&lt;/b&gt;&lt;br&gt;Percentage identity: 50&lt;br&gt;Percentage coverage: 42&lt;br&gt;BLAST bit score: 783&lt;br&gt;E-value: 1.1e-225" locus_tag="AFI57007.1" class="clusterblast-orf" id="dummy-1_h1_10_26"  />
</g>
<g id="a1_0027"  >
<polygon points="421,85 426,80 484,80 484,90 426,90 421,85 " style="fill:#d81515; stroke-width:1; stroke:black; " description="&lt;b&gt;AFI57006.1&lt;/b&gt;&lt;br&gt;QmnA2&lt;br&gt;Location: 47021 - 41706&lt;br&gt;&lt;br&gt;&lt;b&gt;BlastP hit with CCIMNIEH_482539&lt;/b&gt;&lt;br&gt;Percentage identity: 52&lt;br&gt;Percentage coverage: 100&lt;br&gt;BLAST bit score: 728&lt;br&gt;E-value: 1.5e-209" locus_tag="AFI57006.1" class="clusterblast-orf" id="dummy-1_h1_10_27"  />
</g>
<g id="a1_0028"  >
<polygon points="484,85 489,80 696,80 696,90 489,90 484,85 " style="fill:#d81515; stroke-width:1; stroke:black; " description="&lt;b&gt;AFI57005.1&lt;/b&gt;&lt;br&gt;QmnA1&lt;br&gt;Location: 41709 - 23935&lt;br&gt;&lt;br&gt;&lt;b&gt;BlastP hit with CCIMNIEH_482539&lt;/b&gt;&lt;br&gt;Percentage identity: 59&lt;br&gt;Percentage coverage: 97&lt;br&gt;BLAST bit score: 844&lt;br&gt;E-value: 1.9e-244" locus_tag="AFI57005.1" class="clusterblast-orf" id="dummy-1_h1_10_28"  />
</g>
<g id="a1_0029"  >
<polygon points="697,85 702,80 708,80 708,90 702,90 697,85 " style="fill:white; stroke-width:1; stroke:black; " description="&lt;b&gt;AFI57004.1&lt;/b&gt;&lt;br&gt;2-oxoacid dehydrogenase, acyltransferase&lt;br&gt;Location: 23920 - 22952" locus_tag="AFI57004.1" class="clusterblast-orf" id="dummy-1_h1_10_29"  />
</g>
<g id="a1_0030"  >
<polygon points="710,85 715,80 719,80 719,90 715,90 710,85 " style="fill:white; stroke-width:1; stroke:black; " description="&lt;b&gt;AFI57003.1&lt;/b&gt;&lt;br&gt;thioesterase&lt;br&gt;Location: 22833 - 22078" locus_tag="AFI57003.1" class="clusterblast-orf" id="dummy-1_h1_10_30"  />
</g>
<g id="a1_0031"  >
<polygon points="719,85 724,80 736,80 736,90 724,90 719,85 " style="fill:white; stroke-width:1; stroke:black; " description="&lt;b&gt;AFI57002.1&lt;/b&gt;&lt;br&gt;propionyl-CoA carboxylase&lt;br&gt;Location: 22055 - 20640" locus_tag="AFI57002.1" class="clusterblast-orf" id="dummy-1_h1_10_31"  />
</g>
<g id="a1_0032"  >
<polygon points="739,90 745,90 750,85 745,80 739,80 739,90 " style="fill:white; stroke-width:1; stroke:black; " description="&lt;b&gt;AFI57001.1&lt;/b&gt;&lt;br&gt;hypothetical protein&lt;br&gt;Location: 20369 - 19443" locus_tag="AFI57001.1" class="clusterblast-orf" id="dummy-1_h1_10_32"  />
</g>
<g id="a1_0033"  >
<polygon points="750,85 755,80 760,80 760,90 755,90 750,85 " style="fill:white; stroke-width:1; stroke:black; " description="&lt;b&gt;AFI57000.1&lt;/b&gt;&lt;br&gt;alpha/beta hydrolase protein&lt;br&gt;Location: 19438 - 18587" locus_tag="AFI57000.1" class="clusterblast-orf" id="dummy-1_h1_10_33"  />
</g>
<g id="a1_0034"  >
<polygon points="762,90 766,90 771,85 766,80 762,80 762,90 " style="fill:white; stroke-width:1; stroke:black; " description="&lt;b&gt;AFI56999.1&lt;/b&gt;&lt;br&gt;short chain dehydrogenase&lt;br&gt;Location: 18476 - 17733" locus_tag="AFI56999.1" class="clusterblast-orf" id="dummy-1_h1_10_34"  />
</g>
<g id="a1_0035"  >
<polygon points="771,85 776,80 780,80 780,90 776,90 771,85 " style="fill:white; stroke-width:1; stroke:black; " description="&lt;b&gt;AFI56998.1&lt;/b&gt;&lt;br&gt;regulatory protein&lt;br&gt;Location: 17736 - 16990" locus_tag="AFI56998.1" class="clusterblast-orf" id="dummy-1_h1_10_35"  />
</g>
</svg>
