<svg xmlns="http://www.w3.org/2000/svg" xmlns:xlink="http://www.w3.org/1999/xlink" version="1.1" x="0" y="0" height="50" width="800" viewBox="0 0 800 50" preserveAspectRatio="none"  >
<g label="Query sequence" class="clusterblast-cluster"  >
<text x="5" y="20" class="clusterblast-acc"  >
Query sequence</text>
<line x1="10" y1="35" x2="778.0" y2="35" style="stroke-width:1; stroke:grey; "  />
<polygon points="0,40 15,40 20,35 15,30 0,30 0,40 " style="fill:white; stroke-width:1; stroke:black; " description="&lt;b&gt;CCIMNIEH_362238&lt;/b&gt;&lt;br&gt;unannotated protein&lt;br&gt;Location: 0 - 270" locus_tag="CCIMNIEH_362238" class="clusterblast-orf" id="knownclusterblast-1_q0_0_all"  />
<polygon points="20,40 84,40 89,35 84,30 20,30 20,40 " style="fill:white; stroke-width:1; stroke:black; " description="&lt;b&gt;CCIMNIEH_362239&lt;/b&gt;&lt;br&gt;unannotated protein&lt;br&gt;Location: 277 - 1216" locus_tag="CCIMNIEH_362239" class="clusterblast-orf" id="knownclusterblast-1_q1_0_all"  />
<polygon points="96,35 101,30 176,30 176,40 101,40 96,35 " style="fill:white; stroke-width:1; stroke:black; " description="&lt;b&gt;CCIMNIEH_362240&lt;/b&gt;&lt;br&gt;unannotated protein&lt;br&gt;Location: 1315 - 2410" locus_tag="CCIMNIEH_362240" class="clusterblast-orf" id="knownclusterblast-1_q2_0_all"  />
<polygon points="174,35 179,30 230,30 230,40 179,40 174,35 " style="fill:white; stroke-width:1; stroke:black; " description="&lt;b&gt;CCIMNIEH_362241&lt;/b&gt;&lt;br&gt;unannotated protein&lt;br&gt;Location: 2391 - 3165" locus_tag="CCIMNIEH_362241" class="clusterblast-orf" id="knownclusterblast-1_q3_0_all"  />
<polygon points="230,35 235,30 293,30 293,40 235,40 230,35 " style="fill:white; stroke-width:1; stroke:black; " description="&lt;b&gt;CCIMNIEH_362242&lt;/b&gt;&lt;br&gt;unannotated protein&lt;br&gt;Location: 3161 - 4025" locus_tag="CCIMNIEH_362242" class="clusterblast-orf" id="knownclusterblast-1_q4_0_all"  />
<polygon points="331,40 775,40 780,35 775,30 331,30 331,40 " style="fill:white; stroke-width:1; stroke:black; " description="&lt;b&gt;CCIMNIEH_362243&lt;/b&gt;&lt;br&gt;unannotated protein&lt;br&gt;Location: 4543 - 10723" locus_tag="CCIMNIEH_362243" class="clusterblast-orf" id="knownclusterblast-1_q5_0_all"  />
</g>
</svg>
