<svg xmlns="http://www.w3.org/2000/svg" xmlns:xlink="http://www.w3.org/1999/xlink" version="1.1" x="0" y="0" height="50" width="800" viewBox="0 0 800 50" preserveAspectRatio="none"  >
<g label="Query sequence" class="clusterblast-cluster"  >
<text x="5" y="20" class="clusterblast-acc"  >
Query sequence</text>
<line x1="10" y1="35" x2="778.0" y2="35" style="stroke-width:1; stroke:grey; "  />
<polygon points="0,35 5,30 81,30 81,40 5,40 0,35 " style="fill:white; stroke-width:1; stroke:black; " description="&lt;b&gt;CCIMNIEH_1505545&lt;/b&gt;&lt;br&gt;unannotated protein&lt;br&gt;Location: 16 - 1168" locus_tag="CCIMNIEH_1505545" class="clusterblast-orf" id="subclusterblast-1_q0_0_all"  />
<polygon points="87,40 101,40 106,35 101,30 87,30 87,40 " style="fill:white; stroke-width:1; stroke:black; " description="&lt;b&gt;CCIMNIEH_1505546&lt;/b&gt;&lt;br&gt;unannotated protein&lt;br&gt;Location: 1257 - 1530" locus_tag="CCIMNIEH_1505546" class="clusterblast-orf" id="subclusterblast-1_q1_0_all"  />
<polygon points="107,40 173,40 178,35 173,30 107,30 107,40 " style="fill:white; stroke-width:1; stroke:black; " description="&lt;b&gt;CCIMNIEH_1505547&lt;/b&gt;&lt;br&gt;unannotated protein&lt;br&gt;Location: 1532 - 2552" locus_tag="CCIMNIEH_1505547" class="clusterblast-orf" id="subclusterblast-1_q2_0_all"  />
<polygon points="186,40 213,40 218,35 213,30 186,30 186,40 " style="fill:white; stroke-width:1; stroke:black; " description="&lt;b&gt;CCIMNIEH_1505548&lt;/b&gt;&lt;br&gt;unannotated protein&lt;br&gt;Location: 2668 - 3118" locus_tag="CCIMNIEH_1505548" class="clusterblast-orf" id="subclusterblast-1_q3_0_all"  />
<polygon points="234,40 330,40 335,35 330,30 234,30 234,40 " style="fill:white; stroke-width:1; stroke:black; " description="&lt;b&gt;CCIMNIEH_1505549&lt;/b&gt;&lt;br&gt;unannotated protein&lt;br&gt;Location: 3350 - 4787" locus_tag="CCIMNIEH_1505549" class="clusterblast-orf" id="subclusterblast-1_q4_0_all"  />
<polygon points="336,35 341,30 419,30 419,40 341,40 336,35 " style="fill:white; stroke-width:1; stroke:black; " description="&lt;b&gt;CCIMNIEH_1505550&lt;/b&gt;&lt;br&gt;unannotated protein&lt;br&gt;Location: 4801 - 5995" locus_tag="CCIMNIEH_1505550" class="clusterblast-orf" id="subclusterblast-1_q5_0_all"  />
<polygon points="420,35 425,30 450,30 450,40 425,40 420,35 " style="fill:white; stroke-width:1; stroke:black; " description="&lt;b&gt;CCIMNIEH_1505551&lt;/b&gt;&lt;br&gt;unannotated protein&lt;br&gt;Location: 5997 - 6426" locus_tag="CCIMNIEH_1505551" class="clusterblast-orf" id="subclusterblast-1_q6_0_all"  />
<polygon points="461,35 466,30 585,30 585,40 466,40 461,35 " style="fill:white; stroke-width:1; stroke:black; " description="&lt;b&gt;CCIMNIEH_1505552&lt;/b&gt;&lt;br&gt;unannotated protein&lt;br&gt;Location: 6588 - 8361" locus_tag="CCIMNIEH_1505552" class="clusterblast-orf" id="subclusterblast-1_q7_0_all"  />
<polygon points="608,35 613,30 630,30 630,40 613,40 608,35 " style="fill:white; stroke-width:1; stroke:black; " description="&lt;b&gt;CCIMNIEH_1505553&lt;/b&gt;&lt;br&gt;unannotated protein&lt;br&gt;Location: 8682 - 9003" locus_tag="CCIMNIEH_1505553" class="clusterblast-orf" id="subclusterblast-1_q8_0_all"  />
<polygon points="633,40 707,40 712,35 707,30 633,30 633,40 " style="fill:white; stroke-width:1; stroke:black; " description="&lt;b&gt;CCIMNIEH_1505554&lt;/b&gt;&lt;br&gt;unannotated protein&lt;br&gt;Location: 9041 - 10169" locus_tag="CCIMNIEH_1505554" class="clusterblast-orf" id="subclusterblast-1_q9_0_all"  />
<polygon points="741,35 746,30 759,30 759,40 746,40 741,35 " style="fill:white; stroke-width:1; stroke:black; " description="&lt;b&gt;CCIMNIEH_1505555&lt;/b&gt;&lt;br&gt;unannotated protein&lt;br&gt;Location: 10576 - 10840" locus_tag="CCIMNIEH_1505555" class="clusterblast-orf" id="subclusterblast-1_q10_0_all"  />
<polygon points="760,35 765,30 780,30 780,40 765,40 760,35 " style="fill:white; stroke-width:1; stroke:black; " description="&lt;b&gt;CCIMNIEH_1505556&lt;/b&gt;&lt;br&gt;unannotated protein&lt;br&gt;Location: 10846 - 11140" locus_tag="CCIMNIEH_1505556" class="clusterblast-orf" id="subclusterblast-1_q11_0_all"  />
</g>
</svg>
