<svg xmlns="http://www.w3.org/2000/svg" xmlns:xlink="http://www.w3.org/1999/xlink" version="1.1" x="0" y="0" height="50" width="800" viewBox="0 0 800 50" preserveAspectRatio="none"  >
<g label="Query sequence" class="clusterblast-cluster"  >
<text x="5" y="20" class="clusterblast-acc"  >
Query sequence</text>
<line x1="10" y1="35" x2="778.0" y2="35" style="stroke-width:1; stroke:grey; "  />
<polygon points="0,40 41,40 46,35 41,30 0,30 0,40 " style="fill:white; stroke-width:1; stroke:black; " description="&lt;b&gt;CCIMNIEH_601695&lt;/b&gt;&lt;br&gt;unannotated protein&lt;br&gt;Location: 0 - 960" locus_tag="CCIMNIEH_601695" class="clusterblast-orf" id="subclusterblast-1_q0_0_all"  />
<polygon points="46,40 79,40 84,35 79,30 46,30 46,40 " style="fill:white; stroke-width:1; stroke:black; " description="&lt;b&gt;CCIMNIEH_601696&lt;/b&gt;&lt;br&gt;unannotated protein&lt;br&gt;Location: 972 - 1767" locus_tag="CCIMNIEH_601696" class="clusterblast-orf" id="subclusterblast-1_q1_0_all"  />
<polygon points="86,40 196,40 201,35 196,30 86,30 86,40 " style="fill:white; stroke-width:1; stroke:black; " description="&lt;b&gt;CCIMNIEH_601697&lt;/b&gt;&lt;br&gt;unannotated protein&lt;br&gt;Location: 1805 - 4226" locus_tag="CCIMNIEH_601697" class="clusterblast-orf" id="subclusterblast-1_q2_0_all"  />
<polygon points="216,40 254,40 259,35 254,30 216,30 216,40 " style="fill:white; stroke-width:1; stroke:black; " description="&lt;b&gt;CCIMNIEH_601698&lt;/b&gt;&lt;br&gt;unannotated protein&lt;br&gt;Location: 4542 - 5454" locus_tag="CCIMNIEH_601698" class="clusterblast-orf" id="subclusterblast-1_q3_0_all"  />
<polygon points="266,40 297,40 302,35 297,30 266,30 266,40 " style="fill:white; stroke-width:1; stroke:black; " description="&lt;b&gt;CCIMNIEH_601699&lt;/b&gt;&lt;br&gt;unannotated protein&lt;br&gt;Location: 5593 - 6346" locus_tag="CCIMNIEH_601699" class="clusterblast-orf" id="subclusterblast-1_q4_0_all"  />
<polygon points="302,40 310,40 315,35 310,30 302,30 302,40 " style="fill:white; stroke-width:1; stroke:black; " description="&lt;b&gt;CCIMNIEH_601700&lt;/b&gt;&lt;br&gt;unannotated protein&lt;br&gt;Location: 6342 - 6618" locus_tag="CCIMNIEH_601700" class="clusterblast-orf" id="subclusterblast-1_q5_0_all"  />
<polygon points="313,40 364,40 369,35 364,30 313,30 313,40 " style="fill:white; stroke-width:1; stroke:black; " description="&lt;b&gt;CCIMNIEH_601701&lt;/b&gt;&lt;br&gt;unannotated protein&lt;br&gt;Location: 6589 - 7762" locus_tag="CCIMNIEH_601701" class="clusterblast-orf" id="subclusterblast-1_q6_0_all"  />
<polygon points="368,40 449,40 454,35 449,30 368,30 368,40 " style="fill:white; stroke-width:1; stroke:black; " description="&lt;b&gt;CCIMNIEH_601702&lt;/b&gt;&lt;br&gt;unannotated protein&lt;br&gt;Location: 7727 - 9554" locus_tag="CCIMNIEH_601702" class="clusterblast-orf" id="subclusterblast-1_q7_0_all"  />
<polygon points="459,35 464,30 467,30 467,40 464,40 459,35 " style="fill:white; stroke-width:1; stroke:black; " description="&lt;b&gt;CCIMNIEH_601703&lt;/b&gt;&lt;br&gt;unannotated protein&lt;br&gt;Location: 9657 - 9816" locus_tag="CCIMNIEH_601703" class="clusterblast-orf" id="subclusterblast-1_q8_0_all"  />
<polygon points="477,35 482,30 538,30 538,40 482,40 477,35 " style="fill:white; stroke-width:1; stroke:black; " description="&lt;b&gt;CCIMNIEH_601704&lt;/b&gt;&lt;br&gt;unannotated protein&lt;br&gt;Location: 10025 - 11309" locus_tag="CCIMNIEH_601704" class="clusterblast-orf" id="subclusterblast-1_q9_0_all"  />
<polygon points="546,40 585,40 590,35 585,30 546,30 546,40 " style="fill:white; stroke-width:1; stroke:black; " description="&lt;b&gt;CCIMNIEH_601705&lt;/b&gt;&lt;br&gt;unannotated protein&lt;br&gt;Location: 11478 - 12408" locus_tag="CCIMNIEH_601705" class="clusterblast-orf" id="subclusterblast-1_q10_0_all"  />
<polygon points="601,35 606,30 686,30 686,40 606,40 601,35 " style="fill:white; stroke-width:1; stroke:black; " description="&lt;b&gt;CCIMNIEH_601706&lt;/b&gt;&lt;br&gt;unannotated protein&lt;br&gt;Location: 12635 - 14414" locus_tag="CCIMNIEH_601706" class="clusterblast-orf" id="subclusterblast-1_q11_0_all"  />
<polygon points="695,35 700,30 780,30 780,40 700,40 695,35 " style="fill:white; stroke-width:1; stroke:black; " description="&lt;b&gt;CCIMNIEH_601707&lt;/b&gt;&lt;br&gt;unannotated protein&lt;br&gt;Location: 14602 - 16399" locus_tag="CCIMNIEH_601707" class="clusterblast-orf" id="subclusterblast-1_q12_0_all"  />
</g>
</svg>
