<svg xmlns="http://www.w3.org/2000/svg" xmlns:xlink="http://www.w3.org/1999/xlink" version="1.1" x="0" y="0" height="50" width="800" viewBox="0 0 800 50" preserveAspectRatio="none"  >
<g label="Query sequence" class="clusterblast-cluster"  >
<text x="5" y="20" class="clusterblast-acc"  >
Query sequence</text>
<line x1="10" y1="35" x2="778.0" y2="35" style="stroke-width:1; stroke:grey; "  />
<polygon points="0,40 48,40 53,35 48,30 0,30 0,40 " style="fill:white; stroke-width:1; stroke:black; " description="&lt;b&gt;CCIMNIEH_464039&lt;/b&gt;&lt;br&gt;unannotated protein&lt;br&gt;Location: 1 - 736" locus_tag="CCIMNIEH_464039" class="clusterblast-orf" id="subclusterblast-1_q0_0_all"  />
<polygon points="56,40 86,40 91,35 86,30 56,30 56,40 " style="fill:white; stroke-width:1; stroke:black; " description="&lt;b&gt;CCIMNIEH_464040&lt;/b&gt;&lt;br&gt;unannotated protein&lt;br&gt;Location: 784 - 1267" locus_tag="CCIMNIEH_464040" class="clusterblast-orf" id="subclusterblast-1_q1_0_all"  />
<polygon points="92,35 97,30 152,30 152,40 97,40 92,35 " style="fill:white; stroke-width:1; stroke:black; " description="&lt;b&gt;CCIMNIEH_464041&lt;/b&gt;&lt;br&gt;unannotated protein&lt;br&gt;Location: 1281 - 2124" locus_tag="CCIMNIEH_464041" class="clusterblast-orf" id="subclusterblast-1_q2_0_all"  />
<polygon points="152,35 157,30 180,30 180,40 157,40 152,35 " style="fill:white; stroke-width:1; stroke:black; " description="&lt;b&gt;CCIMNIEH_464042&lt;/b&gt;&lt;br&gt;unannotated protein&lt;br&gt;Location: 2125 - 2515" locus_tag="CCIMNIEH_464042" class="clusterblast-orf" id="subclusterblast-1_q3_0_all"  />
<polygon points="180,35 185,30 363,30 363,40 185,40 180,35 " style="fill:white; stroke-width:1; stroke:black; " description="&lt;b&gt;CCIMNIEH_464043&lt;/b&gt;&lt;br&gt;unannotated protein&lt;br&gt;Location: 2511 - 5070" locus_tag="CCIMNIEH_464043" class="clusterblast-orf" id="subclusterblast-1_q4_0_all"  />
<polygon points="366,35 371,30 391,30 391,40 371,40 366,35 " style="fill:white; stroke-width:1; stroke:black; " description="&lt;b&gt;CCIMNIEH_464044&lt;/b&gt;&lt;br&gt;unannotated protein&lt;br&gt;Location: 5119 - 5458" locus_tag="CCIMNIEH_464044" class="clusterblast-orf" id="subclusterblast-1_q5_0_all"  />
<polygon points="407,40 465,40 470,35 465,30 407,30 407,40 " style="fill:white; stroke-width:1; stroke:black; " description="&lt;b&gt;CCIMNIEH_464045&lt;/b&gt;&lt;br&gt;unannotated protein&lt;br&gt;Location: 5685 - 6561" locus_tag="CCIMNIEH_464045" class="clusterblast-orf" id="subclusterblast-1_q6_0_all"  />
<polygon points="475,35 480,30 589,30 589,40 480,40 475,35 " style="fill:white; stroke-width:1; stroke:black; " description="&lt;b&gt;CCIMNIEH_464046&lt;/b&gt;&lt;br&gt;unannotated protein&lt;br&gt;Location: 6641 - 8234" locus_tag="CCIMNIEH_464046" class="clusterblast-orf" id="subclusterblast-1_q7_0_all"  />
<polygon points="601,35 606,30 648,30 648,40 606,40 601,35 " style="fill:white; stroke-width:1; stroke:black; " description="&lt;b&gt;CCIMNIEH_464047&lt;/b&gt;&lt;br&gt;unannotated protein&lt;br&gt;Location: 8403 - 9060" locus_tag="CCIMNIEH_464047" class="clusterblast-orf" id="subclusterblast-1_q8_0_all"  />
<polygon points="648,35 653,30 703,30 703,40 653,40 648,35 " style="fill:white; stroke-width:1; stroke:black; " description="&lt;b&gt;CCIMNIEH_464048&lt;/b&gt;&lt;br&gt;unannotated protein&lt;br&gt;Location: 9056 - 9815" locus_tag="CCIMNIEH_464048" class="clusterblast-orf" id="subclusterblast-1_q9_0_all"  />
<polygon points="710,35 715,30 780,30 780,40 715,40 710,35 " style="fill:white; stroke-width:1; stroke:black; " description="&lt;b&gt;CCIMNIEH_464049&lt;/b&gt;&lt;br&gt;unannotated protein&lt;br&gt;Location: 9923 - 10901" locus_tag="CCIMNIEH_464049" class="clusterblast-orf" id="subclusterblast-1_q10_0_all"  />
</g>
</svg>
