<svg xmlns="http://www.w3.org/2000/svg" xmlns:xlink="http://www.w3.org/1999/xlink" version="1.1" x="0" y="0" height="50" width="800" viewBox="0 0 800 50" preserveAspectRatio="none"  >
<g label="Query sequence" class="clusterblast-cluster"  >
<text x="5" y="20" class="clusterblast-acc"  >
Query sequence</text>
<line x1="10" y1="35" x2="778.0" y2="35" style="stroke-width:1; stroke:grey; "  />
<polygon points="0,40 3,40 8,35 3,30 0,30 0,40 " style="fill:white; stroke-width:1; stroke:black; " description="&lt;b&gt;CCIMNIEH_1566908&lt;/b&gt;&lt;br&gt;unannotated protein&lt;br&gt;Location: 1 - 103" locus_tag="CCIMNIEH_1566908" class="clusterblast-orf" id="subclusterblast-1_q0_0_all"  />
<polygon points="24,40 135,40 140,35 135,30 24,30 24,40 " style="fill:white; stroke-width:1; stroke:black; " description="&lt;b&gt;CCIMNIEH_1566909&lt;/b&gt;&lt;br&gt;unannotated protein&lt;br&gt;Location: 295 - 1762" locus_tag="CCIMNIEH_1566909" class="clusterblast-orf" id="subclusterblast-1_q1_0_all"  />
<polygon points="139,40 227,40 232,35 227,30 139,30 139,40 " style="fill:white; stroke-width:1; stroke:black; " description="&lt;b&gt;CCIMNIEH_1566910&lt;/b&gt;&lt;br&gt;unannotated protein&lt;br&gt;Location: 1748 - 2930" locus_tag="CCIMNIEH_1566910" class="clusterblast-orf" id="subclusterblast-1_q2_0_all"  />
<polygon points="235,40 308,40 313,35 308,30 235,30 235,40 " style="fill:white; stroke-width:1; stroke:black; " description="&lt;b&gt;CCIMNIEH_1566911&lt;/b&gt;&lt;br&gt;unannotated protein&lt;br&gt;Location: 2966 - 3947" locus_tag="CCIMNIEH_1566911" class="clusterblast-orf" id="subclusterblast-1_q3_0_all"  />
<polygon points="313,35 318,30 445,30 445,40 318,40 313,35 " style="fill:white; stroke-width:1; stroke:black; " description="&lt;b&gt;CCIMNIEH_1566912&lt;/b&gt;&lt;br&gt;unannotated protein&lt;br&gt;Location: 3943 - 5611" locus_tag="CCIMNIEH_1566912" class="clusterblast-orf" id="subclusterblast-1_q4_0_all"  />
<polygon points="457,35 462,30 481,30 481,40 462,40 457,35 " style="fill:white; stroke-width:1; stroke:black; " description="&lt;b&gt;CCIMNIEH_1566913&lt;/b&gt;&lt;br&gt;unannotated protein&lt;br&gt;Location: 5769 - 6063" locus_tag="CCIMNIEH_1566913" class="clusterblast-orf" id="subclusterblast-1_q5_0_all"  />
<polygon points="492,35 497,30 531,30 531,40 497,40 492,35 " style="fill:white; stroke-width:1; stroke:black; " description="&lt;b&gt;CCIMNIEH_1566914&lt;/b&gt;&lt;br&gt;unannotated protein&lt;br&gt;Location: 6206 - 6695" locus_tag="CCIMNIEH_1566914" class="clusterblast-orf" id="subclusterblast-1_q6_0_all"  />
<polygon points="534,35 539,30 574,30 574,40 539,40 534,35 " style="fill:white; stroke-width:1; stroke:black; " description="&lt;b&gt;CCIMNIEH_1566915&lt;/b&gt;&lt;br&gt;unannotated protein&lt;br&gt;Location: 6739 - 7240" locus_tag="CCIMNIEH_1566915" class="clusterblast-orf" id="subclusterblast-1_q7_0_all"  />
<polygon points="575,35 580,30 631,30 631,40 580,40 575,35 " style="fill:white; stroke-width:1; stroke:black; " description="&lt;b&gt;CCIMNIEH_1566916&lt;/b&gt;&lt;br&gt;unannotated protein&lt;br&gt;Location: 7257 - 7962" locus_tag="CCIMNIEH_1566916" class="clusterblast-orf" id="subclusterblast-1_q8_0_all"  />
<polygon points="637,35 642,30 745,30 745,40 642,40 637,35 " style="fill:white; stroke-width:1; stroke:black; " description="&lt;b&gt;CCIMNIEH_1566917&lt;/b&gt;&lt;br&gt;unannotated protein&lt;br&gt;Location: 8040 - 9396" locus_tag="CCIMNIEH_1566917" class="clusterblast-orf" id="subclusterblast-1_q9_0_all"  />
<polygon points="760,40 775,40 780,35 775,30 760,30 760,40 " style="fill:white; stroke-width:1; stroke:black; " description="&lt;b&gt;CCIMNIEH_1566918&lt;/b&gt;&lt;br&gt;unannotated protein&lt;br&gt;Location: 9590 - 9842" locus_tag="CCIMNIEH_1566918" class="clusterblast-orf" id="subclusterblast-1_q10_0_all"  />
</g>
</svg>
