<svg xmlns="http://www.w3.org/2000/svg" xmlns:xlink="http://www.w3.org/1999/xlink" version="1.1" x="0" y="0" height="50" width="800" viewBox="0 0 800 50" preserveAspectRatio="none"  >
<g label="Query sequence" class="clusterblast-cluster"  >
<text x="5" y="20" class="clusterblast-acc"  >
Query sequence</text>
<line x1="10" y1="35" x2="778.0" y2="35" style="stroke-width:1; stroke:grey; "  />
<polygon points="0,35 5,30 40,30 40,40 5,40 0,35 " style="fill:white; stroke-width:1; stroke:black; " description="&lt;b&gt;CCIMNIEH_580218&lt;/b&gt;&lt;br&gt;unannotated protein&lt;br&gt;Location: 2 - 575" locus_tag="CCIMNIEH_580218" class="clusterblast-orf" id="subclusterblast-1_q0_0_all"  />
<polygon points="48,35 53,30 191,30 191,40 53,40 48,35 " style="fill:white; stroke-width:1; stroke:black; " description="&lt;b&gt;CCIMNIEH_580219&lt;/b&gt;&lt;br&gt;unannotated protein&lt;br&gt;Location: 699 - 2757" locus_tag="CCIMNIEH_580219" class="clusterblast-orf" id="subclusterblast-1_q1_0_all"  />
<polygon points="211,40 308,40 313,35 308,30 211,30 211,40 " style="fill:white; stroke-width:1; stroke:black; " description="&lt;b&gt;CCIMNIEH_580220&lt;/b&gt;&lt;br&gt;unannotated protein&lt;br&gt;Location: 3044 - 4517" locus_tag="CCIMNIEH_580220" class="clusterblast-orf" id="subclusterblast-1_q2_0_all"  />
<polygon points="313,35 318,30 390,30 390,40 318,40 313,35 " style="fill:white; stroke-width:1; stroke:black; " description="&lt;b&gt;CCIMNIEH_580221&lt;/b&gt;&lt;br&gt;unannotated protein&lt;br&gt;Location: 4523 - 5633" locus_tag="CCIMNIEH_580221" class="clusterblast-orf" id="subclusterblast-1_q3_0_all"  />
<polygon points="391,35 396,30 409,30 409,40 396,40 391,35 " style="fill:white; stroke-width:1; stroke:black; " description="&lt;b&gt;CCIMNIEH_580222&lt;/b&gt;&lt;br&gt;unannotated protein&lt;br&gt;Location: 5651 - 5915" locus_tag="CCIMNIEH_580222" class="clusterblast-orf" id="subclusterblast-1_q4_0_all"  />
<polygon points="410,35 415,30 458,30 458,40 415,40 410,35 " style="fill:white; stroke-width:1; stroke:black; " description="&lt;b&gt;CCIMNIEH_580223&lt;/b&gt;&lt;br&gt;unannotated protein&lt;br&gt;Location: 5926 - 6616" locus_tag="CCIMNIEH_580223" class="clusterblast-orf" id="subclusterblast-1_q5_0_all"  />
<polygon points="458,35 463,30 521,30 521,40 463,40 458,35 " style="fill:white; stroke-width:1; stroke:black; " description="&lt;b&gt;CCIMNIEH_580224&lt;/b&gt;&lt;br&gt;unannotated protein&lt;br&gt;Location: 6612 - 7521" locus_tag="CCIMNIEH_580224" class="clusterblast-orf" id="subclusterblast-1_q6_0_all"  />
<polygon points="524,35 529,30 534,30 534,40 529,40 524,35 " style="fill:white; stroke-width:1; stroke:black; " description="&lt;b&gt;CCIMNIEH_580225&lt;/b&gt;&lt;br&gt;unannotated protein&lt;br&gt;Location: 7571 - 7718" locus_tag="CCIMNIEH_580225" class="clusterblast-orf" id="subclusterblast-1_q7_0_all"  />
<polygon points="542,40 569,40 574,35 569,30 542,30 542,40 " style="fill:white; stroke-width:1; stroke:black; " description="&lt;b&gt;CCIMNIEH_580226&lt;/b&gt;&lt;br&gt;unannotated protein&lt;br&gt;Location: 7832 - 8297" locus_tag="CCIMNIEH_580226" class="clusterblast-orf" id="subclusterblast-1_q8_0_all"  />
<polygon points="579,40 626,40 631,35 626,30 579,30 579,40 " style="fill:white; stroke-width:1; stroke:black; " description="&lt;b&gt;CCIMNIEH_580227&lt;/b&gt;&lt;br&gt;unannotated protein&lt;br&gt;Location: 8361 - 9111" locus_tag="CCIMNIEH_580227" class="clusterblast-orf" id="subclusterblast-1_q9_0_all"  />
<polygon points="633,35 638,30 667,30 667,40 638,40 633,35 " style="fill:white; stroke-width:1; stroke:black; " description="&lt;b&gt;CCIMNIEH_580228&lt;/b&gt;&lt;br&gt;unannotated protein&lt;br&gt;Location: 9140 - 9641" locus_tag="CCIMNIEH_580228" class="clusterblast-orf" id="subclusterblast-1_q10_0_all"  />
<polygon points="674,40 775,40 780,35 775,30 674,30 674,40 " style="fill:white; stroke-width:1; stroke:black; " description="&lt;b&gt;CCIMNIEH_580229&lt;/b&gt;&lt;br&gt;unannotated protein&lt;br&gt;Location: 9737 - 11273" locus_tag="CCIMNIEH_580229" class="clusterblast-orf" id="subclusterblast-1_q11_0_all"  />
</g>
</svg>
