<svg xmlns="http://www.w3.org/2000/svg" xmlns:xlink="http://www.w3.org/1999/xlink" version="1.1" x="0" y="0" height="50" width="800" viewBox="0 0 800 50" preserveAspectRatio="none"  >
<g label="Query sequence" class="clusterblast-cluster"  >
<text x="5" y="20" class="clusterblast-acc"  >
Query sequence</text>
<line x1="10" y1="35" x2="778.0" y2="35" style="stroke-width:1; stroke:grey; "  />
<polygon points="0,35 3,30 3,40 0,35 " style="fill:white; stroke-width:1; stroke:black; " description="&lt;b&gt;CCIMNIEH_656805&lt;/b&gt;&lt;br&gt;unannotated protein&lt;br&gt;Location: 23433 - 23556" locus_tag="CCIMNIEH_656805" class="clusterblast-orf" id="subclusterblast-1_q0_0_all"  />
<polygon points="12,40 12,40 17,35 12,30 12,30 12,40 " style="fill:white; stroke-width:1; stroke:black; " description="&lt;b&gt;CCIMNIEH_656806&lt;/b&gt;&lt;br&gt;unannotated protein&lt;br&gt;Location: 23983 - 24205" locus_tag="CCIMNIEH_656806" class="clusterblast-orf" id="subclusterblast-1_q1_0_all"  />
<polygon points="28,40 33,40 38,35 33,30 28,30 28,40 " style="fill:white; stroke-width:1; stroke:black; " description="&lt;b&gt;CCIMNIEH_656807&lt;/b&gt;&lt;br&gt;unannotated protein&lt;br&gt;Location: 24680 - 25091" locus_tag="CCIMNIEH_656807" class="clusterblast-orf" id="subclusterblast-1_q2_0_all"  />
<polygon points="38,40 48,40 53,35 48,30 38,30 38,40 " style="fill:white; stroke-width:1; stroke:black; " description="&lt;b&gt;CCIMNIEH_656808&lt;/b&gt;&lt;br&gt;unannotated protein&lt;br&gt;Location: 25090 - 25774" locus_tag="CCIMNIEH_656808" class="clusterblast-orf" id="subclusterblast-1_q3_0_all"  />
<polygon points="58,35 63,30 79,30 79,40 63,40 58,35 " style="fill:white; stroke-width:1; stroke:black; " description="&lt;b&gt;CCIMNIEH_656809&lt;/b&gt;&lt;br&gt;unannotated protein&lt;br&gt;Location: 25950 - 26895" locus_tag="CCIMNIEH_656809" class="clusterblast-orf" id="subclusterblast-1_q4_0_all"  />
<polygon points="81,35 86,30 108,30 108,40 86,40 81,35 " style="fill:white; stroke-width:1; stroke:black; " description="&lt;b&gt;CCIMNIEH_656810&lt;/b&gt;&lt;br&gt;unannotated protein&lt;br&gt;Location: 26980 - 28165" locus_tag="CCIMNIEH_656810" class="clusterblast-orf" id="subclusterblast-1_q5_0_all"  />
<polygon points="108,35 113,30 149,30 149,40 113,40 108,35 " style="fill:white; stroke-width:1; stroke:black; " description="&lt;b&gt;CCIMNIEH_656811&lt;/b&gt;&lt;br&gt;unannotated protein&lt;br&gt;Location: 28161 - 29955" locus_tag="CCIMNIEH_656811" class="clusterblast-orf" id="subclusterblast-1_q6_0_all"  />
<polygon points="150,35 155,30 199,30 199,40 155,40 150,35 " style="fill:white; stroke-width:1; stroke:black; " description="&lt;b&gt;CCIMNIEH_656812&lt;/b&gt;&lt;br&gt;unannotated protein&lt;br&gt;Location: 29991 - 32112" locus_tag="CCIMNIEH_656812" class="clusterblast-orf" id="subclusterblast-1_q7_0_all"  />
<polygon points="202,35 207,30 230,30 230,40 207,40 202,35 " style="fill:white; stroke-width:1; stroke:black; " description="&lt;b&gt;CCIMNIEH_656813&lt;/b&gt;&lt;br&gt;unannotated protein&lt;br&gt;Location: 32252 - 33449" locus_tag="CCIMNIEH_656813" class="clusterblast-orf" id="subclusterblast-1_q8_0_all"  />
<polygon points="230,35 235,30 269,30 269,40 235,40 230,35 " style="fill:white; stroke-width:1; stroke:black; " description="&lt;b&gt;CCIMNIEH_656814&lt;/b&gt;&lt;br&gt;unannotated protein&lt;br&gt;Location: 33445 - 35143" locus_tag="CCIMNIEH_656814" class="clusterblast-orf" id="subclusterblast-1_q9_0_all"  />
<polygon points="270,35 275,30 293,30 293,40 275,40 270,35 " style="fill:white; stroke-width:1; stroke:black; " description="&lt;b&gt;CCIMNIEH_656815&lt;/b&gt;&lt;br&gt;unannotated protein&lt;br&gt;Location: 35190 - 36201" locus_tag="CCIMNIEH_656815" class="clusterblast-orf" id="subclusterblast-1_q10_0_all"  />
<polygon points="293,35 298,30 317,30 317,40 298,40 293,35 " style="fill:white; stroke-width:1; stroke:black; " description="&lt;b&gt;CCIMNIEH_656816&lt;/b&gt;&lt;br&gt;unannotated protein&lt;br&gt;Location: 36197 - 37274" locus_tag="CCIMNIEH_656816" class="clusterblast-orf" id="subclusterblast-1_q11_0_all"  />
<polygon points="321,40 344,40 349,35 344,30 321,30 321,40 " style="fill:white; stroke-width:1; stroke:black; " description="&lt;b&gt;CCIMNIEH_656817&lt;/b&gt;&lt;br&gt;unannotated protein&lt;br&gt;Location: 37447 - 38653" locus_tag="CCIMNIEH_656817" class="clusterblast-orf" id="subclusterblast-1_q12_0_all"  />
<polygon points="356,40 370,40 375,35 370,30 356,30 356,40 " style="fill:white; stroke-width:1; stroke:black; " description="&lt;b&gt;CCIMNIEH_656818&lt;/b&gt;&lt;br&gt;unannotated protein&lt;br&gt;Location: 38945 - 39788" locus_tag="CCIMNIEH_656818" class="clusterblast-orf" id="subclusterblast-1_q13_0_all"  />
<polygon points="381,40 430,40 435,35 430,30 381,30 381,40 " style="fill:white; stroke-width:1; stroke:black; " description="&lt;b&gt;CCIMNIEH_656819&lt;/b&gt;&lt;br&gt;unannotated protein&lt;br&gt;Location: 40022 - 42392" locus_tag="CCIMNIEH_656819" class="clusterblast-orf" id="subclusterblast-1_q14_0_all"  />
<polygon points="436,40 485,40 490,35 485,30 436,30 436,40 " style="fill:white; stroke-width:1; stroke:black; " description="&lt;b&gt;CCIMNIEH_656820&lt;/b&gt;&lt;br&gt;unannotated protein&lt;br&gt;Location: 42429 - 44781" locus_tag="CCIMNIEH_656820" class="clusterblast-orf" id="subclusterblast-1_q15_0_all"  />
<polygon points="490,40 493,40 498,35 493,30 490,30 490,40 " style="fill:white; stroke-width:1; stroke:black; " description="&lt;b&gt;CCIMNIEH_656821&lt;/b&gt;&lt;br&gt;unannotated protein&lt;br&gt;Location: 44783 - 45140" locus_tag="CCIMNIEH_656821" class="clusterblast-orf" id="subclusterblast-1_q16_0_all"  />
<polygon points="499,40 527,40 532,35 527,30 499,30 499,40 " style="fill:white; stroke-width:1; stroke:black; " description="&lt;b&gt;CCIMNIEH_656822&lt;/b&gt;&lt;br&gt;unannotated protein&lt;br&gt;Location: 45169 - 46636" locus_tag="CCIMNIEH_656822" class="clusterblast-orf" id="subclusterblast-1_q17_0_all"  />
<polygon points="539,40 552,40 557,35 552,30 539,30 539,40 " style="fill:white; stroke-width:1; stroke:black; " description="&lt;b&gt;CCIMNIEH_656823&lt;/b&gt;&lt;br&gt;unannotated protein&lt;br&gt;Location: 46935 - 47718" locus_tag="CCIMNIEH_656823" class="clusterblast-orf" id="subclusterblast-1_q18_0_all"  />
<polygon points="561,40 570,40 575,35 570,30 561,30 561,40 " style="fill:white; stroke-width:1; stroke:black; " description="&lt;b&gt;CCIMNIEH_656824&lt;/b&gt;&lt;br&gt;unannotated protein&lt;br&gt;Location: 47902 - 48514" locus_tag="CCIMNIEH_656824" class="clusterblast-orf" id="subclusterblast-1_q19_0_all"  />
<polygon points="575,40 590,40 595,35 590,30 575,30 575,40 " style="fill:white; stroke-width:1; stroke:black; " description="&lt;b&gt;CCIMNIEH_656825&lt;/b&gt;&lt;br&gt;unannotated protein&lt;br&gt;Location: 48510 - 49374" locus_tag="CCIMNIEH_656825" class="clusterblast-orf" id="subclusterblast-1_q20_0_all"  />
<polygon points="596,40 609,40 614,35 609,30 596,30 596,40 " style="fill:white; stroke-width:1; stroke:black; " description="&lt;b&gt;CCIMNIEH_656826&lt;/b&gt;&lt;br&gt;unannotated protein&lt;br&gt;Location: 49392 - 50181" locus_tag="CCIMNIEH_656826" class="clusterblast-orf" id="subclusterblast-1_q21_0_all"  />
<polygon points="621,40 622,40 627,35 622,30 621,30 621,40 " style="fill:white; stroke-width:1; stroke:black; " description="&lt;b&gt;CCIMNIEH_656827&lt;/b&gt;&lt;br&gt;unannotated protein&lt;br&gt;Location: 50484 - 50760" locus_tag="CCIMNIEH_656827" class="clusterblast-orf" id="subclusterblast-1_q22_0_all"  />
<polygon points="636,40 653,40 658,35 653,30 636,30 636,40 " style="fill:white; stroke-width:1; stroke:black; " description="&lt;b&gt;CCIMNIEH_656828&lt;/b&gt;&lt;br&gt;unannotated protein&lt;br&gt;Location: 51136 - 52105" locus_tag="CCIMNIEH_656828" class="clusterblast-orf" id="subclusterblast-1_q23_0_all"  />
<polygon points="658,40 663,40 668,35 663,30 658,30 658,40 " style="fill:white; stroke-width:1; stroke:black; " description="&lt;b&gt;CCIMNIEH_656829&lt;/b&gt;&lt;br&gt;unannotated protein&lt;br&gt;Location: 52101 - 52530" locus_tag="CCIMNIEH_656829" class="clusterblast-orf" id="subclusterblast-1_q24_0_all"  />
<polygon points="670,40 706,40 711,35 706,30 670,30 670,40 " style="fill:white; stroke-width:1; stroke:black; " description="&lt;b&gt;CCIMNIEH_656830&lt;/b&gt;&lt;br&gt;unannotated protein&lt;br&gt;Location: 52644 - 54432" locus_tag="CCIMNIEH_656830" class="clusterblast-orf" id="subclusterblast-1_q25_0_all"  />
<polygon points="714,40 741,40 746,35 741,30 714,30 714,40 " style="fill:white; stroke-width:1; stroke:black; " description="&lt;b&gt;CCIMNIEH_656831&lt;/b&gt;&lt;br&gt;unannotated protein&lt;br&gt;Location: 54543 - 55950" locus_tag="CCIMNIEH_656831" class="clusterblast-orf" id="subclusterblast-1_q26_0_all"  />
<polygon points="746,35 751,30 770,30 770,40 751,40 746,35 " style="fill:white; stroke-width:1; stroke:black; " description="&lt;b&gt;CCIMNIEH_656832&lt;/b&gt;&lt;br&gt;unannotated protein&lt;br&gt;Location: 55957 - 56983" locus_tag="CCIMNIEH_656832" class="clusterblast-orf" id="subclusterblast-1_q27_0_all"  />
<polygon points="769,35 774,30 780,30 780,40 774,40 769,35 " style="fill:white; stroke-width:1; stroke:black; " description="&lt;b&gt;CCIMNIEH_656833&lt;/b&gt;&lt;br&gt;unannotated protein&lt;br&gt;Location: 56948 - 57413" locus_tag="CCIMNIEH_656833" class="clusterblast-orf" id="subclusterblast-1_q28_0_all"  />
</g>
</svg>
