<svg xmlns="http://www.w3.org/2000/svg" xmlns:xlink="http://www.w3.org/1999/xlink" version="1.1" x="0" y="0" height="50" width="800" viewBox="0 0 800 50" preserveAspectRatio="none"  >
<g label="Query sequence" class="clusterblast-cluster"  >
<text x="5" y="20" class="clusterblast-acc"  >
Query sequence</text>
<line x1="10" y1="35" x2="778.0" y2="35" style="stroke-width:1; stroke:grey; "  />
<polygon points="0,35 5,30 74,30 74,40 5,40 0,35 " style="fill:white; stroke-width:1; stroke:black; " description="&lt;b&gt;CCIMNIEH_459415&lt;/b&gt;&lt;br&gt;unannotated protein&lt;br&gt;Location: 9254 - 10403" locus_tag="CCIMNIEH_459415" class="clusterblast-orf" id="subclusterblast-1_q0_0_all"  />
<polygon points="81,40 134,40 139,35 134,30 81,30 81,40 " style="fill:white; stroke-width:1; stroke:black; " description="&lt;b&gt;CCIMNIEH_459416&lt;/b&gt;&lt;br&gt;unannotated protein&lt;br&gt;Location: 10513 - 11404" locus_tag="CCIMNIEH_459416" class="clusterblast-orf" id="subclusterblast-1_q1_0_all"  />
<polygon points="138,35 143,30 179,30 179,40 143,40 138,35 " style="fill:white; stroke-width:1; stroke:black; " description="&lt;b&gt;CCIMNIEH_459417&lt;/b&gt;&lt;br&gt;unannotated protein&lt;br&gt;Location: 11393 - 12020" locus_tag="CCIMNIEH_459417" class="clusterblast-orf" id="subclusterblast-1_q2_0_all"  />
<polygon points="179,35 184,30 305,30 305,40 184,40 179,35 " style="fill:white; stroke-width:1; stroke:black; " description="&lt;b&gt;CCIMNIEH_459418&lt;/b&gt;&lt;br&gt;unannotated protein&lt;br&gt;Location: 12016 - 13975" locus_tag="CCIMNIEH_459418" class="clusterblast-orf" id="subclusterblast-1_q3_0_all"  />
<polygon points="323,40 379,40 384,35 379,30 323,30 323,40 " style="fill:white; stroke-width:1; stroke:black; " description="&lt;b&gt;CCIMNIEH_459419&lt;/b&gt;&lt;br&gt;unannotated protein&lt;br&gt;Location: 14257 - 15193" locus_tag="CCIMNIEH_459419" class="clusterblast-orf" id="subclusterblast-1_q4_0_all"  />
<polygon points="387,40 455,40 460,35 455,30 387,30 387,40 " style="fill:white; stroke-width:1; stroke:black; " description="&lt;b&gt;CCIMNIEH_459420&lt;/b&gt;&lt;br&gt;unannotated protein&lt;br&gt;Location: 15244 - 16378" locus_tag="CCIMNIEH_459420" class="clusterblast-orf" id="subclusterblast-1_q5_0_all"  />
<polygon points="477,40 561,40 566,35 561,30 477,30 477,40 " style="fill:white; stroke-width:1; stroke:black; " description="&lt;b&gt;CCIMNIEH_459421&lt;/b&gt;&lt;br&gt;unannotated protein&lt;br&gt;Location: 16632 - 18015" locus_tag="CCIMNIEH_459421" class="clusterblast-orf" id="subclusterblast-1_q6_0_all"  />
<polygon points="567,40 570,40 575,35 570,30 567,30 567,40 " style="fill:white; stroke-width:1; stroke:black; " description="&lt;b&gt;CCIMNIEH_459422&lt;/b&gt;&lt;br&gt;unannotated protein&lt;br&gt;Location: 18036 - 18156" locus_tag="CCIMNIEH_459422" class="clusterblast-orf" id="subclusterblast-1_q7_0_all"  />
<polygon points="581,35 586,30 624,30 624,40 586,40 581,35 " style="fill:white; stroke-width:1; stroke:black; " description="&lt;b&gt;CCIMNIEH_459423&lt;/b&gt;&lt;br&gt;unannotated protein&lt;br&gt;Location: 18250 - 18910" locus_tag="CCIMNIEH_459423" class="clusterblast-orf" id="subclusterblast-1_q8_0_all"  />
<polygon points="624,35 629,30 750,30 750,40 629,40 624,35 " style="fill:white; stroke-width:1; stroke:black; " description="&lt;b&gt;CCIMNIEH_459424&lt;/b&gt;&lt;br&gt;unannotated protein&lt;br&gt;Location: 18909 - 20868" locus_tag="CCIMNIEH_459424" class="clusterblast-orf" id="subclusterblast-1_q9_0_all"  />
<polygon points="751,35 756,30 780,30 780,40 756,40 751,35 " style="fill:white; stroke-width:1; stroke:black; " description="&lt;b&gt;CCIMNIEH_459425&lt;/b&gt;&lt;br&gt;unannotated protein&lt;br&gt;Location: 20882 - 21332" locus_tag="CCIMNIEH_459425" class="clusterblast-orf" id="subclusterblast-1_q10_0_all"  />
</g>
</svg>
