<svg xmlns="http://www.w3.org/2000/svg" xmlns:xlink="http://www.w3.org/1999/xlink" version="1.1" x="0" y="0" height="50" width="800" viewBox="0 0 800 50" preserveAspectRatio="none"  >
<g label="Query sequence" class="clusterblast-cluster"  >
<text x="5" y="20" class="clusterblast-acc"  >
Query sequence</text>
<line x1="10" y1="35" x2="778.0" y2="35" style="stroke-width:1; stroke:grey; "  />
<polygon points="0,35 5,30 67,30 67,40 5,40 0,35 " style="fill:white; stroke-width:1; stroke:black; " description="&lt;b&gt;CCIMNIEH_917032&lt;/b&gt;&lt;br&gt;unannotated protein&lt;br&gt;Location: 9199 - 10066" locus_tag="CCIMNIEH_917032" class="clusterblast-orf" id="subclusterblast-1_q0_0_all"  />
<polygon points="109,40 120,40 125,35 120,30 109,30 109,40 " style="fill:white; stroke-width:1; stroke:black; " description="&lt;b&gt;CCIMNIEH_917033&lt;/b&gt;&lt;br&gt;unannotated protein&lt;br&gt;Location: 10615 - 10825" locus_tag="CCIMNIEH_917033" class="clusterblast-orf" id="subclusterblast-1_q1_0_all"  />
<polygon points="130,40 139,40 144,35 139,30 130,30 130,40 " style="fill:white; stroke-width:1; stroke:black; " description="&lt;b&gt;CCIMNIEH_917034&lt;/b&gt;&lt;br&gt;unannotated protein&lt;br&gt;Location: 10888 - 11080" locus_tag="CCIMNIEH_917034" class="clusterblast-orf" id="subclusterblast-1_q2_0_all"  />
<polygon points="153,40 208,40 213,35 208,30 153,30 153,40 " style="fill:white; stroke-width:1; stroke:black; " description="&lt;b&gt;CCIMNIEH_917035&lt;/b&gt;&lt;br&gt;unannotated protein&lt;br&gt;Location: 11189 - 11978" locus_tag="CCIMNIEH_917035" class="clusterblast-orf" id="subclusterblast-1_q3_0_all"  />
<polygon points="226,40 254,40 259,35 254,30 226,30 226,40 " style="fill:white; stroke-width:1; stroke:black; " description="&lt;b&gt;CCIMNIEH_917036&lt;/b&gt;&lt;br&gt;unannotated protein&lt;br&gt;Location: 12138 - 12573" locus_tag="CCIMNIEH_917036" class="clusterblast-orf" id="subclusterblast-1_q4_0_all"  />
<polygon points="266,40 338,40 343,35 338,30 266,30 266,40 " style="fill:white; stroke-width:1; stroke:black; " description="&lt;b&gt;CCIMNIEH_917037&lt;/b&gt;&lt;br&gt;unannotated protein&lt;br&gt;Location: 12661 - 13675" locus_tag="CCIMNIEH_917037" class="clusterblast-orf" id="subclusterblast-1_q5_0_all"  />
<polygon points="353,35 358,30 369,30 369,40 358,40 353,35 " style="fill:white; stroke-width:1; stroke:black; " description="&lt;b&gt;CCIMNIEH_917038&lt;/b&gt;&lt;br&gt;unannotated protein&lt;br&gt;Location: 13794 - 14004" locus_tag="CCIMNIEH_917038" class="clusterblast-orf" id="subclusterblast-1_q6_0_all"  />
<polygon points="379,35 384,30 442,30 442,40 384,40 379,35 " style="fill:white; stroke-width:1; stroke:black; " description="&lt;b&gt;CCIMNIEH_917039&lt;/b&gt;&lt;br&gt;unannotated protein&lt;br&gt;Location: 14134 - 14965" locus_tag="CCIMNIEH_917039" class="clusterblast-orf" id="subclusterblast-1_q7_0_all"  />
<polygon points="442,35 447,30 524,30 524,40 447,40 442,35 " style="fill:white; stroke-width:1; stroke:black; " description="&lt;b&gt;CCIMNIEH_917040&lt;/b&gt;&lt;br&gt;unannotated protein&lt;br&gt;Location: 14967 - 16026" locus_tag="CCIMNIEH_917040" class="clusterblast-orf" id="subclusterblast-1_q8_0_all"  />
<polygon points="550,40 651,40 656,35 651,30 550,30 550,40 " style="fill:white; stroke-width:1; stroke:black; " description="&lt;b&gt;CCIMNIEH_917041&lt;/b&gt;&lt;br&gt;unannotated protein&lt;br&gt;Location: 16369 - 17752" locus_tag="CCIMNIEH_917041" class="clusterblast-orf" id="subclusterblast-1_q9_0_all"  />
<polygon points="656,40 775,40 780,35 775,30 656,30 656,40 " style="fill:white; stroke-width:1; stroke:black; " description="&lt;b&gt;CCIMNIEH_917042&lt;/b&gt;&lt;br&gt;unannotated protein&lt;br&gt;Location: 17748 - 19374" locus_tag="CCIMNIEH_917042" class="clusterblast-orf" id="subclusterblast-1_q10_0_all"  />
</g>
</svg>
