<svg xmlns="http://www.w3.org/2000/svg" xmlns:xlink="http://www.w3.org/1999/xlink" version="1.1" x="0" y="0" height="50" width="800" viewBox="0 0 800 50" preserveAspectRatio="none"  >
<g label="Query sequence" class="clusterblast-cluster"  >
<text x="5" y="20" class="clusterblast-acc"  >
Query sequence</text>
<line x1="10" y1="35" x2="778.0" y2="35" style="stroke-width:1; stroke:grey; "  />
<polygon points="0,40 20,40 25,35 20,30 0,30 0,40 " style="fill:white; stroke-width:1; stroke:black; " description="&lt;b&gt;CCIMNIEH_523265&lt;/b&gt;&lt;br&gt;unannotated protein&lt;br&gt;Location: 2 - 368" locus_tag="CCIMNIEH_523265" class="clusterblast-orf" id="subclusterblast-1_q0_0_all"  />
<polygon points="39,40 93,40 98,35 93,30 39,30 39,40 " style="fill:white; stroke-width:1; stroke:black; " description="&lt;b&gt;CCIMNIEH_523266&lt;/b&gt;&lt;br&gt;unannotated protein&lt;br&gt;Location: 580 - 1438" locus_tag="CCIMNIEH_523266" class="clusterblast-orf" id="subclusterblast-1_q1_0_all"  />
<polygon points="110,40 272,40 277,35 272,30 110,30 110,40 " style="fill:white; stroke-width:1; stroke:black; " description="&lt;b&gt;CCIMNIEH_523267&lt;/b&gt;&lt;br&gt;unannotated protein&lt;br&gt;Location: 1626 - 4086" locus_tag="CCIMNIEH_523267" class="clusterblast-orf" id="subclusterblast-1_q2_0_all"  />
<polygon points="279,35 284,30 479,30 479,40 284,40 279,35 " style="fill:white; stroke-width:1; stroke:black; " description="&lt;b&gt;CCIMNIEH_523268&lt;/b&gt;&lt;br&gt;unannotated protein&lt;br&gt;Location: 4110 - 7053" locus_tag="CCIMNIEH_523268" class="clusterblast-orf" id="subclusterblast-1_q3_0_all"  />
<polygon points="498,40 553,40 558,35 553,30 498,30 498,40 " style="fill:white; stroke-width:1; stroke:black; " description="&lt;b&gt;CCIMNIEH_523269&lt;/b&gt;&lt;br&gt;unannotated protein&lt;br&gt;Location: 7334 - 8210" locus_tag="CCIMNIEH_523269" class="clusterblast-orf" id="subclusterblast-1_q4_0_all"  />
<polygon points="558,40 639,40 644,35 639,30 558,30 558,40 " style="fill:white; stroke-width:1; stroke:black; " description="&lt;b&gt;CCIMNIEH_523270&lt;/b&gt;&lt;br&gt;unannotated protein&lt;br&gt;Location: 8211 - 9483" locus_tag="CCIMNIEH_523270" class="clusterblast-orf" id="subclusterblast-1_q5_0_all"  />
<polygon points="644,40 775,40 780,35 775,30 644,30 644,40 " style="fill:white; stroke-width:1; stroke:black; " description="&lt;b&gt;CCIMNIEH_523271&lt;/b&gt;&lt;br&gt;unannotated protein&lt;br&gt;Location: 9479 - 11489" locus_tag="CCIMNIEH_523271" class="clusterblast-orf" id="subclusterblast-1_q6_0_all"  />
</g>
</svg>
