<svg xmlns="http://www.w3.org/2000/svg" xmlns:xlink="http://www.w3.org/1999/xlink" version="1.1" x="0" y="0" height="50" width="800" viewBox="0 0 800 50" preserveAspectRatio="none"  >
<g label="Query sequence" class="clusterblast-cluster"  >
<text x="5" y="20" class="clusterblast-acc"  >
Query sequence</text>
<line x1="10" y1="35" x2="778.0" y2="35" style="stroke-width:1; stroke:grey; "  />
<polygon points="1,35 6,30 128,30 128,40 6,40 1,35 " style="fill:white; stroke-width:1; stroke:black; " description="&lt;b&gt;CCIMNIEH_1718461&lt;/b&gt;&lt;br&gt;unannotated protein&lt;br&gt;Location: 209 - 1073" locus_tag="CCIMNIEH_1718461" class="clusterblast-orf" id="subclusterblast-1_q0_0_all"  />
<polygon points="150,35 155,30 187,30 187,40 155,40 150,35 " style="fill:white; stroke-width:1; stroke:black; " description="&lt;b&gt;CCIMNIEH_1718462&lt;/b&gt;&lt;br&gt;unannotated protein&lt;br&gt;Location: 1218 - 1470" locus_tag="CCIMNIEH_1718462" class="clusterblast-orf" id="subclusterblast-1_q1_0_all"  />
<polygon points="267,40 401,40 406,35 401,30 267,30 267,40 " style="fill:white; stroke-width:1; stroke:black; " description="&lt;b&gt;CCIMNIEH_1718463&lt;/b&gt;&lt;br&gt;unannotated protein&lt;br&gt;Location: 2013 - 2952" locus_tag="CCIMNIEH_1718463" class="clusterblast-orf" id="subclusterblast-1_q2_0_all"  />
<polygon points="405,40 614,40 619,35 614,30 405,30 405,40 " style="fill:white; stroke-width:1; stroke:black; " description="&lt;b&gt;CCIMNIEH_1718464&lt;/b&gt;&lt;br&gt;unannotated protein&lt;br&gt;Location: 2948 - 4400" locus_tag="CCIMNIEH_1718464" class="clusterblast-orf" id="subclusterblast-1_q3_0_all"  />
<polygon points="623,35 628,30 688,30 688,40 628,40 623,35 " style="fill:white; stroke-width:1; stroke:black; " description="&lt;b&gt;CCIMNIEH_1718465&lt;/b&gt;&lt;br&gt;unannotated protein&lt;br&gt;Location: 4427 - 4862" locus_tag="CCIMNIEH_1718465" class="clusterblast-orf" id="subclusterblast-1_q4_0_all"  />
<polygon points="723,35 728,30 781,30 781,40 728,40 723,35 " style="fill:white; stroke-width:1; stroke:black; " description="&lt;b&gt;CCIMNIEH_1718466&lt;/b&gt;&lt;br&gt;unannotated protein&lt;br&gt;Location: 5102 - 5495" locus_tag="CCIMNIEH_1718466" class="clusterblast-orf" id="subclusterblast-1_q5_0_all"  />
</g>
</svg>
