<svg xmlns="http://www.w3.org/2000/svg" xmlns:xlink="http://www.w3.org/1999/xlink" version="1.1" x="0" y="0" height="50" width="800" viewBox="0 0 800 50" preserveAspectRatio="none"  >
<g label="Query sequence" class="clusterblast-cluster"  >
<text x="5" y="20" class="clusterblast-acc"  >
Query sequence</text>
<line x1="10" y1="35" x2="778.0" y2="35" style="stroke-width:1; stroke:grey; "  />
<polygon points="0,40 20,40 25,35 20,30 0,30 0,40 " style="fill:white; stroke-width:1; stroke:black; " description="&lt;b&gt;CCIMNIEH_2604522&lt;/b&gt;&lt;br&gt;unannotated protein&lt;br&gt;Location: 2 - 602" locus_tag="CCIMNIEH_2604522" class="clusterblast-orf" id="subclusterblast-1_q0_0_all"  />
<polygon points="54,40 127,40 132,35 127,30 54,30 54,40 " style="fill:white; stroke-width:1; stroke:black; " description="&lt;b&gt;CCIMNIEH_2604523&lt;/b&gt;&lt;br&gt;unannotated protein&lt;br&gt;Location: 1278 - 3126" locus_tag="CCIMNIEH_2604523" class="clusterblast-orf" id="subclusterblast-1_q1_0_all"  />
<polygon points="134,40 152,40 157,35 152,30 134,30 134,40 " style="fill:white; stroke-width:1; stroke:black; " description="&lt;b&gt;CCIMNIEH_2604524&lt;/b&gt;&lt;br&gt;unannotated protein&lt;br&gt;Location: 3179 - 3716" locus_tag="CCIMNIEH_2604524" class="clusterblast-orf" id="subclusterblast-1_q2_0_all"  />
<polygon points="155,35 160,30 165,30 165,40 160,40 155,35 " style="fill:white; stroke-width:1; stroke:black; " description="&lt;b&gt;CCIMNIEH_2604525&lt;/b&gt;&lt;br&gt;unannotated protein&lt;br&gt;Location: 3679 - 3895" locus_tag="CCIMNIEH_2604525" class="clusterblast-orf" id="subclusterblast-1_q3_0_all"  />
<polygon points="178,40 183,40 188,35 183,30 178,30 178,40 " style="fill:white; stroke-width:1; stroke:black; " description="&lt;b&gt;CCIMNIEH_2604526&lt;/b&gt;&lt;br&gt;unannotated protein&lt;br&gt;Location: 4218 - 4446" locus_tag="CCIMNIEH_2604526" class="clusterblast-orf" id="subclusterblast-1_q4_0_all"  />
<polygon points="188,40 198,40 203,35 198,30 188,30 188,40 " style="fill:white; stroke-width:1; stroke:black; " description="&lt;b&gt;CCIMNIEH_2604527&lt;/b&gt;&lt;br&gt;unannotated protein&lt;br&gt;Location: 4448 - 4808" locus_tag="CCIMNIEH_2604527" class="clusterblast-orf" id="subclusterblast-1_q5_0_all"  />
<polygon points="204,40 300,40 305,35 300,30 204,30 204,40 " style="fill:white; stroke-width:1; stroke:black; " description="&lt;b&gt;CCIMNIEH_2604528&lt;/b&gt;&lt;br&gt;unannotated protein&lt;br&gt;Location: 4816 - 7222" locus_tag="CCIMNIEH_2604528" class="clusterblast-orf" id="subclusterblast-1_q6_0_all"  />
<polygon points="308,40 309,40 314,35 309,30 308,30 308,40 " style="fill:white; stroke-width:1; stroke:black; " description="&lt;b&gt;CCIMNIEH_2604529&lt;/b&gt;&lt;br&gt;unannotated protein&lt;br&gt;Location: 7287 - 7416" locus_tag="CCIMNIEH_2604529" class="clusterblast-orf" id="subclusterblast-1_q7_0_all"  />
<polygon points="323,40 338,40 343,35 338,30 323,30 323,40 " style="fill:white; stroke-width:1; stroke:black; " description="&lt;b&gt;CCIMNIEH_2604530&lt;/b&gt;&lt;br&gt;unannotated protein&lt;br&gt;Location: 7650 - 8103" locus_tag="CCIMNIEH_2604530" class="clusterblast-orf" id="subclusterblast-1_q8_0_all"  />
<polygon points="349,35 354,30 356,30 356,40 354,40 349,35 " style="fill:white; stroke-width:1; stroke:black; " description="&lt;b&gt;CCIMNIEH_2604531&lt;/b&gt;&lt;br&gt;unannotated protein&lt;br&gt;Location: 8252 - 8432" locus_tag="CCIMNIEH_2604531" class="clusterblast-orf" id="subclusterblast-1_q9_0_all"  />
<polygon points="366,35 371,30 400,30 400,40 371,40 366,35 " style="fill:white; stroke-width:1; stroke:black; " description="&lt;b&gt;CCIMNIEH_2604532&lt;/b&gt;&lt;br&gt;unannotated protein&lt;br&gt;Location: 8659 - 9457" locus_tag="CCIMNIEH_2604532" class="clusterblast-orf" id="subclusterblast-1_q10_0_all"  />
<polygon points="405,35 410,30 428,30 428,40 410,40 405,35 " style="fill:white; stroke-width:1; stroke:black; " description="&lt;b&gt;CCIMNIEH_2604533&lt;/b&gt;&lt;br&gt;unannotated protein&lt;br&gt;Location: 9570 - 10134" locus_tag="CCIMNIEH_2604533" class="clusterblast-orf" id="subclusterblast-1_q11_0_all"  />
<polygon points="431,35 436,30 479,30 479,40 436,40 431,35 " style="fill:white; stroke-width:1; stroke:black; " description="&lt;b&gt;CCIMNIEH_2604534&lt;/b&gt;&lt;br&gt;unannotated protein&lt;br&gt;Location: 10186 - 11317" locus_tag="CCIMNIEH_2604534" class="clusterblast-orf" id="subclusterblast-1_q12_0_all"  />
<polygon points="490,40 518,40 523,35 518,30 490,30 490,40 " style="fill:white; stroke-width:1; stroke:black; " description="&lt;b&gt;CCIMNIEH_2604535&lt;/b&gt;&lt;br&gt;unannotated protein&lt;br&gt;Location: 11592 - 12372" locus_tag="CCIMNIEH_2604535" class="clusterblast-orf" id="subclusterblast-1_q13_0_all"  />
<polygon points="527,35 532,30 554,30 554,40 532,40 527,35 " style="fill:white; stroke-width:1; stroke:black; " description="&lt;b&gt;CCIMNIEH_2604536&lt;/b&gt;&lt;br&gt;unannotated protein&lt;br&gt;Location: 12463 - 13099" locus_tag="CCIMNIEH_2604536" class="clusterblast-orf" id="subclusterblast-1_q14_0_all"  />
<polygon points="558,35 563,30 588,30 588,40 563,40 558,35 " style="fill:white; stroke-width:1; stroke:black; " description="&lt;b&gt;CCIMNIEH_2604537&lt;/b&gt;&lt;br&gt;unannotated protein&lt;br&gt;Location: 13196 - 13910" locus_tag="CCIMNIEH_2604537" class="clusterblast-orf" id="subclusterblast-1_q15_0_all"  />
<polygon points="588,35 593,30 633,30 633,40 593,40 588,35 " style="fill:white; stroke-width:1; stroke:black; " description="&lt;b&gt;CCIMNIEH_2604538&lt;/b&gt;&lt;br&gt;unannotated protein&lt;br&gt;Location: 13899 - 14961" locus_tag="CCIMNIEH_2604538" class="clusterblast-orf" id="subclusterblast-1_q16_0_all"  />
<polygon points="658,40 661,40 666,35 661,30 658,30 658,40 " style="fill:white; stroke-width:1; stroke:black; " description="&lt;b&gt;CCIMNIEH_2604539&lt;/b&gt;&lt;br&gt;unannotated protein&lt;br&gt;Location: 15565 - 15760" locus_tag="CCIMNIEH_2604539" class="clusterblast-orf" id="subclusterblast-1_q17_0_all"  />
<polygon points="690,40 714,40 719,35 714,30 690,30 690,40 " style="fill:white; stroke-width:1; stroke:black; " description="&lt;b&gt;CCIMNIEH_2604540&lt;/b&gt;&lt;br&gt;unannotated protein&lt;br&gt;Location: 16306 - 16993" locus_tag="CCIMNIEH_2604540" class="clusterblast-orf" id="subclusterblast-1_q18_0_all"  />
<polygon points="718,40 775,40 780,35 775,30 718,30 718,40 " style="fill:white; stroke-width:1; stroke:black; " description="&lt;b&gt;CCIMNIEH_2604541&lt;/b&gt;&lt;br&gt;unannotated protein&lt;br&gt;Location: 16973 - 18443" locus_tag="CCIMNIEH_2604541" class="clusterblast-orf" id="subclusterblast-1_q19_0_all"  />
</g>
</svg>
