<svg xmlns="http://www.w3.org/2000/svg" xmlns:xlink="http://www.w3.org/1999/xlink" version="1.1" x="0" y="0" height="50" width="800" viewBox="0 0 800 50" preserveAspectRatio="none"  >
<g label="Query sequence" class="clusterblast-cluster"  >
<text x="5" y="20" class="clusterblast-acc"  >
Query sequence</text>
<line x1="10" y1="35" x2="778.0" y2="35" style="stroke-width:1; stroke:grey; "  />
<polygon points="0,35 5,30 15,30 15,40 5,40 0,35 " style="fill:white; stroke-width:1; stroke:black; " description="&lt;b&gt;CCIMNIEH_2326817&lt;/b&gt;&lt;br&gt;unannotated protein&lt;br&gt;Location: 2 - 317" locus_tag="CCIMNIEH_2326817" class="clusterblast-orf" id="subclusterblast-1_q0_0_all"  />
<polygon points="26,35 31,30 59,30 59,40 31,40 26,35 " style="fill:white; stroke-width:1; stroke:black; " description="&lt;b&gt;CCIMNIEH_2326818&lt;/b&gt;&lt;br&gt;unannotated protein&lt;br&gt;Location: 566 - 1262" locus_tag="CCIMNIEH_2326818" class="clusterblast-orf" id="subclusterblast-1_q1_0_all"  />
<polygon points="60,35 65,30 108,30 108,40 65,40 60,35 " style="fill:white; stroke-width:1; stroke:black; " description="&lt;b&gt;CCIMNIEH_2326819&lt;/b&gt;&lt;br&gt;unannotated protein&lt;br&gt;Location: 1275 - 2304" locus_tag="CCIMNIEH_2326819" class="clusterblast-orf" id="subclusterblast-1_q2_0_all"  />
<polygon points="109,35 114,30 377,30 377,40 114,40 109,35 " style="fill:white; stroke-width:1; stroke:black; " description="&lt;b&gt;CCIMNIEH_2326820&lt;/b&gt;&lt;br&gt;unannotated protein&lt;br&gt;Location: 2323 - 8053" locus_tag="CCIMNIEH_2326820" class="clusterblast-orf" id="subclusterblast-1_q3_0_all"  />
<polygon points="394,35 399,30 405,30 405,40 399,40 394,35 " style="fill:white; stroke-width:1; stroke:black; " description="&lt;b&gt;CCIMNIEH_2326821&lt;/b&gt;&lt;br&gt;unannotated protein&lt;br&gt;Location: 8422 - 8656" locus_tag="CCIMNIEH_2326821" class="clusterblast-orf" id="subclusterblast-1_q4_0_all"  />
<polygon points="421,40 446,40 451,35 446,30 421,30 421,40 " style="fill:white; stroke-width:1; stroke:black; " description="&lt;b&gt;CCIMNIEH_2326822&lt;/b&gt;&lt;br&gt;unannotated protein&lt;br&gt;Location: 8991 - 9621" locus_tag="CCIMNIEH_2326822" class="clusterblast-orf" id="subclusterblast-1_q5_0_all"  />
<polygon points="458,40 460,40 465,35 460,30 458,30 458,40 " style="fill:white; stroke-width:1; stroke:black; " description="&lt;b&gt;CCIMNIEH_2326823&lt;/b&gt;&lt;br&gt;unannotated protein&lt;br&gt;Location: 9789 - 9927" locus_tag="CCIMNIEH_2326823" class="clusterblast-orf" id="subclusterblast-1_q6_0_all"  />
<polygon points="466,40 494,40 499,35 494,30 466,30 466,40 " style="fill:white; stroke-width:1; stroke:black; " description="&lt;b&gt;CCIMNIEH_2326824&lt;/b&gt;&lt;br&gt;unannotated protein&lt;br&gt;Location: 9960 - 10653" locus_tag="CCIMNIEH_2326824" class="clusterblast-orf" id="subclusterblast-1_q7_0_all"  />
<polygon points="499,40 576,40 581,35 576,30 499,30 499,40 " style="fill:white; stroke-width:1; stroke:black; " description="&lt;b&gt;CCIMNIEH_2326825&lt;/b&gt;&lt;br&gt;unannotated protein&lt;br&gt;Location: 10652 - 12401" locus_tag="CCIMNIEH_2326825" class="clusterblast-orf" id="subclusterblast-1_q8_0_all"  />
<polygon points="580,35 585,30 679,30 679,40 585,40 580,35 " style="fill:white; stroke-width:1; stroke:black; " description="&lt;b&gt;CCIMNIEH_2326826&lt;/b&gt;&lt;br&gt;unannotated protein&lt;br&gt;Location: 12391 - 14497" locus_tag="CCIMNIEH_2326826" class="clusterblast-orf" id="subclusterblast-1_q9_0_all"  />
<polygon points="681,35 686,30 780,30 780,40 686,40 681,35 " style="fill:white; stroke-width:1; stroke:black; " description="&lt;b&gt;CCIMNIEH_2326827&lt;/b&gt;&lt;br&gt;unannotated protein&lt;br&gt;Location: 14550 - 16653" locus_tag="CCIMNIEH_2326827" class="clusterblast-orf" id="subclusterblast-1_q10_0_all"  />
</g>
</svg>
