<svg xmlns="http://www.w3.org/2000/svg" xmlns:xlink="http://www.w3.org/1999/xlink" version="1.1" x="0" y="0" height="50" width="800" viewBox="0 0 800 50" preserveAspectRatio="none"  >
<g label="Query sequence" class="clusterblast-cluster"  >
<text x="5" y="20" class="clusterblast-acc"  >
Query sequence</text>
<line x1="10" y1="35" x2="778.0" y2="35" style="stroke-width:1; stroke:grey; "  />
<polygon points="0,40 7,40 12,35 7,30 0,30 0,40 " style="fill:white; stroke-width:1; stroke:black; " description="&lt;b&gt;CCIMNIEH_1889596&lt;/b&gt;&lt;br&gt;unannotated protein&lt;br&gt;Location: 48246 - 48567" locus_tag="CCIMNIEH_1889596" class="clusterblast-orf" id="subclusterblast-1_q0_0_all"  />
<polygon points="22,40 31,40 36,35 31,30 22,30 22,40 " style="fill:white; stroke-width:1; stroke:black; " description="&lt;b&gt;CCIMNIEH_1889597&lt;/b&gt;&lt;br&gt;unannotated protein&lt;br&gt;Location: 48809 - 49181" locus_tag="CCIMNIEH_1889597" class="clusterblast-orf" id="subclusterblast-1_q1_0_all"  />
<polygon points="36,40 37,40 42,35 37,30 36,30 36,40 " style="fill:white; stroke-width:1; stroke:black; " description="&lt;b&gt;CCIMNIEH_1889598&lt;/b&gt;&lt;br&gt;unannotated protein&lt;br&gt;Location: 49177 - 49330" locus_tag="CCIMNIEH_1889598" class="clusterblast-orf" id="subclusterblast-1_q2_0_all"  />
<polygon points="47,35 52,30 115,30 115,40 52,40 47,35 " style="fill:white; stroke-width:1; stroke:black; " description="&lt;b&gt;CCIMNIEH_1889599&lt;/b&gt;&lt;br&gt;unannotated protein&lt;br&gt;Location: 49476 - 51231" locus_tag="CCIMNIEH_1889599" class="clusterblast-orf" id="subclusterblast-1_q3_0_all"  />
<polygon points="119,35 124,30 154,30 154,40 124,40 119,35 " style="fill:white; stroke-width:1; stroke:black; " description="&lt;b&gt;CCIMNIEH_1889600&lt;/b&gt;&lt;br&gt;unannotated protein&lt;br&gt;Location: 51331 - 52222" locus_tag="CCIMNIEH_1889600" class="clusterblast-orf" id="subclusterblast-1_q4_0_all"  />
<polygon points="161,35 166,30 208,30 208,40 166,40 161,35 " style="fill:white; stroke-width:1; stroke:black; " description="&lt;b&gt;CCIMNIEH_1889601&lt;/b&gt;&lt;br&gt;unannotated protein&lt;br&gt;Location: 52423 - 53635" locus_tag="CCIMNIEH_1889601" class="clusterblast-orf" id="subclusterblast-1_q5_0_all"  />
<polygon points="216,35 221,30 277,30 277,40 221,40 216,35 " style="fill:white; stroke-width:1; stroke:black; " description="&lt;b&gt;CCIMNIEH_1889602&lt;/b&gt;&lt;br&gt;unannotated protein&lt;br&gt;Location: 53834 - 55412" locus_tag="CCIMNIEH_1889602" class="clusterblast-orf" id="subclusterblast-1_q6_0_all"  />
<polygon points="284,35 289,30 342,30 342,40 289,40 284,35 " style="fill:white; stroke-width:1; stroke:black; " description="&lt;b&gt;CCIMNIEH_1889603&lt;/b&gt;&lt;br&gt;unannotated protein&lt;br&gt;Location: 55600 - 57097" locus_tag="CCIMNIEH_1889603" class="clusterblast-orf" id="subclusterblast-1_q7_0_all"  />
<polygon points="342,35 347,30 351,30 351,40 347,40 342,35 " style="fill:white; stroke-width:1; stroke:black; " description="&lt;b&gt;CCIMNIEH_1889604&lt;/b&gt;&lt;br&gt;unannotated protein&lt;br&gt;Location: 57093 - 57318" locus_tag="CCIMNIEH_1889604" class="clusterblast-orf" id="subclusterblast-1_q8_0_all"  />
<polygon points="354,40 367,40 372,35 367,30 354,30 354,40 " style="fill:white; stroke-width:1; stroke:black; " description="&lt;b&gt;CCIMNIEH_1889605&lt;/b&gt;&lt;br&gt;unannotated protein&lt;br&gt;Location: 57417 - 57876" locus_tag="CCIMNIEH_1889605" class="clusterblast-orf" id="subclusterblast-1_q9_0_all"  />
<polygon points="379,35 384,30 407,30 407,40 384,40 379,35 " style="fill:white; stroke-width:1; stroke:black; " description="&lt;b&gt;CCIMNIEH_1889606&lt;/b&gt;&lt;br&gt;unannotated protein&lt;br&gt;Location: 58066 - 58774" locus_tag="CCIMNIEH_1889606" class="clusterblast-orf" id="subclusterblast-1_q10_0_all"  />
<polygon points="406,35 411,30 416,30 416,40 411,40 406,35 " style="fill:white; stroke-width:1; stroke:black; " description="&lt;b&gt;CCIMNIEH_1889607&lt;/b&gt;&lt;br&gt;unannotated protein&lt;br&gt;Location: 58760 - 59000" locus_tag="CCIMNIEH_1889607" class="clusterblast-orf" id="subclusterblast-1_q11_0_all"  />
<polygon points="425,35 430,30 436,30 436,40 430,40 425,35 " style="fill:white; stroke-width:1; stroke:black; " description="&lt;b&gt;CCIMNIEH_1889608&lt;/b&gt;&lt;br&gt;unannotated protein&lt;br&gt;Location: 59252 - 59522" locus_tag="CCIMNIEH_1889608" class="clusterblast-orf" id="subclusterblast-1_q12_0_all"  />
<polygon points="501,35 506,30 552,30 552,40 506,40 501,35 " style="fill:white; stroke-width:1; stroke:black; " description="&lt;b&gt;CCIMNIEH_1889609&lt;/b&gt;&lt;br&gt;unannotated protein&lt;br&gt;Location: 61212 - 62529" locus_tag="CCIMNIEH_1889609" class="clusterblast-orf" id="subclusterblast-1_q13_0_all"  />
<polygon points="557,35 562,30 597,30 597,40 562,40 557,35 " style="fill:white; stroke-width:1; stroke:black; " description="&lt;b&gt;CCIMNIEH_1889610&lt;/b&gt;&lt;br&gt;unannotated protein&lt;br&gt;Location: 62653 - 63688" locus_tag="CCIMNIEH_1889610" class="clusterblast-orf" id="subclusterblast-1_q14_0_all"  />
<polygon points="597,35 602,30 648,30 648,40 602,40 597,35 " style="fill:white; stroke-width:1; stroke:black; " description="&lt;b&gt;CCIMNIEH_1889611&lt;/b&gt;&lt;br&gt;unannotated protein&lt;br&gt;Location: 63684 - 65019" locus_tag="CCIMNIEH_1889611" class="clusterblast-orf" id="subclusterblast-1_q15_0_all"  />
<polygon points="663,40 689,40 694,35 689,30 663,30 663,40 " style="fill:white; stroke-width:1; stroke:black; " description="&lt;b&gt;CCIMNIEH_1889612&lt;/b&gt;&lt;br&gt;unannotated protein&lt;br&gt;Location: 65396 - 66203" locus_tag="CCIMNIEH_1889612" class="clusterblast-orf" id="subclusterblast-1_q16_0_all"  />
<polygon points="718,40 722,40 727,35 722,30 718,30 718,40 " style="fill:white; stroke-width:1; stroke:black; " description="&lt;b&gt;CCIMNIEH_1889613&lt;/b&gt;&lt;br&gt;unannotated protein&lt;br&gt;Location: 66816 - 67059" locus_tag="CCIMNIEH_1889613" class="clusterblast-orf" id="subclusterblast-1_q17_0_all"  />
<polygon points="735,40 775,40 780,35 775,30 735,30 735,40 " style="fill:white; stroke-width:1; stroke:black; " description="&lt;b&gt;CCIMNIEH_1889614&lt;/b&gt;&lt;br&gt;unannotated protein&lt;br&gt;Location: 67267 - 68428" locus_tag="CCIMNIEH_1889614" class="clusterblast-orf" id="subclusterblast-1_q18_0_all"  />
</g>
</svg>
