<svg xmlns="http://www.w3.org/2000/svg" xmlns:xlink="http://www.w3.org/1999/xlink" version="1.1" x="0" y="0" height="50" width="800" viewBox="0 0 800 50" preserveAspectRatio="none"  >
<g label="Query sequence" class="clusterblast-cluster"  >
<text x="5" y="20" class="clusterblast-acc"  >
Query sequence</text>
<line x1="10" y1="35" x2="778.0" y2="35" style="stroke-width:1; stroke:grey; "  />
<polygon points="0,40 45,40 50,35 45,30 0,30 0,40 " style="fill:white; stroke-width:1; stroke:black; " description="&lt;b&gt;CCIMNIEH_2895918&lt;/b&gt;&lt;br&gt;unannotated protein&lt;br&gt;Location: 1 - 1147" locus_tag="CCIMNIEH_2895918" class="clusterblast-orf" id="subclusterblast-1_q0_0_all"  />
<polygon points="56,40 84,40 89,35 84,30 56,30 56,40 " style="fill:white; stroke-width:1; stroke:black; " description="&lt;b&gt;CCIMNIEH_2895919&lt;/b&gt;&lt;br&gt;unannotated protein&lt;br&gt;Location: 1278 - 2013" locus_tag="CCIMNIEH_2895919" class="clusterblast-orf" id="subclusterblast-1_q1_0_all"  />
<polygon points="88,40 125,40 130,35 125,30 88,30 88,40 " style="fill:white; stroke-width:1; stroke:black; " description="&lt;b&gt;CCIMNIEH_2895920&lt;/b&gt;&lt;br&gt;unannotated protein&lt;br&gt;Location: 2009 - 2951" locus_tag="CCIMNIEH_2895920" class="clusterblast-orf" id="subclusterblast-1_q2_0_all"  />
<polygon points="129,40 192,40 197,35 192,30 129,30 129,40 " style="fill:white; stroke-width:1; stroke:black; " description="&lt;b&gt;CCIMNIEH_2895921&lt;/b&gt;&lt;br&gt;unannotated protein&lt;br&gt;Location: 2931 - 4476" locus_tag="CCIMNIEH_2895921" class="clusterblast-orf" id="subclusterblast-1_q3_0_all"  />
<polygon points="197,40 211,40 216,35 211,30 197,30 197,40 " style="fill:white; stroke-width:1; stroke:black; " description="&lt;b&gt;CCIMNIEH_2895922&lt;/b&gt;&lt;br&gt;unannotated protein&lt;br&gt;Location: 4468 - 4894" locus_tag="CCIMNIEH_2895922" class="clusterblast-orf" id="subclusterblast-1_q4_0_all"  />
<polygon points="216,40 242,40 247,35 242,30 216,30 216,40 " style="fill:white; stroke-width:1; stroke:black; " description="&lt;b&gt;CCIMNIEH_2895923&lt;/b&gt;&lt;br&gt;unannotated protein&lt;br&gt;Location: 4890 - 5610" locus_tag="CCIMNIEH_2895923" class="clusterblast-orf" id="subclusterblast-1_q5_0_all"  />
<polygon points="247,40 345,40 350,35 345,30 247,30 247,40 " style="fill:white; stroke-width:1; stroke:black; " description="&lt;b&gt;CCIMNIEH_2895924&lt;/b&gt;&lt;br&gt;unannotated protein&lt;br&gt;Location: 5593 - 7933" locus_tag="CCIMNIEH_2895924" class="clusterblast-orf" id="subclusterblast-1_q6_0_all"  />
<polygon points="350,40 396,40 401,35 396,30 350,30 350,40 " style="fill:white; stroke-width:1; stroke:black; " description="&lt;b&gt;CCIMNIEH_2895925&lt;/b&gt;&lt;br&gt;unannotated protein&lt;br&gt;Location: 7929 - 9090" locus_tag="CCIMNIEH_2895925" class="clusterblast-orf" id="subclusterblast-1_q7_0_all"  />
<polygon points="400,40 450,40 455,35 450,30 400,30 400,40 " style="fill:white; stroke-width:1; stroke:black; " description="&lt;b&gt;CCIMNIEH_2895926&lt;/b&gt;&lt;br&gt;unannotated protein&lt;br&gt;Location: 9076 - 10324" locus_tag="CCIMNIEH_2895926" class="clusterblast-orf" id="subclusterblast-1_q8_0_all"  />
<polygon points="455,40 482,40 487,35 482,30 455,30 455,40 " style="fill:white; stroke-width:1; stroke:black; " description="&lt;b&gt;CCIMNIEH_2895927&lt;/b&gt;&lt;br&gt;unannotated protein&lt;br&gt;Location: 10320 - 11046" locus_tag="CCIMNIEH_2895927" class="clusterblast-orf" id="subclusterblast-1_q9_0_all"  />
<polygon points="487,40 509,40 514,35 509,30 487,30 487,40 " style="fill:white; stroke-width:1; stroke:black; " description="&lt;b&gt;CCIMNIEH_2895928&lt;/b&gt;&lt;br&gt;unannotated protein&lt;br&gt;Location: 11045 - 11663" locus_tag="CCIMNIEH_2895928" class="clusterblast-orf" id="subclusterblast-1_q10_0_all"  />
<polygon points="514,40 562,40 567,35 562,30 514,30 514,40 " style="fill:white; stroke-width:1; stroke:black; " description="&lt;b&gt;CCIMNIEH_2895929&lt;/b&gt;&lt;br&gt;unannotated protein&lt;br&gt;Location: 11659 - 12856" locus_tag="CCIMNIEH_2895929" class="clusterblast-orf" id="subclusterblast-1_q11_0_all"  />
<polygon points="567,40 583,40 588,35 583,30 567,30 567,40 " style="fill:white; stroke-width:1; stroke:black; " description="&lt;b&gt;CCIMNIEH_2895930&lt;/b&gt;&lt;br&gt;unannotated protein&lt;br&gt;Location: 12852 - 13326" locus_tag="CCIMNIEH_2895930" class="clusterblast-orf" id="subclusterblast-1_q12_0_all"  />
<polygon points="587,40 614,40 619,35 614,30 587,30 587,40 " style="fill:white; stroke-width:1; stroke:black; " description="&lt;b&gt;CCIMNIEH_2895931&lt;/b&gt;&lt;br&gt;unannotated protein&lt;br&gt;Location: 13322 - 14051" locus_tag="CCIMNIEH_2895931" class="clusterblast-orf" id="subclusterblast-1_q13_0_all"  />
<polygon points="619,40 669,40 674,35 669,30 619,30 619,40 " style="fill:white; stroke-width:1; stroke:black; " description="&lt;b&gt;CCIMNIEH_2895932&lt;/b&gt;&lt;br&gt;unannotated protein&lt;br&gt;Location: 14050 - 15277" locus_tag="CCIMNIEH_2895932" class="clusterblast-orf" id="subclusterblast-1_q14_0_all"  />
<polygon points="679,35 684,30 691,30 691,40 684,40 679,35 " style="fill:white; stroke-width:1; stroke:black; " description="&lt;b&gt;CCIMNIEH_2895933&lt;/b&gt;&lt;br&gt;unannotated protein&lt;br&gt;Location: 15410 - 15674" locus_tag="CCIMNIEH_2895933" class="clusterblast-orf" id="subclusterblast-1_q15_0_all"  />
<polygon points="712,35 717,30 732,30 732,40 717,40 712,35 " style="fill:white; stroke-width:1; stroke:black; " description="&lt;b&gt;CCIMNIEH_2895934&lt;/b&gt;&lt;br&gt;unannotated protein&lt;br&gt;Location: 16154 - 16598" locus_tag="CCIMNIEH_2895934" class="clusterblast-orf" id="subclusterblast-1_q16_0_all"  />
<polygon points="740,35 745,30 780,30 780,40 745,40 740,35 " style="fill:white; stroke-width:1; stroke:black; " description="&lt;b&gt;CCIMNIEH_2895935&lt;/b&gt;&lt;br&gt;unannotated protein&lt;br&gt;Location: 16787 - 17690" locus_tag="CCIMNIEH_2895935" class="clusterblast-orf" id="subclusterblast-1_q17_0_all"  />
</g>
</svg>
