<svg xmlns="http://www.w3.org/2000/svg" xmlns:xlink="http://www.w3.org/1999/xlink" version="1.1" x="0" y="0" height="50" width="800" viewBox="0 0 800 50" preserveAspectRatio="none"  >
<g label="Query sequence" class="clusterblast-cluster"  >
<text x="5" y="20" class="clusterblast-acc"  >
Query sequence</text>
<line x1="10" y1="35" x2="778.0" y2="35" style="stroke-width:1; stroke:grey; "  />
<polygon points="0,35 5,30 50,30 50,40 5,40 0,35 " style="fill:white; stroke-width:1; stroke:black; " description="&lt;b&gt;CCIMNIEH_2132536&lt;/b&gt;&lt;br&gt;unannotated protein&lt;br&gt;Location: 0 - 1377" locus_tag="CCIMNIEH_2132536" class="clusterblast-orf" id="subclusterblast-1_q0_0_all"  />
<polygon points="50,35 55,30 76,30 76,40 55,40 50,35 " style="fill:white; stroke-width:1; stroke:black; " description="&lt;b&gt;CCIMNIEH_2132537&lt;/b&gt;&lt;br&gt;unannotated protein&lt;br&gt;Location: 1373 - 2081" locus_tag="CCIMNIEH_2132537" class="clusterblast-orf" id="subclusterblast-1_q1_0_all"  />
<polygon points="76,35 81,30 104,30 104,40 81,40 76,35 " style="fill:white; stroke-width:1; stroke:black; " description="&lt;b&gt;CCIMNIEH_2132538&lt;/b&gt;&lt;br&gt;unannotated protein&lt;br&gt;Location: 2077 - 2866" locus_tag="CCIMNIEH_2132538" class="clusterblast-orf" id="subclusterblast-1_q2_0_all"  />
<polygon points="105,35 110,30 220,30 220,40 110,40 105,35 " style="fill:white; stroke-width:1; stroke:black; " description="&lt;b&gt;CCIMNIEH_2132539&lt;/b&gt;&lt;br&gt;unannotated protein&lt;br&gt;Location: 2883 - 6030" locus_tag="CCIMNIEH_2132539" class="clusterblast-orf" id="subclusterblast-1_q3_0_all"  />
<polygon points="221,35 226,30 392,30 392,40 226,40 221,35 " style="fill:white; stroke-width:1; stroke:black; " description="&lt;b&gt;CCIMNIEH_2132540&lt;/b&gt;&lt;br&gt;unannotated protein&lt;br&gt;Location: 6074 - 10736" locus_tag="CCIMNIEH_2132540" class="clusterblast-orf" id="subclusterblast-1_q4_0_all"  />
<polygon points="391,35 396,30 513,30 513,40 396,40 391,35 " style="fill:white; stroke-width:1; stroke:black; " description="&lt;b&gt;CCIMNIEH_2132541&lt;/b&gt;&lt;br&gt;unannotated protein&lt;br&gt;Location: 10732 - 14068" locus_tag="CCIMNIEH_2132541" class="clusterblast-orf" id="subclusterblast-1_q5_0_all"  />
<polygon points="514,35 519,30 589,30 589,40 519,40 514,35 " style="fill:white; stroke-width:1; stroke:black; " description="&lt;b&gt;CCIMNIEH_2132542&lt;/b&gt;&lt;br&gt;unannotated protein&lt;br&gt;Location: 14089 - 16150" locus_tag="CCIMNIEH_2132542" class="clusterblast-orf" id="subclusterblast-1_q6_0_all"  />
<polygon points="590,35 595,30 617,30 617,40 595,40 590,35 " style="fill:white; stroke-width:1; stroke:black; " description="&lt;b&gt;CCIMNIEH_2132543&lt;/b&gt;&lt;br&gt;unannotated protein&lt;br&gt;Location: 16163 - 16913" locus_tag="CCIMNIEH_2132543" class="clusterblast-orf" id="subclusterblast-1_q7_0_all"  />
<polygon points="618,35 623,30 661,30 661,40 623,40 618,35 " style="fill:white; stroke-width:1; stroke:black; " description="&lt;b&gt;CCIMNIEH_2132544&lt;/b&gt;&lt;br&gt;unannotated protein&lt;br&gt;Location: 16942 - 18133" locus_tag="CCIMNIEH_2132544" class="clusterblast-orf" id="subclusterblast-1_q8_0_all"  />
<polygon points="662,35 667,30 709,30 709,40 667,40 662,35 " style="fill:white; stroke-width:1; stroke:black; " description="&lt;b&gt;CCIMNIEH_2132545&lt;/b&gt;&lt;br&gt;unannotated protein&lt;br&gt;Location: 18151 - 19435" locus_tag="CCIMNIEH_2132545" class="clusterblast-orf" id="subclusterblast-1_q9_0_all"  />
<polygon points="709,35 714,30 727,30 727,40 714,40 709,35 " style="fill:white; stroke-width:1; stroke:black; " description="&lt;b&gt;CCIMNIEH_2132546&lt;/b&gt;&lt;br&gt;unannotated protein&lt;br&gt;Location: 19444 - 19927" locus_tag="CCIMNIEH_2132546" class="clusterblast-orf" id="subclusterblast-1_q10_0_all"  />
<polygon points="728,35 733,30 740,30 740,40 733,40 728,35 " style="fill:white; stroke-width:1; stroke:black; " description="&lt;b&gt;CCIMNIEH_2132547&lt;/b&gt;&lt;br&gt;unannotated protein&lt;br&gt;Location: 19956 - 20286" locus_tag="CCIMNIEH_2132547" class="clusterblast-orf" id="subclusterblast-1_q11_0_all"  />
<polygon points="745,35 750,30 751,30 751,40 750,40 745,35 " style="fill:white; stroke-width:1; stroke:black; " description="&lt;b&gt;CCIMNIEH_2132548&lt;/b&gt;&lt;br&gt;unannotated protein&lt;br&gt;Location: 20411 - 20582" locus_tag="CCIMNIEH_2132548" class="clusterblast-orf" id="subclusterblast-1_q12_0_all"  />
<polygon points="762,40 770,40 775,35 770,30 762,30 762,40 " style="fill:white; stroke-width:1; stroke:black; " description="&lt;b&gt;CCIMNIEH_2132549&lt;/b&gt;&lt;br&gt;unannotated protein&lt;br&gt;Location: 20900 - 21257" locus_tag="CCIMNIEH_2132549" class="clusterblast-orf" id="subclusterblast-1_q13_0_all"  />
<polygon points="774,40 775,40 780,35 775,30 774,30 774,40 " style="fill:white; stroke-width:1; stroke:black; " description="&lt;b&gt;CCIMNIEH_2132550&lt;/b&gt;&lt;br&gt;unannotated protein&lt;br&gt;Location: 21210 - 21378" locus_tag="CCIMNIEH_2132550" class="clusterblast-orf" id="subclusterblast-1_q14_0_all"  />
</g>
</svg>
