<svg xmlns="http://www.w3.org/2000/svg" xmlns:xlink="http://www.w3.org/1999/xlink" version="1.1" x="0" y="0" height="50" width="800" viewBox="0 0 800 50" preserveAspectRatio="none"  >
<g label="Query sequence" class="clusterblast-cluster"  >
<text x="5" y="20" class="clusterblast-acc"  >
Query sequence</text>
<line x1="10" y1="35" x2="778.0" y2="35" style="stroke-width:1; stroke:grey; "  />
<polygon points="0,35 2,30 2,40 0,35 " style="fill:white; stroke-width:1; stroke:black; " description="&lt;b&gt;CCIMNIEH_1239690&lt;/b&gt;&lt;br&gt;unannotated protein&lt;br&gt;Location: 1 - 61" locus_tag="CCIMNIEH_1239690" class="clusterblast-orf" id="subclusterblast-1_q0_0_all"  />
<polygon points="6,35 11,30 42,30 42,40 11,40 6,35 " style="fill:white; stroke-width:1; stroke:black; " description="&lt;b&gt;CCIMNIEH_1239691&lt;/b&gt;&lt;br&gt;unannotated protein&lt;br&gt;Location: 194 - 1355" locus_tag="CCIMNIEH_1239691" class="clusterblast-orf" id="subclusterblast-1_q1_0_all"  />
<polygon points="47,35 52,30 80,30 80,40 52,40 47,35 " style="fill:white; stroke-width:1; stroke:black; " description="&lt;b&gt;CCIMNIEH_1239692&lt;/b&gt;&lt;br&gt;unannotated protein&lt;br&gt;Location: 1500 - 2559" locus_tag="CCIMNIEH_1239692" class="clusterblast-orf" id="subclusterblast-1_q2_0_all"  />
<polygon points="80,35 85,30 191,30 191,40 85,40 80,35 " style="fill:white; stroke-width:1; stroke:black; " description="&lt;b&gt;CCIMNIEH_1239693&lt;/b&gt;&lt;br&gt;unannotated protein&lt;br&gt;Location: 2576 - 6119" locus_tag="CCIMNIEH_1239693" class="clusterblast-orf" id="subclusterblast-1_q3_0_all"  />
<polygon points="201,35 206,30 223,30 223,40 206,40 201,35 " style="fill:white; stroke-width:1; stroke:black; " description="&lt;b&gt;CCIMNIEH_1239694&lt;/b&gt;&lt;br&gt;unannotated protein&lt;br&gt;Location: 6447 - 7137" locus_tag="CCIMNIEH_1239694" class="clusterblast-orf" id="subclusterblast-1_q4_0_all"  />
<polygon points="238,40 310,40 315,35 310,30 238,30 238,40 " style="fill:white; stroke-width:1; stroke:black; " description="&lt;b&gt;CCIMNIEH_1239695&lt;/b&gt;&lt;br&gt;unannotated protein&lt;br&gt;Location: 7626 - 10092" locus_tag="CCIMNIEH_1239695" class="clusterblast-orf" id="subclusterblast-1_q5_0_all"  />
<polygon points="319,35 324,30 362,30 362,40 324,40 319,35 " style="fill:white; stroke-width:1; stroke:black; " description="&lt;b&gt;CCIMNIEH_1239696&lt;/b&gt;&lt;br&gt;unannotated protein&lt;br&gt;Location: 10220 - 11585" locus_tag="CCIMNIEH_1239696" class="clusterblast-orf" id="subclusterblast-1_q6_0_all"  />
<polygon points="365,35 370,30 393,30 393,40 370,40 365,35 " style="fill:white; stroke-width:1; stroke:black; " description="&lt;b&gt;CCIMNIEH_1239697&lt;/b&gt;&lt;br&gt;unannotated protein&lt;br&gt;Location: 11685 - 12579" locus_tag="CCIMNIEH_1239697" class="clusterblast-orf" id="subclusterblast-1_q7_0_all"  />
<polygon points="403,40 434,40 439,35 434,30 403,30 403,40 " style="fill:white; stroke-width:1; stroke:black; " description="&lt;b&gt;CCIMNIEH_1239698&lt;/b&gt;&lt;br&gt;unannotated protein&lt;br&gt;Location: 12914 - 14081" locus_tag="CCIMNIEH_1239698" class="clusterblast-orf" id="subclusterblast-1_q8_0_all"  />
<polygon points="439,40 469,40 474,35 469,30 439,30 439,40 " style="fill:white; stroke-width:1; stroke:black; " description="&lt;b&gt;CCIMNIEH_1239699&lt;/b&gt;&lt;br&gt;unannotated protein&lt;br&gt;Location: 14080 - 15202" locus_tag="CCIMNIEH_1239699" class="clusterblast-orf" id="subclusterblast-1_q9_0_all"  />
<polygon points="474,40 494,40 499,35 494,30 474,30 474,40 " style="fill:white; stroke-width:1; stroke:black; " description="&lt;b&gt;CCIMNIEH_1239700&lt;/b&gt;&lt;br&gt;unannotated protein&lt;br&gt;Location: 15198 - 15987" locus_tag="CCIMNIEH_1239700" class="clusterblast-orf" id="subclusterblast-1_q10_0_all"  />
<polygon points="499,35 504,30 506,30 506,40 504,40 499,35 " style="fill:white; stroke-width:1; stroke:black; " description="&lt;b&gt;CCIMNIEH_1239701&lt;/b&gt;&lt;br&gt;unannotated protein&lt;br&gt;Location: 15994 - 16204" locus_tag="CCIMNIEH_1239701" class="clusterblast-orf" id="subclusterblast-1_q11_0_all"  />
<polygon points="510,35 515,30 557,30 557,40 515,40 510,35 " style="fill:white; stroke-width:1; stroke:black; " description="&lt;b&gt;CCIMNIEH_1239702&lt;/b&gt;&lt;br&gt;unannotated protein&lt;br&gt;Location: 16342 - 17833" locus_tag="CCIMNIEH_1239702" class="clusterblast-orf" id="subclusterblast-1_q12_0_all"  />
<polygon points="558,35 563,30 576,30 576,40 563,40 558,35 " style="fill:white; stroke-width:1; stroke:black; " description="&lt;b&gt;CCIMNIEH_1239703&lt;/b&gt;&lt;br&gt;unannotated protein&lt;br&gt;Location: 17868 - 18459" locus_tag="CCIMNIEH_1239703" class="clusterblast-orf" id="subclusterblast-1_q13_0_all"  />
<polygon points="576,35 581,30 593,30 593,40 581,40 576,35 " style="fill:white; stroke-width:1; stroke:black; " description="&lt;b&gt;CCIMNIEH_1239704&lt;/b&gt;&lt;br&gt;unannotated protein&lt;br&gt;Location: 18446 - 18998" locus_tag="CCIMNIEH_1239704" class="clusterblast-orf" id="subclusterblast-1_q14_0_all"  />
<polygon points="596,40 620,40 625,35 620,30 596,30 596,40 " style="fill:white; stroke-width:1; stroke:black; " description="&lt;b&gt;CCIMNIEH_1239705&lt;/b&gt;&lt;br&gt;unannotated protein&lt;br&gt;Location: 19109 - 20036" locus_tag="CCIMNIEH_1239705" class="clusterblast-orf" id="subclusterblast-1_q15_0_all"  />
<polygon points="629,40 662,40 667,35 662,30 629,30 629,40 " style="fill:white; stroke-width:1; stroke:black; " description="&lt;b&gt;CCIMNIEH_1239706&lt;/b&gt;&lt;br&gt;unannotated protein&lt;br&gt;Location: 20167 - 21370" locus_tag="CCIMNIEH_1239706" class="clusterblast-orf" id="subclusterblast-1_q16_0_all"  />
<polygon points="667,40 690,40 695,35 690,30 667,30 667,40 " style="fill:white; stroke-width:1; stroke:black; " description="&lt;b&gt;CCIMNIEH_1239707&lt;/b&gt;&lt;br&gt;unannotated protein&lt;br&gt;Location: 21366 - 22260" locus_tag="CCIMNIEH_1239707" class="clusterblast-orf" id="subclusterblast-1_q17_0_all"  />
<polygon points="698,35 703,30 753,30 753,40 703,40 698,35 " style="fill:white; stroke-width:1; stroke:black; " description="&lt;b&gt;CCIMNIEH_1239708&lt;/b&gt;&lt;br&gt;unannotated protein&lt;br&gt;Location: 22347 - 24135" locus_tag="CCIMNIEH_1239708" class="clusterblast-orf" id="subclusterblast-1_q18_0_all"  />
<polygon points="761,40 775,40 780,35 775,30 761,30 761,40 " style="fill:white; stroke-width:1; stroke:black; " description="&lt;b&gt;CCIMNIEH_1239709&lt;/b&gt;&lt;br&gt;unannotated protein&lt;br&gt;Location: 24384 - 24981" locus_tag="CCIMNIEH_1239709" class="clusterblast-orf" id="subclusterblast-1_q19_0_all"  />
</g>
</svg>
