<svg xmlns="http://www.w3.org/2000/svg" xmlns:xlink="http://www.w3.org/1999/xlink" version="1.1" x="0" y="0" height="50" width="800" viewBox="0 0 800 50" preserveAspectRatio="none"  >
<g label="Query sequence" class="clusterblast-cluster"  >
<text x="5" y="20" class="clusterblast-acc"  >
Query sequence</text>
<line x1="10" y1="35" x2="778.0" y2="35" style="stroke-width:1; stroke:grey; "  />
<polygon points="0,40 44,40 49,35 44,30 0,30 0,40 " style="fill:white; stroke-width:1; stroke:black; " description="&lt;b&gt;CCIMNIEH_341692&lt;/b&gt;&lt;br&gt;unannotated protein&lt;br&gt;Location: 10644 - 11988" locus_tag="CCIMNIEH_341692" class="clusterblast-orf" id="subclusterblast-1_q0_0_all"  />
<polygon points="51,40 66,40 71,35 66,30 51,30 51,40 " style="fill:white; stroke-width:1; stroke:black; " description="&lt;b&gt;CCIMNIEH_341693&lt;/b&gt;&lt;br&gt;unannotated protein&lt;br&gt;Location: 12022 - 12577" locus_tag="CCIMNIEH_341693" class="clusterblast-orf" id="subclusterblast-1_q1_0_all"  />
<polygon points="72,40 79,40 84,35 79,30 72,30 72,40 " style="fill:white; stroke-width:1; stroke:black; " description="&lt;b&gt;CCIMNIEH_341694&lt;/b&gt;&lt;br&gt;unannotated protein&lt;br&gt;Location: 12595 - 12934" locus_tag="CCIMNIEH_341694" class="clusterblast-orf" id="subclusterblast-1_q2_0_all"  />
<polygon points="91,40 95,40 100,35 95,30 91,30 91,40 " style="fill:white; stroke-width:1; stroke:black; " description="&lt;b&gt;CCIMNIEH_341695&lt;/b&gt;&lt;br&gt;unannotated protein&lt;br&gt;Location: 13116 - 13356" locus_tag="CCIMNIEH_341695" class="clusterblast-orf" id="subclusterblast-1_q3_0_all"  />
<polygon points="110,40 136,40 141,35 136,30 110,30 110,40 " style="fill:white; stroke-width:1; stroke:black; " description="&lt;b&gt;CCIMNIEH_341696&lt;/b&gt;&lt;br&gt;unannotated protein&lt;br&gt;Location: 13628 - 14483" locus_tag="CCIMNIEH_341696" class="clusterblast-orf" id="subclusterblast-1_q4_0_all"  />
<polygon points="144,35 149,30 197,30 197,40 149,40 144,35 " style="fill:white; stroke-width:1; stroke:black; " description="&lt;b&gt;CCIMNIEH_341697&lt;/b&gt;&lt;br&gt;unannotated protein&lt;br&gt;Location: 14561 - 15995" locus_tag="CCIMNIEH_341697" class="clusterblast-orf" id="subclusterblast-1_q5_0_all"  />
<polygon points="205,40 281,40 286,35 281,30 205,30 205,40 " style="fill:white; stroke-width:1; stroke:black; " description="&lt;b&gt;CCIMNIEH_341698&lt;/b&gt;&lt;br&gt;unannotated protein&lt;br&gt;Location: 16231 - 18424" locus_tag="CCIMNIEH_341698" class="clusterblast-orf" id="subclusterblast-1_q6_0_all"  />
<polygon points="298,40 392,40 397,35 392,30 298,30 298,40 " style="fill:white; stroke-width:1; stroke:black; " description="&lt;b&gt;CCIMNIEH_341699&lt;/b&gt;&lt;br&gt;unannotated protein&lt;br&gt;Location: 18737 - 21452" locus_tag="CCIMNIEH_341699" class="clusterblast-orf" id="subclusterblast-1_q7_0_all"  />
<polygon points="398,40 401,40 406,35 401,30 398,30 398,40 " style="fill:white; stroke-width:1; stroke:black; " description="&lt;b&gt;CCIMNIEH_341700&lt;/b&gt;&lt;br&gt;unannotated protein&lt;br&gt;Location: 21462 - 21699" locus_tag="CCIMNIEH_341700" class="clusterblast-orf" id="subclusterblast-1_q8_0_all"  />
<polygon points="404,35 409,30 421,30 421,40 409,40 404,35 " style="fill:white; stroke-width:1; stroke:black; " description="&lt;b&gt;CCIMNIEH_341701&lt;/b&gt;&lt;br&gt;unannotated protein&lt;br&gt;Location: 21625 - 22081" locus_tag="CCIMNIEH_341701" class="clusterblast-orf" id="subclusterblast-1_q9_0_all"  />
<polygon points="427,35 432,30 477,30 477,40 432,40 427,35 " style="fill:white; stroke-width:1; stroke:black; " description="&lt;b&gt;CCIMNIEH_341702&lt;/b&gt;&lt;br&gt;unannotated protein&lt;br&gt;Location: 22258 - 23620" locus_tag="CCIMNIEH_341702" class="clusterblast-orf" id="subclusterblast-1_q10_0_all"  />
<polygon points="478,35 483,30 522,30 522,40 483,40 478,35 " style="fill:white; stroke-width:1; stroke:black; " description="&lt;b&gt;CCIMNIEH_341703&lt;/b&gt;&lt;br&gt;unannotated protein&lt;br&gt;Location: 23648 - 24833" locus_tag="CCIMNIEH_341703" class="clusterblast-orf" id="subclusterblast-1_q11_0_all"  />
<polygon points="522,35 527,30 550,30 550,40 527,40 522,35 " style="fill:white; stroke-width:1; stroke:black; " description="&lt;b&gt;CCIMNIEH_341704&lt;/b&gt;&lt;br&gt;unannotated protein&lt;br&gt;Location: 24841 - 25603" locus_tag="CCIMNIEH_341704" class="clusterblast-orf" id="subclusterblast-1_q12_0_all"  />
<polygon points="551,35 556,30 597,30 597,40 556,40 551,35 " style="fill:white; stroke-width:1; stroke:black; " description="&lt;b&gt;CCIMNIEH_341705&lt;/b&gt;&lt;br&gt;unannotated protein&lt;br&gt;Location: 25620 - 26871" locus_tag="CCIMNIEH_341705" class="clusterblast-orf" id="subclusterblast-1_q13_0_all"  />
<polygon points="597,35 602,30 624,30 624,40 602,40 597,35 " style="fill:white; stroke-width:1; stroke:black; " description="&lt;b&gt;CCIMNIEH_341706&lt;/b&gt;&lt;br&gt;unannotated protein&lt;br&gt;Location: 26873 - 27602" locus_tag="CCIMNIEH_341706" class="clusterblast-orf" id="subclusterblast-1_q14_0_all"  />
<polygon points="623,35 628,30 689,30 689,40 628,40 623,35 " style="fill:white; stroke-width:1; stroke:black; " description="&lt;b&gt;CCIMNIEH_341707&lt;/b&gt;&lt;br&gt;unannotated protein&lt;br&gt;Location: 27598 - 29383" locus_tag="CCIMNIEH_341707" class="clusterblast-orf" id="subclusterblast-1_q15_0_all"  />
<polygon points="689,35 694,30 734,30 734,40 694,40 689,35 " style="fill:white; stroke-width:1; stroke:black; " description="&lt;b&gt;CCIMNIEH_341708&lt;/b&gt;&lt;br&gt;unannotated protein&lt;br&gt;Location: 29382 - 30603" locus_tag="CCIMNIEH_341708" class="clusterblast-orf" id="subclusterblast-1_q16_0_all"  />
<polygon points="734,35 739,30 780,30 780,40 739,40 734,35 " style="fill:white; stroke-width:1; stroke:black; " description="&lt;b&gt;CCIMNIEH_341709&lt;/b&gt;&lt;br&gt;unannotated protein&lt;br&gt;Location: 30614 - 31850" locus_tag="CCIMNIEH_341709" class="clusterblast-orf" id="subclusterblast-1_q17_0_all"  />
</g>
</svg>
