<svg xmlns="http://www.w3.org/2000/svg" xmlns:xlink="http://www.w3.org/1999/xlink" version="1.1" x="0" y="0" height="50" width="800" viewBox="0 0 800 50" preserveAspectRatio="none"  >
<g label="Query sequence" class="clusterblast-cluster"  >
<text x="5" y="20" class="clusterblast-acc"  >
Query sequence</text>
<line x1="10" y1="35" x2="778.0" y2="35" style="stroke-width:1; stroke:grey; "  />
<polygon points="0,40 31,40 36,35 31,30 0,30 0,40 " style="fill:white; stroke-width:1; stroke:black; " description="&lt;b&gt;CCIMNIEH_158584&lt;/b&gt;&lt;br&gt;unannotated protein&lt;br&gt;Location: 330 - 1098" locus_tag="CCIMNIEH_158584" class="clusterblast-orf" id="subclusterblast-1_q0_0_all"  />
<polygon points="45,40 95,40 100,35 95,30 45,30 45,40 " style="fill:white; stroke-width:1; stroke:black; " description="&lt;b&gt;CCIMNIEH_158585&lt;/b&gt;&lt;br&gt;unannotated protein&lt;br&gt;Location: 1302 - 2469" locus_tag="CCIMNIEH_158585" class="clusterblast-orf" id="subclusterblast-1_q1_0_all"  />
<polygon points="125,40 230,40 235,35 230,30 125,30 125,40 " style="fill:white; stroke-width:1; stroke:black; " description="&lt;b&gt;CCIMNIEH_158586&lt;/b&gt;&lt;br&gt;unannotated protein&lt;br&gt;Location: 3006 - 5370" locus_tag="CCIMNIEH_158586" class="clusterblast-orf" id="subclusterblast-1_q2_0_all"  />
<polygon points="243,40 283,40 288,35 283,30 243,30 243,40 " style="fill:white; stroke-width:1; stroke:black; " description="&lt;b&gt;CCIMNIEH_158587&lt;/b&gt;&lt;br&gt;unannotated protein&lt;br&gt;Location: 5532 - 6492" locus_tag="CCIMNIEH_158587" class="clusterblast-orf" id="subclusterblast-1_q3_0_all"  />
<polygon points="302,40 463,40 468,35 463,30 302,30 302,40 " style="fill:white; stroke-width:1; stroke:black; " description="&lt;b&gt;CCIMNIEH_158588&lt;/b&gt;&lt;br&gt;unannotated protein&lt;br&gt;Location: 6794 - 10367" locus_tag="CCIMNIEH_158588" class="clusterblast-orf" id="subclusterblast-1_q4_0_all"  />
<polygon points="472,40 516,40 521,35 516,30 472,30 472,40 " style="fill:white; stroke-width:1; stroke:black; " description="&lt;b&gt;CCIMNIEH_158589&lt;/b&gt;&lt;br&gt;unannotated protein&lt;br&gt;Location: 10443 - 11487" locus_tag="CCIMNIEH_158589" class="clusterblast-orf" id="subclusterblast-1_q5_0_all"  />
<polygon points="524,40 578,40 583,35 578,30 524,30 524,40 " style="fill:white; stroke-width:1; stroke:black; " description="&lt;b&gt;CCIMNIEH_158590&lt;/b&gt;&lt;br&gt;unannotated protein&lt;br&gt;Location: 11562 - 12816" locus_tag="CCIMNIEH_158590" class="clusterblast-orf" id="subclusterblast-1_q6_0_all"  />
<polygon points="581,40 625,40 630,35 625,30 581,30 581,40 " style="fill:white; stroke-width:1; stroke:black; " description="&lt;b&gt;CCIMNIEH_158591&lt;/b&gt;&lt;br&gt;unannotated protein&lt;br&gt;Location: 12778 - 13831" locus_tag="CCIMNIEH_158591" class="clusterblast-orf" id="subclusterblast-1_q7_0_all"  />
<polygon points="671,40 718,40 723,35 718,30 671,30 671,40 " style="fill:white; stroke-width:1; stroke:black; " description="&lt;b&gt;CCIMNIEH_158592&lt;/b&gt;&lt;br&gt;unannotated protein&lt;br&gt;Location: 14713 - 15811" locus_tag="CCIMNIEH_158592" class="clusterblast-orf" id="subclusterblast-1_q8_0_all"  />
<polygon points="723,35 728,30 780,30 780,40 728,40 723,35 " style="fill:white; stroke-width:1; stroke:black; " description="&lt;b&gt;CCIMNIEH_158593&lt;/b&gt;&lt;br&gt;unannotated protein&lt;br&gt;Location: 15816 - 17040" locus_tag="CCIMNIEH_158593" class="clusterblast-orf" id="subclusterblast-1_q9_0_all"  />
</g>
</svg>
