<svg xmlns="http://www.w3.org/2000/svg" xmlns:xlink="http://www.w3.org/1999/xlink" version="1.1" x="0" y="0" height="50" width="800" viewBox="0 0 800 50" preserveAspectRatio="none"  >
<g label="Query sequence" class="clusterblast-cluster"  >
<text x="5" y="20" class="clusterblast-acc"  >
Query sequence</text>
<line x1="10" y1="35" x2="778.0" y2="35" style="stroke-width:1; stroke:grey; "  />
<polygon points="0,35 5,30 68,30 68,40 5,40 0,35 " style="fill:white; stroke-width:1; stroke:black; " description="&lt;b&gt;CCIMNIEH_1397296&lt;/b&gt;&lt;br&gt;unannotated protein&lt;br&gt;Location: 3413 - 4430" locus_tag="CCIMNIEH_1397296" class="clusterblast-orf" id="subclusterblast-1_q0_0_all"  />
<polygon points="68,35 73,30 152,30 152,40 73,40 68,35 " style="fill:white; stroke-width:1; stroke:black; " description="&lt;b&gt;CCIMNIEH_1397297&lt;/b&gt;&lt;br&gt;unannotated protein&lt;br&gt;Location: 4426 - 5686" locus_tag="CCIMNIEH_1397297" class="clusterblast-orf" id="subclusterblast-1_q1_0_all"  />
<polygon points="154,35 159,30 204,30 204,40 159,40 154,35 " style="fill:white; stroke-width:1; stroke:black; " description="&lt;b&gt;CCIMNIEH_1397298&lt;/b&gt;&lt;br&gt;unannotated protein&lt;br&gt;Location: 5718 - 6465" locus_tag="CCIMNIEH_1397298" class="clusterblast-orf" id="subclusterblast-1_q2_0_all"  />
<polygon points="208,40 225,40 230,35 225,30 208,30 208,40 " style="fill:white; stroke-width:1; stroke:black; " description="&lt;b&gt;CCIMNIEH_1397299&lt;/b&gt;&lt;br&gt;unannotated protein&lt;br&gt;Location: 6527 - 6851" locus_tag="CCIMNIEH_1397299" class="clusterblast-orf" id="subclusterblast-1_q3_0_all"  />
<polygon points="239,40 325,40 330,35 325,30 239,30 239,40 " style="fill:white; stroke-width:1; stroke:black; " description="&lt;b&gt;CCIMNIEH_1397300&lt;/b&gt;&lt;br&gt;unannotated protein&lt;br&gt;Location: 6981 - 8340" locus_tag="CCIMNIEH_1397300" class="clusterblast-orf" id="subclusterblast-1_q4_0_all"  />
<polygon points="333,35 338,30 406,30 406,40 338,40 333,35 " style="fill:white; stroke-width:1; stroke:black; " description="&lt;b&gt;CCIMNIEH_1397301&lt;/b&gt;&lt;br&gt;unannotated protein&lt;br&gt;Location: 8383 - 9478" locus_tag="CCIMNIEH_1397301" class="clusterblast-orf" id="subclusterblast-1_q5_0_all"  />
<polygon points="406,35 411,30 452,30 452,40 411,40 406,35 " style="fill:white; stroke-width:1; stroke:black; " description="&lt;b&gt;CCIMNIEH_1397302&lt;/b&gt;&lt;br&gt;unannotated protein&lt;br&gt;Location: 9487 - 10168" locus_tag="CCIMNIEH_1397302" class="clusterblast-orf" id="subclusterblast-1_q6_0_all"  />
<polygon points="452,35 457,30 519,30 519,40 457,40 452,35 " style="fill:white; stroke-width:1; stroke:black; " description="&lt;b&gt;CCIMNIEH_1397303&lt;/b&gt;&lt;br&gt;unannotated protein&lt;br&gt;Location: 10164 - 11172" locus_tag="CCIMNIEH_1397303" class="clusterblast-orf" id="subclusterblast-1_q7_0_all"  />
<polygon points="523,35 528,30 553,30 553,40 528,40 523,35 " style="fill:white; stroke-width:1; stroke:black; " description="&lt;b&gt;CCIMNIEH_1397304&lt;/b&gt;&lt;br&gt;unannotated protein&lt;br&gt;Location: 11231 - 11678" locus_tag="CCIMNIEH_1397304" class="clusterblast-orf" id="subclusterblast-1_q8_0_all"  />
<polygon points="553,35 558,30 630,30 630,40 558,40 553,35 " style="fill:white; stroke-width:1; stroke:black; " description="&lt;b&gt;CCIMNIEH_1397305&lt;/b&gt;&lt;br&gt;unannotated protein&lt;br&gt;Location: 11683 - 12823" locus_tag="CCIMNIEH_1397305" class="clusterblast-orf" id="subclusterblast-1_q9_0_all"  />
<polygon points="632,35 637,30 767,30 767,40 637,40 632,35 " style="fill:white; stroke-width:1; stroke:black; " description="&lt;b&gt;CCIMNIEH_1397306&lt;/b&gt;&lt;br&gt;unannotated protein&lt;br&gt;Location: 12858 - 14883" locus_tag="CCIMNIEH_1397306" class="clusterblast-orf" id="subclusterblast-1_q10_0_all"  />
<polygon points="770,35 775,30 780,30 780,40 775,40 770,35 " style="fill:white; stroke-width:1; stroke:black; " description="&lt;b&gt;CCIMNIEH_1397307&lt;/b&gt;&lt;br&gt;unannotated protein&lt;br&gt;Location: 14915 - 15074" locus_tag="CCIMNIEH_1397307" class="clusterblast-orf" id="subclusterblast-1_q11_0_all"  />
</g>
</svg>
