<svg xmlns="http://www.w3.org/2000/svg" xmlns:xlink="http://www.w3.org/1999/xlink" version="1.1" x="0" y="0" height="50" width="800" viewBox="0 0 800 50" preserveAspectRatio="none"  >
<g label="Query sequence" class="clusterblast-cluster"  >
<text x="5" y="20" class="clusterblast-acc"  >
Query sequence</text>
<line x1="10" y1="35" x2="778.0" y2="35" style="stroke-width:1; stroke:grey; "  />
<polygon points="0,35 5,30 7,30 7,40 5,40 0,35 " style="fill:white; stroke-width:1; stroke:black; " description="&lt;b&gt;CCIMNIEH_99654&lt;/b&gt;&lt;br&gt;unannotated protein&lt;br&gt;Location: 2 - 113" locus_tag="CCIMNIEH_99654" class="clusterblast-orf" id="subclusterblast-1_q0_0_all"  />
<polygon points="7,35 12,30 78,30 78,40 12,40 7,35 " style="fill:white; stroke-width:1; stroke:black; " description="&lt;b&gt;CCIMNIEH_99655&lt;/b&gt;&lt;br&gt;unannotated protein&lt;br&gt;Location: 129 - 1350" locus_tag="CCIMNIEH_99655" class="clusterblast-orf" id="subclusterblast-1_q1_0_all"  />
<polygon points="78,35 83,30 135,30 135,40 83,40 78,35 " style="fill:white; stroke-width:1; stroke:black; " description="&lt;b&gt;CCIMNIEH_99656&lt;/b&gt;&lt;br&gt;unannotated protein&lt;br&gt;Location: 1342 - 2332" locus_tag="CCIMNIEH_99656" class="clusterblast-orf" id="subclusterblast-1_q2_0_all"  />
<polygon points="135,35 140,30 294,30 294,40 140,40 135,35 " style="fill:white; stroke-width:1; stroke:black; " description="&lt;b&gt;CCIMNIEH_99657&lt;/b&gt;&lt;br&gt;unannotated protein&lt;br&gt;Location: 2328 - 5064" locus_tag="CCIMNIEH_99657" class="clusterblast-orf" id="subclusterblast-1_q3_0_all"  />
<polygon points="300,35 305,30 310,30 310,40 305,40 300,35 " style="fill:white; stroke-width:1; stroke:black; " description="&lt;b&gt;CCIMNIEH_99658&lt;/b&gt;&lt;br&gt;unannotated protein&lt;br&gt;Location: 5166 - 5340" locus_tag="CCIMNIEH_99658" class="clusterblast-orf" id="subclusterblast-1_q4_0_all"  />
<polygon points="322,35 327,30 332,30 332,40 327,40 322,35 " style="fill:white; stroke-width:1; stroke:black; " description="&lt;b&gt;CCIMNIEH_99659&lt;/b&gt;&lt;br&gt;unannotated protein&lt;br&gt;Location: 5544 - 5721" locus_tag="CCIMNIEH_99659" class="clusterblast-orf" id="subclusterblast-1_q5_0_all"  />
<polygon points="352,40 380,40 385,35 380,30 352,30 352,40 " style="fill:white; stroke-width:1; stroke:black; " description="&lt;b&gt;CCIMNIEH_99660&lt;/b&gt;&lt;br&gt;unannotated protein&lt;br&gt;Location: 6057 - 6639" locus_tag="CCIMNIEH_99660" class="clusterblast-orf" id="subclusterblast-1_q6_0_all"  />
<polygon points="389,40 406,40 411,35 406,30 389,30 389,40 " style="fill:white; stroke-width:1; stroke:black; " description="&lt;b&gt;CCIMNIEH_99661&lt;/b&gt;&lt;br&gt;unannotated protein&lt;br&gt;Location: 6701 - 7073" locus_tag="CCIMNIEH_99661" class="clusterblast-orf" id="subclusterblast-1_q7_0_all"  />
<polygon points="408,35 413,30 452,30 452,40 413,40 408,35 " style="fill:white; stroke-width:1; stroke:black; " description="&lt;b&gt;CCIMNIEH_99662&lt;/b&gt;&lt;br&gt;unannotated protein&lt;br&gt;Location: 7032 - 7788" locus_tag="CCIMNIEH_99662" class="clusterblast-orf" id="subclusterblast-1_q8_0_all"  />
<polygon points="460,35 465,30 505,30 505,40 465,40 460,35 " style="fill:white; stroke-width:1; stroke:black; " description="&lt;b&gt;CCIMNIEH_99663&lt;/b&gt;&lt;br&gt;unannotated protein&lt;br&gt;Location: 7925 - 8699" locus_tag="CCIMNIEH_99663" class="clusterblast-orf" id="subclusterblast-1_q9_0_all"  />
<polygon points="523,35 528,30 560,30 560,40 528,40 523,35 " style="fill:white; stroke-width:1; stroke:black; " description="&lt;b&gt;CCIMNIEH_99664&lt;/b&gt;&lt;br&gt;unannotated protein&lt;br&gt;Location: 9003 - 9642" locus_tag="CCIMNIEH_99664" class="clusterblast-orf" id="subclusterblast-1_q10_0_all"  />
<polygon points="563,35 568,30 586,30 586,40 568,40 563,35 " style="fill:white; stroke-width:1; stroke:black; " description="&lt;b&gt;CCIMNIEH_99665&lt;/b&gt;&lt;br&gt;unannotated protein&lt;br&gt;Location: 9698 - 10085" locus_tag="CCIMNIEH_99665" class="clusterblast-orf" id="subclusterblast-1_q11_0_all"  />
<polygon points="594,40 634,40 639,35 634,30 594,30 594,40 " style="fill:white; stroke-width:1; stroke:black; " description="&lt;b&gt;CCIMNIEH_99666&lt;/b&gt;&lt;br&gt;unannotated protein&lt;br&gt;Location: 10225 - 11011" locus_tag="CCIMNIEH_99666" class="clusterblast-orf" id="subclusterblast-1_q12_0_all"  />
<polygon points="650,35 655,30 714,30 714,40 655,40 650,35 " style="fill:white; stroke-width:1; stroke:black; " description="&lt;b&gt;CCIMNIEH_99667&lt;/b&gt;&lt;br&gt;unannotated protein&lt;br&gt;Location: 11186 - 12299" locus_tag="CCIMNIEH_99667" class="clusterblast-orf" id="subclusterblast-1_q13_0_all"  />
<polygon points="725,35 730,30 765,30 765,40 730,40 725,35 " style="fill:white; stroke-width:1; stroke:black; " description="&lt;b&gt;CCIMNIEH_99668&lt;/b&gt;&lt;br&gt;unannotated protein&lt;br&gt;Location: 12478 - 13174" locus_tag="CCIMNIEH_99668" class="clusterblast-orf" id="subclusterblast-1_q14_0_all"  />
<polygon points="766,35 771,30 780,30 780,40 771,40 766,35 " style="fill:white; stroke-width:1; stroke:black; " description="&lt;b&gt;CCIMNIEH_99669&lt;/b&gt;&lt;br&gt;unannotated protein&lt;br&gt;Location: 13185 - 13434" locus_tag="CCIMNIEH_99669" class="clusterblast-orf" id="subclusterblast-1_q15_0_all"  />
</g>
</svg>
